<svg xmlns="http://www.w3.org/2000/svg" xmlns:xlink="http://www.w3.org/1999/xlink" viewBox="0 0 178 58"><defs><style>.cls-1{fill:url(#linear-gradient);}.cls-2{fill:#003c55;}</style><linearGradient id="linear-gradient" y1="29" x2="178" y2="29" gradientUnits="userSpaceOnUse"><stop offset="0" stop-color="#bfff00"/><stop offset="0.47" stop-color="#76cf0c"/><stop offset="1" stop-color="#289c19"/></linearGradient></defs><title>Asset 24</title><g id="Layer_2" data-name="Layer 2"><g id="Layer_1-2" data-name="Layer 1"><rect class="cls-1" width="178" height="58"/><path class="cls-2" d="M59.55,22.52h7.83v1.17H61v4h5.7V28.9H61V33h6.35v1.16H59.55Z"/><path class="cls-2" d="M71,34.12H69.54V22.52h1.33l6.61,9.33V22.52H79v11.6H77.61L71,24.81Z"/><path class="cls-2" d="M91.65,22.52l-4.4,11.6H85.53l-4.41-11.6h1.53l3.72,10.1,3.75-10.1Z"/><path class="cls-2" d="M93.81,22.52h1.47v11.6H93.81Z"/><path class="cls-2" d="M99,34.12H97.44l4.41-11.6h1.73L108,34.12h-1.51l-1.22-3.19h-5Zm1.48-4.36H105l-2.27-6Z"/><path class="cls-2" d="M118.18,28.26a3.07,3.07,0,0,1-1.84,1.12,1.58,1.58,0,0,1,.52.46,6.33,6.33,0,0,1,.42.78l1.51,3.5h-1.51l-1.48-3.37a1.71,1.71,0,0,0-.6-.79,2.23,2.23,0,0,0-1.14-.22h-2.45v4.38h-1.48V22.52h5.1a3.53,3.53,0,0,1,2.7.95,3.77,3.77,0,0,1,.88,2.65A3.46,3.46,0,0,1,118.18,28.26Zm-.85-2.14c0-1.62-.77-2.43-2.32-2.43h-3.4v4.9h3.2A2.2,2.2,0,0,0,117.33,26.12Z"/></g></g></svg>