<svg xmlns="http://www.w3.org/2000/svg" xmlns:xlink="http://www.w3.org/1999/xlink" viewBox="0 0 165.39 28.8"><defs><style>.cls-1{fill:url(#Degradado_sin_nombre_110);}.cls-2{fill:url(#Degradado_sin_nombre_110-2);}.cls-3{fill:#fff;}</style><linearGradient id="Degradado_sin_nombre_110" x1="129.68" y1="-46.77" x2="129.68" y2="-68.91" gradientTransform="translate(-11.4 71.47)" gradientUnits="userSpaceOnUse"><stop offset="0" stop-color="#289c19"/><stop offset="1" stop-color="#bfff00"/></linearGradient><linearGradient id="Degradado_sin_nombre_110-2" x1="133.9" y1="-66.36" x2="133.9" y2="-45.34" xlink:href="#Degradado_sin_nombre_110"/></defs><title>debior-blanco</title><g id="Layer_2" data-name="Layer 2"><g id="Layer_2-2" data-name="Layer 2"><path class="cls-1" d="M126.62,20.62a11.59,11.59,0,0,0,1.73-5.81,8,8,0,0,1-13.07,5.71l-.2-.17a.27.27,0,0,0-.08-.07l-.25-.24-.24-.26-.07-.07-.17-.2A8,8,0,0,1,112.43,14a11.54,11.54,0,0,1,1.74-5.82,13.89,13.89,0,0,1,2-2.54c4.37-4.37,10.82-5,14.41-1.41a14.4,14.4,0,0,0-20.36,20.36c3.59,3.59,10,3,14.41-1.41A13.68,13.68,0,0,0,126.62,20.62Z"/><path class="cls-2" d="M130.57,4.22c-3.59-3.59-10-3-14.41,1.41a13.89,13.89,0,0,0-2,2.54A11.54,11.54,0,0,0,112.43,14a7.92,7.92,0,0,1,2.32-5.23,8,8,0,0,1,10.75-.48l.2.17.08.07.25.24.24.25.07.08c.06.07.12.13.17.2a7.93,7.93,0,0,1,1.84,5.52,11.59,11.59,0,0,1-1.73,5.81,13.68,13.68,0,0,1-2,2.55c-4.37,4.36-10.82,5-14.41,1.41A14.4,14.4,0,0,0,130.57,4.22Z"/><path class="cls-3" d="M23.19,14.4q0,12.1-12.7,12.1H0V2.29H10.49Q23.18,2.29,23.19,14.4ZM7.78,20.69h2.57c3.26,0,4.89-1.74,4.89-5.24V13.34q0-5.23-4.89-5.24H7.78Z"/><path class="cls-3" d="M79.58,3.05A6,6,0,0,1,82,5.18a5.44,5.44,0,0,1,.9,3.06c0,3-1.35,4.85-4,5.63V14q4.61,1.05,4.61,6a6.1,6.1,0,0,1-.93,3.36A6.31,6.31,0,0,1,80,25.69a7.86,7.86,0,0,1-3.56.81H60.1V2.29H76.22A7.4,7.4,0,0,1,79.58,3.05Zm-11.7,8.67h5.35a1.69,1.69,0,0,0,1.28-.54A1.93,1.93,0,0,0,75,9.82V9.47a1.82,1.82,0,0,0-.52-1.32,1.74,1.74,0,0,0-1.27-.55H67.88Zm0,9.15h5.91a1.7,1.7,0,0,0,1.29-.54A1.93,1.93,0,0,0,75.59,19v-.35a1.93,1.93,0,0,0-.51-1.36,1.7,1.7,0,0,0-1.29-.54H67.88Z"/><path class="cls-3" d="M91.25,26.5V2.29H99V26.5Z"/><path class="cls-3" d="M163.49,13.73A7,7,0,0,1,160,16.37l5.38,10.13h-8.72l-4.3-8.83h-2.88V26.5h-7.78V2.29h14.81a9.24,9.24,0,0,1,4.46,1A6.85,6.85,0,0,1,163.76,6a7.66,7.66,0,0,1,.93,3.72A7.08,7.08,0,0,1,163.49,13.73Zm-7.35-5.28a2.11,2.11,0,0,0-1.55-.63h-5.1v4.46h5.1a2.05,2.05,0,0,0,1.55-.65,2.19,2.19,0,0,0,.63-1.6A2.15,2.15,0,0,0,156.14,8.45Z"/><polygon class="cls-3" points="38.86 20.69 38.86 18.16 38.86 17.18 47.8 17.18 47.8 11.62 38.86 11.62 38.86 11.44 38.86 9.63 38.86 8.1 52.02 8.1 52.02 2.29 31.08 2.29 31.08 26.5 52.27 26.5 52.27 20.69 38.86 20.69"/></g></g></svg>