<svg xmlns="http://www.w3.org/2000/svg" xmlns:xlink="http://www.w3.org/1999/xlink" viewBox="0 0 615 1280"><defs><style>.cls-1,.cls-2{opacity:0.98;}.cls-1{fill:url(#linear-gradient);}.cls-3{opacity:0.2;}.cls-4{fill:#fff;}.cls-5{fill:url(#linear-gradient-2);}</style><linearGradient id="linear-gradient" x1="-182.59" y1="1219.51" x2="672.49" y2="208.41" gradientUnits="userSpaceOnUse"><stop offset="0" stop-color="#bfff00"/><stop offset="0.07" stop-color="#9bda10"/><stop offset="0.16" stop-color="#72b022"/><stop offset="0.25" stop-color="#4f8c32"/><stop offset="0.35" stop-color="#326f3f"/><stop offset="0.45" stop-color="#1c5849"/><stop offset="0.56" stop-color="#0c4850"/><stop offset="0.69" stop-color="#033f54"/><stop offset="0.86" stop-color="#003c55"/></linearGradient><linearGradient id="linear-gradient-2" x1="35.53" y1="1240.43" x2="37.96" y2="1240.43" xlink:href="#linear-gradient"/></defs><title>Asset 7</title><g id="Layer_2" data-name="Layer 2"><g id="Layer_1-2" data-name="Layer 1"><rect class="cls-1" width="615" height="1280"/><g class="cls-2"><g class="cls-3"><rect class="cls-4" x="7.82" y="1089.81" width="4.38" height="2.43"/><rect class="cls-4" x="1" y="1089.81" width="4.38" height="2.43"/><rect class="cls-4" x="5.38" y="1092.24" width="2.43" height="4.38"/><rect class="cls-4" x="5.38" y="1085.42" width="2.43" height="4.38"/><rect class="cls-4" x="37.96" y="1089.81" width="4.38" height="2.43"/><rect class="cls-4" x="31.15" y="1089.81" width="4.38" height="2.43"/><rect class="cls-4" x="35.53" y="1092.24" width="2.43" height="4.38"/><rect class="cls-4" x="35.53" y="1085.42" width="2.43" height="4.38"/><rect class="cls-4" x="68.11" y="1089.81" width="4.38" height="2.43"/><rect class="cls-4" x="61.29" y="1089.81" width="4.38" height="2.43"/><rect class="cls-4" x="65.67" y="1092.24" width="2.43" height="4.38"/><rect class="cls-4" x="65.67" y="1085.42" width="2.43" height="4.38"/><rect class="cls-4" x="98.25" y="1089.81" width="4.38" height="2.43"/><rect class="cls-4" x="91.44" y="1089.81" width="4.38" height="2.43"/><rect class="cls-4" x="95.82" y="1092.24" width="2.43" height="4.38"/><rect class="cls-4" x="95.82" y="1085.42" width="2.43" height="4.38"/><rect class="cls-4" x="7.82" y="1120.37" width="4.38" height="2.43"/><rect class="cls-4" x="1" y="1120.37" width="4.38" height="2.43"/><rect class="cls-4" x="5.38" y="1122.8" width="2.43" height="4.38"/><rect class="cls-4" x="5.38" y="1115.99" width="2.43" height="4.38"/><rect class="cls-4" x="37.96" y="1120.37" width="4.38" height="2.43"/><rect class="cls-4" x="31.15" y="1120.37" width="4.38" height="2.43"/><rect class="cls-4" x="35.53" y="1122.8" width="2.43" height="4.38"/><rect class="cls-4" x="35.53" y="1115.99" width="2.43" height="4.38"/><rect class="cls-4" x="68.11" y="1120.37" width="4.38" height="2.43"/><rect class="cls-4" x="61.29" y="1120.37" width="4.38" height="2.43"/><rect class="cls-4" x="65.67" y="1122.8" width="2.43" height="4.38"/><rect class="cls-4" x="65.67" y="1115.99" width="2.43" height="4.38"/><rect class="cls-4" x="98.25" y="1120.37" width="4.38" height="2.43"/><rect class="cls-4" x="91.44" y="1120.37" width="4.38" height="2.43"/><rect class="cls-4" x="95.82" y="1122.8" width="2.43" height="4.38"/><rect class="cls-4" x="95.82" y="1115.99" width="2.43" height="4.38"/><rect class="cls-4" x="7.82" y="1150.93" width="4.38" height="2.43"/><rect class="cls-4" x="1" y="1150.93" width="4.38" height="2.43"/><rect class="cls-4" x="5.38" y="1153.37" width="2.43" height="4.38"/><rect class="cls-4" x="5.38" y="1146.55" width="2.43" height="4.38"/><rect class="cls-4" x="37.96" y="1150.93" width="4.38" height="2.43"/><rect class="cls-4" x="31.15" y="1150.93" width="4.38" height="2.43"/><rect class="cls-4" x="35.53" y="1153.37" width="2.43" height="4.38"/><rect class="cls-4" x="35.53" y="1146.55" width="2.43" height="4.38"/><rect class="cls-4" x="68.11" y="1150.93" width="4.38" height="2.43"/><rect class="cls-4" x="61.29" y="1150.93" width="4.38" height="2.43"/><rect class="cls-4" x="65.67" y="1153.37" width="2.43" height="4.38"/><rect class="cls-4" x="65.67" y="1146.55" width="2.43" height="4.38"/><rect class="cls-4" x="98.25" y="1150.93" width="4.38" height="2.43"/><rect class="cls-4" x="91.44" y="1150.93" width="4.38" height="2.43"/><rect class="cls-4" x="95.82" y="1153.37" width="2.43" height="4.38"/><rect class="cls-4" x="95.82" y="1146.55" width="2.43" height="4.38"/><rect class="cls-4" x="7.82" y="1181.5" width="4.38" height="2.43"/><rect class="cls-4" x="1" y="1181.5" width="4.38" height="2.43"/><rect class="cls-4" x="5.38" y="1183.93" width="2.43" height="4.38"/><rect class="cls-4" x="5.38" y="1177.11" width="2.43" height="4.38"/><rect class="cls-4" x="37.96" y="1181.5" width="4.38" height="2.43"/><rect class="cls-4" x="31.15" y="1181.5" width="4.38" height="2.43"/><rect class="cls-4" x="35.53" y="1183.93" width="2.43" height="4.38"/><rect class="cls-4" x="35.53" y="1177.11" width="2.43" height="4.38"/><rect class="cls-4" x="68.11" y="1181.5" width="4.38" height="2.43"/><rect class="cls-4" x="61.29" y="1181.5" width="4.38" height="2.43"/><rect class="cls-4" x="65.67" y="1183.93" width="2.43" height="4.38"/><rect class="cls-4" x="65.67" y="1177.11" width="2.43" height="4.38"/><rect class="cls-4" x="98.25" y="1181.5" width="4.38" height="2.43"/><rect class="cls-4" x="91.44" y="1181.5" width="4.38" height="2.43"/><rect class="cls-4" x="95.82" y="1183.93" width="2.43" height="4.38"/><rect class="cls-4" x="95.82" y="1177.11" width="2.43" height="4.38"/><rect class="cls-4" x="7.82" y="1212.06" width="4.38" height="2.43"/><rect class="cls-4" x="1" y="1212.06" width="4.38" height="2.43"/><rect class="cls-4" x="5.38" y="1214.49" width="2.43" height="4.38"/><rect class="cls-4" x="5.38" y="1207.68" width="2.43" height="4.38"/><rect class="cls-4" x="37.96" y="1212.06" width="4.38" height="2.43"/><rect class="cls-4" x="31.15" y="1212.06" width="4.38" height="2.43"/><rect class="cls-4" x="35.53" y="1214.49" width="2.43" height="4.38"/><rect class="cls-4" x="35.53" y="1207.68" width="2.43" height="4.38"/><rect class="cls-4" x="68.11" y="1212.06" width="4.38" height="2.43"/><rect class="cls-4" x="61.29" y="1212.06" width="4.38" height="2.43"/><rect class="cls-4" x="65.67" y="1214.49" width="2.43" height="4.38"/><rect class="cls-4" x="65.67" y="1207.68" width="2.43" height="4.38"/><rect class="cls-4" x="98.25" y="1212.06" width="4.38" height="2.43"/><rect class="cls-4" x="91.44" y="1212.06" width="4.38" height="2.43"/><rect class="cls-4" x="95.82" y="1214.49" width="2.43" height="4.38"/><rect class="cls-4" x="95.82" y="1207.68" width="2.43" height="4.38"/><rect class="cls-4" x="7.82" y="1242.62" width="4.38" height="2.43"/><rect class="cls-4" x="1" y="1242.62" width="4.38" height="2.43"/><rect class="cls-4" x="5.38" y="1245.05" width="2.43" height="4.38"/><rect class="cls-4" x="5.38" y="1238.24" width="2.43" height="4.38"/><rect class="cls-4" x="37.96" y="1242.62" width="4.38" height="2.43"/><rect class="cls-4" x="31.15" y="1242.62" width="4.38" height="2.43"/><rect class="cls-4" x="35.53" y="1245.05" width="2.43" height="4.38"/><rect class="cls-5" x="35.53" y="1238.24" width="2.43" height="4.38"/><rect class="cls-4" x="68.11" y="1242.62" width="4.38" height="2.43"/><rect class="cls-4" x="61.29" y="1242.62" width="4.38" height="2.43"/><rect class="cls-4" x="65.67" y="1245.05" width="2.43" height="4.38"/><rect class="cls-4" x="65.67" y="1238.24" width="2.43" height="4.38"/><rect class="cls-4" x="98.25" y="1242.62" width="4.38" height="2.43"/><rect class="cls-4" x="91.44" y="1242.62" width="4.38" height="2.43"/><rect class="cls-4" x="95.82" y="1245.05" width="2.43" height="4.38"/><rect class="cls-4" x="95.82" y="1238.24" width="2.43" height="4.38"/><rect class="cls-4" x="128.4" y="1089.81" width="4.38" height="2.43"/><rect class="cls-4" x="121.58" y="1089.81" width="4.38" height="2.43"/><rect class="cls-4" x="125.97" y="1092.24" width="2.43" height="4.38"/><rect class="cls-4" x="125.97" y="1085.42" width="2.43" height="4.38"/><rect class="cls-4" x="158.55" y="1089.81" width="4.38" height="2.43"/><rect class="cls-4" x="151.73" y="1089.81" width="4.38" height="2.43"/><rect class="cls-4" x="156.11" y="1092.24" width="2.43" height="4.38"/><rect class="cls-4" x="156.11" y="1085.42" width="2.43" height="4.38"/><rect class="cls-4" x="188.69" y="1089.81" width="4.38" height="2.43"/><rect class="cls-4" x="181.88" y="1089.81" width="4.38" height="2.43"/><rect class="cls-4" x="186.26" y="1092.24" width="2.43" height="4.38"/><rect class="cls-4" x="186.26" y="1085.42" width="2.43" height="4.38"/><rect class="cls-4" x="218.84" y="1089.81" width="4.38" height="2.43"/><rect class="cls-4" x="212.02" y="1089.81" width="4.38" height="2.43"/><rect class="cls-4" x="216.4" y="1092.24" width="2.43" height="4.38"/><rect class="cls-4" x="216.4" y="1085.42" width="2.43" height="4.38"/><rect class="cls-4" x="128.4" y="1120.37" width="4.38" height="2.43"/><rect class="cls-4" x="121.58" y="1120.37" width="4.38" height="2.43"/><rect class="cls-4" x="125.97" y="1122.8" width="2.43" height="4.38"/><rect class="cls-4" x="125.97" y="1115.99" width="2.43" height="4.38"/><rect class="cls-4" x="158.55" y="1120.37" width="4.38" height="2.43"/><rect class="cls-4" x="151.73" y="1120.37" width="4.38" height="2.43"/><rect class="cls-4" x="156.11" y="1122.8" width="2.43" height="4.38"/><rect class="cls-4" x="156.11" y="1115.99" width="2.43" height="4.38"/><rect class="cls-4" x="188.69" y="1120.37" width="4.38" height="2.43"/><rect class="cls-4" x="181.88" y="1120.37" width="4.38" height="2.43"/><rect class="cls-4" x="186.26" y="1122.8" width="2.43" height="4.38"/><rect class="cls-4" x="186.26" y="1115.99" width="2.43" height="4.38"/><rect class="cls-4" x="218.84" y="1120.37" width="4.38" height="2.43"/><rect class="cls-4" x="212.02" y="1120.37" width="4.38" height="2.43"/><rect class="cls-4" x="216.4" y="1122.8" width="2.43" height="4.38"/><rect class="cls-4" x="216.4" y="1115.99" width="2.43" height="4.38"/><rect class="cls-4" x="128.4" y="1150.93" width="4.38" height="2.43"/><rect class="cls-4" x="121.58" y="1150.93" width="4.38" height="2.43"/><rect class="cls-4" x="125.97" y="1153.37" width="2.43" height="4.38"/><rect class="cls-4" x="125.97" y="1146.55" width="2.43" height="4.38"/><rect class="cls-4" x="128.4" y="1181.5" width="4.38" height="2.43"/><rect class="cls-4" x="121.58" y="1181.5" width="4.38" height="2.43"/><rect class="cls-4" x="125.97" y="1183.93" width="2.43" height="4.38"/><rect class="cls-4" x="125.97" y="1177.11" width="2.43" height="4.38"/><rect class="cls-4" x="158.55" y="1150.93" width="4.38" height="2.43"/><rect class="cls-4" x="151.73" y="1150.93" width="4.38" height="2.43"/><rect class="cls-4" x="156.11" y="1153.37" width="2.43" height="4.38"/><rect class="cls-4" x="156.11" y="1146.55" width="2.43" height="4.38"/><rect class="cls-4" x="188.69" y="1150.93" width="4.38" height="2.43"/><rect class="cls-4" x="181.88" y="1150.93" width="4.38" height="2.43"/><rect class="cls-4" x="186.26" y="1153.37" width="2.43" height="4.38"/><rect class="cls-4" x="186.26" y="1146.55" width="2.43" height="4.38"/><rect class="cls-4" x="218.84" y="1150.93" width="4.38" height="2.43"/><rect class="cls-4" x="212.02" y="1150.93" width="4.38" height="2.43"/><rect class="cls-4" x="216.4" y="1153.37" width="2.43" height="4.38"/><rect class="cls-4" x="216.4" y="1146.55" width="2.43" height="4.38"/><rect class="cls-4" x="158.55" y="1181.5" width="4.38" height="2.43"/><rect class="cls-4" x="151.73" y="1181.5" width="4.38" height="2.43"/><rect class="cls-4" x="156.11" y="1183.93" width="2.43" height="4.38"/><rect class="cls-4" x="156.11" y="1177.11" width="2.43" height="4.38"/><rect class="cls-4" x="188.69" y="1181.5" width="4.38" height="2.43"/><rect class="cls-4" x="181.88" y="1181.5" width="4.38" height="2.43"/><rect class="cls-4" x="186.26" y="1183.93" width="2.43" height="4.38"/><rect class="cls-4" x="186.26" y="1177.11" width="2.43" height="4.38"/><rect class="cls-4" x="218.84" y="1181.5" width="4.38" height="2.43"/><rect class="cls-4" x="212.02" y="1181.5" width="4.38" height="2.43"/><rect class="cls-4" x="216.4" y="1183.93" width="2.43" height="4.38"/><rect class="cls-4" x="216.4" y="1177.11" width="2.43" height="4.38"/><rect class="cls-4" x="128.4" y="1212.06" width="4.38" height="2.43"/><rect class="cls-4" x="121.58" y="1212.06" width="4.38" height="2.43"/><rect class="cls-4" x="125.97" y="1214.49" width="2.43" height="4.38"/><rect class="cls-4" x="125.97" y="1207.68" width="2.43" height="4.38"/><rect class="cls-4" x="158.55" y="1212.06" width="4.38" height="2.43"/><rect class="cls-4" x="151.73" y="1212.06" width="4.38" height="2.43"/><rect class="cls-4" x="156.11" y="1214.49" width="2.43" height="4.38"/><rect class="cls-4" x="156.11" y="1207.68" width="2.43" height="4.38"/><rect class="cls-4" x="188.69" y="1212.06" width="4.38" height="2.43"/><rect class="cls-4" x="181.88" y="1212.06" width="4.38" height="2.43"/><rect class="cls-4" x="186.26" y="1214.49" width="2.43" height="4.38"/><rect class="cls-4" x="186.26" y="1207.68" width="2.43" height="4.38"/><rect class="cls-4" x="218.84" y="1212.06" width="4.38" height="2.43"/><rect class="cls-4" x="212.02" y="1212.06" width="4.38" height="2.43"/><rect class="cls-4" x="216.4" y="1214.49" width="2.43" height="4.38"/><rect class="cls-4" x="216.4" y="1207.68" width="2.43" height="4.38"/><rect class="cls-4" x="128.4" y="1242.62" width="4.38" height="2.43"/><rect class="cls-4" x="121.58" y="1242.62" width="4.38" height="2.43"/><rect class="cls-4" x="125.97" y="1245.05" width="2.43" height="4.38"/><rect class="cls-4" x="125.97" y="1238.24" width="2.43" height="4.38"/><rect class="cls-4" x="158.55" y="1242.62" width="4.38" height="2.43"/><rect class="cls-4" x="151.73" y="1242.62" width="4.38" height="2.43"/><rect class="cls-4" x="156.11" y="1245.05" width="2.43" height="4.38"/><rect class="cls-4" x="156.11" y="1238.24" width="2.43" height="4.38"/><rect class="cls-4" x="188.69" y="1242.62" width="4.38" height="2.43"/><rect class="cls-4" x="181.88" y="1242.62" width="4.38" height="2.43"/><rect class="cls-4" x="186.26" y="1245.05" width="2.43" height="4.38"/><rect class="cls-4" x="186.26" y="1238.24" width="2.43" height="4.38"/><rect class="cls-4" x="218.84" y="1242.62" width="4.38" height="2.43"/><rect class="cls-4" x="212.02" y="1242.62" width="4.38" height="2.43"/><rect class="cls-4" x="216.4" y="1245.05" width="2.43" height="4.38"/><rect class="cls-4" x="216.4" y="1238.24" width="2.43" height="4.38"/><rect class="cls-4" x="7.82" y="1273.18" width="4.38" height="2.43"/><rect class="cls-4" x="1" y="1273.18" width="4.38" height="2.43"/><rect class="cls-4" x="5.38" y="1275.62" width="2.43" height="4.38"/><rect class="cls-4" x="5.38" y="1268.8" width="2.43" height="4.38"/><rect class="cls-4" x="37.96" y="1273.18" width="4.38" height="2.43"/><rect class="cls-4" x="31.15" y="1273.18" width="4.38" height="2.43"/><rect class="cls-4" x="35.53" y="1275.62" width="2.43" height="4.38"/><rect class="cls-4" x="35.53" y="1268.8" width="2.43" height="4.38"/><rect class="cls-4" x="68.11" y="1273.18" width="4.38" height="2.43"/><rect class="cls-4" x="61.29" y="1273.18" width="4.38" height="2.43"/><rect class="cls-4" x="65.67" y="1275.62" width="2.43" height="4.38"/><rect class="cls-4" x="65.67" y="1268.8" width="2.43" height="4.38"/><rect class="cls-4" x="98.25" y="1273.18" width="4.38" height="2.43"/><rect class="cls-4" x="91.44" y="1273.18" width="4.38" height="2.43"/><rect class="cls-4" x="95.82" y="1275.62" width="2.43" height="4.38"/><rect class="cls-4" x="95.82" y="1268.8" width="2.43" height="4.38"/><rect class="cls-4" x="128.4" y="1273.18" width="4.38" height="2.43"/><rect class="cls-4" x="121.58" y="1273.18" width="4.38" height="2.43"/><rect class="cls-4" x="125.97" y="1275.62" width="2.43" height="4.38"/><rect class="cls-4" x="125.97" y="1268.8" width="2.43" height="4.38"/><rect class="cls-4" x="158.55" y="1273.18" width="4.38" height="2.43"/><rect class="cls-4" x="151.73" y="1273.18" width="4.38" height="2.43"/><rect class="cls-4" x="156.11" y="1275.62" width="2.43" height="4.38"/><rect class="cls-4" x="156.11" y="1268.8" width="2.43" height="4.38"/><rect class="cls-4" x="188.69" y="1273.18" width="4.38" height="2.43"/><rect class="cls-4" x="181.88" y="1273.18" width="4.38" height="2.43"/><rect class="cls-4" x="186.26" y="1275.62" width="2.43" height="4.38"/><rect class="cls-4" x="186.26" y="1268.8" width="2.43" height="4.38"/><rect class="cls-4" x="218.84" y="1273.18" width="4.38" height="2.43"/><rect class="cls-4" x="212.02" y="1273.18" width="4.38" height="2.43"/><rect class="cls-4" x="216.4" y="1275.62" width="2.43" height="4.38"/><rect class="cls-4" x="216.4" y="1268.8" width="2.43" height="4.38"/></g><g class="cls-3"><rect class="cls-4" x="247.38" y="1089.81" width="4.38" height="2.43"/><rect class="cls-4" x="240.57" y="1089.81" width="4.38" height="2.43"/><rect class="cls-4" x="244.95" y="1092.24" width="2.43" height="4.38"/><rect class="cls-4" x="244.95" y="1085.42" width="2.43" height="4.38"/><rect class="cls-4" x="277.53" y="1089.81" width="4.38" height="2.43"/><rect class="cls-4" x="270.71" y="1089.81" width="4.38" height="2.43"/><rect class="cls-4" x="275.1" y="1092.24" width="2.43" height="4.38"/><rect class="cls-4" x="275.1" y="1085.42" width="2.43" height="4.38"/><rect class="cls-4" x="307.68" y="1089.81" width="4.38" height="2.43"/><rect class="cls-4" x="300.86" y="1089.81" width="4.38" height="2.43"/><rect class="cls-4" x="305.24" y="1092.24" width="2.43" height="4.38"/><rect class="cls-4" x="305.24" y="1085.42" width="2.43" height="4.38"/><rect class="cls-4" x="337.82" y="1089.81" width="4.38" height="2.43"/><rect class="cls-4" x="331.01" y="1089.81" width="4.38" height="2.43"/><rect class="cls-4" x="335.39" y="1092.24" width="2.43" height="4.38"/><rect class="cls-4" x="335.39" y="1085.42" width="2.43" height="4.38"/><rect class="cls-4" x="247.38" y="1120.37" width="4.38" height="2.43"/><rect class="cls-4" x="240.57" y="1120.37" width="4.38" height="2.43"/><rect class="cls-4" x="244.95" y="1122.8" width="2.43" height="4.38"/><rect class="cls-4" x="244.95" y="1115.99" width="2.43" height="4.38"/><rect class="cls-4" x="277.53" y="1120.37" width="4.38" height="2.43"/><rect class="cls-4" x="270.71" y="1120.37" width="4.38" height="2.43"/><rect class="cls-4" x="275.1" y="1122.8" width="2.43" height="4.38"/><rect class="cls-4" x="275.1" y="1115.99" width="2.43" height="4.38"/><rect class="cls-4" x="307.68" y="1120.37" width="4.38" height="2.43"/><rect class="cls-4" x="300.86" y="1120.37" width="4.38" height="2.43"/><rect class="cls-4" x="305.24" y="1122.8" width="2.43" height="4.38"/><rect class="cls-4" x="305.24" y="1115.99" width="2.43" height="4.38"/><rect class="cls-4" x="337.82" y="1120.37" width="4.38" height="2.43"/><rect class="cls-4" x="331.01" y="1120.37" width="4.38" height="2.43"/><rect class="cls-4" x="335.39" y="1122.8" width="2.43" height="4.38"/><rect class="cls-4" x="335.39" y="1115.99" width="2.43" height="4.38"/><rect class="cls-4" x="247.38" y="1150.93" width="4.38" height="2.43"/><rect class="cls-4" x="240.57" y="1150.93" width="4.38" height="2.43"/><rect class="cls-4" x="244.95" y="1153.37" width="2.43" height="4.38"/><rect class="cls-4" x="244.95" y="1146.55" width="2.43" height="4.38"/><rect class="cls-4" x="277.53" y="1150.93" width="4.38" height="2.43"/><rect class="cls-4" x="270.71" y="1150.93" width="4.38" height="2.43"/><rect class="cls-4" x="275.1" y="1153.37" width="2.43" height="4.38"/><rect class="cls-4" x="275.1" y="1146.55" width="2.43" height="4.38"/><rect class="cls-4" x="307.68" y="1150.93" width="4.38" height="2.43"/><rect class="cls-4" x="300.86" y="1150.93" width="4.38" height="2.43"/><rect class="cls-4" x="305.24" y="1153.37" width="2.43" height="4.38"/><rect class="cls-4" x="305.24" y="1146.55" width="2.43" height="4.38"/><rect class="cls-4" x="337.82" y="1150.93" width="4.38" height="2.43"/><rect class="cls-4" x="331.01" y="1150.93" width="4.38" height="2.43"/><rect class="cls-4" x="335.39" y="1153.37" width="2.43" height="4.38"/><rect class="cls-4" x="335.39" y="1146.55" width="2.43" height="4.38"/><rect class="cls-4" x="247.38" y="1181.5" width="4.38" height="2.43"/><rect class="cls-4" x="240.57" y="1181.5" width="4.38" height="2.43"/><rect class="cls-4" x="244.95" y="1183.93" width="2.43" height="4.38"/><rect class="cls-4" x="244.95" y="1177.11" width="2.43" height="4.38"/><rect class="cls-4" x="277.53" y="1181.5" width="4.38" height="2.43"/><rect class="cls-4" x="270.71" y="1181.5" width="4.38" height="2.43"/><rect class="cls-4" x="275.1" y="1183.93" width="2.43" height="4.38"/><rect class="cls-4" x="275.1" y="1177.11" width="2.43" height="4.38"/><rect class="cls-4" x="307.68" y="1181.5" width="4.38" height="2.43"/><rect class="cls-4" x="300.86" y="1181.5" width="4.38" height="2.43"/><rect class="cls-4" x="305.24" y="1183.93" width="2.43" height="4.38"/><rect class="cls-4" x="305.24" y="1177.11" width="2.43" height="4.38"/><rect class="cls-4" x="337.82" y="1181.5" width="4.38" height="2.43"/><rect class="cls-4" x="331.01" y="1181.5" width="4.38" height="2.43"/><rect class="cls-4" x="335.39" y="1183.93" width="2.43" height="4.38"/><rect class="cls-4" x="335.39" y="1177.11" width="2.43" height="4.38"/><rect class="cls-4" x="247.38" y="1212.06" width="4.38" height="2.43"/><rect class="cls-4" x="240.57" y="1212.06" width="4.38" height="2.43"/><rect class="cls-4" x="244.95" y="1214.49" width="2.43" height="4.38"/><rect class="cls-4" x="244.95" y="1207.68" width="2.43" height="4.38"/><rect class="cls-4" x="277.53" y="1212.06" width="4.38" height="2.43"/><rect class="cls-4" x="270.71" y="1212.06" width="4.38" height="2.43"/><rect class="cls-4" x="275.1" y="1214.49" width="2.43" height="4.38"/><rect class="cls-4" x="275.1" y="1207.68" width="2.43" height="4.38"/><rect class="cls-4" x="307.68" y="1212.06" width="4.38" height="2.43"/><rect class="cls-4" x="300.86" y="1212.06" width="4.38" height="2.43"/><rect class="cls-4" x="305.24" y="1214.49" width="2.43" height="4.38"/><rect class="cls-4" x="305.24" y="1207.68" width="2.43" height="4.38"/><rect class="cls-4" x="337.82" y="1212.06" width="4.38" height="2.43"/><rect class="cls-4" x="331.01" y="1212.06" width="4.38" height="2.43"/><rect class="cls-4" x="335.39" y="1214.49" width="2.43" height="4.38"/><rect class="cls-4" x="335.39" y="1207.68" width="2.43" height="4.38"/><rect class="cls-4" x="247.38" y="1242.62" width="4.38" height="2.43"/><rect class="cls-4" x="240.57" y="1242.62" width="4.38" height="2.43"/><rect class="cls-4" x="244.95" y="1245.05" width="2.43" height="4.38"/><rect class="cls-4" x="244.95" y="1238.24" width="2.43" height="4.38"/><rect class="cls-4" x="277.53" y="1242.62" width="4.38" height="2.43"/><rect class="cls-4" x="270.71" y="1242.62" width="4.38" height="2.43"/><rect class="cls-4" x="275.1" y="1245.05" width="2.43" height="4.38"/><rect class="cls-4" x="275.1" y="1238.24" width="2.43" height="4.38"/><rect class="cls-4" x="307.68" y="1242.62" width="4.38" height="2.43"/><rect class="cls-4" x="300.86" y="1242.62" width="4.38" height="2.43"/><rect class="cls-4" x="305.24" y="1245.05" width="2.43" height="4.38"/><rect class="cls-4" x="305.24" y="1238.24" width="2.43" height="4.38"/><rect class="cls-4" x="337.82" y="1242.62" width="4.38" height="2.43"/><rect class="cls-4" x="331.01" y="1242.62" width="4.38" height="2.43"/><rect class="cls-4" x="335.39" y="1245.05" width="2.43" height="4.38"/><rect class="cls-4" x="335.39" y="1238.24" width="2.43" height="4.38"/><rect class="cls-4" x="367.97" y="1089.81" width="4.38" height="2.43"/><rect class="cls-4" x="361.15" y="1089.81" width="4.38" height="2.43"/><rect class="cls-4" x="365.53" y="1092.24" width="2.43" height="4.38"/><rect class="cls-4" x="365.53" y="1085.42" width="2.43" height="4.38"/><rect class="cls-4" x="398.11" y="1089.81" width="4.38" height="2.43"/><rect class="cls-4" x="391.3" y="1089.81" width="4.38" height="2.43"/><rect class="cls-4" x="395.68" y="1092.24" width="2.43" height="4.38"/><rect class="cls-4" x="395.68" y="1085.42" width="2.43" height="4.38"/><rect class="cls-4" x="428.26" y="1089.81" width="4.38" height="2.43"/><rect class="cls-4" x="421.44" y="1089.81" width="4.38" height="2.43"/><rect class="cls-4" x="425.83" y="1092.24" width="2.43" height="4.38"/><rect class="cls-4" x="425.83" y="1085.42" width="2.43" height="4.38"/><rect class="cls-4" x="458.41" y="1089.81" width="4.38" height="2.43"/><rect class="cls-4" x="451.59" y="1089.81" width="4.38" height="2.43"/><rect class="cls-4" x="455.97" y="1092.24" width="2.43" height="4.38"/><rect class="cls-4" x="455.97" y="1085.42" width="2.43" height="4.38"/><rect class="cls-4" x="367.97" y="1120.37" width="4.38" height="2.43"/><rect class="cls-4" x="361.15" y="1120.37" width="4.38" height="2.43"/><rect class="cls-4" x="365.53" y="1122.8" width="2.43" height="4.38"/><rect class="cls-4" x="365.53" y="1115.99" width="2.43" height="4.38"/><rect class="cls-4" x="398.11" y="1120.37" width="4.38" height="2.43"/><rect class="cls-4" x="391.3" y="1120.37" width="4.38" height="2.43"/><rect class="cls-4" x="395.68" y="1122.8" width="2.43" height="4.38"/><rect class="cls-4" x="395.68" y="1115.99" width="2.43" height="4.38"/><rect class="cls-4" x="428.26" y="1120.37" width="4.38" height="2.43"/><rect class="cls-4" x="421.44" y="1120.37" width="4.38" height="2.43"/><rect class="cls-4" x="425.83" y="1122.8" width="2.43" height="4.38"/><rect class="cls-4" x="425.83" y="1115.99" width="2.43" height="4.38"/><rect class="cls-4" x="458.41" y="1120.37" width="4.38" height="2.43"/><rect class="cls-4" x="451.59" y="1120.37" width="4.38" height="2.43"/><rect class="cls-4" x="455.97" y="1122.8" width="2.43" height="4.38"/><rect class="cls-4" x="455.97" y="1115.99" width="2.43" height="4.38"/><rect class="cls-4" x="367.97" y="1150.93" width="4.38" height="2.43"/><rect class="cls-4" x="361.15" y="1150.93" width="4.38" height="2.43"/><rect class="cls-4" x="365.53" y="1153.37" width="2.43" height="4.38"/><rect class="cls-4" x="365.53" y="1146.55" width="2.43" height="4.38"/><rect class="cls-4" x="367.97" y="1181.5" width="4.38" height="2.43"/><rect class="cls-4" x="361.15" y="1181.5" width="4.38" height="2.43"/><rect class="cls-4" x="365.53" y="1183.93" width="2.43" height="4.38"/><rect class="cls-4" x="365.53" y="1177.11" width="2.43" height="4.38"/><rect class="cls-4" x="398.11" y="1150.93" width="4.38" height="2.43"/><rect class="cls-4" x="391.3" y="1150.93" width="4.38" height="2.43"/><rect class="cls-4" x="395.68" y="1153.37" width="2.43" height="4.38"/><rect class="cls-4" x="395.68" y="1146.55" width="2.43" height="4.38"/><rect class="cls-4" x="428.26" y="1150.93" width="4.38" height="2.43"/><rect class="cls-4" x="421.44" y="1150.93" width="4.38" height="2.43"/><rect class="cls-4" x="425.83" y="1153.37" width="2.43" height="4.38"/><rect class="cls-4" x="425.83" y="1146.55" width="2.43" height="4.38"/><rect class="cls-4" x="458.41" y="1150.93" width="4.38" height="2.43"/><rect class="cls-4" x="451.59" y="1150.93" width="4.38" height="2.43"/><rect class="cls-4" x="455.97" y="1153.37" width="2.43" height="4.38"/><rect class="cls-4" x="455.97" y="1146.55" width="2.43" height="4.38"/><rect class="cls-4" x="398.11" y="1181.5" width="4.38" height="2.43"/><rect class="cls-4" x="391.3" y="1181.5" width="4.38" height="2.43"/><rect class="cls-4" x="395.68" y="1183.93" width="2.43" height="4.38"/><rect class="cls-4" x="395.68" y="1177.11" width="2.43" height="4.38"/><rect class="cls-4" x="428.26" y="1181.5" width="4.38" height="2.43"/><rect class="cls-4" x="421.44" y="1181.5" width="4.38" height="2.43"/><rect class="cls-4" x="425.83" y="1183.93" width="2.43" height="4.38"/><rect class="cls-4" x="425.83" y="1177.11" width="2.43" height="4.38"/><rect class="cls-4" x="458.41" y="1181.5" width="4.38" height="2.43"/><rect class="cls-4" x="451.59" y="1181.5" width="4.38" height="2.43"/><rect class="cls-4" x="455.97" y="1183.93" width="2.43" height="4.38"/><rect class="cls-4" x="455.97" y="1177.11" width="2.43" height="4.38"/><rect class="cls-4" x="367.97" y="1212.06" width="4.38" height="2.43"/><rect class="cls-4" x="361.15" y="1212.06" width="4.38" height="2.43"/><rect class="cls-4" x="365.53" y="1214.49" width="2.43" height="4.38"/><rect class="cls-4" x="365.53" y="1207.68" width="2.43" height="4.38"/><rect class="cls-4" x="398.11" y="1212.06" width="4.38" height="2.43"/><rect class="cls-4" x="391.3" y="1212.06" width="4.38" height="2.43"/><rect class="cls-4" x="395.68" y="1214.49" width="2.43" height="4.38"/><rect class="cls-4" x="395.68" y="1207.68" width="2.43" height="4.38"/><rect class="cls-4" x="428.26" y="1212.06" width="4.38" height="2.43"/><rect class="cls-4" x="421.44" y="1212.06" width="4.38" height="2.43"/><rect class="cls-4" x="425.83" y="1214.49" width="2.43" height="4.38"/><rect class="cls-4" x="425.83" y="1207.68" width="2.43" height="4.38"/><rect class="cls-4" x="458.41" y="1212.06" width="4.38" height="2.43"/><rect class="cls-4" x="451.59" y="1212.06" width="4.38" height="2.43"/><rect class="cls-4" x="455.97" y="1214.49" width="2.43" height="4.38"/><rect class="cls-4" x="455.97" y="1207.68" width="2.43" height="4.38"/><rect class="cls-4" x="367.97" y="1242.62" width="4.38" height="2.43"/><rect class="cls-4" x="361.15" y="1242.62" width="4.38" height="2.43"/><rect class="cls-4" x="365.53" y="1245.05" width="2.43" height="4.38"/><rect class="cls-4" x="365.53" y="1238.24" width="2.43" height="4.38"/><rect class="cls-4" x="398.11" y="1242.62" width="4.38" height="2.43"/><rect class="cls-4" x="391.3" y="1242.62" width="4.38" height="2.43"/><rect class="cls-4" x="395.68" y="1245.05" width="2.43" height="4.38"/><rect class="cls-4" x="395.68" y="1238.24" width="2.43" height="4.38"/><rect class="cls-4" x="428.26" y="1242.62" width="4.38" height="2.43"/><rect class="cls-4" x="421.44" y="1242.62" width="4.38" height="2.43"/><rect class="cls-4" x="425.83" y="1245.05" width="2.43" height="4.38"/><rect class="cls-4" x="425.83" y="1238.24" width="2.43" height="4.38"/><rect class="cls-4" x="458.41" y="1242.62" width="4.38" height="2.43"/><rect class="cls-4" x="451.59" y="1242.62" width="4.38" height="2.43"/><rect class="cls-4" x="455.97" y="1245.05" width="2.43" height="4.38"/><rect class="cls-4" x="455.97" y="1238.24" width="2.43" height="4.38"/><rect class="cls-4" x="247.38" y="1273.18" width="4.38" height="2.43"/><rect class="cls-4" x="240.57" y="1273.18" width="4.38" height="2.43"/><rect class="cls-4" x="244.95" y="1275.62" width="2.43" height="4.38"/><rect class="cls-4" x="244.95" y="1268.8" width="2.43" height="4.38"/><rect class="cls-4" x="277.53" y="1273.18" width="4.38" height="2.43"/><rect class="cls-4" x="270.71" y="1273.18" width="4.38" height="2.43"/><rect class="cls-4" x="275.1" y="1275.62" width="2.43" height="4.38"/><rect class="cls-4" x="275.1" y="1268.8" width="2.43" height="4.38"/><rect class="cls-4" x="307.68" y="1273.18" width="4.38" height="2.43"/><rect class="cls-4" x="300.86" y="1273.18" width="4.38" height="2.43"/><rect class="cls-4" x="305.24" y="1275.62" width="2.43" height="4.38"/><rect class="cls-4" x="305.24" y="1268.8" width="2.43" height="4.38"/><rect class="cls-4" x="337.82" y="1273.18" width="4.38" height="2.43"/><rect class="cls-4" x="331.01" y="1273.18" width="4.38" height="2.43"/><rect class="cls-4" x="335.39" y="1275.62" width="2.43" height="4.38"/><rect class="cls-4" x="335.39" y="1268.8" width="2.43" height="4.38"/><rect class="cls-4" x="367.97" y="1273.18" width="4.38" height="2.43"/><rect class="cls-4" x="361.15" y="1273.18" width="4.38" height="2.43"/><rect class="cls-4" x="365.53" y="1275.62" width="2.43" height="4.38"/><rect class="cls-4" x="365.53" y="1268.8" width="2.43" height="4.38"/><rect class="cls-4" x="398.11" y="1273.18" width="4.38" height="2.43"/><rect class="cls-4" x="391.3" y="1273.18" width="4.38" height="2.43"/><rect class="cls-4" x="395.68" y="1275.62" width="2.43" height="4.38"/><rect class="cls-4" x="395.68" y="1268.8" width="2.43" height="4.38"/><rect class="cls-4" x="428.26" y="1273.18" width="4.38" height="2.43"/><rect class="cls-4" x="421.44" y="1273.18" width="4.38" height="2.43"/><rect class="cls-4" x="425.83" y="1275.62" width="2.43" height="4.38"/><rect class="cls-4" x="425.83" y="1268.8" width="2.43" height="4.38"/><rect class="cls-4" x="458.41" y="1273.18" width="4.38" height="2.43"/><rect class="cls-4" x="451.59" y="1273.18" width="4.38" height="2.43"/><rect class="cls-4" x="455.97" y="1275.62" width="2.43" height="4.38"/><rect class="cls-4" x="455.97" y="1268.8" width="2.43" height="4.38"/></g><g class="cls-3"><rect class="cls-4" x="489.38" y="1089.81" width="4.38" height="2.43"/><rect class="cls-4" x="482.57" y="1089.81" width="4.38" height="2.43"/><rect class="cls-4" x="486.95" y="1092.24" width="2.43" height="4.38"/><rect class="cls-4" x="486.95" y="1085.42" width="2.43" height="4.38"/><rect class="cls-4" x="519.53" y="1089.81" width="4.38" height="2.43"/><rect class="cls-4" x="512.71" y="1089.81" width="4.38" height="2.43"/><rect class="cls-4" x="517.1" y="1092.24" width="2.43" height="4.38"/><rect class="cls-4" x="517.1" y="1085.42" width="2.43" height="4.38"/><rect class="cls-4" x="549.68" y="1089.81" width="4.38" height="2.43"/><rect class="cls-4" x="542.86" y="1089.81" width="4.38" height="2.43"/><rect class="cls-4" x="547.24" y="1092.24" width="2.43" height="4.38"/><rect class="cls-4" x="547.24" y="1085.42" width="2.43" height="4.38"/><rect class="cls-4" x="579.82" y="1089.81" width="4.38" height="2.43"/><rect class="cls-4" x="573.01" y="1089.81" width="4.38" height="2.43"/><rect class="cls-4" x="577.39" y="1092.24" width="2.43" height="4.38"/><rect class="cls-4" x="577.39" y="1085.42" width="2.43" height="4.38"/><rect class="cls-4" x="489.38" y="1120.37" width="4.38" height="2.43"/><rect class="cls-4" x="482.57" y="1120.37" width="4.38" height="2.43"/><rect class="cls-4" x="486.95" y="1122.8" width="2.43" height="4.38"/><rect class="cls-4" x="486.95" y="1115.99" width="2.43" height="4.38"/><rect class="cls-4" x="519.53" y="1120.37" width="4.38" height="2.43"/><rect class="cls-4" x="512.71" y="1120.37" width="4.38" height="2.43"/><rect class="cls-4" x="517.1" y="1122.8" width="2.43" height="4.38"/><rect class="cls-4" x="517.1" y="1115.99" width="2.43" height="4.38"/><rect class="cls-4" x="549.68" y="1120.37" width="4.38" height="2.43"/><rect class="cls-4" x="542.86" y="1120.37" width="4.38" height="2.43"/><rect class="cls-4" x="547.24" y="1122.8" width="2.43" height="4.38"/><rect class="cls-4" x="547.24" y="1115.99" width="2.43" height="4.38"/><rect class="cls-4" x="579.82" y="1120.37" width="4.38" height="2.43"/><rect class="cls-4" x="573.01" y="1120.37" width="4.38" height="2.43"/><rect class="cls-4" x="577.39" y="1122.8" width="2.43" height="4.38"/><rect class="cls-4" x="577.39" y="1115.99" width="2.43" height="4.38"/><rect class="cls-4" x="489.38" y="1150.93" width="4.38" height="2.43"/><rect class="cls-4" x="482.57" y="1150.93" width="4.38" height="2.43"/><rect class="cls-4" x="486.95" y="1153.37" width="2.43" height="4.38"/><rect class="cls-4" x="486.95" y="1146.55" width="2.43" height="4.38"/><rect class="cls-4" x="519.53" y="1150.93" width="4.38" height="2.43"/><rect class="cls-4" x="512.71" y="1150.93" width="4.38" height="2.43"/><rect class="cls-4" x="517.1" y="1153.37" width="2.43" height="4.38"/><rect class="cls-4" x="517.1" y="1146.55" width="2.43" height="4.38"/><rect class="cls-4" x="549.68" y="1150.93" width="4.38" height="2.43"/><rect class="cls-4" x="542.86" y="1150.93" width="4.38" height="2.43"/><rect class="cls-4" x="547.24" y="1153.37" width="2.43" height="4.38"/><rect class="cls-4" x="547.24" y="1146.55" width="2.43" height="4.38"/><rect class="cls-4" x="579.82" y="1150.93" width="4.38" height="2.43"/><rect class="cls-4" x="573.01" y="1150.93" width="4.38" height="2.43"/><rect class="cls-4" x="577.39" y="1153.37" width="2.43" height="4.38"/><rect class="cls-4" x="577.39" y="1146.55" width="2.43" height="4.38"/><rect class="cls-4" x="489.38" y="1181.5" width="4.38" height="2.43"/><rect class="cls-4" x="482.57" y="1181.5" width="4.38" height="2.43"/><rect class="cls-4" x="486.95" y="1183.93" width="2.43" height="4.38"/><rect class="cls-4" x="486.95" y="1177.11" width="2.43" height="4.38"/><rect class="cls-4" x="519.53" y="1181.5" width="4.38" height="2.43"/><rect class="cls-4" x="512.71" y="1181.5" width="4.38" height="2.43"/><rect class="cls-4" x="517.1" y="1183.93" width="2.43" height="4.38"/><rect class="cls-4" x="517.1" y="1177.11" width="2.43" height="4.38"/><rect class="cls-4" x="549.68" y="1181.5" width="4.38" height="2.43"/><rect class="cls-4" x="542.86" y="1181.5" width="4.38" height="2.43"/><rect class="cls-4" x="547.24" y="1183.93" width="2.43" height="4.38"/><rect class="cls-4" x="547.24" y="1177.11" width="2.43" height="4.38"/><rect class="cls-4" x="579.82" y="1181.5" width="4.38" height="2.43"/><rect class="cls-4" x="573.01" y="1181.5" width="4.38" height="2.43"/><rect class="cls-4" x="577.39" y="1183.93" width="2.43" height="4.38"/><rect class="cls-4" x="577.39" y="1177.11" width="2.43" height="4.38"/><rect class="cls-4" x="489.38" y="1212.06" width="4.38" height="2.43"/><rect class="cls-4" x="482.57" y="1212.06" width="4.38" height="2.43"/><rect class="cls-4" x="486.95" y="1214.49" width="2.43" height="4.38"/><rect class="cls-4" x="486.95" y="1207.68" width="2.43" height="4.38"/><rect class="cls-4" x="519.53" y="1212.06" width="4.38" height="2.43"/><rect class="cls-4" x="512.71" y="1212.06" width="4.38" height="2.43"/><rect class="cls-4" x="517.1" y="1214.49" width="2.43" height="4.38"/><rect class="cls-4" x="517.1" y="1207.68" width="2.43" height="4.38"/><rect class="cls-4" x="549.68" y="1212.06" width="4.38" height="2.43"/><rect class="cls-4" x="542.86" y="1212.06" width="4.38" height="2.43"/><rect class="cls-4" x="547.24" y="1214.49" width="2.43" height="4.38"/><rect class="cls-4" x="547.24" y="1207.68" width="2.43" height="4.38"/><rect class="cls-4" x="579.82" y="1212.06" width="4.38" height="2.43"/><rect class="cls-4" x="573.01" y="1212.06" width="4.38" height="2.43"/><rect class="cls-4" x="577.39" y="1214.49" width="2.43" height="4.38"/><rect class="cls-4" x="577.39" y="1207.68" width="2.43" height="4.38"/><rect class="cls-4" x="489.38" y="1242.62" width="4.38" height="2.43"/><rect class="cls-4" x="482.57" y="1242.62" width="4.38" height="2.43"/><rect class="cls-4" x="486.95" y="1245.05" width="2.43" height="4.38"/><rect class="cls-4" x="486.95" y="1238.24" width="2.43" height="4.38"/><rect class="cls-4" x="519.53" y="1242.62" width="4.38" height="2.43"/><rect class="cls-4" x="512.71" y="1242.62" width="4.38" height="2.43"/><rect class="cls-4" x="517.1" y="1245.05" width="2.43" height="4.38"/><rect class="cls-4" x="517.1" y="1238.24" width="2.43" height="4.38"/><rect class="cls-4" x="549.68" y="1242.62" width="4.38" height="2.43"/><rect class="cls-4" x="542.86" y="1242.62" width="4.38" height="2.43"/><rect class="cls-4" x="547.24" y="1245.05" width="2.43" height="4.38"/><rect class="cls-4" x="547.24" y="1238.24" width="2.43" height="4.38"/><rect class="cls-4" x="579.82" y="1242.62" width="4.38" height="2.43"/><rect class="cls-4" x="573.01" y="1242.62" width="4.38" height="2.43"/><rect class="cls-4" x="577.39" y="1245.05" width="2.43" height="4.38"/><rect class="cls-4" x="577.39" y="1238.24" width="2.43" height="4.38"/><rect class="cls-4" x="609.97" y="1089.81" width="4.38" height="2.43"/><rect class="cls-4" x="603.15" y="1089.81" width="4.38" height="2.43"/><rect class="cls-4" x="607.53" y="1092.24" width="2.43" height="4.38"/><rect class="cls-4" x="607.53" y="1085.42" width="2.43" height="4.38"/><rect class="cls-4" x="609.97" y="1120.37" width="4.38" height="2.43"/><rect class="cls-4" x="603.15" y="1120.37" width="4.38" height="2.43"/><rect class="cls-4" x="607.53" y="1122.8" width="2.43" height="4.38"/><rect class="cls-4" x="607.53" y="1115.99" width="2.43" height="4.38"/><rect class="cls-4" x="609.97" y="1150.93" width="4.38" height="2.43"/><rect class="cls-4" x="603.15" y="1150.93" width="4.38" height="2.43"/><rect class="cls-4" x="607.53" y="1153.37" width="2.43" height="4.38"/><rect class="cls-4" x="607.53" y="1146.55" width="2.43" height="4.38"/><rect class="cls-4" x="609.97" y="1181.5" width="4.38" height="2.43"/><rect class="cls-4" x="603.15" y="1181.5" width="4.38" height="2.43"/><rect class="cls-4" x="607.53" y="1183.93" width="2.43" height="4.38"/><rect class="cls-4" x="607.53" y="1177.11" width="2.43" height="4.38"/><rect class="cls-4" x="609.97" y="1212.06" width="4.38" height="2.43"/><rect class="cls-4" x="603.15" y="1212.06" width="4.38" height="2.43"/><rect class="cls-4" x="607.53" y="1214.49" width="2.43" height="4.38"/><rect class="cls-4" x="607.53" y="1207.68" width="2.43" height="4.38"/><rect class="cls-4" x="609.97" y="1242.62" width="4.38" height="2.43"/><rect class="cls-4" x="603.15" y="1242.62" width="4.38" height="2.43"/><rect class="cls-4" x="607.53" y="1245.05" width="2.43" height="4.38"/><rect class="cls-4" x="607.53" y="1238.24" width="2.43" height="4.38"/><rect class="cls-4" x="489.38" y="1273.18" width="4.38" height="2.43"/><rect class="cls-4" x="482.57" y="1273.18" width="4.38" height="2.43"/><rect class="cls-4" x="486.95" y="1275.62" width="2.43" height="4.38"/><rect class="cls-4" x="486.95" y="1268.8" width="2.43" height="4.38"/><rect class="cls-4" x="519.53" y="1273.18" width="4.38" height="2.43"/><rect class="cls-4" x="512.71" y="1273.18" width="4.38" height="2.43"/><rect class="cls-4" x="517.1" y="1275.62" width="2.43" height="4.38"/><rect class="cls-4" x="517.1" y="1268.8" width="2.43" height="4.38"/><rect class="cls-4" x="549.68" y="1273.18" width="4.38" height="2.43"/><rect class="cls-4" x="542.86" y="1273.18" width="4.38" height="2.43"/><rect class="cls-4" x="547.24" y="1275.62" width="2.43" height="4.38"/><rect class="cls-4" x="547.24" y="1268.8" width="2.43" height="4.38"/><rect class="cls-4" x="579.82" y="1273.18" width="4.38" height="2.43"/><rect class="cls-4" x="573.01" y="1273.18" width="4.38" height="2.43"/><rect class="cls-4" x="577.39" y="1275.62" width="2.43" height="4.38"/><rect class="cls-4" x="577.39" y="1268.8" width="2.43" height="4.38"/><rect class="cls-4" x="609.97" y="1273.18" width="4.38" height="2.43"/><rect class="cls-4" x="603.15" y="1273.18" width="4.38" height="2.43"/><rect class="cls-4" x="607.53" y="1275.62" width="2.43" height="4.38"/><rect class="cls-4" x="607.53" y="1268.8" width="2.43" height="4.38"/></g></g></g></g></svg>