<svg xmlns="http://www.w3.org/2000/svg" xmlns:xlink="http://www.w3.org/1999/xlink" viewBox="0 0 381.17 121.44"><defs><style>.cls-1{fill:#bfff00;}.cls-2{fill:url(#Degradado_sin_nombre_110);}.cls-3{fill:url(#Degradado_sin_nombre_110-2);}.cls-4{fill:url(#Degradado_sin_nombre_110-3);}</style><linearGradient id="Degradado_sin_nombre_110" x1="2543.99" y1="1063.43" x2="2543.99" y2="998.83" gradientTransform="translate(-1006.25 -2462.16) rotate(44.42)" gradientUnits="userSpaceOnUse"><stop offset="0" stop-color="#289c19"/><stop offset="1" stop-color="#bfff00"/></linearGradient><linearGradient id="Degradado_sin_nombre_110-2" x1="2556.29" y1="1006.27" x2="2556.29" y2="1067.61" xlink:href="#Degradado_sin_nombre_110"/><linearGradient id="Degradado_sin_nombre_110-3" x1="92.02" y1="88.63" x2="92.02" y2="32.86" gradientTransform="matrix(1, 0, 0, 1, 0, 0)" xlink:href="#Degradado_sin_nombre_110"/></defs><title>Asset 11</title><g id="Layer_2" data-name="Layer 2"><g id="Layer_1-2" data-name="Layer 1"><path class="cls-1" d="M169.19,52.49h3L177.45,69h-2.57l-1.08-3.53h-6.38L166.34,69h-2.4Zm3.94,10.75-2.07-6.74c-.08-.28-.16-.63-.25-1.07a8.26,8.26,0,0,1-.15-.88h-.1c0,.15-.07.44-.16.89a8.93,8.93,0,0,1-.25,1.06l-2.09,6.74Z"/><path class="cls-1" d="M181.6,52.49H184V66.72h6.82V69H181.6Z"/><path class="cls-1" d="M195.18,52.49h2.4V69h-2.4Z"/><path class="cls-1" d="M203,52.49h3.57l2.62,10.25a18.52,18.52,0,0,1,.37,2c.12.86.2,1.42.23,1.7h.09c0-.29.1-.87.21-1.73a17.67,17.67,0,0,1,.32-2l2.64-10.25h3.51V69h-2.36V57.46c0-.26,0-.7.08-1.32s.08-1,.09-1.25h-.09l-.17.72c-.18.89-.31,1.51-.41,1.85l-3,11.49h-2.13l-3-11.52c-.16-.64-.33-1.49-.53-2.54H205c0,.22,0,.6.07,1.14s.06,1,.07,1.43V69H203Z"/><path class="cls-1" d="M222.09,52.49h10.25v2.18h-7.85v4.78h6.8v2.16h-6.8v5.16h8V69h-10.4Z"/><path class="cls-1" d="M237.3,52.49h2.12l5.78,9.93a10.2,10.2,0,0,1,.52,1c.19.47.33.79.39,1l.07,0,0-1.92v-10h2.16V69h-2.07l-5.83-10c-.14-.26-.32-.62-.53-1.08s-.34-.78-.41-.94l-.09.05c0,.15,0,.41.06.79s0,.76,0,1.13V69H237.3Z"/><path class="cls-1" d="M257,54.67h-4.36V52.49h11.13v2.18h-4.34V69H257Z"/><path class="cls-1" d="M268.17,52.49h2.4V69h-2.4Z"/><path class="cls-1" d="M277.2,67.12q-1.67-2.13-1.66-6.4t1.66-6.4a5.78,5.78,0,0,1,4.85-2.12,5.72,5.72,0,0,1,4.24,1.6,6.28,6.28,0,0,1,1.61,4.69h-2.47a4.54,4.54,0,0,0-.91-3.07,3.08,3.08,0,0,0-2.47-1.06q-4,0-4,5.76v1.2c0,3.84,1.35,5.76,4,5.76a3.19,3.19,0,0,0,2.51-1,4.48,4.48,0,0,0,.93-3.06h2.37a6.35,6.35,0,0,1-1.59,4.68,6.57,6.57,0,0,1-9.11-.54Z"/><path class="cls-1" d="M292.83,52.49h2.4V69h-2.4Z"/><path class="cls-1" d="M304.61,52.49h3L312.86,69h-2.57l-1.08-3.53h-6.38L301.75,69h-2.4Zm3.93,10.75-2.06-6.74a10.94,10.94,0,0,1-.25-1.07c-.09-.44-.14-.73-.16-.88H306a8.74,8.74,0,0,1-.15.89c-.09.45-.17.8-.25,1.06l-2.09,6.74Z"/><path class="cls-2" d="M66.74,84.27a34.55,34.55,0,1,1,50.55-47.1c9.89,4.52,16.64,13.14,16.74,23.12a42,42,0,0,0-84,.86C50.1,71.13,56.85,79.75,66.74,84.27Z"/><path class="cls-3" d="M117.29,37.17a34.55,34.55,0,1,1-50.55,47.1C56.85,79.75,50.1,71.13,50,61.15a42,42,0,0,0,84-.86C133.93,50.31,127.18,41.69,117.29,37.17Z"/><path class="cls-4" d="M86.1,35.62a14.69,14.69,0,0,0-8.69,12.89L77,60.44a3.68,3.68,0,0,0,3.68,3.86h1.49L79.43,81.84a4.41,4.41,0,1,0,8.77.7V37A1.5,1.5,0,0,0,86.1,35.62Zm19.29-.09a1.57,1.57,0,0,0-1.58,1.58V49a.79.79,0,0,1-.79.79h-1a.79.79,0,0,1-.79-.79V37.11a1.58,1.58,0,1,0-3.16,0V49a.79.79,0,0,1-.79.79h-1a.79.79,0,0,1-.79-.79V37.11a1.58,1.58,0,0,0-3.16,0v14a3.71,3.71,0,0,0,3.69,3.68h.78L95.22,82.28A4.44,4.44,0,0,0,99.69,87h.09a4.55,4.55,0,0,0,4.47-4.73l-1.66-27.54h.78a3.71,3.71,0,0,0,3.69-3.68v-14A1.71,1.71,0,0,0,105.39,35.53Z"/><path class="cls-1" d="M381.17,121.44H0V0H381.17ZM2,119.44H379.17V2H2Z"/></g></g></svg>