<svg xmlns="http://www.w3.org/2000/svg" xmlns:xlink="http://www.w3.org/1999/xlink" viewBox="0 0 381.17 121.44"><defs><style>.cls-1{fill:#bfff00;}.cls-2{fill:url(#Degradado_sin_nombre_110);}.cls-3{fill:url(#Degradado_sin_nombre_110-2);}.cls-4{fill:url(#Degradado_sin_nombre_110-3);}</style><linearGradient id="Degradado_sin_nombre_110" x1="2653.47" y1="1018.73" x2="2653.47" y2="954.13" gradientTransform="translate(-1115.74 -2506.85) rotate(44.42)" gradientUnits="userSpaceOnUse"><stop offset="0" stop-color="#289c19"/><stop offset="1" stop-color="#bfff00"/></linearGradient><linearGradient id="Degradado_sin_nombre_110-2" x1="2665.78" y1="961.57" x2="2665.78" y2="1022.91" xlink:href="#Degradado_sin_nombre_110"/><linearGradient id="Degradado_sin_nombre_110-3" x1="92.02" y1="84.5" x2="92.02" y2="36.35" gradientTransform="matrix(1, 0, 0, 1, 0, 0)" xlink:href="#Degradado_sin_nombre_110"/></defs><title>Asset 12</title><g id="Layer_2" data-name="Layer 2"><g id="Layer_1-2" data-name="Layer 1"><path class="cls-1" d="M166.53,69.34q-1.67-2.13-1.66-6.4t1.66-6.4a5.78,5.78,0,0,1,4.85-2.12,5.72,5.72,0,0,1,4.24,1.6,6.28,6.28,0,0,1,1.61,4.69h-2.47a4.54,4.54,0,0,0-.91-3.07,3.08,3.08,0,0,0-2.47-1.06q-4,0-4,5.76v1.2c0,3.84,1.35,5.76,4,5.76a3.19,3.19,0,0,0,2.51-1,4.48,4.48,0,0,0,.93-3.06h2.37a6.35,6.35,0,0,1-1.59,4.68,6.57,6.57,0,0,1-9.11-.54Z"/><path class="cls-1" d="M183.26,69.31c-1.16-1.43-1.73-3.55-1.73-6.37s.57-4.94,1.73-6.37a6.59,6.59,0,0,1,9.74,0q1.73,2.15,1.73,6.37T193,69.31a6.59,6.59,0,0,1-9.74,0Zm7.88-1.49a7.25,7.25,0,0,0,1.07-4.28v-1.2a7.25,7.25,0,0,0-1.07-4.28,3.8,3.8,0,0,0-6,0,7.17,7.17,0,0,0-1.07,4.28v1.2a7.17,7.17,0,0,0,1.07,4.28,3.8,3.8,0,0,0,6,0Z"/><path class="cls-1" d="M200.52,70.22A4.48,4.48,0,0,1,199,66.47l0-.51h2.49l0,.48a2.68,2.68,0,0,0,.84,2.12,3.26,3.26,0,0,0,2.23.74,3.59,3.59,0,0,0,2.34-.66,2.24,2.24,0,0,0,.81-1.84,2.12,2.12,0,0,0-.47-1.41,3.38,3.38,0,0,0-1.18-.88,18.78,18.78,0,0,0-1.93-.71,18.42,18.42,0,0,1-2.5-1A4.44,4.44,0,0,1,200,61.39a4.18,4.18,0,0,1-.67-2.48,4,4,0,0,1,1.5-3.34,6.05,6.05,0,0,1,3.8-1.15,5.78,5.78,0,0,1,3.77,1.18,4.24,4.24,0,0,1,1.47,3.52v.29h-2.5V59.1a2.34,2.34,0,0,0-.76-1.85,2.8,2.8,0,0,0-2-.67,3.4,3.4,0,0,0-2,.55,1.85,1.85,0,0,0-.77,1.59,1.83,1.83,0,0,0,.46,1.28,3.31,3.31,0,0,0,1.15.83,16.29,16.29,0,0,0,1.87.67,19.89,19.89,0,0,1,2.53,1,4.62,4.62,0,0,1,1.67,1.42,4,4,0,0,1,.7,2.45,4.7,4.7,0,0,1-1.53,3.89,6.44,6.44,0,0,1-4.14,1.22A6.23,6.23,0,0,1,200.52,70.22Z"/><path class="cls-1" d="M215.05,54.71h3.57L221.24,65a18.52,18.52,0,0,1,.37,2c.12.86.2,1.42.23,1.7h.09c0-.29.1-.87.21-1.73a17.67,17.67,0,0,1,.32-2l2.64-10.25h3.51V71.17h-2.36V59.68c0-.26,0-.7.08-1.32s.08-1,.09-1.25h-.09l-.17.72c-.18.9-.31,1.51-.41,1.85l-3,11.49h-2.13l-3-11.52c-.16-.64-.33-1.49-.53-2.54H217c0,.22,0,.6.07,1.14s.06,1,.07,1.43V71.17h-2.13Z"/><path class="cls-1" d="M234.1,54.71h10.25v2.18H236.5v4.78h6.8v2.16h-6.8V69h8v2.18H234.1ZM239.62,50H242l0,.07-2.59,3.1h-1.9Z"/><path class="cls-1" d="M252.94,56.89h-4.37V54.71H259.7v2.18h-4.34V71.17h-2.42Z"/><path class="cls-1" d="M264.06,54.71h2.4V71.17h-2.4Z"/><path class="cls-1" d="M273.09,69.34q-1.65-2.13-1.65-6.4t1.65-6.4a6.53,6.53,0,0,1,9.1-.52,6.32,6.32,0,0,1,1.61,4.69h-2.48a4.54,4.54,0,0,0-.91-3.07,3.08,3.08,0,0,0-2.47-1.06c-2.66,0-4,1.92-4,5.76v1.2q0,5.76,4,5.76a3.21,3.21,0,0,0,2.51-1,4.53,4.53,0,0,0,.92-3.06h2.38a6.35,6.35,0,0,1-1.6,4.68,6.57,6.57,0,0,1-9.11-.54Z"/><path class="cls-1" d="M292.21,54.71h3l5.25,16.46H297.9l-1.08-3.53h-6.39l-1.08,3.53H287Zm3.93,10.75-2.06-6.74c-.08-.28-.16-.63-.25-1.07s-.14-.73-.16-.88h-.09c0,.15-.07.44-.16.89s-.17.8-.25,1.06l-2.09,6.74Z"/><path class="cls-2" d="M66.74,84.27a34.55,34.55,0,1,1,50.55-47.1c9.89,4.52,16.64,13.14,16.74,23.12a42,42,0,0,0-84,.86C50.1,71.13,56.85,79.75,66.74,84.27Z"/><path class="cls-3" d="M117.29,37.17a34.55,34.55,0,1,1-50.55,47.1C56.85,79.75,50.1,71.13,50,61.15a42,42,0,0,0,84-.86C133.93,50.31,127.18,41.69,117.29,37.17Z"/><path class="cls-4" d="M108,46.77h-6.54a1.37,1.37,0,0,0-1.37,1.38V65.69a1.37,1.37,0,0,0,1.37,1.37H108a1.37,1.37,0,0,0,1.37-1.37V48.15A1.37,1.37,0,0,0,108,46.77Zm-.38-2.47a24.37,24.37,0,0,0-.81-7.24,1.37,1.37,0,0,0-2.27-.51l-2,2a1.35,1.35,0,0,0-.38.75,29.07,29.07,0,0,0-.28,5,1.38,1.38,0,0,0,1.38,1.33h3A1.37,1.37,0,0,0,107.61,44.3ZM81.4,48.44H75.6v1.73h5.8Zm12.88-7a.95.95,0,0,0,0-1.89H91.17V38.46h1.69a.94.94,0,0,0,0-1.88H91.17V35.34a.94.94,0,1,0-1.88,0v1.24H87.63a.94.94,0,1,0,0,1.88h1.66v1.07H86.43a.95.95,0,1,0,0,1.89h2.86v1H86.43a.94.94,0,1,0,0,1.88h2.86v1.07H87.63a.95.95,0,1,0,0,1.89h1.66V57.77a1.74,1.74,0,0,1-1.74,1.74h-.33a1.74,1.74,0,0,0-1.74,1.74V83.57a1.37,1.37,0,0,0,1.38,1.37h6.83a1.37,1.37,0,0,0,1.37-1.37V61.25a1.74,1.74,0,0,0-1.74-1.74h-.41a1.73,1.73,0,0,1-1.73-1.74V47.28h1.68a.95.95,0,0,0,0-1.89H91.18V44.32h3.1a.94.94,0,0,0,0-1.88H91.17v-1ZM99,68.13V70h11.52V68.13Zm1.37,17h8.77a1.38,1.38,0,0,0,1.38-1.38V72.09a1.38,1.38,0,0,0-1.38-1.38h-8.77A1.37,1.37,0,0,0,99,72.09V83.78A1.37,1.37,0,0,0,100.33,85.16Zm-25.4-.37h7.14a1.37,1.37,0,0,0,1.37-1.38V52.56a1.37,1.37,0,0,0-1.37-1.37H74.93a1.38,1.38,0,0,0-1.38,1.37V83.41A1.38,1.38,0,0,0,74.93,84.79Z"/><path class="cls-1" d="M381.17,121.44H0V0H381.17ZM2,119.44H379.17V2H2Z"/></g></g></svg>