<svg xmlns="http://www.w3.org/2000/svg" xmlns:xlink="http://www.w3.org/1999/xlink" viewBox="0 0 381.17 121.44"><defs><style>.cls-1{fill:#bfff00;}.cls-2{fill:url(#Degradado_sin_nombre_110);}.cls-3{fill:url(#Degradado_sin_nombre_110-2);}.cls-4{fill:url(#Degradado_sin_nombre_110-3);}</style><linearGradient id="Degradado_sin_nombre_110" x1="2762.51" y1="974.21" x2="2762.51" y2="909.61" gradientTransform="translate(-1224.77 -2551.37) rotate(44.42)" gradientUnits="userSpaceOnUse"><stop offset="0" stop-color="#289c19"/><stop offset="1" stop-color="#bfff00"/></linearGradient><linearGradient id="Degradado_sin_nombre_110-2" x1="2774.81" y1="917.06" x2="2774.81" y2="978.4" xlink:href="#Degradado_sin_nombre_110"/><linearGradient id="Degradado_sin_nombre_110-3" x1="92.01" y1="83.01" x2="92.01" y2="39.26" gradientTransform="matrix(1, 0, 0, 1, 0, 0)" xlink:href="#Degradado_sin_nombre_110"/></defs><title>Asset 13</title><g id="Layer_2" data-name="Layer 2"><g id="Layer_1-2" data-name="Layer 1"><path class="cls-1" d="M165.47,52.49h2.4V69h-2.4Z"/><path class="cls-1" d="M173.43,52.49h2.11l5.78,9.93a7.26,7.26,0,0,1,.52,1c.2.47.33.79.39,1l.08,0-.05-1.92v-10h2.16V69h-2.07l-5.83-10c-.14-.26-.32-.62-.53-1.08s-.34-.78-.4-.94l-.1.05c0,.15,0,.41.06.79s0,.76,0,1.13V69h-2.16Z"/><path class="cls-1" d="M190,52.49h5.19a5.72,5.72,0,0,1,4.69,2,9.21,9.21,0,0,1,1.67,5.95q0,4.16-1.67,6.31A5.59,5.59,0,0,1,195.21,69H190Zm5,14.28a3.52,3.52,0,0,0,3-1.44,7.1,7.1,0,0,0,1.07-4.25v-1.2A6.09,6.09,0,0,0,198,56a3.64,3.64,0,0,0-3-1.32h-2.57v12.1Z"/><path class="cls-1" d="M207.94,67.81a5.57,5.57,0,0,1-1.43-4.14V52.49h2.42V63.72a3.57,3.57,0,0,0,.8,2.5,3,3,0,0,0,2.27.86,2.93,2.93,0,0,0,2.28-.88,3.51,3.51,0,0,0,.82-2.48V52.49h2.4V63.67a5.76,5.76,0,0,1-9.56,4.14Z"/><path class="cls-1" d="M223.83,68a4.48,4.48,0,0,1-1.56-3.75l0-.51h2.5l0,.48a2.68,2.68,0,0,0,.84,2.12,3.26,3.26,0,0,0,2.23.74,3.62,3.62,0,0,0,2.34-.66,2.26,2.26,0,0,0,.8-1.84,2.07,2.07,0,0,0-.47-1.41,3.35,3.35,0,0,0-1.17-.88,19.72,19.72,0,0,0-1.93-.71,17.9,17.9,0,0,1-2.5-1,4.44,4.44,0,0,1-1.63-1.43,4.18,4.18,0,0,1-.67-2.48,4,4,0,0,1,1.5-3.34,6,6,0,0,1,3.8-1.15,5.8,5.8,0,0,1,3.77,1.18,4.26,4.26,0,0,1,1.46,3.52v.29h-2.49v-.31a2.37,2.37,0,0,0-.76-1.85,2.83,2.83,0,0,0-2-.67,3.44,3.44,0,0,0-2,.55,1.84,1.84,0,0,0-.76,1.59,1.87,1.87,0,0,0,.45,1.28,3.5,3.5,0,0,0,1.15.83,16.56,16.56,0,0,0,1.88.67,19.89,19.89,0,0,1,2.53,1,4.7,4.7,0,0,1,1.67,1.42,4,4,0,0,1,.69,2.45A4.73,4.73,0,0,1,232,68a6.48,6.48,0,0,1-4.14,1.22A6.23,6.23,0,0,1,223.83,68Z"/><path class="cls-1" d="M241.6,54.67h-4.37V52.49h11.14v2.18H244V69H241.6Z"/><path class="cls-1" d="M252.76,52.49h6.7a5,5,0,0,1,3.68,1.26,4.46,4.46,0,0,1,1.29,3.35,4.63,4.63,0,0,1-.77,2.64,4.19,4.19,0,0,1-2.11,1.6L264.81,69h-2.66l-3-7.15h-4V69h-2.4Zm6.53,7.15a2.39,2.39,0,0,0,2.57-2.54,2.4,2.4,0,0,0-.65-1.78,2.57,2.57,0,0,0-1.9-.65h-4.15v5Z"/><path class="cls-1" d="M269.3,52.49h2.4V69h-2.4Z"/><path class="cls-1" d="M281.07,52.49h3L289.33,69h-2.57l-1.08-3.53H279.3L278.22,69h-2.4ZM285,63.24,283,56.5c-.08-.28-.17-.63-.26-1.07s-.14-.73-.15-.88h-.1c0,.15-.07.44-.15.89s-.18.8-.26,1.06L280,63.24Z"/><path class="cls-1" d="M293.49,52.49h2.4V66.72h6.81V69h-9.21Z"/><path class="cls-2" d="M66.74,84.27a34.55,34.55,0,1,1,50.55-47.1c9.89,4.52,16.64,13.14,16.74,23.12a42,42,0,0,0-84,.86C50.1,71.13,56.85,79.75,66.74,84.27Z"/><path class="cls-3" d="M117.29,37.17a34.55,34.55,0,1,1-50.55,47.1C56.85,79.75,50.1,71.13,50,61.15a42,42,0,0,0,84-.86C133.93,50.31,127.18,41.69,117.29,37.17Z"/><path class="cls-4" d="M113.55,55.78h-4.13a18,18,0,0,0-1.61-3.87L110.74,49a2,2,0,0,0,0-2.83L106.59,42a2,2,0,0,0-2.84,0l-2.92,2.92A17.53,17.53,0,0,0,97,43.32V39.18a2,2,0,0,0-2-2H89.08a2,2,0,0,0-2,2v4.13a18.8,18.8,0,0,0-3.88,1.61L80.28,42a2,2,0,0,0-2.84,0l-4.15,4.16a2,2,0,0,0,0,2.83l2.92,2.92a18.23,18.23,0,0,0-1.6,3.88H70.47a2,2,0,0,0-2,2v5.88a2,2,0,0,0,2,2h4.14a17.94,17.94,0,0,0,1.6,3.87l-2.92,2.93a2,2,0,0,0,0,2.83l4.15,4.16a2,2,0,0,0,2.83,0l2.92-2.92a18.77,18.77,0,0,0,3.88,1.6v4.13a2,2,0,0,0,2,2H95a2,2,0,0,0,2-2V78.13a18,18,0,0,0,3.87-1.61l2.93,2.93a2,2,0,0,0,2.83,0l4.16-4.16a2,2,0,0,0,0-2.83l-2.93-2.93a18,18,0,0,0,1.61-3.87h4.13a2,2,0,0,0,2-2V57.78A2,2,0,0,0,113.55,55.78ZM92,70.66A9.94,9.94,0,1,1,102,60.72,9.94,9.94,0,0,1,92,70.66Z"/><path class="cls-1" d="M381.17,121.44H0V0H381.17ZM2,119.44H379.17V2H2Z"/></g></g></svg>