<svg xmlns="http://www.w3.org/2000/svg" xmlns:xlink="http://www.w3.org/1999/xlink" viewBox="0 0 1031.53 98.07"><defs><style>.cls-1{fill:#bfff00;}.cls-2{fill:url(#Degradado_sin_nombre_110);}.cls-3{fill:url(#Degradado_sin_nombre_110-2);}.cls-4{fill:url(#Degradado_sin_nombre_110-3);}.cls-5{fill:url(#Degradado_sin_nombre_110-4);}.cls-6{fill:url(#Degradado_sin_nombre_110-5);}.cls-7{fill:url(#Degradado_sin_nombre_110-6);}.cls-8{fill:url(#Degradado_sin_nombre_110-7);}.cls-9{fill:url(#Degradado_sin_nombre_110-8);}.cls-10{fill:url(#Degradado_sin_nombre_110-9);}.cls-11{fill:url(#Degradado_sin_nombre_110-10);}.cls-12{fill:url(#Degradado_sin_nombre_110-11);}.cls-13{fill:url(#Degradado_sin_nombre_110-12);}.cls-14{fill:url(#Degradado_sin_nombre_110-13);}.cls-15{fill:url(#Degradado_sin_nombre_110-14);}.cls-16{fill:url(#Degradado_sin_nombre_110-15);}.cls-17{fill:url(#Degradado_sin_nombre_110-16);}.cls-18{fill:url(#Degradado_sin_nombre_110-17);}.cls-19{fill:url(#Degradado_sin_nombre_110-18);}</style><linearGradient id="Degradado_sin_nombre_110" x1="-307.16" y1="963.9" x2="-307.16" y2="917.21" gradientTransform="translate(915.03 -422.76) rotate(44.42)" gradientUnits="userSpaceOnUse"><stop offset="0" stop-color="#289c19"/><stop offset="1" stop-color="#bfff00"/></linearGradient><linearGradient id="Degradado_sin_nombre_110-2" x1="-298.27" y1="922.59" x2="-298.27" y2="966.92" xlink:href="#Degradado_sin_nombre_110"/><linearGradient id="Degradado_sin_nombre_110-3" x1="39.41" y1="58.53" x2="39.41" y2="18.23" gradientTransform="matrix(1, 0, 0, 1, 0, 0)" xlink:href="#Degradado_sin_nombre_110"/><linearGradient id="Degradado_sin_nombre_110-4" x1="-178.67" y1="826.79" x2="-178.67" y2="780.11" xlink:href="#Degradado_sin_nombre_110"/><linearGradient id="Degradado_sin_nombre_110-5" x1="-169.77" y1="785.49" x2="-169.77" y2="829.82" xlink:href="#Degradado_sin_nombre_110"/><linearGradient id="Degradado_sin_nombre_110-6" x1="227.14" y1="47.55" x2="227.14" y2="12.75" gradientTransform="matrix(1, 0, 0, 1, 0, 0)" xlink:href="#Degradado_sin_nombre_110"/><linearGradient id="Degradado_sin_nombre_110-7" x1="-44.57" y1="695.4" x2="-44.57" y2="648.72" xlink:href="#Degradado_sin_nombre_110"/><linearGradient id="Degradado_sin_nombre_110-8" x1="-35.68" y1="654.1" x2="-35.68" y2="698.43" xlink:href="#Degradado_sin_nombre_110"/><linearGradient id="Degradado_sin_nombre_110-9" x1="414.88" y1="46.47" x2="414.88" y2="14.86" gradientTransform="matrix(1, 0, 0, 1, 0, 0)" xlink:href="#Degradado_sin_nombre_110"/><linearGradient id="Degradado_sin_nombre_110-10" x1="89.52" y1="564.01" x2="89.52" y2="517.33" xlink:href="#Degradado_sin_nombre_110"/><linearGradient id="Degradado_sin_nombre_110-11" x1="98.42" y1="522.71" x2="98.42" y2="567.04" xlink:href="#Degradado_sin_nombre_110"/><linearGradient id="Degradado_sin_nombre_110-12" x1="603.63" y1="48.55" x2="603.63" y2="11.32" gradientTransform="matrix(1, 0, 0, 1, 0, 0)" xlink:href="#Degradado_sin_nombre_110"/><linearGradient id="Degradado_sin_nombre_110-13" x1="223.62" y1="432.63" x2="223.62" y2="385.94" xlink:href="#Degradado_sin_nombre_110"/><linearGradient id="Degradado_sin_nombre_110-14" x1="232.51" y1="391.32" x2="232.51" y2="435.65" xlink:href="#Degradado_sin_nombre_110"/><linearGradient id="Degradado_sin_nombre_110-15" x1="2705.99" y1="-242.08" x2="2743.15" y2="-242.08" gradientTransform="translate(-962.29 2130.83) rotate(-45)" xlink:href="#Degradado_sin_nombre_110"/><linearGradient id="Degradado_sin_nombre_110-16" x1="361.21" y1="304.81" x2="361.21" y2="258.12" xlink:href="#Degradado_sin_nombre_110"/><linearGradient id="Degradado_sin_nombre_110-17" x1="370.1" y1="263.5" x2="370.1" y2="307.83" xlink:href="#Degradado_sin_nombre_110"/><linearGradient id="Degradado_sin_nombre_110-18" x1="978.08" y1="47.9" x2="978.08" y2="21.58" gradientTransform="matrix(1, 0, 0, 1, 0, 0)" xlink:href="#Degradado_sin_nombre_110"/></defs><title>industrias-home</title><g id="Layer_2" data-name="Layer 2"><g id="Layer_2-2" data-name="Layer 2"><path class="cls-1" d="M3.07,88.3H4.82l3.06,9.6H6.38l-.63-2.05H2L1.4,97.9H0Zm2.29,6.27-1.2-3.93A6,6,0,0,1,4,90q-.07-.37-.09-.51H3.86c0,.09,0,.26-.09.52s-.1.47-.14.62L2.41,94.57Z"/><path class="cls-1" d="M10.35,88.3h1.4v8.3h4v1.3H10.35Z"/><path class="cls-1" d="M18.31,88.3h1.4v9.6h-1.4Z"/><path class="cls-1" d="M22.94,88.3H25l1.52,6a9.79,9.79,0,0,1,.22,1.18c.07.5.12.83.13,1H27l.12-1a9.6,9.6,0,0,1,.19-1.16l1.54-6h2v9.6H29.48V91.2c0-.15,0-.41,0-.77l.06-.73h-.06l-.1.42c-.1.52-.18.88-.23,1.08l-1.74,6.7H26.2l-1.73-6.72c-.09-.37-.2-.86-.31-1.48H24.1c0,.13,0,.35,0,.66s0,.59,0,.84v6.7H22.94Z"/><path class="cls-1" d="M34.1,88.3h6v1.27H35.5v2.79h4v1.26h-4v3h4.67V97.9H34.1Z"/><path class="cls-1" d="M43,88.3h1.24l3.37,5.8a5.45,5.45,0,0,1,.3.6c.12.28.19.46.23.56l0,0,0-1.12V88.3h1.26v9.6H48.23l-3.4-5.85c-.08-.15-.19-.36-.31-.63l-.24-.54-.05,0c0,.09,0,.24,0,.47s0,.44,0,.65V97.9H43Z"/><path class="cls-1" d="M54.59,89.57H52V88.3h6.49v1.27H56V97.9H54.59Z"/><path class="cls-1" d="M61.12,88.3h1.4v9.6h-1.4Z"/><path class="cls-1" d="M66.43,96.83a7.73,7.73,0,0,1,0-7.46,3.81,3.81,0,0,1,5.31-.31,3.69,3.69,0,0,1,.94,2.74H71.24A2.62,2.62,0,0,0,70.7,90a1.8,1.8,0,0,0-1.44-.62c-1.55,0-2.32,1.12-2.32,3.36v.7c0,2.24.78,3.36,2.35,3.36a1.83,1.83,0,0,0,1.46-.61,2.6,2.6,0,0,0,.54-1.78h1.39a3.7,3.7,0,0,1-.93,2.73,3.84,3.84,0,0,1-5.32-.32Z"/><path class="cls-1" d="M75.6,88.3H77v9.6H75.6Z"/><path class="cls-1" d="M82.51,88.3h1.75l3.07,9.6h-1.5l-.63-2.05H81.48l-.63,2.05h-1.4Zm2.3,6.27L83.6,90.64c0-.16-.09-.37-.14-.63a3.93,3.93,0,0,1-.09-.51h-.06c0,.09,0,.26-.09.52a5.17,5.17,0,0,1-.15.62l-1.22,3.93Z"/><path class="cls-1" d="M193.15,96.83a7.73,7.73,0,0,1,0-7.46,3.81,3.81,0,0,1,5.31-.31,3.73,3.73,0,0,1,.94,2.74H198a2.62,2.62,0,0,0-.53-1.79,1.8,1.8,0,0,0-1.44-.62c-1.55,0-2.32,1.12-2.32,3.36v.7c0,2.24.78,3.36,2.35,3.36a1.85,1.85,0,0,0,1.46-.61,2.6,2.6,0,0,0,.54-1.78h1.39a3.7,3.7,0,0,1-.93,2.73,3.42,3.42,0,0,1-2.49.92A3.37,3.37,0,0,1,193.15,96.83Z"/><path class="cls-1" d="M203,96.82a7.36,7.36,0,0,1,0-7.44,3.86,3.86,0,0,1,5.69,0,7.42,7.42,0,0,1,0,7.44,3.86,3.86,0,0,1-5.69,0Zm4.6-.87a4.2,4.2,0,0,0,.62-2.5v-.7a4.22,4.22,0,0,0-.62-2.5,2.22,2.22,0,0,0-3.51,0,4.21,4.21,0,0,0-.63,2.5v.7A4.19,4.19,0,0,0,204,96a2.22,2.22,0,0,0,3.51,0Z"/><path class="cls-1" d="M213.07,97.35a2.61,2.61,0,0,1-.91-2.19v-.29h1.46v.28a1.55,1.55,0,0,0,.49,1.23,1.87,1.87,0,0,0,1.3.43,2.12,2.12,0,0,0,1.36-.38,1.3,1.3,0,0,0,.47-1.07,1.24,1.24,0,0,0-.27-.83,1.78,1.78,0,0,0-.69-.51,9.36,9.36,0,0,0-1.12-.41A10.78,10.78,0,0,1,213.7,93a2.5,2.5,0,0,1-.95-.83,2.46,2.46,0,0,1-.39-1.45,2.32,2.32,0,0,1,.87-2,3.57,3.57,0,0,1,2.22-.67,3.39,3.39,0,0,1,2.2.69,2.47,2.47,0,0,1,.85,2.06V91h-1.45v-.18a1.39,1.39,0,0,0-.44-1.08,1.69,1.69,0,0,0-1.15-.39,2,2,0,0,0-1.19.32,1.1,1.1,0,0,0-.44.93,1.12,1.12,0,0,0,.26.75,1.9,1.9,0,0,0,.68.48,9.75,9.75,0,0,0,1.09.39,11,11,0,0,1,1.47.58,2.65,2.65,0,0,1,1,.82,2.35,2.35,0,0,1,.4,1.43,2.72,2.72,0,0,1-.89,2.27,3.76,3.76,0,0,1-2.41.71A3.67,3.67,0,0,1,213.07,97.35Z"/><path class="cls-1" d="M221.59,88.3h2.08l1.53,6c.07.29.15.68.22,1.18s.11.83.13,1h.06c0-.17,0-.51.11-1s.13-.89.19-1.16l1.54-6h2.05v9.6h-1.38V91.2c0-.15,0-.41,0-.77s0-.61.05-.73h-.05l-.1.42q-.15.78-.24,1.08l-1.73,6.7h-1.25l-1.74-6.72c-.09-.37-.19-.86-.3-1.48h-.06c0,.13,0,.35,0,.66s0,.59,0,.84v6.7h-1.24Z"/><path class="cls-1" d="M232.75,88.3h6v1.27h-4.58v2.79h4v1.26h-4v3h4.66V97.9h-6.06ZM236,85.54h1.4v0l-1.51,1.81h-1.11Z"/><path class="cls-1" d="M243.78,89.57h-2.55V88.3h6.5v1.27h-2.54V97.9h-1.41Z"/><path class="cls-1" d="M250.31,88.3h1.4v9.6h-1.4Z"/><path class="cls-1" d="M255.62,96.83a7.73,7.73,0,0,1,0-7.46,3.81,3.81,0,0,1,5.31-.31,3.69,3.69,0,0,1,.94,2.74h-1.44A2.67,2.67,0,0,0,259.9,90a1.83,1.83,0,0,0-1.45-.62c-1.55,0-2.32,1.12-2.32,3.36v.7c0,2.24.78,3.36,2.35,3.36a1.83,1.83,0,0,0,1.46-.61,2.6,2.6,0,0,0,.54-1.78h1.39a3.7,3.7,0,0,1-.93,2.73,3.84,3.84,0,0,1-5.32-.32Z"/><path class="cls-1" d="M266.82,88.3h1.75l3.07,9.6h-1.5l-.63-2.05h-3.72l-.63,2.05h-1.4Zm2.3,6.27-1.21-3.93c0-.16-.09-.37-.14-.63s-.08-.42-.09-.51h-.06c0,.09,0,.26-.09.52a5.17,5.17,0,0,1-.15.62l-1.22,3.93Z"/><path class="cls-1" d="M376.7,88.3h1.4v9.6h-1.4Z"/><path class="cls-1" d="M381.39,88.3h1.23L386,94.1a4,4,0,0,1,.31.6c.11.28.19.46.23.56l0,0,0-1.12V88.3h1.26v9.6h-1.2l-3.41-5.85q-.12-.22-.3-.63l-.24-.54-.06,0c0,.09,0,.24,0,.47s0,.44,0,.65V97.9h-1.26Z"/><path class="cls-1" d="M391.11,88.3h3a3.36,3.36,0,0,1,2.74,1.19,5.41,5.41,0,0,1,1,3.47,6,6,0,0,1-1,3.68,3.27,3.27,0,0,1-2.74,1.26h-3Zm2.9,8.33a2.06,2.06,0,0,0,1.75-.84,4.18,4.18,0,0,0,.62-2.48v-.7a3.59,3.59,0,0,0-.62-2.27,2.14,2.14,0,0,0-1.75-.77h-1.5v7.06Z"/><path class="cls-1" d="M401.62,97.24a3.27,3.27,0,0,1-.84-2.42V88.3h1.41v6.55a2.08,2.08,0,0,0,.47,1.46,2,2,0,0,0,2.65,0,2,2,0,0,0,.48-1.45V88.3h1.4v6.52A2.92,2.92,0,0,1,404,98.07,3.22,3.22,0,0,1,401.62,97.24Z"/><path class="cls-1" d="M410.93,97.35a2.61,2.61,0,0,1-.91-2.19v-.29h1.46v.28a1.55,1.55,0,0,0,.49,1.23,1.87,1.87,0,0,0,1.3.43,2.12,2.12,0,0,0,1.36-.38,1.3,1.3,0,0,0,.47-1.07,1.24,1.24,0,0,0-.27-.83,1.78,1.78,0,0,0-.69-.51,9.36,9.36,0,0,0-1.12-.41,10.78,10.78,0,0,1-1.46-.58,2.5,2.5,0,0,1-.95-.83,2.46,2.46,0,0,1-.39-1.45,2.32,2.32,0,0,1,.87-2,3.57,3.57,0,0,1,2.22-.67,3.39,3.39,0,0,1,2.2.69,2.47,2.47,0,0,1,.85,2.06V91h-1.45v-.18a1.39,1.39,0,0,0-.44-1.08,1.69,1.69,0,0,0-1.15-.39,2,2,0,0,0-1.19.32,1.1,1.1,0,0,0-.44.93,1.07,1.07,0,0,0,.26.75,2,2,0,0,0,.67.48,10.86,10.86,0,0,0,1.1.39,11,11,0,0,1,1.47.58,2.65,2.65,0,0,1,1,.82,2.35,2.35,0,0,1,.4,1.43,2.72,2.72,0,0,1-.89,2.27,3.76,3.76,0,0,1-2.41.71A3.67,3.67,0,0,1,410.93,97.35Z"/><path class="cls-1" d="M421.35,89.57H418.8V88.3h6.49v1.27h-2.53V97.9h-1.41Z"/><path class="cls-1" d="M427.9,88.3h3.9A2.93,2.93,0,0,1,434,89a2.63,2.63,0,0,1,.75,2,2.66,2.66,0,0,1-.45,1.54,2.42,2.42,0,0,1-1.23.94l1.91,4.43h-1.56l-1.72-4.17H429.3V97.9h-1.4Zm3.81,4.17A1.37,1.37,0,0,0,433.2,91a1.41,1.41,0,0,0-.37-1,1.52,1.52,0,0,0-1.11-.38H429.3v2.9Z"/><path class="cls-1" d="M437.59,88.3H439v9.6h-1.4Z"/><path class="cls-1" d="M444.5,88.3h1.75l3.07,9.6h-1.5l-.63-2.05h-3.72l-.63,2.05h-1.4Zm2.3,6.27-1.21-3.93c0-.16-.09-.37-.14-.63s-.08-.42-.09-.51h-.06c0,.09,0,.26-.09.52a5.17,5.17,0,0,1-.15.62l-1.22,3.93Z"/><path class="cls-1" d="M451.79,88.3h1.4v8.3h4v1.3h-5.37Z"/><path class="cls-2" d="M21.14,55.38a25,25,0,1,1,36.53-34c7.15,3.26,12,9.49,12.1,16.7a30.36,30.36,0,1,0-60.72.62C9.12,45.88,14,52.11,21.14,55.38Z"/><path class="cls-3" d="M57.67,21.35a25,25,0,1,1-36.53,34c-7.15-3.27-12-9.5-12.09-16.71a30.36,30.36,0,0,0,60.72-.62C69.69,30.84,64.82,24.61,57.67,21.35Z"/><path class="cls-4" d="M35.13,20.22a10.59,10.59,0,0,0-6.27,9.32l-.32,8.62A2.67,2.67,0,0,0,31.2,41h1.08l-2,12.67a3.19,3.19,0,1,0,6.34.51V21.24A1.09,1.09,0,0,0,35.13,20.22Zm13.94-.06a1.14,1.14,0,0,0-1.14,1.14v8.62a.56.56,0,0,1-.57.57h-.69a.57.57,0,0,1-.58-.57V21.3a1.14,1.14,0,1,0-2.28,0v8.62a.56.56,0,0,1-.57.57h-.69a.56.56,0,0,1-.57-.57V21.3a1.15,1.15,0,0,0-2.29,0V31.38A2.68,2.68,0,0,0,42.36,34h.57l-1.21,19.9A3.21,3.21,0,0,0,45,57.36H45a3.28,3.28,0,0,0,3.23-3.42L47.05,34h.57a2.68,2.68,0,0,0,2.66-2.66V21.3A1.24,1.24,0,0,0,49.07,20.16Z"/><path class="cls-5" d="M208.88,47.38a25,25,0,1,1,36.52-34c7.16,3.26,12,9.49,12.1,16.7a30.36,30.36,0,0,0-60.72.62C196.85,37.88,201.73,44.11,208.88,47.38Z"/><path class="cls-6" d="M245.4,13.35a25,25,0,1,1-36.52,34c-7.15-3.27-12-9.5-12.1-16.71a30.36,30.36,0,1,0,60.72-.62C257.43,22.84,252.56,16.61,245.4,13.35Z"/><path class="cls-7" d="M238.68,20.28H234a1,1,0,0,0-1,1V34a1,1,0,0,0,1,1h4.72a1,1,0,0,0,1-1V21.28A1,1,0,0,0,238.68,20.28Zm-.27-1.79a17.86,17.86,0,0,0-.58-5.23,1,1,0,0,0-1.65-.37l-1.47,1.47a1.12,1.12,0,0,0-.28.54,21.69,21.69,0,0,0-.19,3.6,1,1,0,0,0,1,1h2.19A1,1,0,0,0,238.41,18.49Zm-18.94,3h-4.19v1.25h4.19Zm9.31-5.08a.68.68,0,1,0,0-1.36h-2.25v-.77h1.22a.68.68,0,1,0,0-1.36h-1.22V12a.68.68,0,0,0-1.36,0v.9H224a.68.68,0,0,0,0,1.36h1.2v.77H223.1a.68.68,0,0,0,0,1.36h2.07v.74H223.1a.68.68,0,0,0,0,1.36h2.07v.78H224a.68.68,0,0,0,0,1.36h1.2v7.58a1.25,1.25,0,0,1-1.25,1.26h-.24a1.25,1.25,0,0,0-1.26,1.25V46.87a1,1,0,0,0,1,1h4.94a1,1,0,0,0,1-1V30.74a1.25,1.25,0,0,0-1.25-1.25h-.3a1.26,1.26,0,0,1-1.26-1.26V20.65h1.22a.68.68,0,1,0,0-1.36h-1.22v-.78h2.25a.68.68,0,1,0,0-1.36h-2.25v-.74Zm3.38,19.31v1.37h8.32V35.72Zm1,12.3h6.34a1,1,0,0,0,1-1V38.58a1,1,0,0,0-1-1h-6.34a1,1,0,0,0-1,1V47A1,1,0,0,0,233.15,48Zm-18.36-.27H220a1,1,0,0,0,1-1V24.47a1,1,0,0,0-1-1h-5.17a1,1,0,0,0-1,1V46.76A1,1,0,0,0,214.79,47.75Z"/><path class="cls-8" d="M396.61,47.38a25,25,0,1,1,36.53-34c7.15,3.26,12,9.49,12.1,16.7a30.36,30.36,0,0,0-60.72.62C384.59,37.88,389.46,44.11,396.61,47.38Z"/><path class="cls-9" d="M433.14,13.35a25,25,0,1,1-36.53,34c-7.15-3.27-12-9.5-12.09-16.71a30.36,30.36,0,1,0,60.72-.62C445.16,22.84,440.29,16.61,433.14,13.35Z"/><path class="cls-10" d="M430.44,26.79h-3a12.64,12.64,0,0,0-1.16-2.8l2.12-2.11a1.46,1.46,0,0,0,0-2.05l-3-3a1.46,1.46,0,0,0-2.05,0l-2.11,2.11a13.1,13.1,0,0,0-2.8-1.15v-3A1.46,1.46,0,0,0,417,13.35h-4.25a1.46,1.46,0,0,0-1.44,1.45v3a13,13,0,0,0-2.8,1.17l-2.12-2.12a1.45,1.45,0,0,0-2,0l-3,3a1.48,1.48,0,0,0,0,2.05L403.46,24a12.93,12.93,0,0,0-1.16,2.8h-3a1.46,1.46,0,0,0-1.45,1.45v4.25a1.46,1.46,0,0,0,1.45,1.44h3a12.45,12.45,0,0,0,1.16,2.8l-2.12,2.12a1.45,1.45,0,0,0,0,2l3,3a1.47,1.47,0,0,0,2.05,0l2.11-2.11a13.1,13.1,0,0,0,2.8,1.15v3a1.46,1.46,0,0,0,1.45,1.45H417a1.46,1.46,0,0,0,1.44-1.45v-3a12.72,12.72,0,0,0,2.8-1.16l2.12,2.12a1.47,1.47,0,0,0,2,0l3-3a1.45,1.45,0,0,0,0-2l-2.12-2.12a12.26,12.26,0,0,0,1.16-2.8h3a1.46,1.46,0,0,0,1.45-1.44V28.24A1.46,1.46,0,0,0,430.44,26.79ZM414.88,37.55a7.19,7.19,0,1,1,7.18-7.19A7.19,7.19,0,0,1,414.88,37.55Z"/><path class="cls-1" d="M562.67,88.3h5.57v1.27h-4.17v2.89h3.66v1.27h-3.66V97.9h-1.4Z"/><path class="cls-1" d="M571,88.3h3.91A2.92,2.92,0,0,1,577,89a2.63,2.63,0,0,1,.75,2,2.73,2.73,0,0,1-.44,1.54,2.45,2.45,0,0,1-1.24.94L578,97.9h-1.56l-1.72-4.17h-2.35V97.9H571Zm3.81,4.17a1.38,1.38,0,0,0,1.5-1.48,1.41,1.41,0,0,0-.38-1,1.51,1.51,0,0,0-1.11-.38h-2.42v2.9Z"/><path class="cls-1" d="M583.23,88.3H585L588,97.9h-1.5l-.63-2.05h-3.72l-.63,2.05h-1.4Zm2.29,6.27-1.2-3.93a6,6,0,0,1-.15-.63q-.07-.37-.09-.51H584c0,.09,0,.26-.09.52a5.17,5.17,0,0,1-.15.62l-1.21,3.93Z"/><path class="cls-1" d="M593.5,92.84h3.82V97.9h-.91l-.28-1.06a2.88,2.88,0,0,1-2.51,1.23,3.34,3.34,0,0,1-2.8-1.24,6,6,0,0,1-1-3.73,5.81,5.81,0,0,1,1-3.72,3.54,3.54,0,0,1,2.9-1.25,4.11,4.11,0,0,1,1.81.39,3,3,0,0,1,1.27,1.18,3.66,3.66,0,0,1,.46,1.9h-1.44A2.18,2.18,0,0,0,595.3,90a2.35,2.35,0,0,0-3.34.3,4.15,4.15,0,0,0-.63,2.5v.7a4.32,4.32,0,0,0,.6,2.51,2,2,0,0,0,1.79.85,2,2,0,0,0,1.62-.66,3,3,0,0,0,.54-1.94v-.16H593.5Z"/><path class="cls-1" d="M602.81,88.3h1.75l3.07,9.6h-1.5l-.63-2.05h-3.72l-.63,2.05h-1.4Zm2.3,6.27-1.2-3.93a6,6,0,0,1-.15-.63q-.07-.37-.09-.51h-.06c0,.09,0,.26-.09.52a5.17,5.17,0,0,1-.15.62l-1.21,3.93Z"/><path class="cls-1" d="M610.1,88.3h1.23l3.37,5.8a4,4,0,0,1,.31.6c.11.28.19.46.23.56l0,0,0-1.12V88.3h1.26v9.6h-1.2l-3.41-5.85q-.12-.22-.3-.63c-.13-.27-.2-.45-.24-.54l-.06,0c0,.09,0,.24,0,.47s0,.44,0,.65V97.9H610.1Z"/><path class="cls-1" d="M620.44,96.83a7.66,7.66,0,0,1,0-7.46,3.8,3.8,0,0,1,5.3-.31,3.69,3.69,0,0,1,.94,2.74h-1.44a2.67,2.67,0,0,0-.53-1.79,1.82,1.82,0,0,0-1.44-.62c-1.55,0-2.33,1.12-2.33,3.36v.7c0,2.24.79,3.36,2.35,3.36a1.85,1.85,0,0,0,1.47-.61,2.6,2.6,0,0,0,.54-1.78h1.38a3.7,3.7,0,0,1-.93,2.73,3.39,3.39,0,0,1-2.48.92A3.35,3.35,0,0,1,620.44,96.83Z"/><path class="cls-1" d="M629.6,88.3H631v9.6h-1.4Z"/><path class="cls-1" d="M636.52,88.3h1.75l3.06,9.6h-1.5l-.63-2.05h-3.72l-.63,2.05h-1.4Zm2.29,6.27-1.2-3.93a6,6,0,0,1-.15-.63q-.08-.37-.09-.51h-.06a4.3,4.3,0,0,1-.09.52c-.05.26-.1.47-.14.62l-1.22,3.93Z"/><path class="cls-1" d="M644.21,97.35a2.64,2.64,0,0,1-.91-2.19l0-.29h1.45v.28a1.55,1.55,0,0,0,.49,1.23,1.89,1.89,0,0,0,1.3.43,2.17,2.17,0,0,0,1.37-.38,1.33,1.33,0,0,0,.47-1.07,1.24,1.24,0,0,0-.28-.83,1.82,1.82,0,0,0-.68-.51,10.34,10.34,0,0,0-1.13-.41,11.34,11.34,0,0,1-1.46-.58,2.5,2.5,0,0,1-1-.83,2.46,2.46,0,0,1-.39-1.45,2.32,2.32,0,0,1,.87-2,3.62,3.62,0,0,1,2.22-.67,3.39,3.39,0,0,1,2.2.69,2.47,2.47,0,0,1,.86,2.06V91h-1.46v-.18a1.39,1.39,0,0,0-.44-1.08,1.68,1.68,0,0,0-1.14-.39,2,2,0,0,0-1.19.32,1.09,1.09,0,0,0-.45.93,1.12,1.12,0,0,0,.26.75,2,2,0,0,0,.68.48,9.75,9.75,0,0,0,1.09.39,11.18,11.18,0,0,1,1.48.58,2.7,2.7,0,0,1,1,.82,2.35,2.35,0,0,1,.4,1.43,2.75,2.75,0,0,1-.88,2.27,3.81,3.81,0,0,1-2.42.71A3.67,3.67,0,0,1,644.21,97.35Z"/><path class="cls-1" d="M756.41,97.35a2.61,2.61,0,0,1-.91-2.19v-.29H757l0,.28a1.55,1.55,0,0,0,.49,1.23,1.89,1.89,0,0,0,1.3.43,2.15,2.15,0,0,0,1.37-.38,1.33,1.33,0,0,0,.47-1.07,1.19,1.19,0,0,0-.28-.83,1.82,1.82,0,0,0-.68-.51,9.61,9.61,0,0,0-1.13-.41A10.58,10.58,0,0,1,757,93a2.36,2.36,0,0,1-1.35-2.28,2.3,2.3,0,0,1,.88-2,3.57,3.57,0,0,1,2.22-.67,3.38,3.38,0,0,1,2.19.69,2.47,2.47,0,0,1,.86,2.06V91h-1.46v-.18a1.39,1.39,0,0,0-.44-1.08,1.64,1.64,0,0,0-1.14-.39,2,2,0,0,0-1.19.32,1.18,1.18,0,0,0-.18,1.68,1.86,1.86,0,0,0,.67.48,9.75,9.75,0,0,0,1.09.39,11.18,11.18,0,0,1,1.48.58,2.62,2.62,0,0,1,1,.82,2.35,2.35,0,0,1,.41,1.43,2.75,2.75,0,0,1-.89,2.27,3.79,3.79,0,0,1-2.42.71A3.62,3.62,0,0,1,756.41,97.35Z"/><path class="cls-1" d="M767.11,88.3h1.75l3.06,9.6h-1.5l-.63-2.05h-3.72l-.63,2.05H764Zm2.29,6.27-1.2-3.93a6,6,0,0,1-.15-.63q-.07-.37-.09-.51h-.06a4.3,4.3,0,0,1-.09.52c0,.26-.1.47-.14.62l-1.22,3.93Z"/><path class="cls-1" d="M774.36,88.3h3.8a2.89,2.89,0,0,1,1.3.29,2.28,2.28,0,0,1,.9.84,2.32,2.32,0,0,1,.33,1.24,2.37,2.37,0,0,1-.41,1.38,2.16,2.16,0,0,1-1.06.81v.06a2.31,2.31,0,0,1,1.22.87,2.54,2.54,0,0,1,.47,1.55,2.41,2.41,0,0,1-1.37,2.26,3.17,3.17,0,0,1-1.38.3h-3.8Zm3.41,4.06a1.41,1.41,0,0,0,1.05-.41,1.55,1.55,0,0,0,0-2,1.42,1.42,0,0,0-1-.35h-2.07v2.79Zm.19,4.27a1.48,1.48,0,0,0,1.07-.39,1.37,1.37,0,0,0,.41-1.08,1.53,1.53,0,0,0-.42-1.09,1.51,1.51,0,0,0-1.14-.45h-2.1v3Z"/><path class="cls-1" d="M784.38,96.82a7.36,7.36,0,0,1,0-7.44,3.85,3.85,0,0,1,5.68,0,7.36,7.36,0,0,1,0,7.44,3.85,3.85,0,0,1-5.68,0ZM789,96a4.27,4.27,0,0,0,.62-2.5v-.7a4.29,4.29,0,0,0-.62-2.5,2.23,2.23,0,0,0-3.52,0,4.29,4.29,0,0,0-.62,2.5v.7a4.27,4.27,0,0,0,.62,2.5A2.23,2.23,0,0,0,789,96Z"/><path class="cls-1" d="M794,88.3H798a3,3,0,0,1,2.15.73,2.66,2.66,0,0,1,.74,2,2.73,2.73,0,0,1-.44,1.54,2.45,2.45,0,0,1-1.24.94l1.91,4.43h-1.56l-1.72-4.17h-2.35V97.9H794Zm3.81,4.17a1.38,1.38,0,0,0,1.5-1.48,1.41,1.41,0,0,0-.38-1,1.51,1.51,0,0,0-1.11-.38h-2.42v2.9Z"/><path class="cls-1" d="M803.76,88.3h6v1.27h-4.58v2.79h4v1.26h-4v3h4.66V97.9h-6.06Z"/><path class="cls-1" d="M813.23,97.35a2.61,2.61,0,0,1-.91-2.19v-.29h1.46l0,.28a1.58,1.58,0,0,0,.49,1.23,1.9,1.9,0,0,0,1.31.43,2.14,2.14,0,0,0,1.36-.38,1.33,1.33,0,0,0,.47-1.07,1.24,1.24,0,0,0-.27-.83,1.86,1.86,0,0,0-.69-.51,9,9,0,0,0-1.13-.41,11.13,11.13,0,0,1-1.45-.58,2.43,2.43,0,0,1-1-.83,2.39,2.39,0,0,1-.4-1.45,2.33,2.33,0,0,1,.88-2,3.57,3.57,0,0,1,2.22-.67,3.41,3.41,0,0,1,2.2.69,2.49,2.49,0,0,1,.85,2.06V91H817.2v-.18a1.36,1.36,0,0,0-.44-1.08,1.64,1.64,0,0,0-1.14-.39,2,2,0,0,0-1.19.32,1.18,1.18,0,0,0-.18,1.68,2,2,0,0,0,.67.48,10.55,10.55,0,0,0,1.09.39,11.18,11.18,0,0,1,1.48.58,2.62,2.62,0,0,1,1,.82,2.35,2.35,0,0,1,.41,1.43,2.75,2.75,0,0,1-.89,2.27,3.78,3.78,0,0,1-2.41.71A3.63,3.63,0,0,1,813.23,97.35Z"/><path class="cls-1" d="M927,88.3h1.75l3.06,9.6h-1.5l-.63-2.05h-3.72l-.63,2.05h-1.4Zm2.29,6.27-1.2-3.93a6,6,0,0,1-.15-.63q-.07-.37-.09-.51h-.06c0,.09,0,.26-.09.52s-.1.47-.14.62l-1.22,3.93Z"/><path class="cls-1" d="M934.26,88.3h3.9a2.93,2.93,0,0,1,2.15.73,2.63,2.63,0,0,1,.75,2,2.66,2.66,0,0,1-.45,1.54,2.38,2.38,0,0,1-1.23.94l1.91,4.43h-1.56L938,93.73h-2.35V97.9h-1.4Zm3.81,4.17A1.37,1.37,0,0,0,939.56,91a1.41,1.41,0,0,0-.37-1,1.51,1.51,0,0,0-1.11-.38h-2.42v2.9Z"/><path class="cls-1" d="M944.6,96.82a7.36,7.36,0,0,1,0-7.44,3.85,3.85,0,0,1,5.68,0,7.36,7.36,0,0,1,0,7.44,3.85,3.85,0,0,1-5.68,0Zm4.59-.87a4.19,4.19,0,0,0,.63-2.5v-.7a4.21,4.21,0,0,0-.63-2.5,2.22,2.22,0,0,0-3.51,0,4.29,4.29,0,0,0-.62,2.5v.7a4.27,4.27,0,0,0,.62,2.5,2.22,2.22,0,0,0,3.51,0Z"/><path class="cls-1" d="M954.21,88.3h2.08l1.53,6c.07.29.15.68.22,1.18s.11.83.13,1h.05l.12-1c.06-.5.13-.89.19-1.16l1.54-6h2v9.6h-1.38V91.2c0-.15,0-.41,0-.77s0-.61.05-.73h-.05l-.1.42q-.15.78-.24,1.08l-1.74,6.7h-1.24l-1.74-6.72c-.09-.37-.19-.86-.31-1.48h0c0,.13,0,.35,0,.66s0,.59,0,.84v6.7h-1.24Z"/><path class="cls-1" d="M967.6,88.3h1.75l3.06,9.6h-1.5l-.63-2.05h-3.72l-.63,2.05h-1.4Zm2.29,6.27-1.2-3.93a6,6,0,0,1-.15-.63q-.07-.37-.09-.51h-.06c0,.09,0,.26-.09.52s-.1.47-.14.62l-1.22,3.93Z"/><path class="cls-1" d="M975.81,89.57h-2.55V88.3h6.5v1.27h-2.54V97.9h-1.41Z"/><path class="cls-1" d="M982.36,88.3h6v1.27h-4.58v2.79h4v1.26h-4v3h4.66V97.9h-6.06Z"/><path class="cls-1" d="M991.28,88.3h3.91a2.92,2.92,0,0,1,2.14.73,2.63,2.63,0,0,1,.75,2,2.73,2.73,0,0,1-.44,1.54,2.45,2.45,0,0,1-1.24.94l1.91,4.43h-1.56L995,93.73h-2.35V97.9h-1.4Zm3.81,4.17a1.38,1.38,0,0,0,1.5-1.48,1.41,1.41,0,0,0-.38-1,1.51,1.51,0,0,0-1.11-.38h-2.42v2.9Z"/><path class="cls-1" d="M1003.53,88.3h1.75l3.07,9.6h-1.5l-.63-2.05h-3.72l-.63,2.05h-1.4Zm2.3,6.27-1.2-3.93a6,6,0,0,1-.15-.63q-.08-.37-.09-.51h-.06c0,.09,0,.26-.09.52s-.1.47-.14.62l-1.22,3.93Z"/><path class="cls-1" d="M1010.82,88.3h3.43a2.92,2.92,0,0,1,2.16.77,3.18,3.18,0,0,1,0,4.15,2.85,2.85,0,0,1-2.12.79h-2V97.9h-1.4Zm3.35,4.45a1.48,1.48,0,0,0,1.11-.44,1.68,1.68,0,0,0,.41-1.18,1.54,1.54,0,0,0-.4-1.14,1.46,1.46,0,0,0-1.12-.42h-1.95v3.18Z"/><path class="cls-1" d="M1019.81,88.3h1.39v9.6h-1.39Z"/><path class="cls-1" d="M1026.72,88.3h1.75l3.06,9.6H1030l-.63-2.05h-3.73l-.63,2.05h-1.4Zm2.29,6.27-1.2-3.93a6,6,0,0,1-.15-.63q-.08-.37-.09-.51h0c0,.09,0,.26-.09.52s-.11.47-.15.62l-1.22,3.93Z"/><path class="cls-11" d="M584.35,47.38a25,25,0,1,1,36.52-34c7.16,3.26,12,9.49,12.1,16.7a30.36,30.36,0,1,0-60.72.62C572.32,37.88,577.2,44.11,584.35,47.38Z"/><path class="cls-12" d="M620.87,13.35a25,25,0,1,1-36.52,34c-7.15-3.27-12-9.5-12.1-16.71A30.36,30.36,0,0,0,633,30.05C632.9,22.84,628,16.61,620.87,13.35Z"/><path class="cls-13" d="M598.47,13.84l.43-2.52h-3.38l.43,2.52Zm10.1,6.78.43-2.53h-3.38l.43,2.53Zm.62,2.9h.86c1.39,0,1.3-2.2,0-2.2h-5.41c-1.3,0-1.39,2.2,0,2.2h.86c0,6.36-2.25,9.61-3.81,12.69V27.1c0-3.58-3.29-5.1-3.29-11.18h.53c.87,0,.81-1.37,0-1.37h-3.37c-.82,0-.87,1.37,0,1.37h.53c0,6.08-3.29,7.6-3.29,11.18V48a.58.58,0,0,0,.59.59H601a.71.71,0,0,0,.71-.71V45.71a7.1,7.1,0,0,0,12.75-5C614,35.47,609.19,32.84,609.19,23.52Zm-12,23.57h-3V28.57h3Zm10.1,0a5.66,5.66,0,0,1-5.65-5.65v0c0-2.11.86-3.73,1.95-5.77.23-.44.47-.89.71-1.36h3Z"/><path class="cls-14" d="M772.08,47.38a25,25,0,1,1,36.53-34c7.15,3.26,12,9.49,12.1,16.7a30.37,30.37,0,0,0-60.73.62C760.06,37.88,764.93,44.11,772.08,47.38Z"/><path class="cls-15" d="M808.61,13.35a25,25,0,1,1-36.53,34c-7.15-3.27-12-9.5-12.1-16.71a30.37,30.37,0,0,0,60.73-.62C820.63,22.84,815.76,16.61,808.61,13.35Z"/><path class="cls-16" d="M800,13.69a18.44,18.44,0,0,1,5.29,10.84c0,.39.09.79.11,1.2a18.51,18.51,0,0,1-5,13.79L800,40c-.14.14-.28.28-.43.41a18.49,18.49,0,0,1-13.8,5c-.4,0-.8-.05-1.2-.1A18.55,18.55,0,0,1,773.69,40c-.2-.2-.39-.41-.58-.62l1.21-1.21.58.62a16.82,16.82,0,0,0,9.63,4.77q.6.09,1.2.12a16.81,16.81,0,0,0,12.59-4.48c.15-.13.29-.27.43-.41l.42-.44a16.84,16.84,0,0,0,4.48-12.59c0-.4-.07-.8-.12-1.19a16.72,16.72,0,0,0-4.78-9.63c-.2-.21-.4-.4-.61-.59l1.21-1.21C799.56,13.29,799.76,13.48,800,13.69ZM784.53,27.92v14A15.22,15.22,0,0,1,776,37.63c-.2-.2-.39-.4-.58-.61Zm-2.47,5.65c-.48-.2-1.23.52-1.68,1.6s-.43,2.13.06,2.33,1.23-.52,1.68-1.61S782.54,33.77,782.06,33.57Zm3.74-6.92,11.41,11.4a15.24,15.24,0,0,1-11.48,4V26.72ZM788.45,34c-.48.2-.5,1.24-.05,2.32s1.2,1.8,1.68,1.6.5-1.24.06-2.32S788.93,33.79,788.45,34Zm13.63-8.27a15.24,15.24,0,0,1-4,11.48l-11.4-11.4.07-.07Zm-5.76,2.67c-1.09-.45-2.13-.42-2.32.06s.51,1.23,1.6,1.68,2.12.42,2.32-.06S797.4,28.84,796.32,28.39ZM797.64,16A15.22,15.22,0,0,1,802,24.53h-14l9.1-9.1C797.23,15.61,797.44,15.81,797.64,16Zm-2.46,4.36c-1.08.45-1.8,1.2-1.6,1.68s1.24.51,2.32.06,1.8-1.2,1.6-1.68S796.26,19.92,795.18,20.37Z"/><path class="cls-17" d="M959.82,52.38a25,25,0,1,1,36.52-34c7.16,3.26,12,9.49,12.1,16.7a30.36,30.36,0,1,0-60.72.62C947.79,42.88,952.67,49.11,959.82,52.38Z"/><path class="cls-18" d="M996.34,18.35a25,25,0,1,1-36.52,34c-7.15-3.27-12-9.5-12.1-16.71a30.36,30.36,0,0,0,60.72-.62C1008.37,27.84,1003.5,21.61,996.34,18.35Z"/><path class="cls-19" d="M978.08,29.81a3.14,3.14,0,0,0,3.15-3.14c0-2.56-3.15-5.55-3.15-5.55s-3.14,3.29-3.14,5.55A3.14,3.14,0,0,0,978.08,29.81Zm9.34,15.8H968.75a3,3,0,0,0-1.32,2.33.49.49,0,0,0,.14.38.52.52,0,0,0,.37.16h20.28a.51.51,0,0,0,.37-.16.49.49,0,0,0,.14-.38A3,3,0,0,0,987.42,45.61Zm5.07-13a1.21,1.21,0,0,0-1-.48H979.1V30.75h-2v1.39H964.68a1.17,1.17,0,0,0-1.16,1.58c.11.35,2.36,7.35,6.11,10.87h16.9c3.76-3.52,6-10.52,6.11-10.87A1.21,1.21,0,0,0,992.49,32.62Z"/></g></g></svg>