<svg xmlns="http://www.w3.org/2000/svg" xmlns:xlink="http://www.w3.org/1999/xlink" viewBox="0 0 381.17 121.44"><defs><style>.cls-1{fill:#bfff00;}.cls-2{fill:url(#Degradado_sin_nombre_110);}.cls-3{fill:url(#Degradado_sin_nombre_110-2);}.cls-4{fill:url(#Degradado_sin_nombre_110-3);}</style><linearGradient id="Degradado_sin_nombre_110" x1="2859.63" y1="934.56" x2="2859.63" y2="869.96" gradientTransform="translate(-1321.9 -2591.02) rotate(44.42)" gradientUnits="userSpaceOnUse"><stop offset="0" stop-color="#289c19"/><stop offset="1" stop-color="#bfff00"/></linearGradient><linearGradient id="Degradado_sin_nombre_110-2" x1="2871.94" y1="877.4" x2="2871.94" y2="938.74" xlink:href="#Degradado_sin_nombre_110"/><linearGradient id="Degradado_sin_nombre_110-3" x1="93.42" y1="85.89" x2="93.42" y2="34.36" gradientTransform="matrix(1, 0, 0, 1, 0, 0)" xlink:href="#Degradado_sin_nombre_110"/></defs><title>Asset 14</title><g id="Layer_2" data-name="Layer 2"><g id="Layer_1-2" data-name="Layer 1"><path class="cls-1" d="M165.54,52.49h9.56v2.18h-7.16v4.95h6.27V61.8h-6.27V69h-2.4Z"/><path class="cls-1" d="M179.69,52.49h6.69a5.06,5.06,0,0,1,3.69,1.26,4.49,4.49,0,0,1,1.28,3.35,4.63,4.63,0,0,1-.77,2.64,4.15,4.15,0,0,1-2.11,1.6L191.73,69h-2.66l-2.95-7.15h-4V69h-2.4Zm6.52,7.15a2.38,2.38,0,0,0,2.57-2.54,2.36,2.36,0,0,0-.65-1.78,2.56,2.56,0,0,0-1.89-.65h-4.15v5Z"/><path class="cls-1" d="M200.63,52.49h3L208.89,69h-2.57l-1.08-3.53h-6.39L197.77,69h-2.4Zm3.93,10.75L202.5,56.5c-.08-.28-.16-.63-.25-1.07s-.14-.73-.16-.88H202c0,.15-.07.44-.16.89s-.17.8-.25,1.06l-2.09,6.74Z"/><path class="cls-1" d="M218.15,60.26h6.56V69h-1.56l-.48-1.82a4.94,4.94,0,0,1-4.3,2.11,5.72,5.72,0,0,1-4.8-2.12c-1.1-1.42-1.66-3.55-1.66-6.4s.59-4.94,1.76-6.37a6,6,0,0,1,5-2.15,7,7,0,0,1,3.11.67,5,5,0,0,1,2.17,2,6.28,6.28,0,0,1,.8,3.26h-2.48a3.76,3.76,0,0,0-1-2.83,4.06,4.06,0,0,0-5.74.5,7.2,7.2,0,0,0-1.08,4.3v1.2a7.43,7.43,0,0,0,1,4.31,3.5,3.5,0,0,0,3.07,1.45A3.38,3.38,0,0,0,221.31,66a5.13,5.13,0,0,0,.92-3.33v-.27h-4.08Z"/><path class="cls-1" d="M234.05,52.49h3L242.31,69h-2.57l-1.08-3.53h-6.39L231.19,69h-2.4ZM238,63.24l-2.06-6.74c-.08-.28-.16-.63-.25-1.07s-.14-.73-.16-.88h-.09c0,.15-.07.44-.16.89s-.17.8-.25,1.06l-2.09,6.74Z"/><path class="cls-1" d="M246.46,52.49h2.11l5.79,9.93a8.72,8.72,0,0,1,.51,1l.4,1,.07,0-.05-1.92v-10h2.16V69h-2.06l-5.83-10c-.15-.26-.32-.62-.53-1.08s-.35-.78-.41-.94l-.1.05c0,.15,0,.41.07.79s0,.76,0,1.13V69h-2.16Z"/><path class="cls-1" d="M264.11,67.12q-1.67-2.13-1.66-6.4t1.66-6.4A5.78,5.78,0,0,1,269,52.2a5.72,5.72,0,0,1,4.24,1.6,6.28,6.28,0,0,1,1.61,4.69h-2.47a4.54,4.54,0,0,0-.91-3.07A3.08,3.08,0,0,0,269,54.36q-4,0-4,5.76v1.2c0,3.84,1.35,5.76,4,5.76a3.19,3.19,0,0,0,2.51-1,4.48,4.48,0,0,0,.93-3.06h2.37a6.35,6.35,0,0,1-1.59,4.68,6.57,6.57,0,0,1-9.11-.54Z"/><path class="cls-1" d="M279.74,52.49h2.4V69h-2.4Z"/><path class="cls-1" d="M291.52,52.49h3L299.77,69H297.2l-1.08-3.53h-6.38L288.66,69h-2.4Zm3.93,10.75-2.06-6.74a10.94,10.94,0,0,1-.25-1.07c-.09-.44-.14-.73-.16-.88h-.1a8.74,8.74,0,0,1-.15.89c-.09.45-.17.8-.25,1.06l-2.09,6.74Z"/><path class="cls-1" d="M304.63,68a4.48,4.48,0,0,1-1.56-3.75l0-.51h2.49l0,.48a2.68,2.68,0,0,0,.84,2.12,3.26,3.26,0,0,0,2.23.74,3.59,3.59,0,0,0,2.34-.66,2.24,2.24,0,0,0,.81-1.84,2.12,2.12,0,0,0-.47-1.41,3.38,3.38,0,0,0-1.18-.88,18.78,18.78,0,0,0-1.93-.71,18.42,18.42,0,0,1-2.5-1,4.44,4.44,0,0,1-1.63-1.43,4.18,4.18,0,0,1-.67-2.48,4,4,0,0,1,1.5-3.34,6.05,6.05,0,0,1,3.8-1.15,5.78,5.78,0,0,1,3.77,1.18A4.24,4.24,0,0,1,314,56.9v.29h-2.5v-.31a2.34,2.34,0,0,0-.76-1.85,2.8,2.8,0,0,0-1.95-.67,3.4,3.4,0,0,0-2,.55,1.85,1.85,0,0,0-.77,1.59,1.83,1.83,0,0,0,.46,1.28,3.31,3.31,0,0,0,1.15.83,16.29,16.29,0,0,0,1.87.67,19.89,19.89,0,0,1,2.53,1,4.62,4.62,0,0,1,1.67,1.42,4,4,0,0,1,.7,2.45A4.7,4.7,0,0,1,312.78,68a6.44,6.44,0,0,1-4.14,1.22A6.23,6.23,0,0,1,304.63,68Z"/><path class="cls-2" d="M66.74,84.27a34.55,34.55,0,1,1,50.55-47.1c9.89,4.52,16.64,13.14,16.74,23.12a42,42,0,0,0-84,.86C50.1,71.13,56.85,79.75,66.74,84.27Z"/><path class="cls-3" d="M117.29,37.17a34.55,34.55,0,1,1-50.55,47.1C56.85,79.75,50.1,71.13,50,61.15a42,42,0,0,0,84-.86C133.93,50.31,127.18,41.69,117.29,37.17Z"/><path class="cls-4" d="M86.28,37.86l.6-3.5H82.21l.59,3.5Zm14,9.38.59-3.5H96.18l.6,3.5Zm.86,4h1.18c1.93,0,1.8-3,0-3H94.82c-1.8,0-1.92,3,0,3H96c0,8.8-3.11,13.3-5.27,17.57V56.21c0-5-4.56-7.06-4.56-15.48h.74c1.21,0,1.13-1.89,0-1.89H82.25c-1.12,0-1.2,1.89,0,1.89H83c0,8.42-4.55,10.52-4.55,15.48V85.07a.82.82,0,0,0,.82.82h10.5a1,1,0,0,0,1-1V82A9.83,9.83,0,0,0,108.38,75C107.8,67.79,101.12,64.14,101.12,51.25ZM84.59,83.86H80.46V58.24h4.13Zm14,0a7.83,7.83,0,0,1-7.82-7.81v0c0-2.93,1.19-5.16,2.69-8,.33-.61.66-1.23,1-1.89h4.14Z"/><path class="cls-1" d="M381.17,121.44H0V0H381.17ZM2,119.44H379.17V2H2Z"/></g></g></svg>