<svg xmlns="http://www.w3.org/2000/svg" xmlns:xlink="http://www.w3.org/1999/xlink" viewBox="0 0 381.17 121.44"><defs><style>.cls-1{fill:#bfff00;}.cls-2{fill:url(#Degradado_sin_nombre_110);}.cls-3{fill:url(#Degradado_sin_nombre_110-2);}.cls-4{fill:url(#Degradado_sin_nombre_110-3);}</style><linearGradient id="Degradado_sin_nombre_110" x1="3065.69" y1="850.43" x2="3065.69" y2="785.83" gradientTransform="translate(-1527.96 -2675.15) rotate(44.42)" gradientUnits="userSpaceOnUse"><stop offset="0" stop-color="#289c19"/><stop offset="1" stop-color="#bfff00"/></linearGradient><linearGradient id="Degradado_sin_nombre_110-2" x1="3078" y1="793.28" x2="3078" y2="854.62" xlink:href="#Degradado_sin_nombre_110"/><linearGradient id="Degradado_sin_nombre_110-3" x1="92.02" y1="78.07" x2="92.02" y2="41.65" gradientTransform="matrix(1, 0, 0, 1, 0, 0)" xlink:href="#Degradado_sin_nombre_110"/></defs><title>Asset 16</title><g id="Layer_2" data-name="Layer 2"><g id="Layer_1-2" data-name="Layer 1"><path class="cls-1" d="M169.19,52.49h3L177.45,69h-2.57l-1.08-3.53h-6.38L166.34,69h-2.41Zm3.94,10.75-2.07-6.74c-.08-.28-.16-.63-.25-1.07a8.26,8.26,0,0,1-.15-.88h-.1c0,.15-.07.44-.16.89s-.17.8-.25,1.06l-2.09,6.74Z"/><path class="cls-1" d="M181.6,52.49h6.7A5,5,0,0,1,192,53.75a4.46,4.46,0,0,1,1.29,3.35,4.63,4.63,0,0,1-.77,2.64,4.19,4.19,0,0,1-2.11,1.6L193.65,69H191l-3-7.15h-4V69h-2.4Zm6.53,7.15a2.39,2.39,0,0,0,2.57-2.54,2.4,2.4,0,0,0-.65-1.78,2.56,2.56,0,0,0-1.89-.65H184v5Z"/><path class="cls-1" d="M199.24,67.09q-1.73-2.15-1.73-6.37t1.73-6.37a6.6,6.6,0,0,1,9.75,0q1.72,2.15,1.73,6.37T209,67.09a6.6,6.6,0,0,1-9.75,0Zm7.89-1.49a7.25,7.25,0,0,0,1.07-4.28v-1.2a7.25,7.25,0,0,0-1.07-4.28,3.81,3.81,0,0,0-6,0A7.25,7.25,0,0,0,200,60.12v1.2a7.25,7.25,0,0,0,1.06,4.28,3.81,3.81,0,0,0,6,0Z"/><path class="cls-1" d="M215.64,52.49h3.58l2.61,10.25a18.52,18.52,0,0,1,.37,2c.12.86.2,1.42.23,1.7h.1c0-.29.1-.87.2-1.73a17.25,17.25,0,0,1,.33-2l2.64-10.25h3.5V69h-2.35V57.46c0-.26,0-.7.07-1.32s.08-1,.1-1.25h-.1l-.17.72c-.17.89-.31,1.51-.41,1.85l-3,11.49h-2.14l-3-11.52c-.16-.64-.34-1.49-.53-2.54h-.1c0,.22,0,.6.07,1.14s.06,1,.08,1.43V69h-2.14Z"/><path class="cls-1" d="M238.52,52.49h3L246.78,69h-2.57l-1.08-3.53h-6.39L235.66,69h-2.4Zm3.94,10.75-2.07-6.74c-.08-.28-.16-.63-.25-1.07s-.14-.73-.16-.88h-.09c0,.15-.07.44-.16.89s-.17.8-.25,1.06l-2.09,6.74Z"/><path class="cls-1" d="M252.5,54.67h-4.37V52.49h11.13v2.18h-4.34V69H252.5Z"/><path class="cls-1" d="M263.66,52.49H273.9v2.18h-7.84v4.78h6.79v2.16h-6.79v5.16h8V69H263.66Z"/><path class="cls-1" d="M278.87,52.49h6.69a5.06,5.06,0,0,1,3.69,1.26,4.49,4.49,0,0,1,1.28,3.35,4.63,4.63,0,0,1-.77,2.64,4.15,4.15,0,0,1-2.11,1.6L290.91,69h-2.66L285.3,61.8h-4V69h-2.39Zm6.52,7.15A2.38,2.38,0,0,0,288,57.1a2.36,2.36,0,0,0-.65-1.78,2.56,2.56,0,0,0-1.89-.65h-4.16v5Z"/><path class="cls-1" d="M299.81,52.49h3L308.06,69H305.5l-1.08-3.53H298L297,69h-2.4Zm3.93,10.75-2.06-6.74a10.94,10.94,0,0,1-.25-1.07c-.09-.44-.14-.73-.16-.88h-.09c0,.15-.07.44-.16.89s-.17.8-.25,1.06l-2.09,6.74Z"/><path class="cls-1" d="M312.22,52.49h5.88a5,5,0,0,1,3.7,1.32,5.45,5.45,0,0,1-.06,7.11,4.91,4.91,0,0,1-3.64,1.36h-3.48V69h-2.4ZM318,60.12a2.45,2.45,0,0,0,1.9-.76,2.8,2.8,0,0,0,.71-2,2.72,2.72,0,0,0-.68-2,2.57,2.57,0,0,0-1.93-.71h-3.34v5.45Z"/><path class="cls-1" d="M327.54,52.49h2.4V69h-2.4Z"/><path class="cls-1" d="M339.32,52.49h3L347.58,69H345l-1.08-3.53h-6.38L336.47,69h-2.41Zm3.94,10.75-2.07-6.74c-.08-.28-.16-.63-.25-1.07a8.26,8.26,0,0,1-.15-.88h-.1c0,.15-.07.44-.16.89s-.17.8-.25,1.06l-2.09,6.74Z"/><path class="cls-2" d="M66.74,84.27a34.55,34.55,0,1,1,50.55-47.1c9.89,4.52,16.64,13.14,16.74,23.12a42,42,0,0,0-84,.86C50.1,71.13,56.85,79.75,66.74,84.27Z"/><path class="cls-3" d="M117.29,37.17a34.55,34.55,0,1,1-50.55,47.1C56.85,79.75,50.1,71.13,50,61.15a42,42,0,0,0,84-.86C133.93,50.31,127.18,41.69,117.29,37.17Z"/><path class="cls-4" d="M92,53a4.35,4.35,0,0,0,4.35-4.35C96.37,45.16,92,41,92,41s-4.35,4.55-4.35,7.68A4.35,4.35,0,0,0,92,53Zm12.91,21.87H79.1a4.13,4.13,0,0,0-1.82,3.22.72.72,0,0,0,.19.52.7.7,0,0,0,.51.22h28.07a.7.7,0,0,0,.51-.22.72.72,0,0,0,.19-.52A4.13,4.13,0,0,0,104.93,74.91Zm7-18a1.7,1.7,0,0,0-1.4-.66H93.43V54.34H90.6v1.92H73.47a1.67,1.67,0,0,0-1.39.66,1.7,1.7,0,0,0-.22,1.53c.15.48,3.27,10.16,8.46,15h23.39c5.2-4.88,8.31-14.56,8.46-15A1.73,1.73,0,0,0,112,56.92Z"/><path class="cls-1" d="M381.17,121.44H0V0H381.17ZM2,119.44H379.17V2H2Z"/></g></g></svg>