<svg xmlns="http://www.w3.org/2000/svg" xmlns:xlink="http://www.w3.org/1999/xlink" viewBox="0 0 381.17 121.44"><defs><style>.cls-1{fill:#bfff00;}.cls-2{fill:url(#Degradado_sin_nombre_110);}.cls-3{fill:url(#Degradado_sin_nombre_110-2);}.cls-4{fill:url(#Degradado_sin_nombre_110-3);}</style><linearGradient id="Degradado_sin_nombre_110" x1="2964.07" y1="891.92" x2="2964.07" y2="827.32" gradientTransform="translate(-1426.33 -2633.66) rotate(44.42)" gradientUnits="userSpaceOnUse"><stop offset="0" stop-color="#289c19"/><stop offset="1" stop-color="#bfff00"/></linearGradient><linearGradient id="Degradado_sin_nombre_110-2" x1="2976.38" y1="834.77" x2="2976.38" y2="896.11" xlink:href="#Degradado_sin_nombre_110"/><linearGradient id="Degradado_sin_nombre_110-3" x1="-175.51" y1="-2963.42" x2="-124.09" y2="-2963.42" gradientTransform="translate(2297.2 2054.02) rotate(-45)" xlink:href="#Degradado_sin_nombre_110"/></defs><title>Asset 15</title><g id="Layer_2" data-name="Layer 2"><g id="Layer_1-2" data-name="Layer 1"><path class="cls-1" d="M166.41,68a4.48,4.48,0,0,1-1.56-3.75l0-.51h2.5l0,.48a2.68,2.68,0,0,0,.84,2.12,3.29,3.29,0,0,0,2.24.74,3.62,3.62,0,0,0,2.34-.66,2.26,2.26,0,0,0,.8-1.84,2.12,2.12,0,0,0-.47-1.41,3.35,3.35,0,0,0-1.17-.88,20.06,20.06,0,0,0-1.94-.71,18.22,18.22,0,0,1-2.49-1,4.36,4.36,0,0,1-1.63-1.43,4.18,4.18,0,0,1-.68-2.48,4,4,0,0,1,1.5-3.34,6.06,6.06,0,0,1,3.81-1.15,5.82,5.82,0,0,1,3.77,1.18,4.26,4.26,0,0,1,1.46,3.52v.29h-2.5v-.31a2.37,2.37,0,0,0-.75-1.85,2.84,2.84,0,0,0-2-.67,3.4,3.4,0,0,0-2,.55,1.85,1.85,0,0,0-.77,1.59,1.88,1.88,0,0,0,.46,1.28,3.4,3.4,0,0,0,1.15.83,17,17,0,0,0,1.87.67,20.11,20.11,0,0,1,2.54,1,4.67,4.67,0,0,1,1.66,1.42,4,4,0,0,1,.7,2.45A4.73,4.73,0,0,1,174.56,68a6.48,6.48,0,0,1-4.14,1.22A6.22,6.22,0,0,1,166.41,68Z"/><path class="cls-1" d="M184.67,52.49h3L192.93,69h-2.57l-1.08-3.53H182.9L181.82,69h-2.4Zm3.94,10.75-2.06-6.74c-.08-.28-.17-.63-.26-1.07s-.14-.73-.15-.88H186c0,.15-.07.44-.15.89s-.18.8-.26,1.06l-2.08,6.74Z"/><path class="cls-1" d="M197,52.49h6.51a4.91,4.91,0,0,1,2.23.5,3.89,3.89,0,0,1,1.55,1.43,4.32,4.32,0,0,1-.15,4.5,3.58,3.58,0,0,1-1.81,1.39v.1a3.9,3.9,0,0,1,2.09,1.5,4.39,4.39,0,0,1,.81,2.65,4.27,4.27,0,0,1-.63,2.34,4.22,4.22,0,0,1-1.72,1.52,5.22,5.22,0,0,1-2.37.53H197Zm5.83,7a2.43,2.43,0,0,0,1.82-.71,2.39,2.39,0,0,0,.68-1.72,2.35,2.35,0,0,0-.62-1.75,2.41,2.41,0,0,0-1.73-.6h-3.55v4.78Zm.34,7.32a2.61,2.61,0,0,0,1.84-.66,2.42,2.42,0,0,0,.7-1.86,2.59,2.59,0,0,0-.73-1.87,2.55,2.55,0,0,0-2-.77h-3.6v5.16Z"/><path class="cls-1" d="M214.13,67.09q-1.73-2.15-1.73-6.37t1.73-6.37a6.59,6.59,0,0,1,9.74,0q1.73,2.15,1.73,6.37t-1.73,6.37a6.59,6.59,0,0,1-9.74,0ZM222,65.6a7.25,7.25,0,0,0,1.07-4.28v-1.2A7.25,7.25,0,0,0,222,55.84a3.8,3.8,0,0,0-6,0,7.25,7.25,0,0,0-1.07,4.28v1.2A7.25,7.25,0,0,0,216,65.6a3.8,3.8,0,0,0,6,0Z"/><path class="cls-1" d="M230.62,52.49h6.69A5.06,5.06,0,0,1,241,53.75a4.49,4.49,0,0,1,1.28,3.35,4.63,4.63,0,0,1-.77,2.64,4.15,4.15,0,0,1-2.11,1.6L242.66,69H240l-2.95-7.15h-4V69h-2.4Zm6.52,7.15a2.38,2.38,0,0,0,2.57-2.54,2.36,2.36,0,0,0-.65-1.78,2.56,2.56,0,0,0-1.89-.65H233v5Z"/><path class="cls-1" d="M247.2,52.49h10.25v2.18H249.6v4.78h6.79v2.16H249.6v5.16h8V69H247.2Z"/><path class="cls-1" d="M263.35,68a4.48,4.48,0,0,1-1.56-3.75l0-.51h2.5l0,.48a2.68,2.68,0,0,0,.84,2.12,3.26,3.26,0,0,0,2.23.74,3.62,3.62,0,0,0,2.34-.66,2.26,2.26,0,0,0,.8-1.84,2.07,2.07,0,0,0-.47-1.41,3.35,3.35,0,0,0-1.17-.88,19.72,19.72,0,0,0-1.93-.71,17.9,17.9,0,0,1-2.5-1,4.44,4.44,0,0,1-1.63-1.43,4.18,4.18,0,0,1-.67-2.48,4,4,0,0,1,1.5-3.34,6,6,0,0,1,3.8-1.15,5.8,5.8,0,0,1,3.77,1.18,4.26,4.26,0,0,1,1.46,3.52v.29h-2.49v-.31a2.37,2.37,0,0,0-.76-1.85,2.83,2.83,0,0,0-2-.67,3.44,3.44,0,0,0-2,.55,1.84,1.84,0,0,0-.76,1.59,1.87,1.87,0,0,0,.45,1.28,3.5,3.5,0,0,0,1.15.83,16.56,16.56,0,0,0,1.88.67,19.89,19.89,0,0,1,2.53,1,4.7,4.7,0,0,1,1.67,1.42,4,4,0,0,1,.69,2.45A4.73,4.73,0,0,1,271.5,68a6.48,6.48,0,0,1-4.14,1.22A6.23,6.23,0,0,1,263.35,68Z"/><path class="cls-2" d="M66.74,84.27a34.55,34.55,0,1,1,50.55-47.1c9.89,4.52,16.64,13.14,16.74,23.12a42,42,0,0,0-84,.86C50.1,71.13,56.85,79.75,66.74,84.27Z"/><path class="cls-3" d="M117.29,37.17a34.55,34.55,0,1,1-50.55,47.1C56.85,79.75,50.1,71.13,50,61.15a42,42,0,0,0,84-.86C133.93,50.31,127.18,41.69,117.29,37.17Z"/><path class="cls-4" d="M105.32,37.64a25.61,25.61,0,0,1,7.33,15c.06.56.11,1.11.14,1.66a25.61,25.61,0,0,1-6.89,19.1l-.58.6-.59.57a25.66,25.66,0,0,1-19.1,6.9c-.55,0-1.11-.08-1.66-.15A25.59,25.59,0,0,1,69,74c-.28-.28-.55-.57-.81-.85l1.68-1.68c.26.29.53.57.8.85A23.23,23.23,0,0,0,84,78.93c.55.07,1.1.13,1.66.16a23.26,23.26,0,0,0,17.42-6.19l.6-.58c.19-.2.39-.39.57-.6a23.26,23.26,0,0,0,6.2-17.42c0-.55-.09-1.1-.16-1.65a23.26,23.26,0,0,0-6.61-13.33c-.28-.28-.56-.55-.85-.81l1.67-1.68C104.76,37.09,105,37.36,105.32,37.64ZM84,57.34v19.4a21.08,21.08,0,0,1-11.79-6c-.28-.28-.54-.56-.8-.85Zm-3.42,7.82c-.66-.27-1.71.72-2.33,2.22s-.58,2.94.08,3.21,1.71-.72,2.33-2.21S81.21,65.44,80.55,65.16Zm5.18-9.58,15.78,15.78a21.12,21.12,0,0,1-15.88,5.57V55.68Zm3.66,10.16c-.66.27-.69,1.71-.07,3.21s1.66,2.49,2.32,2.22.7-1.72.08-3.21S90.06,65.46,89.39,65.74ZM108.26,54.3a21.1,21.1,0,0,1-5.58,15.88L86.9,54.4l.1-.1Zm-8,3.69c-1.5-.62-2.94-.59-3.22.08s.72,1.71,2.22,2.33,2.94.58,3.22-.08S101.78,58.61,100.28,58Zm1.83-17.13a21.06,21.06,0,0,1,6,11.78H88.66l12.6-12.6C101.55,40.31,101.83,40.58,102.11,40.86Zm-3.4,6c-1.5.62-2.5,1.67-2.22,2.33s1.71.7,3.21.08,2.49-1.66,2.22-2.33S100.2,46.27,98.71,46.89Z"/><path class="cls-1" d="M381.17,121.44H0V0H381.17ZM2,119.44H379.17V2H2Z"/></g></g></svg>