<svg xmlns="http://www.w3.org/2000/svg" viewBox="0 0 420.72 194.58"><defs><style>.cls-1{opacity:0.2;}.cls-2{fill:#fff;}.cls-3{fill:#289c19;}</style></defs><title>infraestructura</title><g id="Layer_2" data-name="Layer 2"><g id="Layer_2-2" data-name="Layer 2"><g class="cls-1"><rect class="cls-2" x="56.19" y="4.38" width="4.38" height="2.43"/><rect class="cls-2" x="49.37" y="4.38" width="4.38" height="2.43"/><rect class="cls-2" x="53.75" y="6.82" width="2.43" height="4.38"/><rect class="cls-2" x="53.75" width="2.43" height="4.38"/><rect class="cls-2" x="86.33" y="4.38" width="4.38" height="2.43"/><rect class="cls-2" x="79.52" y="4.38" width="4.38" height="2.43"/><rect class="cls-2" x="83.9" y="6.82" width="2.43" height="4.38"/><rect class="cls-2" x="83.9" width="2.43" height="4.38"/><rect class="cls-2" x="116.48" y="4.38" width="4.38" height="2.43"/><rect class="cls-2" x="109.66" y="4.38" width="4.38" height="2.43"/><rect class="cls-2" x="114.05" y="6.82" width="2.43" height="4.38"/><rect class="cls-2" x="114.05" width="2.43" height="4.38"/><rect class="cls-2" x="146.62" y="4.38" width="4.38" height="2.43"/><rect class="cls-2" x="139.81" y="4.38" width="4.38" height="2.43"/><rect class="cls-2" x="144.19" y="6.82" width="2.43" height="4.38"/><rect class="cls-2" x="144.19" width="2.43" height="4.38"/><rect class="cls-2" x="56.19" y="34.95" width="4.38" height="2.43"/><rect class="cls-2" x="49.37" y="34.95" width="4.38" height="2.43"/><rect class="cls-2" x="53.75" y="37.38" width="2.43" height="4.38"/><rect class="cls-2" x="53.75" y="30.56" width="2.43" height="4.38"/><rect class="cls-2" x="86.33" y="34.95" width="4.38" height="2.43"/><rect class="cls-2" x="79.52" y="34.95" width="4.38" height="2.43"/><rect class="cls-2" x="83.9" y="37.38" width="2.43" height="4.38"/><rect class="cls-2" x="83.9" y="30.56" width="2.43" height="4.38"/><rect class="cls-2" x="116.48" y="34.95" width="4.38" height="2.43"/><rect class="cls-2" x="109.66" y="34.95" width="4.38" height="2.43"/><rect class="cls-2" x="114.05" y="37.38" width="2.43" height="4.38"/><rect class="cls-2" x="114.05" y="30.56" width="2.43" height="4.38"/><rect class="cls-2" x="146.62" y="34.95" width="4.38" height="2.43"/><rect class="cls-2" x="139.81" y="34.95" width="4.38" height="2.43"/><rect class="cls-2" x="144.19" y="37.38" width="2.43" height="4.38"/><rect class="cls-2" x="144.19" y="30.56" width="2.43" height="4.38"/><rect class="cls-2" x="56.19" y="65.51" width="4.38" height="2.43"/><rect class="cls-2" x="49.37" y="65.51" width="4.38" height="2.43"/><rect class="cls-2" x="53.75" y="67.94" width="2.43" height="4.38"/><rect class="cls-2" x="53.75" y="61.13" width="2.43" height="4.38"/><rect class="cls-2" x="86.33" y="65.51" width="4.38" height="2.43"/><rect class="cls-2" x="79.52" y="65.51" width="4.38" height="2.43"/><rect class="cls-2" x="83.9" y="67.94" width="2.43" height="4.38"/><rect class="cls-2" x="83.9" y="61.13" width="2.43" height="4.38"/><rect class="cls-2" x="116.48" y="65.51" width="4.38" height="2.43"/><rect class="cls-2" x="109.66" y="65.51" width="4.38" height="2.43"/><rect class="cls-2" x="114.05" y="67.94" width="2.43" height="4.38"/><rect class="cls-2" x="114.05" y="61.13" width="2.43" height="4.38"/><rect class="cls-2" x="146.62" y="65.51" width="4.38" height="2.43"/><rect class="cls-2" x="139.81" y="65.51" width="4.38" height="2.43"/><rect class="cls-2" x="144.19" y="67.94" width="2.43" height="4.38"/><rect class="cls-2" x="144.19" y="61.13" width="2.43" height="4.38"/><rect class="cls-2" x="56.19" y="96.07" width="4.38" height="2.43"/><rect class="cls-2" x="49.37" y="96.07" width="4.38" height="2.43"/><rect class="cls-2" x="53.75" y="98.5" width="2.43" height="4.38"/><rect class="cls-2" x="53.75" y="91.69" width="2.43" height="4.38"/><rect class="cls-2" x="86.33" y="96.07" width="4.38" height="2.43"/><rect class="cls-2" x="79.52" y="96.07" width="4.38" height="2.43"/><rect class="cls-2" x="83.9" y="98.5" width="2.43" height="4.38"/><rect class="cls-2" x="83.9" y="91.69" width="2.43" height="4.38"/><rect class="cls-2" x="116.48" y="96.07" width="4.38" height="2.43"/><rect class="cls-2" x="109.66" y="96.07" width="4.38" height="2.43"/><rect class="cls-2" x="114.05" y="98.5" width="2.43" height="4.38"/><rect class="cls-2" x="114.05" y="91.69" width="2.43" height="4.38"/><rect class="cls-2" x="146.62" y="96.07" width="4.38" height="2.43"/><rect class="cls-2" x="139.81" y="96.07" width="4.38" height="2.43"/><rect class="cls-2" x="144.19" y="98.5" width="2.43" height="4.38"/><rect class="cls-2" x="144.19" y="91.69" width="2.43" height="4.38"/><rect class="cls-2" x="56.19" y="126.63" width="4.38" height="2.43"/><rect class="cls-2" x="49.37" y="126.63" width="4.38" height="2.43"/><rect class="cls-2" x="53.75" y="129.07" width="2.43" height="4.38"/><rect class="cls-2" x="53.75" y="122.25" width="2.43" height="4.38"/><rect class="cls-2" x="86.33" y="126.63" width="4.38" height="2.43"/><rect class="cls-2" x="79.52" y="126.63" width="4.38" height="2.43"/><rect class="cls-2" x="83.9" y="129.07" width="2.43" height="4.38"/><rect class="cls-2" x="83.9" y="122.25" width="2.43" height="4.38"/><rect class="cls-2" x="116.48" y="126.63" width="4.38" height="2.43"/><rect class="cls-2" x="109.66" y="126.63" width="4.38" height="2.43"/><rect class="cls-2" x="114.05" y="129.07" width="2.43" height="4.38"/><rect class="cls-2" x="114.05" y="122.25" width="2.43" height="4.38"/><rect class="cls-2" x="146.62" y="126.63" width="4.38" height="2.43"/><rect class="cls-2" x="139.81" y="126.63" width="4.38" height="2.43"/><rect class="cls-2" x="144.19" y="129.07" width="2.43" height="4.38"/><rect class="cls-2" x="144.19" y="122.25" width="2.43" height="4.38"/><rect class="cls-2" x="56.19" y="157.2" width="4.38" height="2.43"/><rect class="cls-2" x="49.37" y="157.2" width="4.38" height="2.43"/><rect class="cls-2" x="53.75" y="159.63" width="2.43" height="4.38"/><rect class="cls-2" x="53.75" y="152.81" width="2.43" height="4.38"/><rect class="cls-2" x="86.33" y="157.2" width="4.38" height="2.43"/><rect class="cls-2" x="79.52" y="157.2" width="4.38" height="2.43"/><rect class="cls-2" x="83.9" y="159.63" width="2.43" height="4.38"/><rect class="cls-2" x="83.9" y="152.81" width="2.43" height="4.38"/><rect class="cls-2" x="116.48" y="157.2" width="4.38" height="2.43"/><rect class="cls-2" x="109.66" y="157.2" width="4.38" height="2.43"/><rect class="cls-2" x="114.05" y="159.63" width="2.43" height="4.38"/><rect class="cls-2" x="114.05" y="152.81" width="2.43" height="4.38"/><rect class="cls-2" x="146.62" y="157.2" width="4.38" height="2.43"/><rect class="cls-2" x="139.81" y="157.2" width="4.38" height="2.43"/><rect class="cls-2" x="144.19" y="159.63" width="2.43" height="4.38"/><rect class="cls-2" x="144.19" y="152.81" width="2.43" height="4.38"/><rect class="cls-2" x="176.77" y="4.38" width="4.38" height="2.43"/><rect class="cls-2" x="169.95" y="4.38" width="4.38" height="2.43"/><rect class="cls-2" x="174.34" y="6.82" width="2.43" height="4.38"/><rect class="cls-2" x="174.34" width="2.43" height="4.38"/><rect class="cls-2" x="206.92" y="4.38" width="4.38" height="2.43"/><rect class="cls-2" x="200.1" y="4.38" width="4.38" height="2.43"/><rect class="cls-2" x="204.48" y="6.82" width="2.43" height="4.38"/><rect class="cls-2" x="204.48" width="2.43" height="4.38"/><rect class="cls-2" x="237.06" y="4.38" width="4.38" height="2.43"/><rect class="cls-2" x="230.25" y="4.38" width="4.38" height="2.43"/><rect class="cls-2" x="234.63" y="6.82" width="2.43" height="4.38"/><rect class="cls-2" x="234.63" width="2.43" height="4.38"/><rect class="cls-2" x="267.21" y="4.38" width="4.38" height="2.43"/><rect class="cls-2" x="260.39" y="4.38" width="4.38" height="2.43"/><rect class="cls-2" x="264.77" y="6.82" width="2.43" height="4.38"/><rect class="cls-2" x="264.77" width="2.43" height="4.38"/><rect class="cls-2" x="176.77" y="34.95" width="4.38" height="2.43"/><rect class="cls-2" x="169.95" y="34.95" width="4.38" height="2.43"/><rect class="cls-2" x="174.34" y="37.38" width="2.43" height="4.38"/><rect class="cls-2" x="174.34" y="30.56" width="2.43" height="4.38"/><rect class="cls-2" x="206.92" y="34.95" width="4.38" height="2.43"/><rect class="cls-2" x="200.1" y="34.95" width="4.38" height="2.43"/><rect class="cls-2" x="204.48" y="37.38" width="2.43" height="4.38"/><rect class="cls-2" x="204.48" y="30.56" width="2.43" height="4.38"/><rect class="cls-2" x="237.06" y="34.95" width="4.38" height="2.43"/><rect class="cls-2" x="230.25" y="34.95" width="4.38" height="2.43"/><rect class="cls-2" x="234.63" y="37.38" width="2.43" height="4.38"/><rect class="cls-2" x="234.63" y="30.56" width="2.43" height="4.38"/><rect class="cls-2" x="267.21" y="34.95" width="4.38" height="2.43"/><rect class="cls-2" x="260.39" y="34.95" width="4.38" height="2.43"/><rect class="cls-2" x="264.77" y="37.38" width="2.43" height="4.38"/><rect class="cls-2" x="264.77" y="30.56" width="2.43" height="4.38"/><rect class="cls-2" x="176.77" y="65.51" width="4.38" height="2.43"/><rect class="cls-2" x="169.95" y="65.51" width="4.38" height="2.43"/><rect class="cls-2" x="174.34" y="67.94" width="2.43" height="4.38"/><rect class="cls-2" x="174.34" y="61.13" width="2.43" height="4.38"/><rect class="cls-2" x="176.77" y="96.07" width="4.38" height="2.43"/><rect class="cls-2" x="169.95" y="96.07" width="4.38" height="2.43"/><rect class="cls-2" x="174.34" y="98.5" width="2.43" height="4.38"/><rect class="cls-2" x="174.34" y="91.69" width="2.43" height="4.38"/><rect class="cls-2" x="206.92" y="65.51" width="4.38" height="2.43"/><rect class="cls-2" x="200.1" y="65.51" width="4.38" height="2.43"/><rect class="cls-2" x="204.48" y="67.94" width="2.43" height="4.38"/><rect class="cls-2" x="204.48" y="61.13" width="2.43" height="4.38"/><rect class="cls-2" x="237.06" y="65.51" width="4.38" height="2.43"/><rect class="cls-2" x="230.25" y="65.51" width="4.38" height="2.43"/><rect class="cls-2" x="234.63" y="67.94" width="2.43" height="4.38"/><rect class="cls-2" x="234.63" y="61.13" width="2.43" height="4.38"/><rect class="cls-2" x="267.21" y="65.51" width="4.38" height="2.43"/><rect class="cls-2" x="260.39" y="65.51" width="4.38" height="2.43"/><rect class="cls-2" x="264.77" y="67.94" width="2.43" height="4.38"/><rect class="cls-2" x="264.77" y="61.13" width="2.43" height="4.38"/><rect class="cls-2" x="206.92" y="96.07" width="4.38" height="2.43"/><rect class="cls-2" x="200.1" y="96.07" width="4.38" height="2.43"/><rect class="cls-2" x="204.48" y="98.5" width="2.43" height="4.38"/><rect class="cls-2" x="204.48" y="91.69" width="2.43" height="4.38"/><rect class="cls-2" x="237.06" y="96.07" width="4.38" height="2.43"/><rect class="cls-2" x="230.25" y="96.07" width="4.38" height="2.43"/><rect class="cls-2" x="234.63" y="98.5" width="2.43" height="4.38"/><rect class="cls-2" x="234.63" y="91.69" width="2.43" height="4.38"/><rect class="cls-2" x="267.21" y="96.07" width="4.38" height="2.43"/><rect class="cls-2" x="260.39" y="96.07" width="4.38" height="2.43"/><rect class="cls-2" x="264.77" y="98.5" width="2.43" height="4.38"/><rect class="cls-2" x="264.77" y="91.69" width="2.43" height="4.38"/><rect class="cls-2" x="176.77" y="126.63" width="4.38" height="2.43"/><rect class="cls-2" x="169.95" y="126.63" width="4.38" height="2.43"/><rect class="cls-2" x="174.34" y="129.07" width="2.43" height="4.38"/><rect class="cls-2" x="174.34" y="122.25" width="2.43" height="4.38"/><rect class="cls-2" x="206.92" y="126.63" width="4.38" height="2.43"/><rect class="cls-2" x="200.1" y="126.63" width="4.38" height="2.43"/><rect class="cls-2" x="204.48" y="129.07" width="2.43" height="4.38"/><rect class="cls-2" x="204.48" y="122.25" width="2.43" height="4.38"/><rect class="cls-2" x="237.06" y="126.63" width="4.38" height="2.43"/><rect class="cls-2" x="230.25" y="126.63" width="4.38" height="2.43"/><rect class="cls-2" x="234.63" y="129.07" width="2.43" height="4.38"/><rect class="cls-2" x="234.63" y="122.25" width="2.43" height="4.38"/><rect class="cls-2" x="267.21" y="126.63" width="4.38" height="2.43"/><rect class="cls-2" x="260.39" y="126.63" width="4.38" height="2.43"/><rect class="cls-2" x="264.77" y="129.07" width="2.43" height="4.38"/><rect class="cls-2" x="264.77" y="122.25" width="2.43" height="4.38"/><rect class="cls-2" x="176.77" y="157.2" width="4.38" height="2.43"/><rect class="cls-2" x="169.95" y="157.2" width="4.38" height="2.43"/><rect class="cls-2" x="174.34" y="159.63" width="2.43" height="4.38"/><rect class="cls-2" x="174.34" y="152.81" width="2.43" height="4.38"/><rect class="cls-2" x="206.92" y="157.2" width="4.38" height="2.43"/><rect class="cls-2" x="200.1" y="157.2" width="4.38" height="2.43"/><rect class="cls-2" x="204.48" y="159.63" width="2.43" height="4.38"/><rect class="cls-2" x="204.48" y="152.81" width="2.43" height="4.38"/><rect class="cls-2" x="237.06" y="157.2" width="4.38" height="2.43"/><rect class="cls-2" x="230.25" y="157.2" width="4.38" height="2.43"/><rect class="cls-2" x="234.63" y="159.63" width="2.43" height="4.38"/><rect class="cls-2" x="234.63" y="152.81" width="2.43" height="4.38"/><rect class="cls-2" x="267.21" y="157.2" width="4.38" height="2.43"/><rect class="cls-2" x="260.39" y="157.2" width="4.38" height="2.43"/><rect class="cls-2" x="264.77" y="159.63" width="2.43" height="4.38"/><rect class="cls-2" x="264.77" y="152.81" width="2.43" height="4.38"/><rect class="cls-2" x="56.19" y="187.76" width="4.38" height="2.43"/><rect class="cls-2" x="49.37" y="187.76" width="4.38" height="2.43"/><rect class="cls-2" x="53.75" y="190.19" width="2.43" height="4.38"/><rect class="cls-2" x="53.75" y="183.38" width="2.43" height="4.38"/><rect class="cls-2" x="86.33" y="187.76" width="4.38" height="2.43"/><rect class="cls-2" x="79.52" y="187.76" width="4.38" height="2.43"/><rect class="cls-2" x="83.9" y="190.19" width="2.43" height="4.38"/><rect class="cls-2" x="83.9" y="183.38" width="2.43" height="4.38"/><rect class="cls-2" x="116.48" y="187.76" width="4.38" height="2.43"/><rect class="cls-2" x="109.66" y="187.76" width="4.38" height="2.43"/><rect class="cls-2" x="114.05" y="190.19" width="2.43" height="4.38"/><rect class="cls-2" x="114.05" y="183.38" width="2.43" height="4.38"/><rect class="cls-2" x="146.62" y="187.76" width="4.38" height="2.43"/><rect class="cls-2" x="139.81" y="187.76" width="4.38" height="2.43"/><rect class="cls-2" x="144.19" y="190.19" width="2.43" height="4.38"/><rect class="cls-2" x="144.19" y="183.38" width="2.43" height="4.38"/><rect class="cls-2" x="176.77" y="187.76" width="4.38" height="2.43"/><rect class="cls-2" x="169.95" y="187.76" width="4.38" height="2.43"/><rect class="cls-2" x="174.34" y="190.19" width="2.43" height="4.38"/><rect class="cls-2" x="174.34" y="183.38" width="2.43" height="4.38"/><rect class="cls-2" x="206.92" y="187.76" width="4.38" height="2.43"/><rect class="cls-2" x="200.1" y="187.76" width="4.38" height="2.43"/><rect class="cls-2" x="204.48" y="190.19" width="2.43" height="4.38"/><rect class="cls-2" x="204.48" y="183.38" width="2.43" height="4.38"/><rect class="cls-2" x="237.06" y="187.76" width="4.38" height="2.43"/><rect class="cls-2" x="230.25" y="187.76" width="4.38" height="2.43"/><rect class="cls-2" x="234.63" y="190.19" width="2.43" height="4.38"/><rect class="cls-2" x="234.63" y="183.38" width="2.43" height="4.38"/><rect class="cls-2" x="267.21" y="187.76" width="4.38" height="2.43"/><rect class="cls-2" x="260.39" y="187.76" width="4.38" height="2.43"/><rect class="cls-2" x="264.77" y="190.19" width="2.43" height="4.38"/><rect class="cls-2" x="264.77" y="183.38" width="2.43" height="4.38"/></g><g class="cls-1"><rect class="cls-2" x="295.75" y="4.38" width="4.38" height="2.43"/><rect class="cls-2" x="288.94" y="4.38" width="4.38" height="2.43"/><rect class="cls-2" x="293.32" y="6.82" width="2.43" height="4.38"/><rect class="cls-2" x="293.32" width="2.43" height="4.38"/><rect class="cls-2" x="325.9" y="4.38" width="4.38" height="2.43"/><rect class="cls-2" x="319.08" y="4.38" width="4.38" height="2.43"/><rect class="cls-2" x="323.47" y="6.82" width="2.43" height="4.38"/><rect class="cls-2" x="323.47" width="2.43" height="4.38"/><rect class="cls-2" x="356.05" y="4.38" width="4.38" height="2.43"/><rect class="cls-2" x="349.23" y="4.38" width="4.38" height="2.43"/><rect class="cls-2" x="353.61" y="6.82" width="2.43" height="4.38"/><rect class="cls-2" x="353.61" width="2.43" height="4.38"/><rect class="cls-2" x="386.19" y="4.38" width="4.38" height="2.43"/><rect class="cls-2" x="379.38" y="4.38" width="4.38" height="2.43"/><rect class="cls-2" x="383.76" y="6.82" width="2.43" height="4.38"/><rect class="cls-2" x="383.76" width="2.43" height="4.38"/><rect class="cls-2" x="295.75" y="34.95" width="4.38" height="2.43"/><rect class="cls-2" x="288.94" y="34.95" width="4.38" height="2.43"/><rect class="cls-2" x="293.32" y="37.38" width="2.43" height="4.38"/><rect class="cls-2" x="293.32" y="30.56" width="2.43" height="4.38"/><rect class="cls-2" x="325.9" y="34.95" width="4.38" height="2.43"/><rect class="cls-2" x="319.08" y="34.95" width="4.38" height="2.43"/><rect class="cls-2" x="323.47" y="37.38" width="2.43" height="4.38"/><rect class="cls-2" x="323.47" y="30.56" width="2.43" height="4.38"/><rect class="cls-2" x="356.05" y="34.95" width="4.38" height="2.43"/><rect class="cls-2" x="349.23" y="34.95" width="4.38" height="2.43"/><rect class="cls-2" x="353.61" y="37.38" width="2.43" height="4.38"/><rect class="cls-2" x="353.61" y="30.56" width="2.43" height="4.38"/><rect class="cls-2" x="386.19" y="34.95" width="4.38" height="2.43"/><rect class="cls-2" x="379.38" y="34.95" width="4.38" height="2.43"/><rect class="cls-2" x="383.76" y="37.38" width="2.43" height="4.38"/><rect class="cls-2" x="383.76" y="30.56" width="2.43" height="4.38"/><rect class="cls-2" x="295.75" y="65.51" width="4.38" height="2.43"/><rect class="cls-2" x="288.94" y="65.51" width="4.38" height="2.43"/><rect class="cls-2" x="293.32" y="67.94" width="2.43" height="4.38"/><rect class="cls-2" x="293.32" y="61.13" width="2.43" height="4.38"/><rect class="cls-2" x="325.9" y="65.51" width="4.38" height="2.43"/><rect class="cls-2" x="319.08" y="65.51" width="4.38" height="2.43"/><rect class="cls-2" x="323.47" y="67.94" width="2.43" height="4.38"/><rect class="cls-2" x="323.47" y="61.13" width="2.43" height="4.38"/><rect class="cls-2" x="356.05" y="65.51" width="4.38" height="2.43"/><rect class="cls-2" x="349.23" y="65.51" width="4.38" height="2.43"/><rect class="cls-2" x="353.61" y="67.94" width="2.43" height="4.38"/><rect class="cls-2" x="353.61" y="61.13" width="2.43" height="4.38"/><rect class="cls-2" x="386.19" y="65.51" width="4.38" height="2.43"/><rect class="cls-2" x="379.38" y="65.51" width="4.38" height="2.43"/><rect class="cls-2" x="383.76" y="67.94" width="2.43" height="4.38"/><rect class="cls-2" x="383.76" y="61.13" width="2.43" height="4.38"/><rect class="cls-2" x="295.75" y="96.07" width="4.38" height="2.43"/><rect class="cls-2" x="288.94" y="96.07" width="4.38" height="2.43"/><rect class="cls-2" x="293.32" y="98.5" width="2.43" height="4.38"/><rect class="cls-2" x="293.32" y="91.69" width="2.43" height="4.38"/><rect class="cls-2" x="325.9" y="96.07" width="4.38" height="2.43"/><rect class="cls-2" x="319.08" y="96.07" width="4.38" height="2.43"/><rect class="cls-2" x="323.47" y="98.5" width="2.43" height="4.38"/><rect class="cls-2" x="323.47" y="91.69" width="2.43" height="4.38"/><rect class="cls-2" x="356.05" y="96.07" width="4.38" height="2.43"/><rect class="cls-2" x="349.23" y="96.07" width="4.38" height="2.43"/><rect class="cls-2" x="353.61" y="98.5" width="2.43" height="4.38"/><rect class="cls-2" x="353.61" y="91.69" width="2.43" height="4.38"/><rect class="cls-2" x="386.19" y="96.07" width="4.38" height="2.43"/><rect class="cls-2" x="379.38" y="96.07" width="4.38" height="2.43"/><rect class="cls-2" x="383.76" y="98.5" width="2.43" height="4.38"/><rect class="cls-2" x="383.76" y="91.69" width="2.43" height="4.38"/><rect class="cls-2" x="295.75" y="126.63" width="4.38" height="2.43"/><rect class="cls-2" x="288.94" y="126.63" width="4.38" height="2.43"/><rect class="cls-2" x="293.32" y="129.07" width="2.43" height="4.38"/><rect class="cls-2" x="293.32" y="122.25" width="2.43" height="4.38"/><rect class="cls-2" x="325.9" y="126.63" width="4.38" height="2.43"/><rect class="cls-2" x="319.08" y="126.63" width="4.38" height="2.43"/><rect class="cls-2" x="323.47" y="129.07" width="2.43" height="4.38"/><rect class="cls-2" x="323.47" y="122.25" width="2.43" height="4.38"/><rect class="cls-2" x="356.05" y="126.63" width="4.38" height="2.43"/><rect class="cls-2" x="349.23" y="126.63" width="4.38" height="2.43"/><rect class="cls-2" x="353.61" y="129.07" width="2.43" height="4.38"/><rect class="cls-2" x="353.61" y="122.25" width="2.43" height="4.38"/><rect class="cls-2" x="386.19" y="126.63" width="4.38" height="2.43"/><rect class="cls-2" x="379.38" y="126.63" width="4.38" height="2.43"/><rect class="cls-2" x="383.76" y="129.07" width="2.43" height="4.38"/><rect class="cls-2" x="383.76" y="122.25" width="2.43" height="4.38"/><rect class="cls-2" x="295.75" y="157.2" width="4.38" height="2.43"/><rect class="cls-2" x="288.94" y="157.2" width="4.38" height="2.43"/><rect class="cls-2" x="293.32" y="159.63" width="2.43" height="4.38"/><rect class="cls-2" x="293.32" y="152.81" width="2.43" height="4.38"/><rect class="cls-2" x="325.9" y="157.2" width="4.38" height="2.43"/><rect class="cls-2" x="319.08" y="157.2" width="4.38" height="2.43"/><rect class="cls-2" x="323.47" y="159.63" width="2.43" height="4.38"/><rect class="cls-2" x="323.47" y="152.81" width="2.43" height="4.38"/><rect class="cls-2" x="356.05" y="157.2" width="4.38" height="2.43"/><rect class="cls-2" x="349.23" y="157.2" width="4.38" height="2.43"/><rect class="cls-2" x="353.61" y="159.63" width="2.43" height="4.38"/><rect class="cls-2" x="353.61" y="152.81" width="2.43" height="4.38"/><rect class="cls-2" x="386.19" y="157.2" width="4.38" height="2.43"/><rect class="cls-2" x="379.38" y="157.2" width="4.38" height="2.43"/><rect class="cls-2" x="383.76" y="159.63" width="2.43" height="4.38"/><rect class="cls-2" x="383.76" y="152.81" width="2.43" height="4.38"/><rect class="cls-2" x="416.34" y="4.38" width="4.38" height="2.43"/><rect class="cls-2" x="409.52" y="4.38" width="4.38" height="2.43"/><rect class="cls-2" x="413.9" y="6.82" width="2.43" height="4.38"/><rect class="cls-2" x="413.9" width="2.43" height="4.38"/><rect class="cls-2" x="416.34" y="34.95" width="4.38" height="2.43"/><rect class="cls-2" x="409.52" y="34.95" width="4.38" height="2.43"/><rect class="cls-2" x="413.9" y="37.38" width="2.43" height="4.38"/><rect class="cls-2" x="413.9" y="30.56" width="2.43" height="4.38"/><rect class="cls-2" x="416.34" y="65.51" width="4.38" height="2.43"/><rect class="cls-2" x="409.52" y="65.51" width="4.38" height="2.43"/><rect class="cls-2" x="413.9" y="67.94" width="2.43" height="4.38"/><rect class="cls-2" x="413.9" y="61.13" width="2.43" height="4.38"/><rect class="cls-2" x="416.34" y="96.07" width="4.38" height="2.43"/><rect class="cls-2" x="409.52" y="96.07" width="4.38" height="2.43"/><rect class="cls-2" x="413.9" y="98.5" width="2.43" height="4.38"/><rect class="cls-2" x="413.9" y="91.69" width="2.43" height="4.38"/><rect class="cls-2" x="416.34" y="126.63" width="4.38" height="2.43"/><rect class="cls-2" x="409.52" y="126.63" width="4.38" height="2.43"/><rect class="cls-2" x="413.9" y="129.07" width="2.43" height="4.38"/><rect class="cls-2" x="413.9" y="122.25" width="2.43" height="4.38"/><rect class="cls-2" x="416.34" y="157.2" width="4.38" height="2.43"/><rect class="cls-2" x="409.52" y="157.2" width="4.38" height="2.43"/><rect class="cls-2" x="413.9" y="159.63" width="2.43" height="4.38"/><rect class="cls-2" x="413.9" y="152.81" width="2.43" height="4.38"/><rect class="cls-2" x="295.75" y="187.76" width="4.38" height="2.43"/><rect class="cls-2" x="288.94" y="187.76" width="4.38" height="2.43"/><rect class="cls-2" x="293.32" y="190.19" width="2.43" height="4.38"/><rect class="cls-2" x="293.32" y="183.38" width="2.43" height="4.38"/><rect class="cls-2" x="325.9" y="187.76" width="4.38" height="2.43"/><rect class="cls-2" x="319.08" y="187.76" width="4.38" height="2.43"/><rect class="cls-2" x="323.47" y="190.19" width="2.43" height="4.38"/><rect class="cls-2" x="323.47" y="183.38" width="2.43" height="4.38"/><rect class="cls-2" x="356.05" y="187.76" width="4.38" height="2.43"/><rect class="cls-2" x="349.23" y="187.76" width="4.38" height="2.43"/><rect class="cls-2" x="353.61" y="190.19" width="2.43" height="4.38"/><rect class="cls-2" x="353.61" y="183.38" width="2.43" height="4.38"/><rect class="cls-2" x="386.19" y="187.76" width="4.38" height="2.43"/><rect class="cls-2" x="379.38" y="187.76" width="4.38" height="2.43"/><rect class="cls-2" x="383.76" y="190.19" width="2.43" height="4.38"/><rect class="cls-2" x="383.76" y="183.38" width="2.43" height="4.38"/><rect class="cls-2" x="416.34" y="187.76" width="4.38" height="2.43"/><rect class="cls-2" x="409.52" y="187.76" width="4.38" height="2.43"/><rect class="cls-2" x="413.9" y="190.19" width="2.43" height="4.38"/><rect class="cls-2" x="413.9" y="183.38" width="2.43" height="4.38"/></g><rect class="cls-3" y="46.41" width="242.72" height="95.76"/><path class="cls-2" d="M35.11,86.41h2.3V98.76h-2.3Z"/><path class="cls-2" d="M41.25,86.41h2l3.82,6.8a5.49,5.49,0,0,1,.31.61c.13.26.21.45.25.54l.05,0,0-1V86.41h2.06V98.76H47.69L43.88,92c-.1-.19-.2-.41-.32-.65s-.19-.4-.24-.5l-.07,0a4,4,0,0,0,0,.42c0,.2,0,.41,0,.61v6.88h-2Z"/><path class="cls-2" d="M53.67,86.41h7.26v2H56v3.11h4.23v2.06H56v5.13H53.67Z"/><path class="cls-2" d="M64.18,86.41h5.17a3.81,3.81,0,0,1,2.8,1,3.46,3.46,0,0,1,1,2.56,3.4,3.4,0,0,1-.55,1.94,3.23,3.23,0,0,1-1.52,1.22l2.38,5.66H70.93l-2.05-5.15H66.49v5.15H64.18ZM69,91.57a1.6,1.6,0,0,0,1.21-.42,1.69,1.69,0,0,0,.41-1.21,1.5,1.5,0,0,0-.38-1.09,1.54,1.54,0,0,0-1.15-.39H66.49v3.11Z"/><path class="cls-2" d="M80,86.41h2.68l4,12.35H84.26l-.75-2.43H79l-.74,2.43H76Zm2.91,7.86-1.24-4.12a8.89,8.89,0,0,1-.23-1c-.07-.37-.11-.61-.13-.72H81.2c0,.12-.07.37-.14.75s-.15.68-.22.92l-1.26,4.12Z"/><path class="cls-2" d="M89.54,86.41h7.87v2H91.84v3h4.77v2H91.84V96.7h5.67v2.06h-8Z"/><path class="cls-2" d="M102.59,98.53a3.59,3.59,0,0,1-1.55-1.3,3.74,3.74,0,0,1-.58-2.09l0-.4h2.4l0,.29a1.82,1.82,0,0,0,2,2,2,2,0,0,0,1.41-.42,1.35,1.35,0,0,0,.46-1,1.56,1.56,0,0,0-.32-1,2.51,2.51,0,0,0-.8-.6c-.32-.14-.77-.31-1.34-.5a12.21,12.21,0,0,1-1.84-.72,3.22,3.22,0,0,1-1.2-1.1,3.47,3.47,0,0,1-.49-2,3.18,3.18,0,0,1,.55-1.9,3.43,3.43,0,0,1,1.5-1.17,5.3,5.3,0,0,1,2.07-.39,4.44,4.44,0,0,1,2.89.91,3.31,3.31,0,0,1,1.12,2.73V90H106.5v-.16a1.72,1.72,0,0,0-.46-1.25,1.59,1.59,0,0,0-1.22-.46,2,2,0,0,0-1.27.37,1.18,1.18,0,0,0-.46.95,1.12,1.12,0,0,0,.31.82,2.35,2.35,0,0,0,.76.53c.31.13.73.28,1.27.45a15.32,15.32,0,0,1,1.89.72,3.19,3.19,0,0,1,1.77,3,3.64,3.64,0,0,1-1.16,3,4.94,4.94,0,0,1-3.2.94A5.18,5.18,0,0,1,102.59,98.53Z"/><path class="cls-2" d="M114.83,88.46h-3.06v-2h8.43v2h-3.07v10.3h-2.3Z"/><path class="cls-2" d="M123.25,86.41h5.16a3.8,3.8,0,0,1,2.8,1,3.78,3.78,0,0,1,.43,4.5,3.18,3.18,0,0,1-1.52,1.22l2.38,5.66H130l-2-5.15h-2.4v5.15h-2.3Zm4.84,5.16a1.6,1.6,0,0,0,1.21-.42,1.69,1.69,0,0,0,.41-1.21,1.5,1.5,0,0,0-.38-1.09,1.54,1.54,0,0,0-1.15-.39h-2.63v3.11Z"/><path class="cls-2" d="M136.64,97.92a4,4,0,0,1-1.1-3V86.41h2.3v8.4a2.36,2.36,0,0,0,.5,1.62,1.8,1.8,0,0,0,1.43.56,1.83,1.83,0,0,0,1.43-.56,2.31,2.31,0,0,0,.51-1.62v-8.4H144v8.48a4,4,0,0,1-1.11,3,5.19,5.19,0,0,1-6.26,0Z"/><path class="cls-2" d="M148.71,97.38a7.65,7.65,0,0,1-1.26-4.8,7.68,7.68,0,0,1,1.26-4.8,4.41,4.41,0,0,1,3.65-1.59,4.5,4.5,0,0,1,3.28,1.21,4.74,4.74,0,0,1,1.25,3.6h-2.35a3.28,3.28,0,0,0-.59-2.11,1.94,1.94,0,0,0-1.59-.72,2.1,2.1,0,0,0-1.9,1,5.52,5.52,0,0,0-.64,2.92V93a5.46,5.46,0,0,0,.66,2.93,2.16,2.16,0,0,0,2,1,2,2,0,0,0,1.62-.71,3.17,3.17,0,0,0,.59-2.1h2.25a4.8,4.8,0,0,1-1.24,3.57A4.49,4.49,0,0,1,152.36,99,4.41,4.41,0,0,1,148.71,97.38Z"/><path class="cls-2" d="M162.58,88.46h-3.06v-2h8.42v2h-3.06v10.3h-2.3Z"/><path class="cls-2" d="M172.11,97.92a4,4,0,0,1-1.11-3V86.41h2.31v8.4a2.31,2.31,0,0,0,.5,1.62,1.8,1.8,0,0,0,1.42.56,1.82,1.82,0,0,0,1.43-.56,2.32,2.32,0,0,0,.52-1.62v-8.4h2.3v8.48a3.94,3.94,0,0,1-1.12,3,5.18,5.18,0,0,1-6.25,0Z"/><path class="cls-2" d="M183.39,86.41h5.17a3.81,3.81,0,0,1,2.8,1,3.78,3.78,0,0,1,.43,4.5,3.28,3.28,0,0,1-1.52,1.22l2.37,5.66h-2.5l-2-5.15h-2.4v5.15h-2.3Zm4.84,5.16a1.63,1.63,0,0,0,1.22-.42,1.68,1.68,0,0,0,.4-1.21,1.46,1.46,0,0,0-.38-1.09,1.52,1.52,0,0,0-1.15-.39h-2.63v3.11Z"/><path class="cls-2" d="M199.17,86.41h2.68l4,12.35h-2.36l-.76-2.43h-4.55l-.74,2.43h-2.23Zm2.91,7.86-1.24-4.12a8.89,8.89,0,0,1-.23-1,7.27,7.27,0,0,1-.13-.72h-.07c0,.12-.07.37-.15.75s-.14.68-.21.92l-1.26,4.12Z"/></g></g></svg>