<svg xmlns="http://www.w3.org/2000/svg" xmlns:xlink="http://www.w3.org/1999/xlink" viewBox="0 0 74.02 74.02"><defs><style>.cls-1{fill:url(#Degradado_sin_nombre_2);}.cls-2{fill:url(#Degradado_sin_nombre_2-2);}</style><linearGradient id="Degradado_sin_nombre_2" x1="2458.38" y1="-552.66" x2="2458.38" y2="-609.56" gradientTransform="translate(-2128.12 -1273.67) rotate(44.42)" gradientUnits="userSpaceOnUse"><stop offset="0" stop-color="#28a419"/><stop offset="1" stop-color="#c7ff00"/></linearGradient><linearGradient id="Degradado_sin_nombre_2-2" x1="2469.22" y1="-603" x2="2469.22" y2="-548.97" xlink:href="#Degradado_sin_nombre_2"/></defs><title>isotipo-contacto</title><g id="Layer_2" data-name="Layer 2"><g id="Layer_2-2" data-name="Layer 2"><path class="cls-1" d="M37.24,59.64A29.9,29.9,0,0,0,50.9,52.09a20.49,20.49,0,0,1-34.28-13c0-.22,0-.45-.06-.67s0-.18,0-.27l0-.9c0-.3,0-.6,0-.9a2.44,2.44,0,0,1,0-.27c0-.22,0-.45,0-.67a20.45,20.45,0,0,1,6.54-13.44,29.88,29.88,0,0,1,13.66-7.56A34.64,34.64,0,0,1,45,13.31c15.88-.16,28.86,10.28,29,23.32a37,37,0,0,0-74,.76c.13,13,13.12,23.48,29,23.32A34.56,34.56,0,0,0,37.24,59.64Z"/><path class="cls-2" d="M74,36.63c-.13-13-13.11-23.48-29-23.32a34.64,34.64,0,0,0-8.25,1.07,29.88,29.88,0,0,0-13.66,7.56A20.49,20.49,0,0,1,57.4,35c0,.22.05.45.06.68s0,.18,0,.27c0,.29,0,.59,0,.89s0,.6,0,.9V38c0,.22,0,.45-.05.67A20.49,20.49,0,0,1,50.9,52.09a29.9,29.9,0,0,1-13.66,7.55A34.56,34.56,0,0,1,29,60.71C13.12,60.87.13,50.43,0,37.39a37,37,0,1,0,74-.76Z"/></g></g></svg>