<svg xmlns="http://www.w3.org/2000/svg" xmlns:xlink="http://www.w3.org/1999/xlink" viewBox="0 0 633.85 594.04"><defs><style>.cls-1{fill:#289f19;}.cls-2{fill:#fff;}.cls-3{fill:#289c19;}.cls-3,.cls-4{fill-rule:evenodd;}.cls-4{fill:url(#linear-gradient);}.cls-5{fill:#bfff00;}</style><linearGradient id="linear-gradient" x1="145.83" y1="297.64" x2="389.96" y2="525.77" gradientUnits="userSpaceOnUse"><stop offset="0" stop-color="#bfff00"/><stop offset="0.09" stop-color="#b6f902"/><stop offset="0.24" stop-color="#9de906"/><stop offset="0.43" stop-color="#75ce0c"/><stop offset="0.65" stop-color="#3eaa15"/><stop offset="0.73" stop-color="#289c19"/></linearGradient></defs><title>Asset 8</title><g id="Layer_2" data-name="Layer 2"><g id="Layer_1-2" data-name="Layer 1"><path class="cls-1" d="M410.44,45.94q-1.81-2.28-1.82-6.87t1.82-6.87a6.32,6.32,0,0,1,5.24-2.28,6.51,6.51,0,0,1,4.71,1.73,6.82,6.82,0,0,1,1.8,5.15H418.8a4.66,4.66,0,0,0-.84-3,2.78,2.78,0,0,0-2.28-1A3,3,0,0,0,413,34.24a8,8,0,0,0-.92,4.19v1.28a7.76,7.76,0,0,0,1,4.19,3.1,3.1,0,0,0,2.8,1.49,2.88,2.88,0,0,0,2.33-1,4.58,4.58,0,0,0,.85-3h3.23a6.85,6.85,0,0,1-1.78,5.11,6.46,6.46,0,0,1-4.73,1.75A6.32,6.32,0,0,1,410.44,45.94Z"/><path class="cls-1" d="M427.26,46.48a8.83,8.83,0,0,1-1.33-5.35q0-7.08,5.22-7.09a4.22,4.22,0,0,1,3.7,1.73,9.41,9.41,0,0,1,1.22,5.36v.78h-6.91a6.69,6.69,0,0,0,.51,2.84,1.65,1.65,0,0,0,1.59.94,1.44,1.44,0,0,0,1.26-.68,3.22,3.22,0,0,0,.47-1.89h3.08a5.1,5.1,0,0,1-1.32,3.81,4.77,4.77,0,0,1-3.49,1.29A4.72,4.72,0,0,1,427.26,46.48Zm5.55-6.82c0-2.06-.55-3.09-1.66-3.09a1.54,1.54,0,0,0-1.42.79,5.08,5.08,0,0,0-.54,2.3Z"/><path class="cls-1" d="M440.51,34.35h2.58L443.4,36h.16A5,5,0,0,1,445,34.6a3.59,3.59,0,0,1,2-.56,3.42,3.42,0,0,1,2.65,1.05,4.73,4.73,0,0,1,1,3.31v9.51h-3.1V39.25a3,3,0,0,0-.45-1.83,1.6,1.6,0,0,0-1.33-.57,1.85,1.85,0,0,0-1.51.79,3,3,0,0,0-.61,1.92v8.35h-3.1Z"/><path class="cls-1" d="M456.53,47.18a4.33,4.33,0,0,1-.75-2.59V37h-1.37V34.35h1.37l.46-3.81h2.64v3.81h2V37h-2v7.55A1,1,0,0,0,460,45.62h.87v2.29a4.2,4.2,0,0,1-.87.22,6.16,6.16,0,0,1-1,.09A2.83,2.83,0,0,1,456.53,47.18Z"/><path class="cls-1" d="M464.89,34.35h2.59l.36,2H468a4.57,4.57,0,0,1,.88-1.66,1.81,1.81,0,0,1,1.47-.64,3.52,3.52,0,0,1,.85.09l.44.12v3h-1.11a2.46,2.46,0,0,0-1.84.72,3.41,3.41,0,0,0-.69,2.4v7.55h-3.11Z"/><path class="cls-1" d="M476.34,46.49c-.89-1.15-1.34-2.93-1.34-5.36s.45-4.21,1.34-5.36a5.69,5.69,0,0,1,8.17,0c.9,1.15,1.34,2.94,1.34,5.36s-.44,4.21-1.34,5.36a5.69,5.69,0,0,1-8.17,0Zm5.77-1.87a6.8,6.8,0,0,0,.51-3v-1a6.8,6.8,0,0,0-.51-3,1.77,1.77,0,0,0-1.68-1,1.75,1.75,0,0,0-1.68,1,6.64,6.64,0,0,0-.52,3v1a6.64,6.64,0,0,0,.52,3,1.74,1.74,0,0,0,1.68,1A1.76,1.76,0,0,0,482.11,44.62Z"/><path class="cls-1" d="M499.13,46.46A9.91,9.91,0,0,1,498,41.11a9.79,9.79,0,0,1,1.15-5.3A3.5,3.5,0,0,1,502.19,34a3.65,3.65,0,0,1,1.85.46,2.62,2.62,0,0,1,1.17,1.25h.13V29.28h3.11V47.91h-2.59l-.31-1.67h-.13a3.69,3.69,0,0,1-1.29,1.48,3.35,3.35,0,0,1-1.79.5A3.63,3.63,0,0,1,499.13,46.46Zm5.72-2a6.37,6.37,0,0,0,.49-2.85v-.93a6.5,6.5,0,0,0-.49-2.87,1.78,1.78,0,0,0-3.15,0,6.37,6.37,0,0,0-.49,2.85v1a6.37,6.37,0,0,0,.49,2.85,1.79,1.79,0,0,0,3.15,0Z"/><path class="cls-1" d="M514.13,46.48q-1.33-1.74-1.33-5.35,0-7.08,5.22-7.09a4.23,4.23,0,0,1,3.7,1.73,9.5,9.5,0,0,1,1.21,5.36v.78H516a6.71,6.71,0,0,0,.5,2.84,1.65,1.65,0,0,0,1.59.94,1.44,1.44,0,0,0,1.27-.68,3.3,3.3,0,0,0,.46-1.89h3.08a5.1,5.1,0,0,1-1.32,3.81,4.77,4.77,0,0,1-3.49,1.29A4.71,4.71,0,0,1,514.13,46.48Zm5.54-6.82q0-3.09-1.65-3.09a1.53,1.53,0,0,0-1.42.79,5.2,5.2,0,0,0-.55,2.3Z"/><path class="cls-1" d="M409.29,60.11h5.77a6.51,6.51,0,0,1,5.23,2.19q1.88,2.19,1.88,6.39c0,3-.63,5.24-1.87,6.78a6.33,6.33,0,0,1-5.24,2.32h-5.77Zm5.46,14.75a3.47,3.47,0,0,0,2.94-1.41,6.74,6.74,0,0,0,1.06-4.11V68.05a5.67,5.67,0,0,0-1.06-3.72,3.61,3.61,0,0,0-2.94-1.28H412.6V74.86Z"/><path class="cls-1" d="M426.59,59.16h3.1V62h-3.1Zm0,5.08h3.1V77.79h-3.1Z"/><path class="cls-1" d="M435.33,76.93A4,4,0,0,1,434,73.8l0-.31h3.15v.18a1.88,1.88,0,0,0,.57,1.46,2,2,0,0,0,1.29.45,2.33,2.33,0,0,0,1.27-.35,1.24,1.24,0,0,0,.54-1.12,1.3,1.3,0,0,0-.62-1.2,8.44,8.44,0,0,0-2-.74,15.2,15.2,0,0,1-2.1-.72,3.42,3.42,0,0,1-1.38-1.18,3.77,3.77,0,0,1-.58-2.22,3.64,3.64,0,0,1,1.36-3,5.43,5.43,0,0,1,3.5-1.07,5.3,5.3,0,0,1,3.29,1,3.21,3.21,0,0,1,1.31,2.69l0,.6h-3.15v-.06c0-1.13-.53-1.7-1.53-1.7a1.77,1.77,0,0,0-1.16.36,1.21,1.21,0,0,0-.44,1,1.11,1.11,0,0,0,.6,1,8.87,8.87,0,0,0,1.86.65,13.67,13.67,0,0,1,2.14.71,3.74,3.74,0,0,1,1.44,1.21,3.91,3.91,0,0,1,.6,2.31c0,2.92-1.68,4.38-5.06,4.38A5.25,5.25,0,0,1,435.33,76.93Z"/><path class="cls-1" d="M449.55,77.06a4.33,4.33,0,0,1-.75-2.59V66.84h-1.37v-2.6h1.37l.47-3.82h2.64v3.82h2v2.6h-2v7.55a1.13,1.13,0,0,0,.28.83,1.08,1.08,0,0,0,.8.28h.88v2.29A4.31,4.31,0,0,1,453,78a6,6,0,0,1-1,.09A2.81,2.81,0,0,1,449.55,77.06Z"/><path class="cls-1" d="M457.92,64.24h2.59l.36,2H461a4.9,4.9,0,0,1,.88-1.66,1.84,1.84,0,0,1,1.47-.63,3.6,3.6,0,0,1,.86.09l.44.11v3h-1.12a2.43,2.43,0,0,0-1.83.72,3.37,3.37,0,0,0-.7,2.4v7.55h-3.1Z"/><path class="cls-1" d="M468.4,59.16h3.1V62h-3.1Zm0,5.08h3.1V77.79h-3.1Z"/><path class="cls-1" d="M480.69,77.6a3.62,3.62,0,0,1-1.29-1.48h-.13L479,77.79h-2.58V59.16h3.1v6.47h.13a2.64,2.64,0,0,1,1.18-1.25,3.72,3.72,0,0,1,1.84-.45,3.53,3.53,0,0,1,3.07,1.76,9.88,9.88,0,0,1,1.15,5.3,10,10,0,0,1-1.15,5.35,3.65,3.65,0,0,1-3.22,1.76A3.27,3.27,0,0,1,480.69,77.6Zm2.43-3.25a6.29,6.29,0,0,0,.5-2.85v-1a6.27,6.27,0,0,0-.5-2.84,1.78,1.78,0,0,0-3.15,0,6.58,6.58,0,0,0-.49,2.88v.92a6.31,6.31,0,0,0,.49,2.85,1.79,1.79,0,0,0,3.15,0Z"/><path class="cls-1" d="M492.3,77.06a4.74,4.74,0,0,1-1-3.31V64.24h3.1V72.9a2.94,2.94,0,0,0,.44,1.84,1.6,1.6,0,0,0,1.34.55,1.85,1.85,0,0,0,1.51-.76,2.88,2.88,0,0,0,.61-1.89v-8.4h3.1V77.79h-2.58l-.31-1.67h-.16a5.06,5.06,0,0,1-1.45,1.43,3.54,3.54,0,0,1-2,.55A3.39,3.39,0,0,1,492.3,77.06Z"/><path class="cls-1" d="M507.19,76.39Q505.95,74.68,506,71c0-2.42.41-4.21,1.25-5.36A4.38,4.38,0,0,1,511,63.93a4.6,4.6,0,0,1,3.5,1.32,5.82,5.82,0,0,1,1.25,4.09h-3.18c0-1.87-.52-2.81-1.57-2.81a1.45,1.45,0,0,0-1.39,1,8.1,8.1,0,0,0-.42,3v1a7.66,7.66,0,0,0,.45,3,1.52,1.52,0,0,0,1.46,1,1.26,1.26,0,0,0,1.2-.7,4.56,4.56,0,0,0,.38-2.11h3.07a5.91,5.91,0,0,1-1.21,4.09,5.23,5.23,0,0,1-7.34-.39Z"/><path class="cls-1" d="M520.18,59.16h3.1V62h-3.1Zm0,5.08h3.1V77.79h-3.1Z"/><path class="cls-1" d="M529.12,76.38q-1.33-1.72-1.34-5.37t1.34-5.36a5.71,5.71,0,0,1,8.17,0q1.35,1.72,1.35,5.36t-1.35,5.37a5.71,5.71,0,0,1-8.17,0Zm5.77-1.87a6.85,6.85,0,0,0,.51-3v-1a6.8,6.8,0,0,0-.51-3,1.77,1.77,0,0,0-1.68-1,1.75,1.75,0,0,0-1.68,1,6.64,6.64,0,0,0-.52,3v1a6.69,6.69,0,0,0,.52,3,1.75,1.75,0,0,0,1.68,1A1.77,1.77,0,0,0,534.89,74.51Zm-1.24-15.35h3.1l0,.08L534,62.56h-2.56Z"/><path class="cls-1" d="M543.12,64.24h2.58l.31,1.67h.16a5,5,0,0,1,1.44-1.43,3.56,3.56,0,0,1,2-.55,3.41,3.41,0,0,1,2.65,1,4.74,4.74,0,0,1,1,3.31v9.51h-3.1V69.13a3,3,0,0,0-.45-1.83,1.62,1.62,0,0,0-1.33-.56,1.86,1.86,0,0,0-1.52.78,3.1,3.1,0,0,0-.6,1.92v8.35h-3.1Z"/><path class="cls-1" d="M557.81,64.24h3.57v3.53h-3.57Zm0,10h3.57v3.53h-3.57Z"/><path class="cls-2" d="M412.58,92.93h-4.4V90h12.1v2.94h-4.4v14.75h-3.3Z"/><path class="cls-2" d="M423.44,106.94a4.73,4.73,0,0,1-1-3.31V94.12h3.1v8.66a3,3,0,0,0,.44,1.84,1.6,1.6,0,0,0,1.34.56,1.86,1.86,0,0,0,1.51-.76,2.93,2.93,0,0,0,.61-1.9v-8.4h3.1v13.56H430l-.31-1.68h-.16a5.16,5.16,0,0,1-1.44,1.43,3.59,3.59,0,0,1-2,.55A3.41,3.41,0,0,1,423.44,106.94Z"/><path class="cls-2" d="M437.44,89h3.1v18.64h-3.1Z"/><path class="cls-2" d="M446.52,106.94a4.31,4.31,0,0,1-.75-2.59V96.72H444.4v-2.6h1.37l.46-3.82h2.64v3.82h2v2.6h-2v7.55a1.13,1.13,0,0,0,.28.83,1.08,1.08,0,0,0,.8.28h.88v2.3a5.88,5.88,0,0,1-.88.22,6,6,0,0,1-1,.08A2.8,2.8,0,0,1,446.52,106.94Z"/><path class="cls-2" d="M454.9,89H458v2.81h-3.1Zm0,5.08H458v13.56h-3.1Z"/><path class="cls-2" d="M464,106.94a4.31,4.31,0,0,1-.75-2.59V96.72h-1.37v-2.6h1.37l.46-3.82h2.64v3.82h2v2.6h-2v7.55a1.13,1.13,0,0,0,.28.83,1.08,1.08,0,0,0,.8.28h.88v2.3a5.88,5.88,0,0,1-.88.22,6,6,0,0,1-1,.08A2.8,2.8,0,0,1,464,106.94Z"/><path class="cls-2" d="M472.36,89h3.1v18.64h-3.1Z"/><path class="cls-2" d="M480.62,107.12a3.59,3.59,0,0,1-1.07-3,3.94,3.94,0,0,1,1.76-3.66,9.56,9.56,0,0,1,5-1.08V98a2.19,2.19,0,0,0-.3-1.24,1.28,1.28,0,0,0-1.13-.44,1.63,1.63,0,0,0-1.24.43,1.44,1.44,0,0,0-.38,1v.39h-3a3.9,3.9,0,0,1,0-.57,3.35,3.35,0,0,1,1.25-2.73,5.1,5.1,0,0,1,3.35-1,5,5,0,0,1,3.47,1,3.76,3.76,0,0,1,1.15,3v6.68a.94.94,0,0,0,.21.68.67.67,0,0,0,.52.22h.62v2.19a3.82,3.82,0,0,1-1.84.41,2.49,2.49,0,0,1-1.54-.47,2.37,2.37,0,0,1-.86-1.3h-.13a4.66,4.66,0,0,1-1.41,1.34,4.08,4.08,0,0,1-2,.43A3.64,3.64,0,0,1,480.62,107.12Zm5.17-2.54a4,4,0,0,0,.51-2.14v-.77a5.81,5.81,0,0,0-2.58.5,1.78,1.78,0,0,0-1,1.72,1.58,1.58,0,0,0,.37,1.12,1.54,1.54,0,0,0,1.15.4A1.68,1.68,0,0,0,485.79,104.58ZM485.24,89h3.1l0,.08-2.79,3.32H483Z"/><path class="cls-2" d="M494.58,94.12h2.58l.31,1.67h.16a5,5,0,0,1,1.44-1.43,3.56,3.56,0,0,1,2-.55,3.45,3.45,0,0,1,2.65,1,4.74,4.74,0,0,1,1,3.31v9.52h-3.1V99a2.92,2.92,0,0,0-.45-1.83,1.6,1.6,0,0,0-1.33-.57,1.86,1.86,0,0,0-1.52.78,3.1,3.1,0,0,0-.6,1.92v8.36h-3.1Z"/><path class="cls-2" d="M409.29,119.88h11.3v2.93h-8V127h6.85V130H412.6v4.64h8.14v2.94H409.29Z"/><path class="cls-2" d="M426,136.69a4,4,0,0,1-1.3-3.13l0-.31h3.16v.18a1.84,1.84,0,0,0,.56,1.46,2,2,0,0,0,1.3.45A2.21,2.21,0,0,0,431,135a1.23,1.23,0,0,0,.55-1.12,1.3,1.3,0,0,0-.62-1.2,8.17,8.17,0,0,0-2-.73,15,15,0,0,1-2.09-.72,3.41,3.41,0,0,1-1.39-1.19,3.84,3.84,0,0,1-.58-2.22,3.64,3.64,0,0,1,1.36-3,5.49,5.49,0,0,1,3.5-1.07,5.31,5.31,0,0,1,3.3,1,3.2,3.2,0,0,1,1.3,2.7l0,.59h-3.16v0c0-1.14-.52-1.7-1.52-1.7a1.77,1.77,0,0,0-1.16.36,1.17,1.17,0,0,0-.44,1,1.08,1.08,0,0,0,.59,1,8.63,8.63,0,0,0,1.86.66,12.84,12.84,0,0,1,2.15.71,3.57,3.57,0,0,1,1.43,1.21,3.84,3.84,0,0,1,.61,2.31q0,4.38-5.07,4.38A5.2,5.2,0,0,1,426,136.69Z"/><path class="cls-2" d="M440.18,136.82a4.31,4.31,0,0,1-.75-2.59V126.6h-1.37V124h1.37l.46-3.81h2.64V124h2v2.6h-2v7.56a1.15,1.15,0,0,0,.28.82,1.09,1.09,0,0,0,.81.28h.88v2.3a5.34,5.34,0,0,1-.88.22,6.16,6.16,0,0,1-1,.09A2.81,2.81,0,0,1,440.18,136.82Z"/><path class="cls-2" d="M448.93,137a3.59,3.59,0,0,1-1.07-2.95,4,4,0,0,1,1.76-3.66,9.56,9.56,0,0,1,5-1.08v-1.42a2.21,2.21,0,0,0-.3-1.24,1.27,1.27,0,0,0-1.13-.43,1.63,1.63,0,0,0-1.24.42,1.48,1.48,0,0,0-.38,1V128h-3a3.9,3.9,0,0,1,0-.57,3.35,3.35,0,0,1,1.25-2.73,5.1,5.1,0,0,1,3.35-1,5,5,0,0,1,3.47,1,3.78,3.78,0,0,1,1.15,3v6.67a.94.94,0,0,0,.21.68.67.67,0,0,0,.52.22h.62v2.2a3.93,3.93,0,0,1-1.84.41,2.45,2.45,0,0,1-1.53-.48,2.33,2.33,0,0,1-.87-1.3h-.13a4.54,4.54,0,0,1-1.41,1.34,4.08,4.08,0,0,1-2,.44A3.66,3.66,0,0,1,448.93,137Zm5.17-2.54a4,4,0,0,0,.51-2.13v-.78a5.81,5.81,0,0,0-2.58.5,1.78,1.78,0,0,0-1,1.72,1.58,1.58,0,0,0,.37,1.12,1.5,1.5,0,0,0,1.15.4A1.66,1.66,0,0,0,454.1,134.46Z"/><path class="cls-2" d="M463.55,136.1a10,10,0,0,1-1.15-5.35,9.84,9.84,0,0,1,1.15-5.29,3.51,3.51,0,0,1,3.07-1.77,3.78,3.78,0,0,1,1.85.45,2.67,2.67,0,0,1,1.17,1.25h.13v-6.47h3.1v18.64h-2.58l-.31-1.68h-.13a3.56,3.56,0,0,1-1.29,1.48,3.28,3.28,0,0,1-1.79.51A3.64,3.64,0,0,1,463.55,136.1Zm5.73-2a6.37,6.37,0,0,0,.49-2.85v-.93a6.5,6.5,0,0,0-.49-2.87,1.78,1.78,0,0,0-3.15,0,6.37,6.37,0,0,0-.49,2.85v1a6.37,6.37,0,0,0,.49,2.85,1.79,1.79,0,0,0,3.15,0Z"/><path class="cls-2" d="M478.7,136.14q-1.35-1.72-1.35-5.36t1.35-5.36a5.69,5.69,0,0,1,8.17,0q1.33,1.72,1.34,5.36t-1.34,5.36a5.69,5.69,0,0,1-8.17,0Zm5.76-1.87a6.64,6.64,0,0,0,.52-3v-1a6.64,6.64,0,0,0-.52-3,1.74,1.74,0,0,0-1.68-1,1.76,1.76,0,0,0-1.68,1,6.78,6.78,0,0,0-.52,3v1a6.78,6.78,0,0,0,.52,3,1.77,1.77,0,0,0,1.68,1A1.75,1.75,0,0,0,484.46,134.27Z"/><path class="cls-2" d="M501.48,136.1a10,10,0,0,1-1.15-5.35,9.84,9.84,0,0,1,1.15-5.29,3.51,3.51,0,0,1,3.07-1.77,3.74,3.74,0,0,1,1.84.45,2.64,2.64,0,0,1,1.18,1.25h.13v-6.47h3.1v18.64h-2.58l-.31-1.68h-.13a3.51,3.51,0,0,1-1.3,1.48,3.24,3.24,0,0,1-1.78.51A3.64,3.64,0,0,1,501.48,136.1Zm5.73-2a6.51,6.51,0,0,0,.49-2.85v-.93a6.64,6.64,0,0,0-.49-2.87,1.78,1.78,0,0,0-3.16,0,6.51,6.51,0,0,0-.49,2.85v1a6.51,6.51,0,0,0,.49,2.85,1.8,1.8,0,0,0,3.16,0Z"/><path class="cls-2" d="M516.48,136.13a8.83,8.83,0,0,1-1.33-5.35q0-7.09,5.22-7.09a4.22,4.22,0,0,1,3.7,1.73,9.41,9.41,0,0,1,1.22,5.36v.77h-6.91a6.77,6.77,0,0,0,.51,2.85,1.65,1.65,0,0,0,1.59.94,1.46,1.46,0,0,0,1.26-.68,3.36,3.36,0,0,0,.47-1.9h3.08a5.11,5.11,0,0,1-1.32,3.82,4.77,4.77,0,0,1-3.49,1.29A4.72,4.72,0,0,1,516.48,136.13Zm5.55-6.82c0-2.06-.55-3.09-1.66-3.09A1.55,1.55,0,0,0,519,127a5.16,5.16,0,0,0-.54,2.31Z"/><path class="cls-2" d="M537.54,119.88h4.65l2.2,9.74c.1.48.23,1.19.38,2.13s.26,1.56.32,1.86h.1q0-.48.24-1.92c.13-.95.25-1.64.35-2.07l2.17-9.74h4.5v17.68H549.4V126.29c0-.51,0-1.06.05-1.63s.06-1,.08-1.2h-.1l-.62,2.78-2.48,11.32h-2.87L541,126.19l-.62-2.73h-.1c0,.22,0,.63.07,1.21s.05,1.13.05,1.62v11.27h-2.81Z"/><path class="cls-2" d="M558.15,136.13q-1.33-1.74-1.33-5.35,0-7.09,5.22-7.09a4.22,4.22,0,0,1,3.7,1.73,9.42,9.42,0,0,1,1.21,5.36v.77h-6.9a7,7,0,0,0,.5,2.85,1.65,1.65,0,0,0,1.59.94,1.46,1.46,0,0,0,1.27-.68,3.36,3.36,0,0,0,.47-1.9H567a5.11,5.11,0,0,1-1.32,3.82,5.41,5.41,0,0,1-7.48-.45Zm5.55-6.82c0-2.06-.56-3.09-1.66-3.09a1.54,1.54,0,0,0-1.42.78,5.16,5.16,0,0,0-.54,2.31Zm-1.35-10.39h3.1l0,.08-2.79,3.32h-2.56Z"/><path class="cls-2" d="M573.67,130.55,570.05,124h3.52l2,3.94h.13l2-3.94h3.34l-3.67,6.47,3.87,7.09h-3.49l-2.3-4.49h-.13l-2.3,4.49h-3.31Z"/><path class="cls-2" d="M585,118.92h3.11v2.81H585Zm0,5.08h3.11v13.56H585Z"/><path class="cls-2" d="M593.92,136.15q-1.24-1.71-1.24-5.37c0-2.42.41-4.21,1.25-5.36a4.39,4.39,0,0,1,3.79-1.73,4.57,4.57,0,0,1,3.5,1.33,5.79,5.79,0,0,1,1.25,4.08h-3.18c0-1.87-.52-2.81-1.57-2.81a1.44,1.44,0,0,0-1.39,1,8.1,8.1,0,0,0-.42,3v1a7.61,7.61,0,0,0,.45,3,1.52,1.52,0,0,0,1.46,1,1.27,1.27,0,0,0,1.2-.69,4.64,4.64,0,0,0,.38-2.12h3.07a5.9,5.9,0,0,1-1.21,4.09,4.42,4.42,0,0,1-3.44,1.33A4.47,4.47,0,0,1,593.92,136.15Z"/><path class="cls-2" d="M607.8,136.14q-1.34-1.72-1.34-5.36t1.34-5.36a5.69,5.69,0,0,1,8.17,0c.9,1.15,1.34,2.94,1.34,5.36s-.44,4.21-1.34,5.36a5.69,5.69,0,0,1-8.17,0Zm5.77-1.87a6.8,6.8,0,0,0,.51-3v-1a6.8,6.8,0,0,0-.51-3,1.76,1.76,0,0,0-1.68-1,1.74,1.74,0,0,0-1.68,1,6.64,6.64,0,0,0-.52,3v1a6.64,6.64,0,0,0,.52,3,1.75,1.75,0,0,0,1.68,1A1.77,1.77,0,0,0,613.57,134.27Z"/><path class="cls-1" d="M410.44,310q-1.81-2.28-1.82-6.87t1.82-6.87a6.32,6.32,0,0,1,5.24-2.28,6.51,6.51,0,0,1,4.71,1.73,6.82,6.82,0,0,1,1.8,5.15H418.8a4.66,4.66,0,0,0-.84-3,2.78,2.78,0,0,0-2.28-1,3,3,0,0,0-2.73,1.48,8,8,0,0,0-.92,4.19v1.28a7.76,7.76,0,0,0,1,4.19,3.1,3.1,0,0,0,2.8,1.49,2.88,2.88,0,0,0,2.33-1,4.58,4.58,0,0,0,.85-3h3.23a6.85,6.85,0,0,1-1.78,5.11,6.46,6.46,0,0,1-4.73,1.75A6.32,6.32,0,0,1,410.44,310Z"/><path class="cls-1" d="M427.4,310.58c-.89-1.15-1.34-2.93-1.34-5.36s.45-4.21,1.34-5.36a5.69,5.69,0,0,1,8.17,0q1.35,1.72,1.35,5.36c0,2.43-.45,4.21-1.35,5.36a5.69,5.69,0,0,1-8.17,0Zm5.77-1.87a6.8,6.8,0,0,0,.51-3v-1a6.8,6.8,0,0,0-.51-3,1.77,1.77,0,0,0-1.68-1,1.75,1.75,0,0,0-1.68,1,6.64,6.64,0,0,0-.52,3v1a6.64,6.64,0,0,0,.52,3,1.74,1.74,0,0,0,1.68,1A1.76,1.76,0,0,0,433.17,308.71Z"/><path class="cls-1" d="M441.4,298.44H444l.36,2h.16a4.57,4.57,0,0,1,.88-1.66,1.81,1.81,0,0,1,1.47-.64,3.52,3.52,0,0,1,.85.09l.44.12v3H447a2.42,2.42,0,0,0-1.83.72,3.36,3.36,0,0,0-.7,2.4V312h-3.1Z"/><path class="cls-1" d="M451.89,298.44h2.58l.31,1.68h.13a3.62,3.62,0,0,1,1.29-1.48,3.28,3.28,0,0,1,1.79-.51,3.64,3.64,0,0,1,3.22,1.77,10,10,0,0,1,1.15,5.35,9.84,9.84,0,0,1-1.15,5.29,3.51,3.51,0,0,1-3.07,1.77,3.78,3.78,0,0,1-1.85-.45,2.67,2.67,0,0,1-1.17-1.25H455v5.85h-3.1Zm6.74,10.12a6.37,6.37,0,0,0,.49-2.85v-1a6.37,6.37,0,0,0-.49-2.85,1.79,1.79,0,0,0-3.15,0,6.37,6.37,0,0,0-.49,2.85v.93a6.5,6.5,0,0,0,.49,2.87,1.78,1.78,0,0,0,3.15,0Z"/><path class="cls-1" d="M467.8,310.58c-.9-1.15-1.35-2.93-1.35-5.36s.45-4.21,1.35-5.36a5.69,5.69,0,0,1,8.17,0q1.33,1.72,1.34,5.36c0,2.43-.45,4.21-1.34,5.36a5.69,5.69,0,0,1-8.17,0Zm5.76-1.87a6.64,6.64,0,0,0,.52-3v-1a6.64,6.64,0,0,0-.52-3,1.75,1.75,0,0,0-1.68-1,1.77,1.77,0,0,0-1.68,1,6.78,6.78,0,0,0-.52,3v1a6.78,6.78,0,0,0,.52,3,1.76,1.76,0,0,0,1.68,1A1.74,1.74,0,0,0,473.56,308.71Z"/><path class="cls-1" d="M481.79,298.44h2.58l.36,2h.16a4.73,4.73,0,0,1,.88-1.66,1.81,1.81,0,0,1,1.47-.64,3.52,3.52,0,0,1,.85.09l.44.12v3h-1.11a2.42,2.42,0,0,0-1.83.72,3.36,3.36,0,0,0-.7,2.4V312h-3.1Z"/><path class="cls-1" d="M492.5,311.45a3.61,3.61,0,0,1-1.07-2.95,4,4,0,0,1,1.76-3.66,9.45,9.45,0,0,1,5-1.09v-1.41a2.16,2.16,0,0,0-.3-1.24,1.27,1.27,0,0,0-1.12-.44,1.57,1.57,0,0,0-1.24.43,1.41,1.41,0,0,0-.39,1v.38h-3c0-.1,0-.29,0-.56a3.35,3.35,0,0,1,1.25-2.73,6.13,6.13,0,0,1,6.83,0,3.78,3.78,0,0,1,1.15,3v6.68a1,1,0,0,0,.2.68.71.71,0,0,0,.52.22h.62v2.19a3.93,3.93,0,0,1-1.84.41,2.45,2.45,0,0,1-1.53-.48,2.35,2.35,0,0,1-.87-1.3h-.13a4.54,4.54,0,0,1-1.41,1.34,4.08,4.08,0,0,1-2,.44A3.7,3.7,0,0,1,492.5,311.45Zm5.17-2.54a4,4,0,0,0,.51-2.14V306a5.63,5.63,0,0,0-2.57.5,1.75,1.75,0,0,0-1,1.71,1.57,1.57,0,0,0,.38,1.12,1.49,1.49,0,0,0,1.15.4A1.67,1.67,0,0,0,497.67,308.91Z"/><path class="cls-1" d="M507.3,311.27a4.33,4.33,0,0,1-.75-2.59v-7.63h-1.37v-2.61h1.37l.46-3.81h2.64v3.81h2v2.61h-2v7.55a1.1,1.1,0,0,0,.28.82,1.09,1.09,0,0,0,.8.29h.88V312a4.15,4.15,0,0,1-.88.22,6,6,0,0,1-1,.09A2.83,2.83,0,0,1,507.3,311.27Z"/><path class="cls-1" d="M515.68,293.37h3.1v2.8h-3.1Zm0,5.07h3.1V312h-3.1Z"/><path class="cls-1" d="M522.54,298.44h3.26l1.75,5.83a19.35,19.35,0,0,1,.5,2.11c.19,1,.31,1.64.36,2h.1c0-.31.16-.94.31-1.89a16.73,16.73,0,0,1,.47-2.18l1.73-5.83h3.1L529.91,312h-3.16Z"/><path class="cls-1" d="M538.41,310.58c-.9-1.15-1.34-2.93-1.34-5.36s.44-4.21,1.34-5.36a5.69,5.69,0,0,1,8.17,0q1.33,1.72,1.34,5.36c0,2.43-.45,4.21-1.34,5.36a5.69,5.69,0,0,1-8.17,0Zm5.77-1.87a6.8,6.8,0,0,0,.51-3v-1a6.8,6.8,0,0,0-.51-3,1.93,1.93,0,0,0-3.37,0,6.8,6.8,0,0,0-.51,3v1a6.8,6.8,0,0,0,.51,3,1.92,1.92,0,0,0,3.37,0Z"/><path class="cls-1" d="M551.93,298.44h3.57V302h-3.57Zm0,10h3.57V312h-3.57Z"/><path class="cls-2" d="M409.29,324.2h6.34a5.49,5.49,0,0,1,4.1,1.47,5.22,5.22,0,0,1,1.45,3.84,5.79,5.79,0,0,1-.7,2.9,4.77,4.77,0,0,1-2,1.93,5.89,5.89,0,0,1-2.9.69h-3v6.85h-3.31Zm6,7.91a2.38,2.38,0,0,0,1.83-.68,2.67,2.67,0,0,0,.65-1.92,2.31,2.31,0,0,0-.66-1.73,2.5,2.5,0,0,0-1.82-.64H412.6v5Z"/><path class="cls-2" d="M425.32,341.33a3.61,3.61,0,0,1-1.07-2.95,3.94,3.94,0,0,1,1.76-3.66,9.54,9.54,0,0,1,5-1.08v-1.42a2.27,2.27,0,0,0-.29-1.24,1.29,1.29,0,0,0-1.13-.44,1.58,1.58,0,0,0-1.24.43,1.41,1.41,0,0,0-.39,1v.39h-3a3.67,3.67,0,0,1,0-.57,3.35,3.35,0,0,1,1.26-2.73,6.16,6.16,0,0,1,6.82,0,3.74,3.74,0,0,1,1.15,3v6.68a1,1,0,0,0,.21.68.67.67,0,0,0,.52.22h.62v2.19a3.82,3.82,0,0,1-1.84.41,2.54,2.54,0,0,1-1.54-.47,2.39,2.39,0,0,1-.86-1.31h-.13a4.43,4.43,0,0,1-1.41,1.34,4,4,0,0,1-2,.44A3.64,3.64,0,0,1,425.32,341.33Zm5.17-2.54a4,4,0,0,0,.5-2.14v-.77a5.79,5.79,0,0,0-2.57.5,1.77,1.77,0,0,0-1,1.71,1.59,1.59,0,0,0,.37,1.13,1.53,1.53,0,0,0,1.15.4A1.69,1.69,0,0,0,430.49,338.79Z"/><path class="cls-2" d="M439.27,328.33h2.59l.36,2h.16a4.72,4.72,0,0,1,.87-1.66,1.87,1.87,0,0,1,1.48-.63,3.57,3.57,0,0,1,.85.09l.44.11v3h-1.11a2.46,2.46,0,0,0-1.84.72,3.42,3.42,0,0,0-.69,2.4v7.55h-3.11Z"/><path class="cls-2" d="M449.75,323.25h3.1v10.46l3.8-5.38H460l-4,5.51,4.24,8h-3.44L454,336.26l-1.14,1.4v4.22h-3.1Z"/><path class="cls-2" d="M471.72,324.2h6.34a5.52,5.52,0,0,1,4.11,1.47,5.25,5.25,0,0,1,1.44,3.84,5.89,5.89,0,0,1-.69,2.9,4.85,4.85,0,0,1-2,1.93,5.89,5.89,0,0,1-2.9.69h-3v6.85h-3.31Zm6,7.91a2.38,2.38,0,0,0,1.83-.68,2.63,2.63,0,0,0,.65-1.92,2.31,2.31,0,0,0-.66-1.73,2.48,2.48,0,0,0-1.82-.64H475v5Z"/><path class="cls-2" d="M487.58,323.25h3.1v18.63h-3.1Z"/><path class="cls-2" d="M495.84,341.33a3.61,3.61,0,0,1-1.07-2.95,3.94,3.94,0,0,1,1.76-3.66,9.56,9.56,0,0,1,5-1.08v-1.42a2.19,2.19,0,0,0-.3-1.24,1.28,1.28,0,0,0-1.13-.44,1.6,1.6,0,0,0-1.24.43,1.4,1.4,0,0,0-.38,1v.39h-3a4.06,4.06,0,0,1,0-.57,3.34,3.34,0,0,1,1.25-2.73,5.1,5.1,0,0,1,3.35-1,5,5,0,0,1,3.47,1,3.74,3.74,0,0,1,1.15,3v6.68a1,1,0,0,0,.21.68.67.67,0,0,0,.52.22H506v2.19a3.82,3.82,0,0,1-1.84.41,2.56,2.56,0,0,1-1.54-.47,2.39,2.39,0,0,1-.86-1.31h-.13a4.43,4.43,0,0,1-1.41,1.34,4,4,0,0,1-2,.44A3.64,3.64,0,0,1,495.84,341.33Zm5.17-2.54a4,4,0,0,0,.51-2.14v-.77a5.81,5.81,0,0,0-2.58.5,1.77,1.77,0,0,0-1,1.71,1.59,1.59,0,0,0,.37,1.13,1.54,1.54,0,0,0,1.15.4A1.68,1.68,0,0,0,501,338.79Z"/><path class="cls-2" d="M509.33,340.57l5.27-9.64h-5v-2.6h9.18v1.28l-5.3,9.67H519v2.6h-9.67Z"/><path class="cls-2" d="M523.5,341.33a3.58,3.58,0,0,1-1.07-2.95,4,4,0,0,1,1.75-3.66,9.6,9.6,0,0,1,5-1.08v-1.42a2.27,2.27,0,0,0-.29-1.24,1.29,1.29,0,0,0-1.13-.44,1.58,1.58,0,0,0-1.24.43,1.41,1.41,0,0,0-.39,1v.39h-3a3.67,3.67,0,0,1,0-.57,3.35,3.35,0,0,1,1.26-2.73,6.16,6.16,0,0,1,6.82,0,3.74,3.74,0,0,1,1.15,3v6.68a1,1,0,0,0,.21.68.65.65,0,0,0,.51.22h.62v2.19a3.75,3.75,0,0,1-1.83.41,2.54,2.54,0,0,1-1.54-.47,2.39,2.39,0,0,1-.86-1.31h-.13a4.54,4.54,0,0,1-1.41,1.34,4,4,0,0,1-2,.44A3.61,3.61,0,0,1,523.5,341.33Zm5.17-2.54a4,4,0,0,0,.5-2.14v-.77a5.76,5.76,0,0,0-2.57.5,1.77,1.77,0,0,0-1,1.71,1.59,1.59,0,0,0,.37,1.13,1.53,1.53,0,0,0,1.15.4A1.69,1.69,0,0,0,528.67,338.79Z"/><path class="cls-2" d="M539.08,341.88h-1.42v-3.53h3.57v3.22l-1.71,4.33h-1.86Z"/><path class="cls-2" d="M409.29,354.08h3.31v14.59h7.5v3.1H409.29Z"/><path class="cls-2" d="M425,370.35q-1.35-1.73-1.35-5.36c0-2.43.45-4.21,1.35-5.37a5.71,5.71,0,0,1,8.17,0c.89,1.16,1.34,2.94,1.34,5.37s-.45,4.21-1.34,5.36a5.69,5.69,0,0,1-8.17,0Zm5.76-1.87a6.64,6.64,0,0,0,.52-3v-1a6.72,6.72,0,0,0-.52-3,1.75,1.75,0,0,0-1.68-1,1.77,1.77,0,0,0-1.68,1,6.88,6.88,0,0,0-.51,3v1a6.8,6.8,0,0,0,.51,3,1.77,1.77,0,0,0,1.68,1A1.75,1.75,0,0,0,430.74,368.48Z"/><path class="cls-2" d="M439,358.21h2.59l.31,1.67H442a4.77,4.77,0,0,1,1.36-1.43,3.24,3.24,0,0,1,1.87-.55,2.86,2.86,0,0,1,2.92,2,4.6,4.6,0,0,1,1.48-1.43,3.8,3.8,0,0,1,2-.55q3.36,0,3.36,4.35v9.52H452V363.1a3.54,3.54,0,0,0-.36-1.84,1.3,1.3,0,0,0-1.17-.55,1.62,1.62,0,0,0-1.33.71,2.81,2.81,0,0,0-.56,1.79v8.56h-3V363.1a3.43,3.43,0,0,0-.37-1.84,1.32,1.32,0,0,0-1.18-.55,1.58,1.58,0,0,0-1.33.76,3.34,3.34,0,0,0-.53,1.94v8.36H439Z"/><path class="cls-2" d="M460.12,371.21a3.56,3.56,0,0,1-1.07-2.95,4,4,0,0,1,1.75-3.66,9.6,9.6,0,0,1,5-1.08V362.1a2.27,2.27,0,0,0-.29-1.24,1.29,1.29,0,0,0-1.13-.44,1.62,1.62,0,0,0-1.24.43,1.41,1.41,0,0,0-.39,1v.39h-3a3.58,3.58,0,0,1,0-.57,3.36,3.36,0,0,1,1.26-2.73,6.16,6.16,0,0,1,6.82,0,3.76,3.76,0,0,1,1.15,3v6.68a.94.94,0,0,0,.21.68.65.65,0,0,0,.51.22h.62v2.19a3.75,3.75,0,0,1-1.83.42,2.48,2.48,0,0,1-1.54-.48,2.37,2.37,0,0,1-.86-1.3h-.13a4.66,4.66,0,0,1-1.41,1.34,4.1,4.1,0,0,1-2,.44A3.62,3.62,0,0,1,460.12,371.21Zm5.17-2.54a4,4,0,0,0,.5-2.14v-.77a5.76,5.76,0,0,0-2.57.5,1.78,1.78,0,0,0-1,1.72,1.58,1.58,0,0,0,.37,1.12,1.53,1.53,0,0,0,1.15.4A1.69,1.69,0,0,0,465.29,368.67Z"/><path class="cls-2" d="M475,370.9a4,4,0,0,1-1.31-3.13l0-.31h3.15v.18a1.88,1.88,0,0,0,.57,1.46,2,2,0,0,0,1.29.45,2.3,2.3,0,0,0,1.27-.35,1.24,1.24,0,0,0,.54-1.12,1.28,1.28,0,0,0-.62-1.2,8.07,8.07,0,0,0-2-.73,14.26,14.26,0,0,1-2.1-.73,3.42,3.42,0,0,1-1.38-1.18,3.77,3.77,0,0,1-.58-2.22,3.64,3.64,0,0,1,1.36-3,5.43,5.43,0,0,1,3.5-1.07,5.28,5.28,0,0,1,3.29,1,3.21,3.21,0,0,1,1.31,2.69l0,.6h-3.15v-.06c0-1.13-.52-1.7-1.52-1.7a1.75,1.75,0,0,0-1.17.37,1.19,1.19,0,0,0-.44,1,1.1,1.1,0,0,0,.6,1.05,9.38,9.38,0,0,0,1.86.66,13.77,13.77,0,0,1,2.14.7,3.62,3.62,0,0,1,1.44,1.22,3.86,3.86,0,0,1,.61,2.3c0,2.92-1.69,4.39-5.07,4.39A5.25,5.25,0,0,1,475,370.9Z"/><path class="cls-2" d="M496.88,370.31a9.9,9.9,0,0,1-1.16-5.35,9.8,9.8,0,0,1,1.16-5.3,3.5,3.5,0,0,1,3.06-1.76,3.78,3.78,0,0,1,1.85.45A2.67,2.67,0,0,1,503,359.6h.13v-6.47h3.1v18.64h-2.58l-.31-1.68h-.13a3.62,3.62,0,0,1-1.29,1.48,3.28,3.28,0,0,1-1.79.51A3.61,3.61,0,0,1,496.88,370.31Zm5.72-2a6.29,6.29,0,0,0,.49-2.84v-.93a6.58,6.58,0,0,0-.49-2.88,1.78,1.78,0,0,0-3.15,0,6.37,6.37,0,0,0-.49,2.85v1a6.29,6.29,0,0,0,.49,2.84,1.78,1.78,0,0,0,3.15,0Z"/><path class="cls-2" d="M511.88,370.33a8.75,8.75,0,0,1-1.33-5.34q0-7.1,5.22-7.09a4.21,4.21,0,0,1,3.69,1.72,9.45,9.45,0,0,1,1.22,5.37v.77h-6.9a6.64,6.64,0,0,0,.5,2.85,1.65,1.65,0,0,0,1.59.94,1.46,1.46,0,0,0,1.27-.68,3.36,3.36,0,0,0,.46-1.9h3.08a5.11,5.11,0,0,1-1.32,3.82,4.77,4.77,0,0,1-3.49,1.29A4.68,4.68,0,0,1,511.88,370.33Zm5.54-6.81c0-2.06-.55-3.1-1.65-3.1a1.55,1.55,0,0,0-1.42.79,5.21,5.21,0,0,0-.55,2.31Z"/><path class="cls-2" d="M535.39,371.44a5,5,0,0,1-3-4.86l0-.56h3.44l0,.41a2.61,2.61,0,0,0,2.85,2.81,2.9,2.9,0,0,0,2-.61,1.92,1.92,0,0,0,.66-1.48,2.16,2.16,0,0,0-.47-1.43,3.08,3.08,0,0,0-1.15-.86,19,19,0,0,0-1.93-.72,17.53,17.53,0,0,1-2.63-1,4.5,4.5,0,0,1-1.72-1.57,4.9,4.9,0,0,1-.71-2.81,4.6,4.6,0,0,1,.8-2.72,4.88,4.88,0,0,1,2.14-1.67,7.75,7.75,0,0,1,3-.56,6.4,6.4,0,0,1,4.15,1.31,4.72,4.72,0,0,1,1.61,3.9v.31H541v-.23a2.44,2.44,0,0,0-.65-1.79,2.35,2.35,0,0,0-1.76-.66,2.86,2.86,0,0,0-1.82.53,1.65,1.65,0,0,0-.66,1.35,1.68,1.68,0,0,0,.44,1.19,3.09,3.09,0,0,0,1.1.74,18.2,18.2,0,0,0,1.82.65,21.43,21.43,0,0,1,2.71,1,4.81,4.81,0,0,1,1.79,1.56,4.72,4.72,0,0,1,.75,2.79,5.17,5.17,0,0,1-1.67,4.26,7.09,7.09,0,0,1-4.59,1.36A7.37,7.37,0,0,1,535.39,371.44Z"/><path class="cls-2" d="M549.37,371.21a3.57,3.57,0,0,1-1.08-2.95,4,4,0,0,1,1.76-3.66,9.56,9.56,0,0,1,5-1.08V362.1a2.19,2.19,0,0,0-.3-1.24,1.27,1.27,0,0,0-1.12-.44,1.6,1.6,0,0,0-1.24.43,1.41,1.41,0,0,0-.39,1v.39h-3a3.58,3.58,0,0,1,0-.57,3.38,3.38,0,0,1,1.25-2.73,6.17,6.17,0,0,1,6.83,0,3.79,3.79,0,0,1,1.15,3v6.68a1,1,0,0,0,.2.68.67.67,0,0,0,.52.22h.62v2.19a3.8,3.8,0,0,1-1.83.42,2.46,2.46,0,0,1-1.54-.48,2.43,2.43,0,0,1-.87-1.3h-.13a4.66,4.66,0,0,1-1.41,1.34,4,4,0,0,1-2,.44A3.61,3.61,0,0,1,549.37,371.21Zm5.17-2.54a4.11,4.11,0,0,0,.5-2.14v-.77a5.76,5.76,0,0,0-2.57.5,1.77,1.77,0,0,0-1,1.72,1.58,1.58,0,0,0,.38,1.12,1.53,1.53,0,0,0,1.15.4A1.69,1.69,0,0,0,554.54,368.67Z"/><path class="cls-2" d="M563.32,358.21h2.58l.31,1.67h.16a5.06,5.06,0,0,1,1.45-1.43,3.54,3.54,0,0,1,2-.55,3.46,3.46,0,0,1,2.65,1,4.79,4.79,0,0,1,1,3.31v9.52h-3.11V363.1a3,3,0,0,0-.45-1.83,1.61,1.61,0,0,0-1.33-.56,1.84,1.84,0,0,0-1.51.78,3,3,0,0,0-.61,1.92v8.36h-3.1Z"/><path class="cls-2" d="M579.34,371a4.33,4.33,0,0,1-.75-2.59v-7.63h-1.37v-2.6h1.37l.46-3.82h2.64v3.82h2v2.6h-2v7.55a1.17,1.17,0,0,0,.28.83,1.09,1.09,0,0,0,.81.28h.88v2.3a5.45,5.45,0,0,1-.88.21,6.26,6.26,0,0,1-1,.1A2.81,2.81,0,0,1,579.34,371Z"/><path class="cls-2" d="M588.09,371.21a3.59,3.59,0,0,1-1.07-2.95,4,4,0,0,1,1.76-3.66,9.56,9.56,0,0,1,5-1.08V362.1a2.19,2.19,0,0,0-.3-1.24,1.27,1.27,0,0,0-1.12-.44,1.6,1.6,0,0,0-1.24.43,1.41,1.41,0,0,0-.39,1v.39h-3c0-.11,0-.29,0-.57a3.38,3.38,0,0,1,1.25-2.73,6.17,6.17,0,0,1,6.83,0,3.79,3.79,0,0,1,1.15,3v6.68a.94.94,0,0,0,.2.68.67.67,0,0,0,.52.22h.62v2.19a3.82,3.82,0,0,1-1.84.42,2.45,2.45,0,0,1-1.53-.48,2.38,2.38,0,0,1-.87-1.3h-.13a4.66,4.66,0,0,1-1.41,1.34,4.08,4.08,0,0,1-2,.44A3.66,3.66,0,0,1,588.09,371.21Zm5.17-2.54a4,4,0,0,0,.51-2.14v-.77a5.76,5.76,0,0,0-2.57.5,1.77,1.77,0,0,0-1,1.72,1.58,1.58,0,0,0,.38,1.12,1.53,1.53,0,0,0,1.15.4A1.67,1.67,0,0,0,593.26,368.67Z"/><path class="cls-2" d="M610,354.08h10.41V357h-7.11v4.46h6.08v2.94h-6.08v7.35H610Z"/><path class="cls-2" d="M625.05,370.33a8.75,8.75,0,0,1-1.33-5.34q0-7.1,5.22-7.09a4.21,4.21,0,0,1,3.69,1.72,9.45,9.45,0,0,1,1.22,5.37v.77H627a6.64,6.64,0,0,0,.5,2.85,1.65,1.65,0,0,0,1.59.94,1.48,1.48,0,0,0,1.27-.68,3.36,3.36,0,0,0,.46-1.9h3.08a5.11,5.11,0,0,1-1.32,3.82,4.77,4.77,0,0,1-3.49,1.29A4.67,4.67,0,0,1,625.05,370.33Zm5.54-6.81c0-2.06-.55-3.1-1.65-3.1a1.56,1.56,0,0,0-1.43.79,5.09,5.09,0,0,0-.54,2.31Z"/><path class="cls-2" d="M410.44,399.68q-1.81-2.28-1.82-6.87t1.82-6.87a6.32,6.32,0,0,1,5.24-2.28,6.5,6.5,0,0,1,4.71,1.72,6.83,6.83,0,0,1,1.8,5.16H418.8a4.69,4.69,0,0,0-.84-3,2.78,2.78,0,0,0-2.28-1A3,3,0,0,0,413,388a8,8,0,0,0-.92,4.19v1.29a7.81,7.81,0,0,0,1,4.19,3.09,3.09,0,0,0,2.8,1.48,2.88,2.88,0,0,0,2.33-1,4.57,4.57,0,0,0,.85-3h3.23a6.82,6.82,0,0,1-1.78,5.1,6.46,6.46,0,0,1-4.73,1.76A6.32,6.32,0,0,1,410.44,399.68Z"/><path class="cls-2" d="M426.57,384h5.77a6.52,6.52,0,0,1,5.23,2.2q1.88,2.19,1.88,6.39,0,4.45-1.86,6.78a6.38,6.38,0,0,1-5.25,2.32h-5.77ZM432,398.71A3.45,3.45,0,0,0,435,397.3a6.7,6.7,0,0,0,1.07-4.11V391.9a5.67,5.67,0,0,0-1.07-3.72A3.6,3.6,0,0,0,432,386.9h-2.15v11.81Z"/><path class="cls-2" d="M443.76,384h4.65l2.2,9.75c.1.48.23,1.19.38,2.12s.26,1.56.31,1.87h.11q0-.48.24-1.92c.13-.95.25-1.64.35-2.07l2.17-9.75h4.5v17.69h-3.05V390.38c0-.51,0-1.06.05-1.63s.06-1,.08-1.2h-.1l-.62,2.78-2.49,11.32h-2.86l-2.51-11.37-.62-2.73h-.11c0,.22.05.63.08,1.21s.05,1.12.05,1.62v11.27h-2.81Z"/><path class="cls-2" d="M467.22,392.37,462.67,384h3.69l3,5.78h.1l3-5.78h3.44l-4.58,8.36,5,9.33h-3.67L469.18,395h-.1l-3.44,6.68H462.2Z"/><path class="cls-3" d="M173.67,0l12.67,1.05-1.06,12.64L195.84,19s3.17-3.16,4.22-3.16,6.34,2.11,6.34,2.11l3.16-7.37,9.51,3.16-4.23,15.79-3.16,1.05,2.11,5.27-2.11,42.11,1,5.27L220.4,89l-7.67,2.6-4.35,4.06-4,6.67-4,4L199,110.55l-4.23,2.11-9.5-3.16-10.56-1-5.28-4.21h-9.5l-7.39,4.21-9.5-1.06-8.45-1V97.92L142,88.44,140.93,79,142,69.49l-5.28-4.21-3.17-24.22L144.1,40V22.11l7.39-5.26V12.63l5.28,2.11,2.11-5.26L161,6.32l1.05-2.11,7.39,1,2.11-2.1Z"/><path class="cls-4" d="M275.23,594l4.18-9.51,11.33-18.76,13.43-8,41.75,7.14,5.08,3.59,10.43-9.54s6.84-32.12,8.35-34.49,3.59-13.1,3.59-13.1l-1.18-14.58-3.3-1.78L365,485.47l6.27-13.1-10.45-8.92-.3-17.24-4.76-2.67,6.87-7.44,8.94-2.69-19.1-22.61,10.45-71.09L351,328.42l.59-3-2.37-1.19-.9-4.45h-3.59L327.14,304l2.38-.92,1.19-7.14-57.27-30.31.89-19.65,7.46-18.43-2.08-7.74-14.92-34.51,3-10.7-28.62-12.51-5.67.89L223,162.72l-11.09-11,.24-10.75-1.82-1.33,4.61-6.89.85-3.75,3.87-2.9.73-3h1.82l.73-3.74,3.27-3.51-.49-10.39-1.69-5.32-3.52-4.47.24-6.77-4.24-1.69-10.18,5.92-.6,3.15-3.52,3.38-.48,3.5-1.58.73-.72,1.69-4.24,2.78.24,4.95-3,3L185.65,118l-2.3,9.18,7.75.49-2.18,4.71h2.43L189.53,136,184,141.48l3.75,2.3-3,3-9.45-1.57-3.76,5.07,8.73,5.92,5.45,13.42-14.06-4.59-3.15,1.81-25.08-7.49L138,165.29l-7.64,30.33,10.91,4.59-3,1.33-1.58,7.61-5.09,8.46-1.21,3.87,2.06,3.38-3.39.37-5.21,4,1.33,7.5,2.79,2.53-10.79,12-17.81,11v5.44l-1,1.57-3.51-.84L63,294.83l-1.21-5.68-2.91-2.41-6.42,5.31,1.7,4.47h-4l-6.79-3.62-8.12.12-.48,8.82-2.3,4.35v9.55l-3.76,10,2.79,5.8L11.75,351.39l.37,4,4.24,5.93-8.73,1.45L0,372.29l2.3,9.79,4.37-.72,10.9,1.2,5.94,5.2,2.42,8.34L23,413.74l11,2.42,3.64,5.07,6.3.85,2.54,1.09.85,7.49,6.67,7.61,1.69-1.08,7.75,1.33L65,452.9l-6.18-1.45,13.94,53.41,11.51,5.44-.36,8.21,40.72,29,80.22,6.76Z"/><polygon class="cls-3" points="37.81 419.71 41.51 420.28 41.51 414.03 46.11 409.56 46.23 404.97 47.75 401.71 48.78 400.68 47.5 397.96 51.68 397.48 53.62 396.39 58.53 396.39 64.11 392.52 64.35 391.25 66.35 391.01 66.47 387.57 70.1 385.21 73.07 385.33 75.68 381.22 75.38 379.47 78.59 375.3 80.59 375 81.44 373.43 85.25 372.52 81.92 367.75 85.13 363.4 86.16 359.05 87.55 357.11 82.04 351.37 81.5 348.84 81.98 346.36 83.56 342.98 86.58 340.8 87.37 339.65 89.67 339.59 92.34 337.05 92.58 334.52 96.28 331.44 100.58 332.52 104.7 332.64 106.03 331.68 109.79 331.44 112.58 334.64 115.79 334.76 121.06 329.68 134.94 324.25 138.03 324.19 140.81 322.19 142.27 324.55 139.42 327.99 137.91 332.04 129.85 339.05 129.66 343.64 131.36 347.75 136.33 351.56 143.54 352.4 147.6 348.17 147.42 346.24 152.81 338.14 152.93 329.02 151.54 326.84 148.39 325.75 150.45 324.12 153.66 324.19 156.51 323.1 162.87 316.39 163.05 314.34 166.5 313.25 166.14 311.01 173.35 302.61 168.02 297.54 165.9 299.35 163.96 299.47 162.02 300.92 156.39 298.69 156.26 295.12 155.29 294.21 155.6 281.16 158.45 269.44 155.11 264.61 155.11 261.41 140.81 264 128.21 268.72 120.33 268.72 117.73 270.71 114.52 270.41 113.06 272.04 113.43 273.67 111.67 276.21 107.67 276.39 99.85 283.4 97.43 283.52 94.04 287.63 87.13 290.05 87.13 291.56 89.61 292.58 89.49 298.26 94.77 301.53 95.07 303.76 95.92 304.85 92.95 305.82 98.1 310.95 97.79 313.07 93.73 314.15 88.71 318.5 84.58 320.68 84.46 323.04 82.34 323.04 76.83 328.84 76.95 331.07 41.81 388.29 37.81 419.71"/><path class="cls-5" d="M383.36,55.66v-4a11.91,11.91,0,0,0,10.52-10.5h4.05a1.32,1.32,0,1,0,0-2.64h-4.05A11.9,11.9,0,0,0,383.36,28v-4a1.33,1.33,0,0,0-2.66,0v4a11.9,11.9,0,0,0-10.52,10.5h-4.05a1.32,1.32,0,1,0,0,2.64h4.05a11.91,11.91,0,0,0,10.52,10.5v4a1.33,1.33,0,0,0,2.66,0ZM374.74,39.8A7.29,7.29,0,1,1,382,47.07,7.27,7.27,0,0,1,374.74,39.8Z"/><path class="cls-5" d="M383.36,319.15v-4a11.91,11.91,0,0,0,10.52-10.5h4.05a1.32,1.32,0,1,0,0-2.64h-4.05a11.9,11.9,0,0,0-10.52-10.5v-4a1.33,1.33,0,0,0-2.66,0v4A11.9,11.9,0,0,0,370.18,302h-4.05a1.32,1.32,0,1,0,0,2.64h4.05a11.91,11.91,0,0,0,10.52,10.5v4a1.33,1.33,0,0,0,2.66,0Zm-8.62-15.86a7.29,7.29,0,1,1,7.29,7.27A7.27,7.27,0,0,1,374.74,303.29Z"/><rect class="cls-2" x="170.21" y="40.73" width="182.37" height="1"/><ellipse class="cls-2" cx="168.78" cy="41.23" rx="2.87" ry="2.86"/><rect class="cls-2" x="117.08" y="302.78" width="235.51" height="1"/><ellipse class="cls-2" cx="115.65" cy="303.28" rx="2.87" ry="2.86"/></g></g></svg>