<svg xmlns="http://www.w3.org/2000/svg" viewBox="0 0 461.79 194.58"><defs><style>.cls-1{fill:#003c55;}.cls-2{opacity:0.35;}.cls-3{fill:#289c19;}</style></defs><title>nuestros-productos</title><g id="Layer_2" data-name="Layer 2"><g id="Layer_2-2" data-name="Layer 2"><path class="cls-1" d="M142.87,130.57h1l14.62,20.61V130.57h1v21.9h-1.05l-14.62-20.6v20.6h-.95Z"/><path class="cls-1" d="M172.9,144.62V130.57h.95V145a6.47,6.47,0,0,0,2,5.17,10.08,10.08,0,0,0,11.32,0,6.47,6.47,0,0,0,2-5.17V130.57h.95v14.05q0,8.19-8.6,8.19T172.9,144.62Z"/><path class="cls-1" d="M203.51,130.57h13.87v.85H204.46v9.66h11.73v.85H204.46v9.69h12.92v.85H203.51Z"/><path class="cls-1" d="M229.48,151.93v-.85a19,19,0,0,0,6.08.91,9.42,9.42,0,0,0,5.27-1.2A4.24,4.24,0,0,0,242.6,147a4.29,4.29,0,0,0-.7-2.55,5,5,0,0,0-2.17-1.63,21.69,21.69,0,0,0-4-1.19,12.67,12.67,0,0,1-5.3-2.11,4.42,4.42,0,0,1-1.53-3.57,5.13,5.13,0,0,1,1.88-4.2q1.89-1.54,5.73-1.55a21.28,21.28,0,0,1,3.21.24,13.92,13.92,0,0,1,2.47.55v.85a17.23,17.23,0,0,0-5.41-.79,9.28,9.28,0,0,0-5.22,1.21,4.2,4.2,0,0,0-1.75,3.69,4,4,0,0,0,.6,2.3,4.48,4.48,0,0,0,2,1.47,25.24,25.24,0,0,0,4,1.23,18.56,18.56,0,0,1,4.2,1.41,5.48,5.48,0,0,1,2.23,1.9,5.18,5.18,0,0,1,.68,2.74q0,5.78-8,5.78A17.9,17.9,0,0,1,229.48,151.93Z"/><path class="cls-1" d="M262.31,131.42h-7.86v-.85h16.63v.85h-7.82v21.05h-.95Z"/><path class="cls-1" d="M283,130.57h8.71a6.17,6.17,0,0,1,4.72,1.64,6.49,6.49,0,0,1,1.53,4.62,6.73,6.73,0,0,1-1.25,4.25A5.48,5.48,0,0,1,293,143a2.82,2.82,0,0,1,1.17.85,8.76,8.76,0,0,1,.87,1.53l3,7.07h-.95l-3-6.87a5,5,0,0,0-.87-1.44,2.66,2.66,0,0,0-1.29-.73,8.68,8.68,0,0,0-2.3-.24H284v9.28h-1Zm8.37,11.77c3.78,0,5.68-1.84,5.68-5.51s-1.75-5.41-5.24-5.41H284v10.92Z"/><path class="cls-1" d="M312.23,149.9c-1.57-1.93-2.35-4.66-2.35-8.17q0-5.92,2.3-8.71c1.53-1.86,3.94-2.79,7.25-2.79s5.73.93,7.26,2.79,2.3,4.76,2.3,8.71q0,5.24-2.36,8.16t-7.2,2.92Q314.57,152.81,312.23,149.9Zm13.68-.54q2.16-2.61,2.16-7.63a16.81,16.81,0,0,0-.95-6.21,6.54,6.54,0,0,0-2.84-3.38,11.67,11.67,0,0,0-9.72,0,6.48,6.48,0,0,0-2.83,3.38,17.06,17.06,0,0,0-.93,6.21q0,5,2.16,7.63t6.47,2.6Q323.75,152,325.91,149.36Z"/><path class="cls-1" d="M341.35,151.93v-.85a19.09,19.09,0,0,0,6.09.91,9.44,9.44,0,0,0,5.27-1.2,4.24,4.24,0,0,0,1.77-3.76,4.37,4.37,0,0,0-.7-2.55,5,5,0,0,0-2.18-1.63,21.32,21.32,0,0,0-4-1.19,12.73,12.73,0,0,1-5.31-2.11,4.42,4.42,0,0,1-1.53-3.57,5.14,5.14,0,0,1,1.89-4.2q1.89-1.54,5.73-1.55a21.28,21.28,0,0,1,3.21.24A14.13,14.13,0,0,1,354,131v.85a17.28,17.28,0,0,0-5.41-.79,9.28,9.28,0,0,0-5.22,1.21,4.18,4.18,0,0,0-1.75,3.69,4.06,4.06,0,0,0,.59,2.3,4.57,4.57,0,0,0,2,1.47,24.6,24.6,0,0,0,4,1.23,18.56,18.56,0,0,1,4.2,1.41,5.55,5.55,0,0,1,2.23,1.9,5.18,5.18,0,0,1,.68,2.74q0,5.78-8,5.78A18,18,0,0,1,341.35,151.93Z"/><path class="cls-1" d="M142.29,171.37h9.76a7.12,7.12,0,0,1,5.49,2,7.54,7.54,0,0,1,1.85,5.3,7,7,0,0,1-2,5.24,7.51,7.51,0,0,1-5.46,2H146v7.38h-3.71Zm8.94,11.6a4.5,4.5,0,0,0,3.3-1.14,4.23,4.23,0,0,0,1.16-3.15,4.6,4.6,0,0,0-1.09-3.26,4.19,4.19,0,0,0-3.2-1.16H146V183Z"/><path class="cls-1" d="M170.28,171.37h10.06a7,7,0,0,1,5.31,1.84,7.26,7.26,0,0,1,1.73,5.17,6.58,6.58,0,0,1-1.17,4,6.15,6.15,0,0,1-3.32,2.26,3.59,3.59,0,0,1,.92.9,7.59,7.59,0,0,1,.71,1.41l2.76,6.36h-3.81l-2.69-6.12a2.91,2.91,0,0,0-.95-1.28,3.32,3.32,0,0,0-1.73-.35H174v7.75h-3.7Zm9.08,11.16c2.87,0,4.31-1.39,4.31-4.15s-1.32-4.12-4-4.12H174v8.27Z"/><path class="cls-1" d="M200.74,190.87q-2.56-2.73-2.56-8.48,0-5.91,2.55-8.64c1.7-1.81,4.3-2.72,7.82-2.72s6.12.91,7.82,2.72,2.55,4.7,2.55,8.64-.86,6.66-2.57,8.48-4.31,2.74-7.8,2.74S202.46,192.7,200.74,190.87Zm12.87-2.29q1.6-1.91,1.6-6.19c0-3-.52-5.08-1.58-6.32s-2.75-1.87-5.08-1.87-4,.62-5.05,1.87-1.58,3.35-1.58,6.32.53,4.89,1.6,6.17,2.74,1.92,5,1.92S212.55,189.85,213.61,188.58Z"/><path class="cls-1" d="M230.61,171.37h8.88c3.28,0,5.7.88,7.24,2.62s2.31,4.57,2.31,8.47c0,3.74-.77,6.47-2.31,8.21s-4,2.6-7.24,2.6h-8.88Zm8.3,19a8.48,8.48,0,0,0,3.65-.66,4.28,4.28,0,0,0,2.08-2.4,13.62,13.62,0,0,0,.7-4.89,15.08,15.08,0,0,0-.65-5,4.44,4.44,0,0,0-2-2.5,8.18,8.18,0,0,0-3.76-.73h-4.59v16.15Z"/><path class="cls-1" d="M263,191.43a7.89,7.89,0,0,1-2.48-6.29V171.37h3.7V185a5.27,5.27,0,0,0,1.5,4.09,7.39,7.39,0,0,0,8.6,0,5.27,5.27,0,0,0,1.5-4.09V171.37h3.67v13.77a7.92,7.92,0,0,1-2.47,6.29q-2.46,2.17-7,2.18T263,191.43Z"/><path class="cls-1" d="M293.72,190.7q-2.82-2.91-2.82-8c0-3.69.9-6.55,2.72-8.58s4.54-3.05,8.19-3.05a19.32,19.32,0,0,1,6.43,1.06v3.23a16.84,16.84,0,0,0-6.16-1.12q-4,0-5.71,2.1t-1.73,6.36q0,3.89,1.85,5.85c1.24,1.31,3.12,2,5.66,2a17,17,0,0,0,6.12-1v3.26a21.42,21.42,0,0,1-6.42.92Q296.54,193.61,293.72,190.7Z"/><path class="cls-1" d="M325.82,174.26h-7v-2.89h17.68v2.89h-7v19h-3.7Z"/><path class="cls-1" d="M348.73,190.87q-2.57-2.73-2.56-8.48,0-5.91,2.55-8.64c1.7-1.81,4.3-2.72,7.82-2.72s6.12.91,7.82,2.72,2.55,4.7,2.55,8.64-.86,6.66-2.57,8.48-4.31,2.74-7.8,2.74S350.45,192.7,348.73,190.87Zm12.87-2.29q1.61-1.91,1.6-6.19c0-3-.52-5.08-1.58-6.32s-2.75-1.87-5.08-1.87-4,.62-5.05,1.87-1.58,3.35-1.58,6.32.53,4.89,1.6,6.17,2.74,1.92,5,1.92S360.54,189.85,361.6,188.58Z"/><path class="cls-1" d="M378.09,192.52v-3.26a18,18,0,0,0,6.5,1.22,9.18,9.18,0,0,0,4-.64,2.47,2.47,0,0,0,1.24-2.42,2.77,2.77,0,0,0-.52-1.78,4.06,4.06,0,0,0-1.72-1.14,30.71,30.71,0,0,0-3.57-1.09,11.05,11.05,0,0,1-5-2.33,5.19,5.19,0,0,1-1.43-3.89,5.35,5.35,0,0,1,2.14-4.54c1.43-1.08,3.51-1.62,6.26-1.62a23.16,23.16,0,0,1,3.48.26,15.18,15.18,0,0,1,2.74.63v3.26a15.85,15.85,0,0,0-5.71-1,8.5,8.5,0,0,0-3.88.68,2.39,2.39,0,0,0-1.29,2.31,2.5,2.5,0,0,0,.47,1.58,3.88,3.88,0,0,0,1.58,1,25.3,25.3,0,0,0,3.32,1q3.84,1,5.34,2.55a5.59,5.59,0,0,1,1.49,4,5.37,5.37,0,0,1-2.19,4.56q-2.19,1.64-6.44,1.63A17.83,17.83,0,0,1,378.09,192.52Z"/><g class="cls-2"><rect class="cls-3" x="6.82" y="4.38" width="4.38" height="2.43"/><rect class="cls-3" y="4.38" width="4.38" height="2.43"/><rect class="cls-3" x="4.38" y="6.82" width="2.43" height="4.38"/><rect class="cls-3" x="4.38" width="2.43" height="4.38"/><rect class="cls-3" x="36.96" y="4.38" width="4.38" height="2.43"/><rect class="cls-3" x="30.15" y="4.38" width="4.38" height="2.43"/><rect class="cls-3" x="34.53" y="6.82" width="2.43" height="4.38"/><rect class="cls-3" x="34.53" width="2.43" height="4.38"/><rect class="cls-3" x="67.11" y="4.38" width="4.38" height="2.43"/><rect class="cls-3" x="60.29" y="4.38" width="4.38" height="2.43"/><rect class="cls-3" x="64.67" y="6.82" width="2.43" height="4.38"/><rect class="cls-3" x="64.67" width="2.43" height="4.38"/><rect class="cls-3" x="97.25" y="4.38" width="4.38" height="2.43"/><rect class="cls-3" x="90.44" y="4.38" width="4.38" height="2.43"/><rect class="cls-3" x="94.82" y="6.82" width="2.43" height="4.38"/><rect class="cls-3" x="94.82" width="2.43" height="4.38"/><rect class="cls-3" x="6.82" y="34.95" width="4.38" height="2.43"/><rect class="cls-3" y="34.95" width="4.38" height="2.43"/><rect class="cls-3" x="4.38" y="37.38" width="2.43" height="4.38"/><rect class="cls-3" x="4.38" y="30.56" width="2.43" height="4.38"/><rect class="cls-3" x="36.96" y="34.95" width="4.38" height="2.43"/><rect class="cls-3" x="30.15" y="34.95" width="4.38" height="2.43"/><rect class="cls-3" x="34.53" y="37.38" width="2.43" height="4.38"/><rect class="cls-3" x="34.53" y="30.56" width="2.43" height="4.38"/><rect class="cls-3" x="67.11" y="34.95" width="4.38" height="2.43"/><rect class="cls-3" x="60.29" y="34.95" width="4.38" height="2.43"/><rect class="cls-3" x="64.67" y="37.38" width="2.43" height="4.38"/><rect class="cls-3" x="64.67" y="30.56" width="2.43" height="4.38"/><rect class="cls-3" x="97.25" y="34.95" width="4.38" height="2.43"/><rect class="cls-3" x="90.44" y="34.95" width="4.38" height="2.43"/><rect class="cls-3" x="94.82" y="37.38" width="2.43" height="4.38"/><rect class="cls-3" x="94.82" y="30.56" width="2.43" height="4.38"/><rect class="cls-3" x="6.82" y="65.51" width="4.38" height="2.43"/><rect class="cls-3" y="65.51" width="4.38" height="2.43"/><rect class="cls-3" x="4.38" y="67.94" width="2.43" height="4.38"/><rect class="cls-3" x="4.38" y="61.13" width="2.43" height="4.38"/><rect class="cls-3" x="36.96" y="65.51" width="4.38" height="2.43"/><rect class="cls-3" x="30.15" y="65.51" width="4.38" height="2.43"/><rect class="cls-3" x="34.53" y="67.94" width="2.43" height="4.38"/><rect class="cls-3" x="34.53" y="61.13" width="2.43" height="4.38"/><rect class="cls-3" x="67.11" y="65.51" width="4.38" height="2.43"/><rect class="cls-3" x="60.29" y="65.51" width="4.38" height="2.43"/><rect class="cls-3" x="64.67" y="67.94" width="2.43" height="4.38"/><rect class="cls-3" x="64.67" y="61.13" width="2.43" height="4.38"/><rect class="cls-3" x="97.25" y="65.51" width="4.38" height="2.43"/><rect class="cls-3" x="90.44" y="65.51" width="4.38" height="2.43"/><rect class="cls-3" x="94.82" y="67.94" width="2.43" height="4.38"/><rect class="cls-3" x="94.82" y="61.13" width="2.43" height="4.38"/><rect class="cls-3" x="6.82" y="96.07" width="4.38" height="2.43"/><rect class="cls-3" y="96.07" width="4.38" height="2.43"/><rect class="cls-3" x="4.38" y="98.5" width="2.43" height="4.38"/><rect class="cls-3" x="4.38" y="91.69" width="2.43" height="4.38"/><rect class="cls-3" x="36.96" y="96.07" width="4.38" height="2.43"/><rect class="cls-3" x="30.15" y="96.07" width="4.38" height="2.43"/><rect class="cls-3" x="34.53" y="98.5" width="2.43" height="4.38"/><rect class="cls-3" x="34.53" y="91.69" width="2.43" height="4.38"/><rect class="cls-3" x="67.11" y="96.07" width="4.38" height="2.43"/><rect class="cls-3" x="60.29" y="96.07" width="4.38" height="2.43"/><rect class="cls-3" x="64.67" y="98.5" width="2.43" height="4.38"/><rect class="cls-3" x="64.67" y="91.69" width="2.43" height="4.38"/><rect class="cls-3" x="97.25" y="96.07" width="4.38" height="2.43"/><rect class="cls-3" x="90.44" y="96.07" width="4.38" height="2.43"/><rect class="cls-3" x="94.82" y="98.5" width="2.43" height="4.38"/><rect class="cls-3" x="94.82" y="91.69" width="2.43" height="4.38"/><rect class="cls-3" x="6.82" y="126.63" width="4.38" height="2.43"/><rect class="cls-3" y="126.63" width="4.38" height="2.43"/><rect class="cls-3" x="4.38" y="129.07" width="2.43" height="4.38"/><rect class="cls-3" x="4.38" y="122.25" width="2.43" height="4.38"/><rect class="cls-3" x="36.96" y="126.63" width="4.38" height="2.43"/><rect class="cls-3" x="30.15" y="126.63" width="4.38" height="2.43"/><rect class="cls-3" x="34.53" y="129.07" width="2.43" height="4.38"/><rect class="cls-3" x="34.53" y="122.25" width="2.43" height="4.38"/><rect class="cls-3" x="67.11" y="126.63" width="4.38" height="2.43"/><rect class="cls-3" x="60.29" y="126.63" width="4.38" height="2.43"/><rect class="cls-3" x="64.67" y="129.07" width="2.43" height="4.38"/><rect class="cls-3" x="64.67" y="122.25" width="2.43" height="4.38"/><rect class="cls-3" x="97.25" y="126.63" width="4.38" height="2.43"/><rect class="cls-3" x="90.44" y="126.63" width="4.38" height="2.43"/><rect class="cls-3" x="94.82" y="129.07" width="2.43" height="4.38"/><rect class="cls-3" x="94.82" y="122.25" width="2.43" height="4.38"/><rect class="cls-3" x="6.82" y="157.2" width="4.38" height="2.43"/><rect class="cls-3" y="157.2" width="4.38" height="2.43"/><rect class="cls-3" x="4.38" y="159.63" width="2.43" height="4.38"/><rect class="cls-3" x="4.38" y="152.81" width="2.43" height="4.38"/><rect class="cls-3" x="36.96" y="157.2" width="4.38" height="2.43"/><rect class="cls-3" x="30.15" y="157.2" width="4.38" height="2.43"/><rect class="cls-3" x="34.53" y="159.63" width="2.43" height="4.38"/><rect class="cls-3" x="34.53" y="152.81" width="2.43" height="4.38"/><rect class="cls-3" x="67.11" y="157.2" width="4.38" height="2.43"/><rect class="cls-3" x="60.29" y="157.2" width="4.38" height="2.43"/><rect class="cls-3" x="64.67" y="159.63" width="2.43" height="4.38"/><rect class="cls-3" x="64.67" y="152.81" width="2.43" height="4.38"/><rect class="cls-3" x="97.25" y="157.2" width="4.38" height="2.43"/><rect class="cls-3" x="90.44" y="157.2" width="4.38" height="2.43"/><rect class="cls-3" x="94.82" y="159.63" width="2.43" height="4.38"/><rect class="cls-3" x="94.82" y="152.81" width="2.43" height="4.38"/><rect class="cls-3" x="127.4" y="4.38" width="4.38" height="2.43"/><rect class="cls-3" x="120.58" y="4.38" width="4.38" height="2.43"/><rect class="cls-3" x="124.97" y="6.82" width="2.43" height="4.38"/><rect class="cls-3" x="124.97" width="2.43" height="4.38"/><rect class="cls-3" x="157.55" y="4.38" width="4.38" height="2.43"/><rect class="cls-3" x="150.73" y="4.38" width="4.38" height="2.43"/><rect class="cls-3" x="155.11" y="6.82" width="2.43" height="4.38"/><rect class="cls-3" x="155.11" width="2.43" height="4.38"/><rect class="cls-3" x="187.69" y="4.38" width="4.38" height="2.43"/><rect class="cls-3" x="180.88" y="4.38" width="4.38" height="2.43"/><rect class="cls-3" x="185.26" y="6.82" width="2.43" height="4.38"/><rect class="cls-3" x="185.26" width="2.43" height="4.38"/><rect class="cls-3" x="217.84" y="4.38" width="4.38" height="2.43"/><rect class="cls-3" x="211.02" y="4.38" width="4.38" height="2.43"/><rect class="cls-3" x="215.4" y="6.82" width="2.43" height="4.38"/><rect class="cls-3" x="215.4" width="2.43" height="4.38"/><rect class="cls-3" x="127.4" y="34.95" width="4.38" height="2.43"/><rect class="cls-3" x="120.58" y="34.95" width="4.38" height="2.43"/><rect class="cls-3" x="124.97" y="37.38" width="2.43" height="4.38"/><rect class="cls-3" x="124.97" y="30.56" width="2.43" height="4.38"/><rect class="cls-3" x="157.55" y="34.95" width="4.38" height="2.43"/><rect class="cls-3" x="150.73" y="34.95" width="4.38" height="2.43"/><rect class="cls-3" x="155.11" y="37.38" width="2.43" height="4.38"/><rect class="cls-3" x="155.11" y="30.56" width="2.43" height="4.38"/><rect class="cls-3" x="187.69" y="34.95" width="4.38" height="2.43"/><rect class="cls-3" x="180.88" y="34.95" width="4.38" height="2.43"/><rect class="cls-3" x="185.26" y="37.38" width="2.43" height="4.38"/><rect class="cls-3" x="185.26" y="30.56" width="2.43" height="4.38"/><rect class="cls-3" x="217.84" y="34.95" width="4.38" height="2.43"/><rect class="cls-3" x="211.02" y="34.95" width="4.38" height="2.43"/><rect class="cls-3" x="215.4" y="37.38" width="2.43" height="4.38"/><rect class="cls-3" x="215.4" y="30.56" width="2.43" height="4.38"/><rect class="cls-3" x="127.4" y="65.51" width="4.38" height="2.43"/><rect class="cls-3" x="120.58" y="65.51" width="4.38" height="2.43"/><rect class="cls-3" x="124.97" y="67.94" width="2.43" height="4.38"/><rect class="cls-3" x="124.97" y="61.13" width="2.43" height="4.38"/><rect class="cls-3" x="127.4" y="96.07" width="4.38" height="2.43"/><rect class="cls-3" x="120.58" y="96.07" width="4.38" height="2.43"/><rect class="cls-3" x="124.97" y="98.5" width="2.43" height="4.38"/><rect class="cls-3" x="124.97" y="91.69" width="2.43" height="4.38"/><rect class="cls-3" x="157.55" y="65.51" width="4.38" height="2.43"/><rect class="cls-3" x="150.73" y="65.51" width="4.38" height="2.43"/><rect class="cls-3" x="155.11" y="67.94" width="2.43" height="4.38"/><rect class="cls-3" x="155.11" y="61.13" width="2.43" height="4.38"/><rect class="cls-3" x="187.69" y="65.51" width="4.38" height="2.43"/><rect class="cls-3" x="180.88" y="65.51" width="4.38" height="2.43"/><rect class="cls-3" x="185.26" y="67.94" width="2.43" height="4.38"/><rect class="cls-3" x="185.26" y="61.13" width="2.43" height="4.38"/><rect class="cls-3" x="217.84" y="65.51" width="4.38" height="2.43"/><rect class="cls-3" x="211.02" y="65.51" width="4.38" height="2.43"/><rect class="cls-3" x="215.4" y="67.94" width="2.43" height="4.38"/><rect class="cls-3" x="215.4" y="61.13" width="2.43" height="4.38"/><rect class="cls-3" x="157.55" y="96.07" width="4.38" height="2.43"/><rect class="cls-3" x="150.73" y="96.07" width="4.38" height="2.43"/><rect class="cls-3" x="155.11" y="98.5" width="2.43" height="4.38"/><rect class="cls-3" x="155.11" y="91.69" width="2.43" height="4.38"/><rect class="cls-3" x="187.69" y="96.07" width="4.38" height="2.43"/><rect class="cls-3" x="180.88" y="96.07" width="4.38" height="2.43"/><rect class="cls-3" x="185.26" y="98.5" width="2.43" height="4.38"/><rect class="cls-3" x="185.26" y="91.69" width="2.43" height="4.38"/><rect class="cls-3" x="217.84" y="96.07" width="4.38" height="2.43"/><rect class="cls-3" x="211.02" y="96.07" width="4.38" height="2.43"/><rect class="cls-3" x="215.4" y="98.5" width="2.43" height="4.38"/><rect class="cls-3" x="215.4" y="91.69" width="2.43" height="4.38"/><rect class="cls-3" x="6.82" y="187.76" width="4.38" height="2.43"/><rect class="cls-3" y="187.76" width="4.38" height="2.43"/><rect class="cls-3" x="4.38" y="190.19" width="2.43" height="4.38"/><rect class="cls-3" x="4.38" y="183.38" width="2.43" height="4.38"/><rect class="cls-3" x="36.96" y="187.76" width="4.38" height="2.43"/><rect class="cls-3" x="30.15" y="187.76" width="4.38" height="2.43"/><rect class="cls-3" x="34.53" y="190.19" width="2.43" height="4.38"/><rect class="cls-3" x="34.53" y="183.38" width="2.43" height="4.38"/><rect class="cls-3" x="67.11" y="187.76" width="4.38" height="2.43"/><rect class="cls-3" x="60.29" y="187.76" width="4.38" height="2.43"/><rect class="cls-3" x="64.67" y="190.19" width="2.43" height="4.38"/><rect class="cls-3" x="64.67" y="183.38" width="2.43" height="4.38"/><rect class="cls-3" x="97.25" y="187.76" width="4.38" height="2.43"/><rect class="cls-3" x="90.44" y="187.76" width="4.38" height="2.43"/><rect class="cls-3" x="94.82" y="190.19" width="2.43" height="4.38"/><rect class="cls-3" x="94.82" y="183.38" width="2.43" height="4.38"/><rect class="cls-3" x="246.38" y="4.38" width="4.38" height="2.43"/><rect class="cls-3" x="239.57" y="4.38" width="4.38" height="2.43"/><rect class="cls-3" x="243.95" y="6.82" width="2.43" height="4.38"/><rect class="cls-3" x="243.95" width="2.43" height="4.38"/><rect class="cls-3" x="276.53" y="4.38" width="4.38" height="2.43"/><rect class="cls-3" x="269.71" y="4.38" width="4.38" height="2.43"/><rect class="cls-3" x="274.1" y="6.82" width="2.43" height="4.38"/><rect class="cls-3" x="274.1" width="2.43" height="4.38"/><rect class="cls-3" x="306.68" y="4.38" width="4.38" height="2.43"/><rect class="cls-3" x="299.86" y="4.38" width="4.38" height="2.43"/><rect class="cls-3" x="304.24" y="6.82" width="2.43" height="4.38"/><rect class="cls-3" x="304.24" width="2.43" height="4.38"/><rect class="cls-3" x="336.82" y="4.38" width="4.38" height="2.43"/><rect class="cls-3" x="330.01" y="4.38" width="4.38" height="2.43"/><rect class="cls-3" x="334.39" y="6.82" width="2.43" height="4.38"/><rect class="cls-3" x="334.39" width="2.43" height="4.38"/><rect class="cls-3" x="246.38" y="34.95" width="4.38" height="2.43"/><rect class="cls-3" x="239.57" y="34.95" width="4.38" height="2.43"/><rect class="cls-3" x="243.95" y="37.38" width="2.43" height="4.38"/><rect class="cls-3" x="243.95" y="30.56" width="2.43" height="4.38"/><rect class="cls-3" x="276.53" y="34.95" width="4.38" height="2.43"/><rect class="cls-3" x="269.71" y="34.95" width="4.38" height="2.43"/><rect class="cls-3" x="274.1" y="37.38" width="2.43" height="4.38"/><rect class="cls-3" x="274.1" y="30.56" width="2.43" height="4.38"/><rect class="cls-3" x="306.68" y="34.95" width="4.38" height="2.43"/><rect class="cls-3" x="299.86" y="34.95" width="4.38" height="2.43"/><rect class="cls-3" x="304.24" y="37.38" width="2.43" height="4.38"/><rect class="cls-3" x="304.24" y="30.56" width="2.43" height="4.38"/><rect class="cls-3" x="336.82" y="34.95" width="4.38" height="2.43"/><rect class="cls-3" x="330.01" y="34.95" width="4.38" height="2.43"/><rect class="cls-3" x="334.39" y="37.38" width="2.43" height="4.38"/><rect class="cls-3" x="334.39" y="30.56" width="2.43" height="4.38"/><rect class="cls-3" x="246.38" y="65.51" width="4.38" height="2.43"/><rect class="cls-3" x="239.57" y="65.51" width="4.38" height="2.43"/><rect class="cls-3" x="243.95" y="67.94" width="2.43" height="4.38"/><rect class="cls-3" x="243.95" y="61.13" width="2.43" height="4.38"/><rect class="cls-3" x="276.53" y="65.51" width="4.38" height="2.43"/><rect class="cls-3" x="269.71" y="65.51" width="4.38" height="2.43"/><rect class="cls-3" x="274.1" y="67.94" width="2.43" height="4.38"/><rect class="cls-3" x="274.1" y="61.13" width="2.43" height="4.38"/><rect class="cls-3" x="306.68" y="65.51" width="4.38" height="2.43"/><rect class="cls-3" x="299.86" y="65.51" width="4.38" height="2.43"/><rect class="cls-3" x="304.24" y="67.94" width="2.43" height="4.38"/><rect class="cls-3" x="304.24" y="61.13" width="2.43" height="4.38"/><rect class="cls-3" x="336.82" y="65.51" width="4.38" height="2.43"/><rect class="cls-3" x="330.01" y="65.51" width="4.38" height="2.43"/><rect class="cls-3" x="334.39" y="67.94" width="2.43" height="4.38"/><rect class="cls-3" x="334.39" y="61.13" width="2.43" height="4.38"/><rect class="cls-3" x="246.38" y="96.07" width="4.38" height="2.43"/><rect class="cls-3" x="239.57" y="96.07" width="4.38" height="2.43"/><rect class="cls-3" x="243.95" y="98.5" width="2.43" height="4.38"/><rect class="cls-3" x="243.95" y="91.69" width="2.43" height="4.38"/><rect class="cls-3" x="276.53" y="96.07" width="4.38" height="2.43"/><rect class="cls-3" x="269.71" y="96.07" width="4.38" height="2.43"/><rect class="cls-3" x="274.1" y="98.5" width="2.43" height="4.38"/><rect class="cls-3" x="274.1" y="91.69" width="2.43" height="4.38"/><rect class="cls-3" x="306.68" y="96.07" width="4.38" height="2.43"/><rect class="cls-3" x="299.86" y="96.07" width="4.38" height="2.43"/><rect class="cls-3" x="304.24" y="98.5" width="2.43" height="4.38"/><rect class="cls-3" x="304.24" y="91.69" width="2.43" height="4.38"/><rect class="cls-3" x="336.82" y="96.07" width="4.38" height="2.43"/><rect class="cls-3" x="330.01" y="96.07" width="4.38" height="2.43"/><rect class="cls-3" x="334.39" y="98.5" width="2.43" height="4.38"/><rect class="cls-3" x="334.39" y="91.69" width="2.43" height="4.38"/><rect class="cls-3" x="366.97" y="4.38" width="4.38" height="2.43"/><rect class="cls-3" x="360.15" y="4.38" width="4.38" height="2.43"/><rect class="cls-3" x="364.53" y="6.82" width="2.43" height="4.38"/><rect class="cls-3" x="364.53" width="2.43" height="4.38"/><rect class="cls-3" x="397.11" y="4.38" width="4.38" height="2.43"/><rect class="cls-3" x="390.3" y="4.38" width="4.38" height="2.43"/><rect class="cls-3" x="394.68" y="6.82" width="2.43" height="4.38"/><rect class="cls-3" x="394.68" width="2.43" height="4.38"/><rect class="cls-3" x="427.26" y="4.38" width="4.38" height="2.43"/><rect class="cls-3" x="420.44" y="4.38" width="4.38" height="2.43"/><rect class="cls-3" x="424.83" y="6.82" width="2.43" height="4.38"/><rect class="cls-3" x="424.83" width="2.43" height="4.38"/><rect class="cls-3" x="457.41" y="4.38" width="4.38" height="2.43"/><rect class="cls-3" x="450.59" y="4.38" width="4.38" height="2.43"/><rect class="cls-3" x="454.97" y="6.82" width="2.43" height="4.38"/><rect class="cls-3" x="454.97" width="2.43" height="4.38"/><rect class="cls-3" x="366.97" y="34.95" width="4.38" height="2.43"/><rect class="cls-3" x="360.15" y="34.95" width="4.38" height="2.43"/><rect class="cls-3" x="364.53" y="37.38" width="2.43" height="4.38"/><rect class="cls-3" x="364.53" y="30.56" width="2.43" height="4.38"/><rect class="cls-3" x="397.11" y="34.95" width="4.38" height="2.43"/><rect class="cls-3" x="390.3" y="34.95" width="4.38" height="2.43"/><rect class="cls-3" x="394.68" y="37.38" width="2.43" height="4.38"/><rect class="cls-3" x="394.68" y="30.56" width="2.43" height="4.38"/><rect class="cls-3" x="427.26" y="34.95" width="4.38" height="2.43"/><rect class="cls-3" x="420.44" y="34.95" width="4.38" height="2.43"/><rect class="cls-3" x="424.83" y="37.38" width="2.43" height="4.38"/><rect class="cls-3" x="424.83" y="30.56" width="2.43" height="4.38"/><rect class="cls-3" x="457.41" y="34.95" width="4.38" height="2.43"/><rect class="cls-3" x="450.59" y="34.95" width="4.38" height="2.43"/><rect class="cls-3" x="454.97" y="37.38" width="2.43" height="4.38"/><rect class="cls-3" x="454.97" y="30.56" width="2.43" height="4.38"/><rect class="cls-3" x="366.97" y="65.51" width="4.38" height="2.43"/><rect class="cls-3" x="360.15" y="65.51" width="4.38" height="2.43"/><rect class="cls-3" x="364.53" y="67.94" width="2.43" height="4.38"/><rect class="cls-3" x="364.53" y="61.13" width="2.43" height="4.38"/><rect class="cls-3" x="366.97" y="96.07" width="4.38" height="2.43"/><rect class="cls-3" x="360.15" y="96.07" width="4.38" height="2.43"/><rect class="cls-3" x="364.53" y="98.5" width="2.43" height="4.38"/><rect class="cls-3" x="364.53" y="91.69" width="2.43" height="4.38"/><rect class="cls-3" x="397.11" y="65.51" width="4.38" height="2.43"/><rect class="cls-3" x="390.3" y="65.51" width="4.38" height="2.43"/><rect class="cls-3" x="394.68" y="67.94" width="2.43" height="4.38"/><rect class="cls-3" x="394.68" y="61.13" width="2.43" height="4.38"/><rect class="cls-3" x="427.26" y="65.51" width="4.38" height="2.43"/><rect class="cls-3" x="420.44" y="65.51" width="4.38" height="2.43"/><rect class="cls-3" x="424.83" y="67.94" width="2.43" height="4.38"/><rect class="cls-3" x="424.83" y="61.13" width="2.43" height="4.38"/><rect class="cls-3" x="457.41" y="65.51" width="4.38" height="2.43"/><rect class="cls-3" x="450.59" y="65.51" width="4.38" height="2.43"/><rect class="cls-3" x="454.97" y="67.94" width="2.43" height="4.38"/><rect class="cls-3" x="454.97" y="61.13" width="2.43" height="4.38"/><rect class="cls-3" x="397.11" y="96.07" width="4.38" height="2.43"/><rect class="cls-3" x="390.3" y="96.07" width="4.38" height="2.43"/><rect class="cls-3" x="394.68" y="98.5" width="2.43" height="4.38"/><rect class="cls-3" x="394.68" y="91.69" width="2.43" height="4.38"/><rect class="cls-3" x="427.26" y="96.07" width="4.38" height="2.43"/><rect class="cls-3" x="420.44" y="96.07" width="4.38" height="2.43"/><rect class="cls-3" x="424.83" y="98.5" width="2.43" height="4.38"/><rect class="cls-3" x="424.83" y="91.69" width="2.43" height="4.38"/><rect class="cls-3" x="457.41" y="96.07" width="4.38" height="2.43"/><rect class="cls-3" x="450.59" y="96.07" width="4.38" height="2.43"/><rect class="cls-3" x="454.97" y="98.5" width="2.43" height="4.38"/><rect class="cls-3" x="454.97" y="91.69" width="2.43" height="4.38"/></g></g></g></svg>