<svg xmlns="http://www.w3.org/2000/svg" xmlns:xlink="http://www.w3.org/1999/xlink" viewBox="0 0 666.27 102.68"><defs><style>.cls-1{fill:#289c19;}.cls-2{fill:url(#Degradado_sin_nombre_110);}.cls-3{fill:url(#Degradado_sin_nombre_110-2);}.cls-4{fill:url(#Degradado_sin_nombre_110-3);}.cls-5{fill:url(#Degradado_sin_nombre_110-4);}.cls-6{fill:url(#Degradado_sin_nombre_110-5);}.cls-7{fill:url(#Degradado_sin_nombre_110-6);}.cls-8{fill:url(#Degradado_sin_nombre_110-7);}.cls-9{fill:url(#Degradado_sin_nombre_110-8);}.cls-10{fill:url(#Degradado_sin_nombre_110-9);}.cls-11{fill:url(#Degradado_sin_nombre_110-10);}.cls-12{fill:url(#Degradado_sin_nombre_110-11);}.cls-13{fill:url(#Degradado_sin_nombre_110-12);}.cls-14{fill:url(#Degradado_sin_nombre_110-13);}.cls-15{fill:url(#Degradado_sin_nombre_110-14);}.cls-16{fill:url(#Degradado_sin_nombre_110-15);}</style><linearGradient id="Degradado_sin_nombre_110" x1="36.81" y1="59.09" x2="36.81" y2="13.71" gradientUnits="userSpaceOnUse"><stop offset="0" stop-color="#289c19"/><stop offset="1" stop-color="#bfff00"/></linearGradient><linearGradient id="Degradado_sin_nombre_110-2" x1="436.91" y1="324.66" x2="436.91" y2="268.06" gradientTransform="translate(-70.31 -485.84) rotate(44.42)" xlink:href="#Degradado_sin_nombre_110"/><linearGradient id="Degradado_sin_nombre_110-3" x1="447.69" y1="274.59" x2="447.69" y2="328.33" gradientTransform="translate(-70.31 -485.84) rotate(44.42)" xlink:href="#Degradado_sin_nombre_110"/><linearGradient id="Degradado_sin_nombre_110-4" x1="551.55" y1="212.34" x2="551.55" y2="155.74" gradientTransform="translate(-70.31 -485.84) rotate(44.42)" xlink:href="#Degradado_sin_nombre_110"/><linearGradient id="Degradado_sin_nombre_110-5" x1="562.33" y1="162.26" x2="562.33" y2="216" gradientTransform="translate(-70.31 -485.84) rotate(44.42)" xlink:href="#Degradado_sin_nombre_110"/><linearGradient id="Degradado_sin_nombre_110-6" x1="578.58" y1="-127.15" x2="578.58" y2="-140.85" gradientTransform="translate(-299.57 366.5) rotate(-19.03)" xlink:href="#Degradado_sin_nombre_110"/><linearGradient id="Degradado_sin_nombre_110-7" x1="1977.82" y1="355.56" x2="1977.82" y2="341.86" gradientTransform="matrix(-0.95, -0.33, -0.33, 0.95, 2174.35, 366.5)" xlink:href="#Degradado_sin_nombre_110"/><linearGradient id="Degradado_sin_nombre_110-8" x1="197.31" y1="48.56" x2="197.31" y2="13.86" xlink:href="#Degradado_sin_nombre_110"/><linearGradient id="Degradado_sin_nombre_110-9" x1="689.22" y1="77.44" x2="689.22" y2="20.84" gradientTransform="translate(-70.31 -485.84) rotate(44.42)" xlink:href="#Degradado_sin_nombre_110"/><linearGradient id="Degradado_sin_nombre_110-10" x1="700" y1="27.37" x2="700" y2="81.11" gradientTransform="translate(-70.31 -485.84) rotate(44.42)" xlink:href="#Degradado_sin_nombre_110"/><linearGradient id="Degradado_sin_nombre_110-11" x1="1206.98" y1="7.81" x2="1206.98" y2="-12.76" gradientTransform="translate(-472 898.63) rotate(-45)" xlink:href="#Degradado_sin_nombre_110"/><linearGradient id="Degradado_sin_nombre_110-12" x1="-165.49" y1="667.58" x2="-165.49" y2="628.45" gradientTransform="translate(969.18 -304.04) rotate(45)" xlink:href="#Degradado_sin_nombre_110"/><linearGradient id="Degradado_sin_nombre_110-13" x1="845.48" y1="-75.67" x2="845.48" y2="-132.27" gradientTransform="translate(-70.31 -485.84) rotate(44.42)" xlink:href="#Degradado_sin_nombre_110"/><linearGradient id="Degradado_sin_nombre_110-14" x1="856.26" y1="-125.74" x2="856.26" y2="-72" gradientTransform="translate(-70.31 -485.84) rotate(44.42)" xlink:href="#Degradado_sin_nombre_110"/><linearGradient id="Degradado_sin_nombre_110-15" x1="606.38" y1="54.83" x2="606.38" y2="13.18" xlink:href="#Degradado_sin_nombre_110"/></defs><title>pilares-de-servicio</title><g id="Layer_2" data-name="Layer 2"><g id="Layer_2-2" data-name="Layer 2"><path class="cls-1" d="M4.62,90.11H9a3.83,3.83,0,0,1,2.86,1,3.67,3.67,0,0,1,1,2.68,4.11,4.11,0,0,1-.49,2,3.42,3.42,0,0,1-1.36,1.36,4.24,4.24,0,0,1-2,.47H6.92v4.79H4.62Zm4.17,5.53a1.67,1.67,0,0,0,1.28-.48,1.87,1.87,0,0,0,.45-1.34,1.61,1.61,0,0,0-.46-1.21,1.74,1.74,0,0,0-1.27-.45H6.92v3.48Z"/><path class="cls-1" d="M16.05,90.11h5.17a3.86,3.86,0,0,1,2.8,1,3.46,3.46,0,0,1,1,2.56,3.4,3.4,0,0,1-.55,1.94,3.25,3.25,0,0,1-1.52,1.23l2.38,5.65H22.8l-2.05-5.15H18.36v5.15H16.05Zm4.85,5.17a1.57,1.57,0,0,0,1.21-.43,1.67,1.67,0,0,0,.41-1.21,1.5,1.5,0,0,0-.38-1.09A1.54,1.54,0,0,0,21,92.16H18.36v3.12Z"/><path class="cls-1" d="M28.46,90.11h7.86v2H30.76v3h4.77v2H30.76v3.24h5.67v2h-8Z"/><path class="cls-1" d="M40.59,101.08a7.63,7.63,0,0,1-1.26-4.79,7.65,7.65,0,0,1,1.26-4.8,4.41,4.41,0,0,1,3.65-1.59,4.52,4.52,0,0,1,3.28,1.2,4.78,4.78,0,0,1,1.26,3.6H46.42a3.26,3.26,0,0,0-.59-2.1,1.94,1.94,0,0,0-1.59-.72,2.09,2.09,0,0,0-1.9,1,5.56,5.56,0,0,0-.64,2.93v.9a5.42,5.42,0,0,0,.66,2.92,2.17,2.17,0,0,0,2,1,2,2,0,0,0,1.62-.71,3.21,3.21,0,0,0,.6-2.1h2.25a4.76,4.76,0,0,1-1.25,3.56,4.45,4.45,0,0,1-3.29,1.23A4.42,4.42,0,0,1,40.59,101.08Z"/><path class="cls-1" d="M52.16,90.11h2.3v12.35h-2.3Z"/><path class="cls-1" d="M59.19,101.08a7.32,7.32,0,0,1-1.34-4.79,7.33,7.33,0,0,1,1.34-4.8,5.31,5.31,0,0,1,7.58,0,7.27,7.27,0,0,1,1.34,4.8,7.26,7.26,0,0,1-1.34,4.79,5.29,5.29,0,0,1-7.58,0ZM65,99.66a5.23,5.23,0,0,0,.7-2.92v-.9a5.26,5.26,0,0,0-.7-2.93,2.57,2.57,0,0,0-4.11,0,5.18,5.18,0,0,0-.7,2.93v.9a5.15,5.15,0,0,0,.7,2.92,2.55,2.55,0,0,0,4.11,0Z"/><path class="cls-2" d="M47.75,24.42A7.46,7.46,0,0,1,51.05,31H40.9a2.37,2.37,0,0,0-1.24-2.17A5.53,5.53,0,0,0,37,28.17c-2.63,0-4,.62-4,1.87,0,.69.46,1.19,1.37,1.48a34.77,34.77,0,0,0,4.5.93,50.11,50.11,0,0,1,6.42,1.29,10.38,10.38,0,0,1,4.5,2.63,7.11,7.11,0,0,1,1.92,5.3q0,5-3.38,7.4a17.17,17.17,0,0,1-9,2.8l.43,7.51H33.66L34,51.81a17.73,17.73,0,0,1-8.72-3,8.09,8.09,0,0,1-3.46-6.94H32v.22a2.78,2.78,0,0,0,1.57,2.61,7.19,7.19,0,0,0,3.2.74c3,0,4.56-.72,4.56-2.14,0-.73-.48-1.26-1.43-1.59a32.73,32.73,0,0,0-4.66-1.05,52,52,0,0,1-6.39-1.42,10.42,10.42,0,0,1-4.36-2.61,6.84,6.84,0,0,1-1.87-5.13q0-4.61,3.1-6.91A16,16,0,0,1,34,21.81l-.38-7.57h6.19l-.43,7.52A16.51,16.51,0,0,1,47.75,24.42Z"/><path class="cls-3" d="M14.67,57.44A30.26,30.26,0,1,1,59,16.18c8.67,4,14.58,11.51,14.67,20.26A36.81,36.81,0,1,0,0,37.19C.09,45.93,6,53.48,14.67,57.44Z"/><path class="cls-4" d="M59,16.18A30.26,30.26,0,1,1,14.67,57.44C6,53.48.09,45.93,0,37.19a36.81,36.81,0,0,0,73.62-.75C73.53,27.69,67.62,20.14,59,16.18Z"/><path class="cls-1" d="M161.46,101.08a7.57,7.57,0,0,1-1.27-4.79,7.58,7.58,0,0,1,1.27-4.8,4.38,4.38,0,0,1,3.64-1.59,4.56,4.56,0,0,1,3.29,1.2,4.81,4.81,0,0,1,1.25,3.6h-2.36a3.26,3.26,0,0,0-.59-2.1,1.94,1.94,0,0,0-1.59-.72,2.09,2.09,0,0,0-1.9,1,5.66,5.66,0,0,0-.64,2.93v.9a5.42,5.42,0,0,0,.66,2.92,2.17,2.17,0,0,0,1.95,1,2,2,0,0,0,1.62-.71,3.21,3.21,0,0,0,.6-2.1h2.25a4.8,4.8,0,0,1-1.24,3.56,4.49,4.49,0,0,1-3.3,1.23A4.36,4.36,0,0,1,161.46,101.08Z"/><path class="cls-1" d="M175.79,90.11h2.69l4,12.35H180.1l-.76-2.43h-4.55l-.74,2.43h-2.23ZM178.71,98l-1.24-4.12a8.92,8.92,0,0,1-.24-1q-.1-.56-.12-.72H177q0,.18-.15.75t-.21.93L175.42,98Z"/><path class="cls-1" d="M185.37,90.11h2.31V100.3h5.22v2.16h-7.53Z"/><path class="cls-1" d="M195.92,90.11h2.31v12.35h-2.31Z"/><path class="cls-1" d="M202.06,90.11h4a4.52,4.52,0,0,1,3.64,1.53A6.72,6.72,0,0,1,211,96.11a7.41,7.41,0,0,1-1.3,4.73,4.4,4.4,0,0,1-3.65,1.62h-4Zm3.8,10.3a2.42,2.42,0,0,0,2-1,4.75,4.75,0,0,0,.74-2.87v-.9a4,4,0,0,0-.74-2.6,2.5,2.5,0,0,0-2-.9h-1.49v8.25Z"/><path class="cls-1" d="M217,90.11h2.68l4,12.35H221.3l-.75-2.43H216l-.73,2.43H213ZM219.92,98l-1.24-4.12a7,7,0,0,1-.24-1c-.07-.37-.11-.61-.13-.72h-.07c0,.12-.07.37-.14.75a9.34,9.34,0,0,1-.22.93L216.62,98Z"/><path class="cls-1" d="M226.58,90.11h4a4.54,4.54,0,0,1,3.65,1.53,6.72,6.72,0,0,1,1.3,4.47,7.47,7.47,0,0,1-1.29,4.73,4.42,4.42,0,0,1-3.66,1.62h-4Zm3.8,10.3a2.43,2.43,0,0,0,2.05-1,4.75,4.75,0,0,0,.74-2.87v-.9a4,4,0,0,0-.74-2.6,2.51,2.51,0,0,0-2.05-.9h-1.5v8.25Z"/><path class="cls-5" d="M175.17,57.44a30.26,30.26,0,1,1,44.28-41.26c8.67,4,14.58,11.51,14.67,20.26a36.81,36.81,0,1,0-73.62.75C160.59,45.93,166.5,53.48,175.17,57.44Z"/><path class="cls-6" d="M219.45,16.18a30.26,30.26,0,1,1-44.28,41.26c-8.67-4-14.58-11.51-14.67-20.25a36.81,36.81,0,0,0,73.62-.75C234,27.69,228.12,20.14,219.45,16.18Z"/><polygon class="cls-7" points="201.5 44.82 197.31 46.26 201.75 59.15 204.96 54.86 210.13 56.26 205.69 43.37 201.5 44.82"/><polygon class="cls-8" points="193.12 44.82 197.31 46.26 192.86 59.15 189.66 54.86 184.49 56.26 188.93 43.37 193.12 44.82"/><path class="cls-9" d="M214.05,32.43a1,1,0,0,0,0-1.8,1,1,0,0,1-.17-1.7,1,1,0,0,0-.38-1.76h0a1,1,0,0,1-.53-1.63,1,1,0,0,0-.73-1.64,1,1,0,0,1-.86-1.48,1,1,0,0,0-1-1.46,1,1,0,0,1-1.15-1.27h0a1,1,0,0,0-1.33-1.21,1,1,0,0,1-1.39-1,1,1,0,0,0-1.56-.9,1,1,0,0,1-1.56-.7,1,1,0,0,0-1.71-.55A1,1,0,0,1,200,15a1,1,0,0,0-1.79-.19,1,1,0,0,1-1.71,0,1,1,0,0,0-1.79.19,1,1,0,0,1-1.67.36,1,1,0,0,0-1.71.55,1,1,0,0,1-1.57.7,1,1,0,0,0-1.55.9,1,1,0,0,1-1.39,1,1,1,0,0,0-1.33,1.21A1,1,0,0,1,184.29,21a1,1,0,0,0-1.06,1.46,1,1,0,0,1-.85,1.48,1,1,0,0,0-.74,1.64,1,1,0,0,1-.52,1.63h0a1,1,0,0,0-.38,1.76,1,1,0,0,1-.18,1.7,1,1,0,0,0,0,1.8,1,1,0,0,1,.18,1.7,1,1,0,0,0,.38,1.76,1,1,0,0,1,.52,1.63,1,1,0,0,0,.74,1.64,1,1,0,0,1,.85,1.49,1,1,0,0,0,1.06,1.45,1,1,0,0,1,1.15,1.27,1,1,0,0,0,1.33,1.21,1,1,0,0,1,1.39,1,1,1,0,0,0,1.55.9,1,1,0,0,1,1.57.7,1,1,0,0,0,1.71.55,1,1,0,0,1,1.67.36,1,1,0,0,0,1.79.19,1,1,0,0,1,1.71,0,1,1,0,0,0,1.79-.19,1,1,0,0,1,1.68-.36,1,1,0,0,0,1.71-.55,1,1,0,0,1,1.56-.7,1,1,0,0,0,1.56-.9,1,1,0,0,1,1.39-1,1,1,0,0,0,1.33-1.21h0a1,1,0,0,1,1.15-1.27,1,1,0,0,0,1-1.45,1,1,0,0,1,.86-1.49,1,1,0,0,0,.73-1.64,1,1,0,0,1,.53-1.63,1,1,0,0,0,.38-1.76A1,1,0,0,1,214.05,32.43Zm-16.74,8.7a9.6,9.6,0,1,1,9.6-9.6A9.6,9.6,0,0,1,197.31,41.13Z"/><path class="cls-1" d="M325,90.11h4a4.54,4.54,0,0,1,3.65,1.53,6.72,6.72,0,0,1,1.3,4.47,7.47,7.47,0,0,1-1.29,4.73,4.43,4.43,0,0,1-3.66,1.62h-4Zm3.8,10.3a2.43,2.43,0,0,0,2-1,4.75,4.75,0,0,0,.74-2.87v-.9a4,4,0,0,0-.74-2.61,2.53,2.53,0,0,0-2-.89h-1.5v8.25Z"/><path class="cls-1" d="M337.31,90.11h2.31v12.35h-2.31Z"/><path class="cls-1" d="M345.07,102.24a3.67,3.67,0,0,1-1.55-1.31,3.71,3.71,0,0,1-.57-2.09v-.39h2.4l0,.28a1.83,1.83,0,0,0,2,2,2,2,0,0,0,1.41-.43,1.33,1.33,0,0,0,.46-1,1.54,1.54,0,0,0-.32-1,2.17,2.17,0,0,0-.8-.6,13.08,13.08,0,0,0-1.34-.51,12.21,12.21,0,0,1-1.84-.72,3.14,3.14,0,0,1-1.2-1.1,3.45,3.45,0,0,1-.49-2,3.14,3.14,0,0,1,.56-1.9,3.4,3.4,0,0,1,1.49-1.17,5.49,5.49,0,0,1,2.07-.38,4.48,4.48,0,0,1,2.89.9,3.31,3.31,0,0,1,1.12,2.73v.22H349v-.16a1.74,1.74,0,0,0-.45-1.26,1.66,1.66,0,0,0-1.23-.45,2,2,0,0,0-1.27.37,1.16,1.16,0,0,0-.46.94,1.18,1.18,0,0,0,.31.83,2.27,2.27,0,0,0,.77.52q.45.19,1.26.45a16,16,0,0,1,1.9.73,3.16,3.16,0,0,1,1.76,3,3.63,3.63,0,0,1-1.16,3,4.94,4.94,0,0,1-3.2,1A5.18,5.18,0,0,1,345.07,102.24Z"/><path class="cls-1" d="M355.07,90.11h4.41a3.81,3.81,0,0,1,2.86,1,3.67,3.67,0,0,1,1,2.68,4.11,4.11,0,0,1-.49,2,3.36,3.36,0,0,1-1.36,1.36,4.24,4.24,0,0,1-2,.47h-2.11v4.79h-2.3Zm4.17,5.53a1.67,1.67,0,0,0,1.28-.48,1.87,1.87,0,0,0,.45-1.34,1.61,1.61,0,0,0-.46-1.21,1.73,1.73,0,0,0-1.27-.45h-1.87v3.48Z"/><path class="cls-1" d="M367.56,101.08a7.32,7.32,0,0,1-1.34-4.79,7.33,7.33,0,0,1,1.34-4.8,5.31,5.31,0,0,1,7.58,0,7.33,7.33,0,0,1,1.34,4.8,7.32,7.32,0,0,1-1.34,4.79,5.29,5.29,0,0,1-7.58,0Zm5.84-1.42a5.15,5.15,0,0,0,.7-2.92v-.9a5.18,5.18,0,0,0-.7-2.93,2.56,2.56,0,0,0-4.1,0,5.18,5.18,0,0,0-.7,2.93v.9a5.15,5.15,0,0,0,.7,2.92,2.54,2.54,0,0,0,4.1,0Z"/><path class="cls-1" d="M380,90.11h2l3.82,6.81a5.17,5.17,0,0,1,.31.6c.13.27.21.45.25.55l.05-.06,0-1V90.11h2.06v12.35h-2.06l-3.81-6.8-.32-.65L382,94.5l-.07.06a3.88,3.88,0,0,0,0,.41c0,.21,0,.41,0,.61v6.88h-2Z"/><path class="cls-1" d="M392.28,90.11h2.31v12.35h-2.31Z"/><path class="cls-1" d="M398.42,90.11h5.31a3.78,3.78,0,0,1,1.74.39,3.08,3.08,0,0,1,1.1,4.45,2.81,2.81,0,0,1-1.36,1v.07a3,3,0,0,1,1.56,1.12,3.22,3.22,0,0,1,.62,2,3.08,3.08,0,0,1-.5,1.75,3.2,3.2,0,0,1-1.32,1.15,4,4,0,0,1-1.84.41h-5.31Zm4.68,5a1.64,1.64,0,0,0,1.22-.44,1.49,1.49,0,0,0,.42-1.09,1.37,1.37,0,0,0-.41-1.06,1.66,1.66,0,0,0-1.12-.37h-2.48v3Zm.25,5.29a1.77,1.77,0,0,0,1.21-.41,1.43,1.43,0,0,0,.47-1.14,1.73,1.73,0,0,0-.46-1.23,1.75,1.75,0,0,0-1.32-.48h-2.52v3.26Z"/><path class="cls-1" d="M410.75,90.11h2.3v12.35h-2.3Z"/><path class="cls-1" d="M416.89,90.11h2.3V100.3h5.22v2.16h-7.52Z"/><path class="cls-1" d="M427.44,90.11h2.3v12.35h-2.3Z"/><path class="cls-1" d="M433.58,90.11h4a4.54,4.54,0,0,1,3.65,1.53,6.72,6.72,0,0,1,1.3,4.47,7.41,7.41,0,0,1-1.3,4.73,4.4,4.4,0,0,1-3.65,1.62h-4Zm3.79,10.3a2.45,2.45,0,0,0,2.06-1,4.75,4.75,0,0,0,.73-2.87v-.9a4,4,0,0,0-.73-2.61,2.55,2.55,0,0,0-2.06-.89h-1.49v8.25Z"/><path class="cls-1" d="M448.51,90.11h2.69l4,12.35h-2.35l-.76-2.43h-4.55l-.74,2.43h-2.23ZM451.43,98l-1.24-4.12a9.57,9.57,0,0,1-.24-1q-.1-.56-.12-.72h-.07q0,.18-.15.75t-.21.93L448.14,98Z"/><path class="cls-1" d="M458.09,90.11h4a4.52,4.52,0,0,1,3.64,1.53,6.72,6.72,0,0,1,1.31,4.47,7.41,7.41,0,0,1-1.3,4.73,4.4,4.4,0,0,1-3.65,1.62h-4Zm3.8,10.3a2.42,2.42,0,0,0,2.05-1,4.68,4.68,0,0,0,.74-2.87v-.9a4,4,0,0,0-.74-2.61,2.52,2.52,0,0,0-2.05-.89H460.4v8.25Z"/><path class="cls-10" d="M367.91,57.44a30.26,30.26,0,1,1,44.28-41.26c8.67,4,14.58,11.51,14.67,20.26a36.81,36.81,0,1,0-73.62.75C353.33,45.93,359.24,53.48,367.91,57.44Z"/><path class="cls-11" d="M412.19,16.18a30.26,30.26,0,1,1-44.28,41.26c-8.67-4-14.58-11.51-14.67-20.25a36.81,36.81,0,0,0,73.62-.75C426.77,27.69,420.86,20.14,412.19,16.18Z"/><path class="cls-12" d="M389.46,47.14l-6.14,7.42-13.08-15.8h0a7.67,7.67,0,0,1,12.28,0Z"/><polygon class="cls-13" points="383.32 54.56 377.18 47.14 404.31 20.5 407.91 24.84 383.32 54.56"/><path class="cls-1" d="M556.5,90.11h7.87v2h-5.56v3h4.77v2h-4.77v3.24h5.67v2h-8Z"/><path class="cls-1" d="M570.74,96l-3.16-5.87h2.57l2.07,4h.07l2.07-4h2.4l-3.19,5.83,3.51,6.52h-2.56l-2.41-4.66H572l-2.39,4.66h-2.4Z"/><path class="cls-1" d="M580.34,101.08a7.57,7.57,0,0,1-1.27-4.79,7.58,7.58,0,0,1,1.27-4.8A4.38,4.38,0,0,1,584,89.9a4.56,4.56,0,0,1,3.29,1.2,4.81,4.81,0,0,1,1.25,3.6h-2.36a3.26,3.26,0,0,0-.58-2.1,2,2,0,0,0-1.6-.72,2.09,2.09,0,0,0-1.9,1,5.67,5.67,0,0,0-.63,2.93v.9a5.43,5.43,0,0,0,.65,2.92,2.17,2.17,0,0,0,2,1,2,2,0,0,0,1.62-.71,3.26,3.26,0,0,0,.59-2.1h2.25a4.76,4.76,0,0,1-1.24,3.56,4.49,4.49,0,0,1-3.3,1.23A4.38,4.38,0,0,1,580.34,101.08Z"/><path class="cls-1" d="M592,90.11h7.87v2h-5.56v3h4.77v2h-4.77v3.24H600v2h-8Z"/><path class="cls-1" d="M603.5,90.11h2.31V100.3H611v2.16H603.5Z"/><path class="cls-1" d="M614.14,90.11H622v2h-5.56v3h4.77v2h-4.77v3.24h5.67v2h-8Z"/><path class="cls-1" d="M625.68,90.11h2l3.81,6.81a4.92,4.92,0,0,1,.32.6,4.77,4.77,0,0,1,.24.55l.06-.06,0-1V90.11h2v12.35h-2l-3.82-6.8c-.09-.2-.2-.41-.31-.65s-.2-.41-.24-.51l-.08.06c0,.07,0,.21,0,.41s0,.41,0,.61v6.88h-2Z"/><path class="cls-1" d="M638.93,101.08a7.63,7.63,0,0,1-1.27-4.79,7.64,7.64,0,0,1,1.27-4.8,4.4,4.4,0,0,1,3.65-1.59,4.54,4.54,0,0,1,3.28,1.2,4.77,4.77,0,0,1,1.25,3.6h-2.35a3.26,3.26,0,0,0-.59-2.1,1.94,1.94,0,0,0-1.59-.72,2.08,2.08,0,0,0-1.9,1,5.56,5.56,0,0,0-.64,2.93v.9a5.42,5.42,0,0,0,.66,2.92,2.16,2.16,0,0,0,1.95,1,2,2,0,0,0,1.62-.71,3.21,3.21,0,0,0,.59-2.1h2.25a4.76,4.76,0,0,1-1.24,3.56,4.48,4.48,0,0,1-3.29,1.23A4.4,4.4,0,0,1,638.93,101.08Z"/><path class="cls-1" d="M650.5,90.11h2.3v12.35h-2.3Z"/><path class="cls-1" d="M659.61,90.11h2.68l4,12.35h-2.36l-.76-2.43H658.6l-.74,2.43h-2.23ZM662.52,98l-1.24-4.12a9.79,9.79,0,0,1-.23-1,7.27,7.27,0,0,1-.13-.72h-.07c0,.12-.07.37-.15.75s-.14.69-.21.93L659.23,98Z"/><path class="cls-14" d="M586.68,57.44A30.26,30.26,0,1,1,631,16.18c8.67,4,14.58,11.51,14.67,20.26a36.81,36.81,0,1,0-73.62.75C572.1,45.93,578,53.48,586.68,57.44Z"/><path class="cls-15" d="M631,16.18a30.26,30.26,0,1,1-44.28,41.26C578,53.48,572.1,45.93,572,37.19a36.81,36.81,0,0,0,73.62-.75C645.54,27.69,639.63,20.14,631,16.18Z"/><path class="cls-16" d="M621.39,43.08l-.1-19.66a1.78,1.78,0,0,0-1.2-1.73,1.85,1.85,0,0,0-.72-.14,1.89,1.89,0,0,0-1.88,1.92l0,11.11a.91.91,0,0,1-.29.67,1,1,0,0,1-.67.29.66.66,0,0,1-.33,0,1.08,1.08,0,0,1-.63-.87l-.1-16.82a1.77,1.77,0,0,0-1.2-1.73,1.69,1.69,0,0,0-.72-.15,1.89,1.89,0,0,0-1.87,1.93l.09,16.82a1,1,0,0,1-1,1,.88.88,0,0,1-.34,0,1.12,1.12,0,0,1-.62-.87V15.92a1.78,1.78,0,0,0-1.2-1.73,2,2,0,0,0-.72-.14A1.89,1.89,0,0,0,606.1,16l.1,18.7a1,1,0,0,1-.29.68.94.94,0,0,1-.67.28.86.86,0,0,1-.34,0,1.11,1.11,0,0,1-.63-.87s.63-7.88-5.57-8.36a6.66,6.66,0,0,0-7,4.27c-1.54,5,2.26,5.82,3.27,3.85a4.36,4.36,0,0,0,.19-1.92c-.1-1.35,1.15-2.74,3.36-2.17,2.41.58,2,5.39,2,5.39h0v4.71a.37.37,0,0,1-.25.34c-3.41,0-3.24-4.4-4.85-5.44a1.31,1.31,0,0,0-.87-.19,2.16,2.16,0,0,0-1.39.48,2.47,2.47,0,0,0-.77,2.84c.1.19,2,4.52,2,4.52l9.09,12.88a3.13,3.13,0,0,0,1.44,1.2,2.78,2.78,0,0,0,1.15.19l9.23,0A3,3,0,0,0,618.26,55l3.13-11.93Z"/></g></g></svg>