<svg xmlns="http://www.w3.org/2000/svg" viewBox="0 0 371.35 194.58"><defs><style>.cls-1{opacity:0.2;}.cls-2{fill:#fff;}</style></defs><title>pleca-home</title><g id="Layer_2" data-name="Layer 2"><g id="Layer_2-2" data-name="Layer 2"><g class="cls-1"><rect class="cls-2" x="6.82" y="4.38" width="4.38" height="2.43"/><rect class="cls-2" y="4.38" width="4.38" height="2.43"/><rect class="cls-2" x="4.38" y="6.82" width="2.43" height="4.38"/><rect class="cls-2" x="4.38" width="2.43" height="4.38"/><rect class="cls-2" x="36.96" y="4.38" width="4.38" height="2.43"/><rect class="cls-2" x="30.15" y="4.38" width="4.38" height="2.43"/><rect class="cls-2" x="34.53" y="6.82" width="2.43" height="4.38"/><rect class="cls-2" x="34.53" width="2.43" height="4.38"/><rect class="cls-2" x="67.11" y="4.38" width="4.38" height="2.43"/><rect class="cls-2" x="60.29" y="4.38" width="4.38" height="2.43"/><rect class="cls-2" x="64.67" y="6.82" width="2.43" height="4.38"/><rect class="cls-2" x="64.67" width="2.43" height="4.38"/><rect class="cls-2" x="97.25" y="4.38" width="4.38" height="2.43"/><rect class="cls-2" x="90.44" y="4.38" width="4.38" height="2.43"/><rect class="cls-2" x="94.82" y="6.82" width="2.43" height="4.38"/><rect class="cls-2" x="94.82" width="2.43" height="4.38"/><rect class="cls-2" x="6.82" y="34.95" width="4.38" height="2.43"/><rect class="cls-2" y="34.95" width="4.38" height="2.43"/><rect class="cls-2" x="4.38" y="37.38" width="2.43" height="4.38"/><rect class="cls-2" x="4.38" y="30.56" width="2.43" height="4.38"/><rect class="cls-2" x="36.96" y="34.95" width="4.38" height="2.43"/><rect class="cls-2" x="30.15" y="34.95" width="4.38" height="2.43"/><rect class="cls-2" x="34.53" y="37.38" width="2.43" height="4.38"/><rect class="cls-2" x="34.53" y="30.56" width="2.43" height="4.38"/><rect class="cls-2" x="67.11" y="34.95" width="4.38" height="2.43"/><rect class="cls-2" x="60.29" y="34.95" width="4.38" height="2.43"/><rect class="cls-2" x="64.67" y="37.38" width="2.43" height="4.38"/><rect class="cls-2" x="64.67" y="30.56" width="2.43" height="4.38"/><rect class="cls-2" x="97.25" y="34.95" width="4.38" height="2.43"/><rect class="cls-2" x="90.44" y="34.95" width="4.38" height="2.43"/><rect class="cls-2" x="94.82" y="37.38" width="2.43" height="4.38"/><rect class="cls-2" x="94.82" y="30.56" width="2.43" height="4.38"/><rect class="cls-2" x="6.82" y="65.51" width="4.38" height="2.43"/><rect class="cls-2" y="65.51" width="4.38" height="2.43"/><rect class="cls-2" x="4.38" y="67.94" width="2.43" height="4.38"/><rect class="cls-2" x="4.38" y="61.13" width="2.43" height="4.38"/><rect class="cls-2" x="36.96" y="65.51" width="4.38" height="2.43"/><rect class="cls-2" x="30.15" y="65.51" width="4.38" height="2.43"/><rect class="cls-2" x="34.53" y="67.94" width="2.43" height="4.38"/><rect class="cls-2" x="34.53" y="61.13" width="2.43" height="4.38"/><rect class="cls-2" x="67.11" y="65.51" width="4.38" height="2.43"/><rect class="cls-2" x="60.29" y="65.51" width="4.38" height="2.43"/><rect class="cls-2" x="64.67" y="67.94" width="2.43" height="4.38"/><rect class="cls-2" x="64.67" y="61.13" width="2.43" height="4.38"/><rect class="cls-2" x="97.25" y="65.51" width="4.38" height="2.43"/><rect class="cls-2" x="90.44" y="65.51" width="4.38" height="2.43"/><rect class="cls-2" x="94.82" y="67.94" width="2.43" height="4.38"/><rect class="cls-2" x="94.82" y="61.13" width="2.43" height="4.38"/><rect class="cls-2" x="6.82" y="96.07" width="4.38" height="2.43"/><rect class="cls-2" y="96.07" width="4.38" height="2.43"/><rect class="cls-2" x="4.38" y="98.5" width="2.43" height="4.38"/><rect class="cls-2" x="4.38" y="91.69" width="2.43" height="4.38"/><rect class="cls-2" x="36.96" y="96.07" width="4.38" height="2.43"/><rect class="cls-2" x="30.15" y="96.07" width="4.38" height="2.43"/><rect class="cls-2" x="34.53" y="98.5" width="2.43" height="4.38"/><rect class="cls-2" x="34.53" y="91.69" width="2.43" height="4.38"/><rect class="cls-2" x="67.11" y="96.07" width="4.38" height="2.43"/><rect class="cls-2" x="60.29" y="96.07" width="4.38" height="2.43"/><rect class="cls-2" x="64.67" y="98.5" width="2.43" height="4.38"/><rect class="cls-2" x="64.67" y="91.69" width="2.43" height="4.38"/><rect class="cls-2" x="97.25" y="96.07" width="4.38" height="2.43"/><rect class="cls-2" x="90.44" y="96.07" width="4.38" height="2.43"/><rect class="cls-2" x="94.82" y="98.5" width="2.43" height="4.38"/><rect class="cls-2" x="94.82" y="91.69" width="2.43" height="4.38"/><rect class="cls-2" x="6.82" y="126.63" width="4.38" height="2.43"/><rect class="cls-2" y="126.63" width="4.38" height="2.43"/><rect class="cls-2" x="4.38" y="129.07" width="2.43" height="4.38"/><rect class="cls-2" x="4.38" y="122.25" width="2.43" height="4.38"/><rect class="cls-2" x="36.96" y="126.63" width="4.38" height="2.43"/><rect class="cls-2" x="30.15" y="126.63" width="4.38" height="2.43"/><rect class="cls-2" x="34.53" y="129.07" width="2.43" height="4.38"/><rect class="cls-2" x="34.53" y="122.25" width="2.43" height="4.38"/><rect class="cls-2" x="67.11" y="126.63" width="4.38" height="2.43"/><rect class="cls-2" x="60.29" y="126.63" width="4.38" height="2.43"/><rect class="cls-2" x="64.67" y="129.07" width="2.43" height="4.38"/><rect class="cls-2" x="64.67" y="122.25" width="2.43" height="4.38"/><rect class="cls-2" x="97.25" y="126.63" width="4.38" height="2.43"/><rect class="cls-2" x="90.44" y="126.63" width="4.38" height="2.43"/><rect class="cls-2" x="94.82" y="129.07" width="2.43" height="4.38"/><rect class="cls-2" x="94.82" y="122.25" width="2.43" height="4.38"/><rect class="cls-2" x="6.82" y="157.2" width="4.38" height="2.43"/><rect class="cls-2" y="157.2" width="4.38" height="2.43"/><rect class="cls-2" x="4.38" y="159.63" width="2.43" height="4.38"/><rect class="cls-2" x="4.38" y="152.81" width="2.43" height="4.38"/><rect class="cls-2" x="36.96" y="157.2" width="4.38" height="2.43"/><rect class="cls-2" x="30.15" y="157.2" width="4.38" height="2.43"/><rect class="cls-2" x="34.53" y="159.63" width="2.43" height="4.38"/><rect class="cls-2" x="34.53" y="152.81" width="2.43" height="4.38"/><rect class="cls-2" x="67.11" y="157.2" width="4.38" height="2.43"/><rect class="cls-2" x="60.29" y="157.2" width="4.38" height="2.43"/><rect class="cls-2" x="64.67" y="159.63" width="2.43" height="4.38"/><rect class="cls-2" x="64.67" y="152.81" width="2.43" height="4.38"/><rect class="cls-2" x="97.25" y="157.2" width="4.38" height="2.43"/><rect class="cls-2" x="90.44" y="157.2" width="4.38" height="2.43"/><rect class="cls-2" x="94.82" y="159.63" width="2.43" height="4.38"/><rect class="cls-2" x="94.82" y="152.81" width="2.43" height="4.38"/><rect class="cls-2" x="127.4" y="4.38" width="4.38" height="2.43"/><rect class="cls-2" x="120.58" y="4.38" width="4.38" height="2.43"/><rect class="cls-2" x="124.97" y="6.82" width="2.43" height="4.38"/><rect class="cls-2" x="124.97" width="2.43" height="4.38"/><rect class="cls-2" x="157.55" y="4.38" width="4.38" height="2.43"/><rect class="cls-2" x="150.73" y="4.38" width="4.38" height="2.43"/><rect class="cls-2" x="155.11" y="6.82" width="2.43" height="4.38"/><rect class="cls-2" x="155.11" width="2.43" height="4.38"/><rect class="cls-2" x="187.69" y="4.38" width="4.38" height="2.43"/><rect class="cls-2" x="180.88" y="4.38" width="4.38" height="2.43"/><rect class="cls-2" x="185.26" y="6.82" width="2.43" height="4.38"/><rect class="cls-2" x="185.26" width="2.43" height="4.38"/><rect class="cls-2" x="217.84" y="4.38" width="4.38" height="2.43"/><rect class="cls-2" x="211.02" y="4.38" width="4.38" height="2.43"/><rect class="cls-2" x="215.4" y="6.82" width="2.43" height="4.38"/><rect class="cls-2" x="215.4" width="2.43" height="4.38"/><rect class="cls-2" x="127.4" y="34.95" width="4.38" height="2.43"/><rect class="cls-2" x="120.58" y="34.95" width="4.38" height="2.43"/><rect class="cls-2" x="124.97" y="37.38" width="2.43" height="4.38"/><rect class="cls-2" x="124.97" y="30.56" width="2.43" height="4.38"/><rect class="cls-2" x="157.55" y="34.95" width="4.38" height="2.43"/><rect class="cls-2" x="150.73" y="34.95" width="4.38" height="2.43"/><rect class="cls-2" x="155.11" y="37.38" width="2.43" height="4.38"/><rect class="cls-2" x="155.11" y="30.56" width="2.43" height="4.38"/><rect class="cls-2" x="187.69" y="34.95" width="4.38" height="2.43"/><rect class="cls-2" x="180.88" y="34.95" width="4.38" height="2.43"/><rect class="cls-2" x="185.26" y="37.38" width="2.43" height="4.38"/><rect class="cls-2" x="185.26" y="30.56" width="2.43" height="4.38"/><rect class="cls-2" x="217.84" y="34.95" width="4.38" height="2.43"/><rect class="cls-2" x="211.02" y="34.95" width="4.38" height="2.43"/><rect class="cls-2" x="215.4" y="37.38" width="2.43" height="4.38"/><rect class="cls-2" x="215.4" y="30.56" width="2.43" height="4.38"/><rect class="cls-2" x="127.4" y="65.51" width="4.38" height="2.43"/><rect class="cls-2" x="120.58" y="65.51" width="4.38" height="2.43"/><rect class="cls-2" x="124.97" y="67.94" width="2.43" height="4.38"/><rect class="cls-2" x="124.97" y="61.13" width="2.43" height="4.38"/><rect class="cls-2" x="127.4" y="96.07" width="4.38" height="2.43"/><rect class="cls-2" x="120.58" y="96.07" width="4.38" height="2.43"/><rect class="cls-2" x="124.97" y="98.5" width="2.43" height="4.38"/><rect class="cls-2" x="124.97" y="91.69" width="2.43" height="4.38"/><rect class="cls-2" x="157.55" y="65.51" width="4.38" height="2.43"/><rect class="cls-2" x="150.73" y="65.51" width="4.38" height="2.43"/><rect class="cls-2" x="155.11" y="67.94" width="2.43" height="4.38"/><rect class="cls-2" x="155.11" y="61.13" width="2.43" height="4.38"/><rect class="cls-2" x="187.69" y="65.51" width="4.38" height="2.43"/><rect class="cls-2" x="180.88" y="65.51" width="4.38" height="2.43"/><rect class="cls-2" x="185.26" y="67.94" width="2.43" height="4.38"/><rect class="cls-2" x="185.26" y="61.13" width="2.43" height="4.38"/><rect class="cls-2" x="217.84" y="65.51" width="4.38" height="2.43"/><rect class="cls-2" x="211.02" y="65.51" width="4.38" height="2.43"/><rect class="cls-2" x="215.4" y="67.94" width="2.43" height="4.38"/><rect class="cls-2" x="215.4" y="61.13" width="2.43" height="4.38"/><rect class="cls-2" x="157.55" y="96.07" width="4.38" height="2.43"/><rect class="cls-2" x="150.73" y="96.07" width="4.38" height="2.43"/><rect class="cls-2" x="155.11" y="98.5" width="2.43" height="4.38"/><rect class="cls-2" x="155.11" y="91.69" width="2.43" height="4.38"/><rect class="cls-2" x="187.69" y="96.07" width="4.38" height="2.43"/><rect class="cls-2" x="180.88" y="96.07" width="4.38" height="2.43"/><rect class="cls-2" x="185.26" y="98.5" width="2.43" height="4.38"/><rect class="cls-2" x="185.26" y="91.69" width="2.43" height="4.38"/><rect class="cls-2" x="217.84" y="96.07" width="4.38" height="2.43"/><rect class="cls-2" x="211.02" y="96.07" width="4.38" height="2.43"/><rect class="cls-2" x="215.4" y="98.5" width="2.43" height="4.38"/><rect class="cls-2" x="215.4" y="91.69" width="2.43" height="4.38"/><rect class="cls-2" x="127.4" y="126.63" width="4.38" height="2.43"/><rect class="cls-2" x="120.58" y="126.63" width="4.38" height="2.43"/><rect class="cls-2" x="124.97" y="129.07" width="2.43" height="4.38"/><rect class="cls-2" x="124.97" y="122.25" width="2.43" height="4.38"/><rect class="cls-2" x="157.55" y="126.63" width="4.38" height="2.43"/><rect class="cls-2" x="150.73" y="126.63" width="4.38" height="2.43"/><rect class="cls-2" x="155.11" y="129.07" width="2.43" height="4.38"/><rect class="cls-2" x="155.11" y="122.25" width="2.43" height="4.38"/><rect class="cls-2" x="187.69" y="126.63" width="4.38" height="2.43"/><rect class="cls-2" x="180.88" y="126.63" width="4.38" height="2.43"/><rect class="cls-2" x="185.26" y="129.07" width="2.43" height="4.38"/><rect class="cls-2" x="185.26" y="122.25" width="2.43" height="4.38"/><rect class="cls-2" x="217.84" y="126.63" width="4.38" height="2.43"/><rect class="cls-2" x="211.02" y="126.63" width="4.38" height="2.43"/><rect class="cls-2" x="215.4" y="129.07" width="2.43" height="4.38"/><rect class="cls-2" x="215.4" y="122.25" width="2.43" height="4.38"/><rect class="cls-2" x="127.4" y="157.2" width="4.38" height="2.43"/><rect class="cls-2" x="120.58" y="157.2" width="4.38" height="2.43"/><rect class="cls-2" x="124.97" y="159.63" width="2.43" height="4.38"/><rect class="cls-2" x="124.97" y="152.81" width="2.43" height="4.38"/><rect class="cls-2" x="157.55" y="157.2" width="4.38" height="2.43"/><rect class="cls-2" x="150.73" y="157.2" width="4.38" height="2.43"/><rect class="cls-2" x="155.11" y="159.63" width="2.43" height="4.38"/><rect class="cls-2" x="155.11" y="152.81" width="2.43" height="4.38"/><rect class="cls-2" x="187.69" y="157.2" width="4.38" height="2.43"/><rect class="cls-2" x="180.88" y="157.2" width="4.38" height="2.43"/><rect class="cls-2" x="185.26" y="159.63" width="2.43" height="4.38"/><rect class="cls-2" x="185.26" y="152.81" width="2.43" height="4.38"/><rect class="cls-2" x="217.84" y="157.2" width="4.38" height="2.43"/><rect class="cls-2" x="211.02" y="157.2" width="4.38" height="2.43"/><rect class="cls-2" x="215.4" y="159.63" width="2.43" height="4.38"/><rect class="cls-2" x="215.4" y="152.81" width="2.43" height="4.38"/><rect class="cls-2" x="6.82" y="187.76" width="4.38" height="2.43"/><rect class="cls-2" y="187.76" width="4.38" height="2.43"/><rect class="cls-2" x="4.38" y="190.19" width="2.43" height="4.38"/><rect class="cls-2" x="4.38" y="183.38" width="2.43" height="4.38"/><rect class="cls-2" x="36.96" y="187.76" width="4.38" height="2.43"/><rect class="cls-2" x="30.15" y="187.76" width="4.38" height="2.43"/><rect class="cls-2" x="34.53" y="190.19" width="2.43" height="4.38"/><rect class="cls-2" x="34.53" y="183.38" width="2.43" height="4.38"/><rect class="cls-2" x="67.11" y="187.76" width="4.38" height="2.43"/><rect class="cls-2" x="60.29" y="187.76" width="4.38" height="2.43"/><rect class="cls-2" x="64.67" y="190.19" width="2.43" height="4.38"/><rect class="cls-2" x="64.67" y="183.38" width="2.43" height="4.38"/><rect class="cls-2" x="97.25" y="187.76" width="4.38" height="2.43"/><rect class="cls-2" x="90.44" y="187.76" width="4.38" height="2.43"/><rect class="cls-2" x="94.82" y="190.19" width="2.43" height="4.38"/><rect class="cls-2" x="94.82" y="183.38" width="2.43" height="4.38"/><rect class="cls-2" x="127.4" y="187.76" width="4.38" height="2.43"/><rect class="cls-2" x="120.58" y="187.76" width="4.38" height="2.43"/><rect class="cls-2" x="124.97" y="190.19" width="2.43" height="4.38"/><rect class="cls-2" x="124.97" y="183.38" width="2.43" height="4.38"/><rect class="cls-2" x="157.55" y="187.76" width="4.38" height="2.43"/><rect class="cls-2" x="150.73" y="187.76" width="4.38" height="2.43"/><rect class="cls-2" x="155.11" y="190.19" width="2.43" height="4.38"/><rect class="cls-2" x="155.11" y="183.38" width="2.43" height="4.38"/><rect class="cls-2" x="187.69" y="187.76" width="4.38" height="2.43"/><rect class="cls-2" x="180.88" y="187.76" width="4.38" height="2.43"/><rect class="cls-2" x="185.26" y="190.19" width="2.43" height="4.38"/><rect class="cls-2" x="185.26" y="183.38" width="2.43" height="4.38"/><rect class="cls-2" x="217.84" y="187.76" width="4.38" height="2.43"/><rect class="cls-2" x="211.02" y="187.76" width="4.38" height="2.43"/><rect class="cls-2" x="215.4" y="190.19" width="2.43" height="4.38"/><rect class="cls-2" x="215.4" y="183.38" width="2.43" height="4.38"/></g><g class="cls-1"><rect class="cls-2" x="246.38" y="4.38" width="4.38" height="2.43"/><rect class="cls-2" x="239.57" y="4.38" width="4.38" height="2.43"/><rect class="cls-2" x="243.95" y="6.82" width="2.43" height="4.38"/><rect class="cls-2" x="243.95" width="2.43" height="4.38"/><rect class="cls-2" x="276.53" y="4.38" width="4.38" height="2.43"/><rect class="cls-2" x="269.71" y="4.38" width="4.38" height="2.43"/><rect class="cls-2" x="274.1" y="6.82" width="2.43" height="4.38"/><rect class="cls-2" x="274.1" width="2.43" height="4.38"/><rect class="cls-2" x="306.68" y="4.38" width="4.38" height="2.43"/><rect class="cls-2" x="299.86" y="4.38" width="4.38" height="2.43"/><rect class="cls-2" x="304.24" y="6.82" width="2.43" height="4.38"/><rect class="cls-2" x="304.24" width="2.43" height="4.38"/><rect class="cls-2" x="336.82" y="4.38" width="4.38" height="2.43"/><rect class="cls-2" x="330.01" y="4.38" width="4.38" height="2.43"/><rect class="cls-2" x="334.39" y="6.82" width="2.43" height="4.38"/><rect class="cls-2" x="334.39" width="2.43" height="4.38"/><rect class="cls-2" x="246.38" y="34.95" width="4.38" height="2.43"/><rect class="cls-2" x="239.57" y="34.95" width="4.38" height="2.43"/><rect class="cls-2" x="243.95" y="37.38" width="2.43" height="4.38"/><rect class="cls-2" x="243.95" y="30.56" width="2.43" height="4.38"/><rect class="cls-2" x="276.53" y="34.95" width="4.38" height="2.43"/><rect class="cls-2" x="269.71" y="34.95" width="4.38" height="2.43"/><rect class="cls-2" x="274.1" y="37.38" width="2.43" height="4.38"/><rect class="cls-2" x="274.1" y="30.56" width="2.43" height="4.38"/><rect class="cls-2" x="306.68" y="34.95" width="4.38" height="2.43"/><rect class="cls-2" x="299.86" y="34.95" width="4.38" height="2.43"/><rect class="cls-2" x="304.24" y="37.38" width="2.43" height="4.38"/><rect class="cls-2" x="304.24" y="30.56" width="2.43" height="4.38"/><rect class="cls-2" x="336.82" y="34.95" width="4.38" height="2.43"/><rect class="cls-2" x="330.01" y="34.95" width="4.38" height="2.43"/><rect class="cls-2" x="334.39" y="37.38" width="2.43" height="4.38"/><rect class="cls-2" x="334.39" y="30.56" width="2.43" height="4.38"/><rect class="cls-2" x="246.38" y="65.51" width="4.38" height="2.43"/><rect class="cls-2" x="239.57" y="65.51" width="4.38" height="2.43"/><rect class="cls-2" x="243.95" y="67.94" width="2.43" height="4.38"/><rect class="cls-2" x="243.95" y="61.13" width="2.43" height="4.38"/><rect class="cls-2" x="276.53" y="65.51" width="4.38" height="2.43"/><rect class="cls-2" x="269.71" y="65.51" width="4.38" height="2.43"/><rect class="cls-2" x="274.1" y="67.94" width="2.43" height="4.38"/><rect class="cls-2" x="274.1" y="61.13" width="2.43" height="4.38"/><rect class="cls-2" x="306.68" y="65.51" width="4.38" height="2.43"/><rect class="cls-2" x="299.86" y="65.51" width="4.38" height="2.43"/><rect class="cls-2" x="304.24" y="67.94" width="2.43" height="4.38"/><rect class="cls-2" x="304.24" y="61.13" width="2.43" height="4.38"/><rect class="cls-2" x="336.82" y="65.51" width="4.38" height="2.43"/><rect class="cls-2" x="330.01" y="65.51" width="4.38" height="2.43"/><rect class="cls-2" x="334.39" y="67.94" width="2.43" height="4.38"/><rect class="cls-2" x="334.39" y="61.13" width="2.43" height="4.38"/><rect class="cls-2" x="246.38" y="96.07" width="4.38" height="2.43"/><rect class="cls-2" x="239.57" y="96.07" width="4.38" height="2.43"/><rect class="cls-2" x="243.95" y="98.5" width="2.43" height="4.38"/><rect class="cls-2" x="243.95" y="91.69" width="2.43" height="4.38"/><rect class="cls-2" x="276.53" y="96.07" width="4.38" height="2.43"/><rect class="cls-2" x="269.71" y="96.07" width="4.38" height="2.43"/><rect class="cls-2" x="274.1" y="98.5" width="2.43" height="4.38"/><rect class="cls-2" x="274.1" y="91.69" width="2.43" height="4.38"/><rect class="cls-2" x="306.68" y="96.07" width="4.38" height="2.43"/><rect class="cls-2" x="299.86" y="96.07" width="4.38" height="2.43"/><rect class="cls-2" x="304.24" y="98.5" width="2.43" height="4.38"/><rect class="cls-2" x="304.24" y="91.69" width="2.43" height="4.38"/><rect class="cls-2" x="336.82" y="96.07" width="4.38" height="2.43"/><rect class="cls-2" x="330.01" y="96.07" width="4.38" height="2.43"/><rect class="cls-2" x="334.39" y="98.5" width="2.43" height="4.38"/><rect class="cls-2" x="334.39" y="91.69" width="2.43" height="4.38"/><rect class="cls-2" x="246.38" y="126.63" width="4.38" height="2.43"/><rect class="cls-2" x="239.57" y="126.63" width="4.38" height="2.43"/><rect class="cls-2" x="243.95" y="129.07" width="2.43" height="4.38"/><rect class="cls-2" x="243.95" y="122.25" width="2.43" height="4.38"/><rect class="cls-2" x="276.53" y="126.63" width="4.38" height="2.43"/><rect class="cls-2" x="269.71" y="126.63" width="4.38" height="2.43"/><rect class="cls-2" x="274.1" y="129.07" width="2.43" height="4.38"/><rect class="cls-2" x="274.1" y="122.25" width="2.43" height="4.38"/><rect class="cls-2" x="306.68" y="126.63" width="4.38" height="2.43"/><rect class="cls-2" x="299.86" y="126.63" width="4.38" height="2.43"/><rect class="cls-2" x="304.24" y="129.07" width="2.43" height="4.38"/><rect class="cls-2" x="304.24" y="122.25" width="2.43" height="4.38"/><rect class="cls-2" x="336.82" y="126.63" width="4.38" height="2.43"/><rect class="cls-2" x="330.01" y="126.63" width="4.38" height="2.43"/><rect class="cls-2" x="334.39" y="129.07" width="2.43" height="4.38"/><rect class="cls-2" x="334.39" y="122.25" width="2.43" height="4.38"/><rect class="cls-2" x="246.38" y="157.2" width="4.38" height="2.43"/><rect class="cls-2" x="239.57" y="157.2" width="4.38" height="2.43"/><rect class="cls-2" x="243.95" y="159.63" width="2.43" height="4.38"/><rect class="cls-2" x="243.95" y="152.81" width="2.43" height="4.38"/><rect class="cls-2" x="276.53" y="157.2" width="4.38" height="2.43"/><rect class="cls-2" x="269.71" y="157.2" width="4.38" height="2.43"/><rect class="cls-2" x="274.1" y="159.63" width="2.43" height="4.38"/><rect class="cls-2" x="274.1" y="152.81" width="2.43" height="4.38"/><rect class="cls-2" x="306.68" y="157.2" width="4.38" height="2.43"/><rect class="cls-2" x="299.86" y="157.2" width="4.38" height="2.43"/><rect class="cls-2" x="304.24" y="159.63" width="2.43" height="4.38"/><rect class="cls-2" x="304.24" y="152.81" width="2.43" height="4.38"/><rect class="cls-2" x="336.82" y="157.2" width="4.38" height="2.43"/><rect class="cls-2" x="330.01" y="157.2" width="4.38" height="2.43"/><rect class="cls-2" x="334.39" y="159.63" width="2.43" height="4.38"/><rect class="cls-2" x="334.39" y="152.81" width="2.43" height="4.38"/><rect class="cls-2" x="366.97" y="4.38" width="4.38" height="2.43"/><rect class="cls-2" x="360.15" y="4.38" width="4.38" height="2.43"/><rect class="cls-2" x="364.53" y="6.82" width="2.43" height="4.38"/><rect class="cls-2" x="364.53" width="2.43" height="4.38"/><rect class="cls-2" x="366.97" y="34.95" width="4.38" height="2.43"/><rect class="cls-2" x="360.15" y="34.95" width="4.38" height="2.43"/><rect class="cls-2" x="364.53" y="37.38" width="2.43" height="4.38"/><rect class="cls-2" x="364.53" y="30.56" width="2.43" height="4.38"/><rect class="cls-2" x="366.97" y="65.51" width="4.38" height="2.43"/><rect class="cls-2" x="360.15" y="65.51" width="4.38" height="2.43"/><rect class="cls-2" x="364.53" y="67.94" width="2.43" height="4.38"/><rect class="cls-2" x="364.53" y="61.13" width="2.43" height="4.38"/><rect class="cls-2" x="366.97" y="96.07" width="4.38" height="2.43"/><rect class="cls-2" x="360.15" y="96.07" width="4.38" height="2.43"/><rect class="cls-2" x="364.53" y="98.5" width="2.43" height="4.38"/><rect class="cls-2" x="364.53" y="91.69" width="2.43" height="4.38"/><rect class="cls-2" x="366.97" y="126.63" width="4.38" height="2.43"/><rect class="cls-2" x="360.15" y="126.63" width="4.38" height="2.43"/><rect class="cls-2" x="364.53" y="129.07" width="2.43" height="4.38"/><rect class="cls-2" x="364.53" y="122.25" width="2.43" height="4.38"/><rect class="cls-2" x="366.97" y="157.2" width="4.38" height="2.43"/><rect class="cls-2" x="360.15" y="157.2" width="4.38" height="2.43"/><rect class="cls-2" x="364.53" y="159.63" width="2.43" height="4.38"/><rect class="cls-2" x="364.53" y="152.81" width="2.43" height="4.38"/><rect class="cls-2" x="246.38" y="187.76" width="4.38" height="2.43"/><rect class="cls-2" x="239.57" y="187.76" width="4.38" height="2.43"/><rect class="cls-2" x="243.95" y="190.19" width="2.43" height="4.38"/><rect class="cls-2" x="243.95" y="183.38" width="2.43" height="4.38"/><rect class="cls-2" x="276.53" y="187.76" width="4.38" height="2.43"/><rect class="cls-2" x="269.71" y="187.76" width="4.38" height="2.43"/><rect class="cls-2" x="274.1" y="190.19" width="2.43" height="4.38"/><rect class="cls-2" x="274.1" y="183.38" width="2.43" height="4.38"/><rect class="cls-2" x="306.68" y="187.76" width="4.38" height="2.43"/><rect class="cls-2" x="299.86" y="187.76" width="4.38" height="2.43"/><rect class="cls-2" x="304.24" y="190.19" width="2.43" height="4.38"/><rect class="cls-2" x="304.24" y="183.38" width="2.43" height="4.38"/><rect class="cls-2" x="336.82" y="187.76" width="4.38" height="2.43"/><rect class="cls-2" x="330.01" y="187.76" width="4.38" height="2.43"/><rect class="cls-2" x="334.39" y="190.19" width="2.43" height="4.38"/><rect class="cls-2" x="334.39" y="183.38" width="2.43" height="4.38"/><rect class="cls-2" x="366.97" y="187.76" width="4.38" height="2.43"/><rect class="cls-2" x="360.15" y="187.76" width="4.38" height="2.43"/><rect class="cls-2" x="364.53" y="190.19" width="2.43" height="4.38"/><rect class="cls-2" x="364.53" y="183.38" width="2.43" height="4.38"/></g></g></g></svg>