<svg xmlns="http://www.w3.org/2000/svg" viewBox="0 0 461.79 257.62"><defs><style>.cls-1{opacity:0.2;}.cls-2{fill:#fff;}.cls-3{fill:#289c19;}</style></defs><title>Asset 23</title><g id="Layer_2" data-name="Layer 2"><g id="Layer_1-2" data-name="Layer 1"><g class="cls-1"><rect class="cls-2" x="6.82" y="67.42" width="4.38" height="2.43"/><rect class="cls-2" y="67.42" width="4.38" height="2.43"/><rect class="cls-2" x="4.38" y="69.86" width="2.43" height="4.38"/><rect class="cls-2" x="4.38" y="63.04" width="2.43" height="4.38"/><rect class="cls-2" x="36.96" y="67.42" width="4.38" height="2.43"/><rect class="cls-2" x="30.15" y="67.42" width="4.38" height="2.43"/><rect class="cls-2" x="34.53" y="69.86" width="2.43" height="4.38"/><rect class="cls-2" x="34.53" y="63.04" width="2.43" height="4.38"/><rect class="cls-2" x="67.11" y="67.42" width="4.38" height="2.43"/><rect class="cls-2" x="60.29" y="67.42" width="4.38" height="2.43"/><rect class="cls-2" x="64.67" y="69.86" width="2.43" height="4.38"/><rect class="cls-2" x="64.67" y="63.04" width="2.43" height="4.38"/><rect class="cls-2" x="97.25" y="67.42" width="4.38" height="2.43"/><rect class="cls-2" x="90.44" y="67.42" width="4.38" height="2.43"/><rect class="cls-2" x="94.82" y="69.86" width="2.43" height="4.38"/><rect class="cls-2" x="94.82" y="63.04" width="2.43" height="4.38"/><rect class="cls-2" x="6.82" y="97.99" width="4.38" height="2.43"/><rect class="cls-2" y="97.99" width="4.38" height="2.43"/><rect class="cls-2" x="4.38" y="100.42" width="2.43" height="4.38"/><rect class="cls-2" x="4.38" y="93.6" width="2.43" height="4.38"/><rect class="cls-2" x="36.96" y="97.99" width="4.38" height="2.43"/><rect class="cls-2" x="30.15" y="97.99" width="4.38" height="2.43"/><rect class="cls-2" x="34.53" y="100.42" width="2.43" height="4.38"/><rect class="cls-2" x="34.53" y="93.6" width="2.43" height="4.38"/><rect class="cls-2" x="67.11" y="97.99" width="4.38" height="2.43"/><rect class="cls-2" x="60.29" y="97.99" width="4.38" height="2.43"/><rect class="cls-2" x="64.67" y="100.42" width="2.43" height="4.38"/><rect class="cls-2" x="64.67" y="93.6" width="2.43" height="4.38"/><rect class="cls-2" x="97.25" y="97.99" width="4.38" height="2.43"/><rect class="cls-2" x="90.44" y="97.99" width="4.38" height="2.43"/><rect class="cls-2" x="94.82" y="100.42" width="2.43" height="4.38"/><rect class="cls-2" x="94.82" y="93.6" width="2.43" height="4.38"/><rect class="cls-2" x="6.82" y="128.55" width="4.38" height="2.43"/><rect class="cls-2" y="128.55" width="4.38" height="2.43"/><rect class="cls-2" x="4.38" y="130.98" width="2.43" height="4.38"/><rect class="cls-2" x="4.38" y="124.17" width="2.43" height="4.38"/><rect class="cls-2" x="36.96" y="128.55" width="4.38" height="2.43"/><rect class="cls-2" x="30.15" y="128.55" width="4.38" height="2.43"/><rect class="cls-2" x="34.53" y="130.98" width="2.43" height="4.38"/><rect class="cls-2" x="34.53" y="124.17" width="2.43" height="4.38"/><rect class="cls-2" x="67.11" y="128.55" width="4.38" height="2.43"/><rect class="cls-2" x="60.29" y="128.55" width="4.38" height="2.43"/><rect class="cls-2" x="64.67" y="130.98" width="2.43" height="4.38"/><rect class="cls-2" x="64.67" y="124.17" width="2.43" height="4.38"/><rect class="cls-2" x="97.25" y="128.55" width="4.38" height="2.43"/><rect class="cls-2" x="90.44" y="128.55" width="4.38" height="2.43"/><rect class="cls-2" x="94.82" y="130.98" width="2.43" height="4.38"/><rect class="cls-2" x="94.82" y="124.17" width="2.43" height="4.38"/><rect class="cls-2" x="6.82" y="159.11" width="4.38" height="2.43"/><rect class="cls-2" y="159.11" width="4.38" height="2.43"/><rect class="cls-2" x="4.38" y="161.55" width="2.43" height="4.38"/><rect class="cls-2" x="4.38" y="154.73" width="2.43" height="4.38"/><rect class="cls-2" x="36.96" y="159.11" width="4.38" height="2.43"/><rect class="cls-2" x="30.15" y="159.11" width="4.38" height="2.43"/><rect class="cls-2" x="34.53" y="161.55" width="2.43" height="4.38"/><rect class="cls-2" x="34.53" y="154.73" width="2.43" height="4.38"/><rect class="cls-2" x="67.11" y="159.11" width="4.38" height="2.43"/><rect class="cls-2" x="60.29" y="159.11" width="4.38" height="2.43"/><rect class="cls-2" x="64.67" y="161.55" width="2.43" height="4.38"/><rect class="cls-2" x="64.67" y="154.73" width="2.43" height="4.38"/><rect class="cls-2" x="97.25" y="159.11" width="4.38" height="2.43"/><rect class="cls-2" x="90.44" y="159.11" width="4.38" height="2.43"/><rect class="cls-2" x="94.82" y="161.55" width="2.43" height="4.38"/><rect class="cls-2" x="94.82" y="154.73" width="2.43" height="4.38"/><rect class="cls-2" x="6.82" y="189.67" width="4.38" height="2.43"/><rect class="cls-2" y="189.67" width="4.38" height="2.43"/><rect class="cls-2" x="4.38" y="192.11" width="2.43" height="4.38"/><rect class="cls-2" x="4.38" y="185.29" width="2.43" height="4.38"/><rect class="cls-2" x="36.96" y="189.67" width="4.38" height="2.43"/><rect class="cls-2" x="30.15" y="189.67" width="4.38" height="2.43"/><rect class="cls-2" x="34.53" y="192.11" width="2.43" height="4.38"/><rect class="cls-2" x="34.53" y="185.29" width="2.43" height="4.38"/><rect class="cls-2" x="67.11" y="189.67" width="4.38" height="2.43"/><rect class="cls-2" x="60.29" y="189.67" width="4.38" height="2.43"/><rect class="cls-2" x="64.67" y="192.11" width="2.43" height="4.38"/><rect class="cls-2" x="64.67" y="185.29" width="2.43" height="4.38"/><rect class="cls-2" x="97.25" y="189.67" width="4.38" height="2.43"/><rect class="cls-2" x="90.44" y="189.67" width="4.38" height="2.43"/><rect class="cls-2" x="94.82" y="192.11" width="2.43" height="4.38"/><rect class="cls-2" x="94.82" y="185.29" width="2.43" height="4.38"/><rect class="cls-2" x="6.82" y="220.24" width="4.38" height="2.43"/><rect class="cls-2" y="220.24" width="4.38" height="2.43"/><rect class="cls-2" x="4.38" y="222.67" width="2.43" height="4.38"/><rect class="cls-2" x="4.38" y="215.85" width="2.43" height="4.38"/><rect class="cls-2" x="36.96" y="220.24" width="4.38" height="2.43"/><rect class="cls-2" x="30.15" y="220.24" width="4.38" height="2.43"/><rect class="cls-2" x="34.53" y="222.67" width="2.43" height="4.38"/><rect class="cls-2" x="34.53" y="215.85" width="2.43" height="4.38"/><rect class="cls-2" x="67.11" y="220.24" width="4.38" height="2.43"/><rect class="cls-2" x="60.29" y="220.24" width="4.38" height="2.43"/><rect class="cls-2" x="64.67" y="222.67" width="2.43" height="4.38"/><rect class="cls-2" x="64.67" y="215.85" width="2.43" height="4.38"/><rect class="cls-2" x="97.25" y="220.24" width="4.38" height="2.43"/><rect class="cls-2" x="90.44" y="220.24" width="4.38" height="2.43"/><rect class="cls-2" x="94.82" y="222.67" width="2.43" height="4.38"/><rect class="cls-2" x="94.82" y="215.85" width="2.43" height="4.38"/><rect class="cls-2" x="127.4" y="67.42" width="4.38" height="2.43"/><rect class="cls-2" x="120.58" y="67.42" width="4.38" height="2.43"/><rect class="cls-2" x="124.97" y="69.86" width="2.43" height="4.38"/><rect class="cls-2" x="124.97" y="63.04" width="2.43" height="4.38"/><rect class="cls-2" x="157.55" y="67.42" width="4.38" height="2.43"/><rect class="cls-2" x="150.73" y="67.42" width="4.38" height="2.43"/><rect class="cls-2" x="155.11" y="69.86" width="2.43" height="4.38"/><rect class="cls-2" x="155.11" y="63.04" width="2.43" height="4.38"/><rect class="cls-2" x="187.69" y="67.42" width="4.38" height="2.43"/><rect class="cls-2" x="180.88" y="67.42" width="4.38" height="2.43"/><rect class="cls-2" x="185.26" y="69.86" width="2.43" height="4.38"/><rect class="cls-2" x="185.26" y="63.04" width="2.43" height="4.38"/><rect class="cls-2" x="217.84" y="67.42" width="4.38" height="2.43"/><rect class="cls-2" x="211.02" y="67.42" width="4.38" height="2.43"/><rect class="cls-2" x="215.4" y="69.86" width="2.43" height="4.38"/><rect class="cls-2" x="215.4" y="63.04" width="2.43" height="4.38"/><rect class="cls-2" x="127.4" y="97.99" width="4.38" height="2.43"/><rect class="cls-2" x="120.58" y="97.99" width="4.38" height="2.43"/><rect class="cls-2" x="124.97" y="100.42" width="2.43" height="4.38"/><rect class="cls-2" x="124.97" y="93.6" width="2.43" height="4.38"/><rect class="cls-2" x="157.55" y="97.99" width="4.38" height="2.43"/><rect class="cls-2" x="150.73" y="97.99" width="4.38" height="2.43"/><rect class="cls-2" x="155.11" y="100.42" width="2.43" height="4.38"/><rect class="cls-2" x="155.11" y="93.6" width="2.43" height="4.38"/><rect class="cls-2" x="187.69" y="97.99" width="4.38" height="2.43"/><rect class="cls-2" x="180.88" y="97.99" width="4.38" height="2.43"/><rect class="cls-2" x="185.26" y="100.42" width="2.43" height="4.38"/><rect class="cls-2" x="185.26" y="93.6" width="2.43" height="4.38"/><rect class="cls-2" x="217.84" y="97.99" width="4.38" height="2.43"/><rect class="cls-2" x="211.02" y="97.99" width="4.38" height="2.43"/><rect class="cls-2" x="215.4" y="100.42" width="2.43" height="4.38"/><rect class="cls-2" x="215.4" y="93.6" width="2.43" height="4.38"/><rect class="cls-2" x="127.4" y="128.55" width="4.38" height="2.43"/><rect class="cls-2" x="120.58" y="128.55" width="4.38" height="2.43"/><rect class="cls-2" x="124.97" y="130.98" width="2.43" height="4.38"/><rect class="cls-2" x="124.97" y="124.17" width="2.43" height="4.38"/><rect class="cls-2" x="127.4" y="159.11" width="4.38" height="2.43"/><rect class="cls-2" x="120.58" y="159.11" width="4.38" height="2.43"/><rect class="cls-2" x="124.97" y="161.55" width="2.43" height="4.38"/><rect class="cls-2" x="124.97" y="154.73" width="2.43" height="4.38"/><rect class="cls-2" x="157.55" y="128.55" width="4.38" height="2.43"/><rect class="cls-2" x="150.73" y="128.55" width="4.38" height="2.43"/><rect class="cls-2" x="155.11" y="130.98" width="2.43" height="4.38"/><rect class="cls-2" x="155.11" y="124.17" width="2.43" height="4.38"/><rect class="cls-2" x="187.69" y="128.55" width="4.38" height="2.43"/><rect class="cls-2" x="180.88" y="128.55" width="4.38" height="2.43"/><rect class="cls-2" x="185.26" y="130.98" width="2.43" height="4.38"/><rect class="cls-2" x="185.26" y="124.17" width="2.43" height="4.38"/><rect class="cls-2" x="217.84" y="128.55" width="4.38" height="2.43"/><rect class="cls-2" x="211.02" y="128.55" width="4.38" height="2.43"/><rect class="cls-2" x="215.4" y="130.98" width="2.43" height="4.38"/><rect class="cls-2" x="215.4" y="124.17" width="2.43" height="4.38"/><rect class="cls-2" x="157.55" y="159.11" width="4.38" height="2.43"/><rect class="cls-2" x="150.73" y="159.11" width="4.38" height="2.43"/><rect class="cls-2" x="155.11" y="161.55" width="2.43" height="4.38"/><rect class="cls-2" x="155.11" y="154.73" width="2.43" height="4.38"/><rect class="cls-2" x="187.69" y="159.11" width="4.38" height="2.43"/><rect class="cls-2" x="180.88" y="159.11" width="4.38" height="2.43"/><rect class="cls-2" x="185.26" y="161.55" width="2.43" height="4.38"/><rect class="cls-2" x="185.26" y="154.73" width="2.43" height="4.38"/><rect class="cls-2" x="217.84" y="159.11" width="4.38" height="2.43"/><rect class="cls-2" x="211.02" y="159.11" width="4.38" height="2.43"/><rect class="cls-2" x="215.4" y="161.55" width="2.43" height="4.38"/><rect class="cls-2" x="215.4" y="154.73" width="2.43" height="4.38"/><rect class="cls-2" x="127.4" y="189.67" width="4.38" height="2.43"/><rect class="cls-2" x="120.58" y="189.67" width="4.38" height="2.43"/><rect class="cls-2" x="124.97" y="192.11" width="2.43" height="4.38"/><rect class="cls-2" x="124.97" y="185.29" width="2.43" height="4.38"/><rect class="cls-2" x="157.55" y="189.67" width="4.38" height="2.43"/><rect class="cls-2" x="150.73" y="189.67" width="4.38" height="2.43"/><rect class="cls-2" x="155.11" y="192.11" width="2.43" height="4.38"/><rect class="cls-2" x="155.11" y="185.29" width="2.43" height="4.38"/><rect class="cls-2" x="187.69" y="189.67" width="4.38" height="2.43"/><rect class="cls-2" x="180.88" y="189.67" width="4.38" height="2.43"/><rect class="cls-2" x="185.26" y="192.11" width="2.43" height="4.38"/><rect class="cls-2" x="185.26" y="185.29" width="2.43" height="4.38"/><rect class="cls-2" x="217.84" y="189.67" width="4.38" height="2.43"/><rect class="cls-2" x="211.02" y="189.67" width="4.38" height="2.43"/><rect class="cls-2" x="215.4" y="192.11" width="2.43" height="4.38"/><rect class="cls-2" x="215.4" y="185.29" width="2.43" height="4.38"/><rect class="cls-2" x="127.4" y="220.24" width="4.38" height="2.43"/><rect class="cls-2" x="120.58" y="220.24" width="4.38" height="2.43"/><rect class="cls-2" x="124.97" y="222.67" width="2.43" height="4.38"/><rect class="cls-2" x="124.97" y="215.85" width="2.43" height="4.38"/><rect class="cls-2" x="157.55" y="220.24" width="4.38" height="2.43"/><rect class="cls-2" x="150.73" y="220.24" width="4.38" height="2.43"/><rect class="cls-2" x="155.11" y="222.67" width="2.43" height="4.38"/><rect class="cls-2" x="155.11" y="215.85" width="2.43" height="4.38"/><rect class="cls-2" x="187.69" y="220.24" width="4.38" height="2.43"/><rect class="cls-2" x="180.88" y="220.24" width="4.38" height="2.43"/><rect class="cls-2" x="185.26" y="222.67" width="2.43" height="4.38"/><rect class="cls-2" x="185.26" y="215.85" width="2.43" height="4.38"/><rect class="cls-2" x="217.84" y="220.24" width="4.38" height="2.43"/><rect class="cls-2" x="211.02" y="220.24" width="4.38" height="2.43"/><rect class="cls-2" x="215.4" y="222.67" width="2.43" height="4.38"/><rect class="cls-2" x="215.4" y="215.85" width="2.43" height="4.38"/><rect class="cls-2" x="6.82" y="250.8" width="4.38" height="2.43"/><rect class="cls-2" y="250.8" width="4.38" height="2.43"/><rect class="cls-2" x="4.38" y="253.23" width="2.43" height="4.38"/><rect class="cls-2" x="4.38" y="246.42" width="2.43" height="4.38"/><rect class="cls-2" x="36.96" y="250.8" width="4.38" height="2.43"/><rect class="cls-2" x="30.15" y="250.8" width="4.38" height="2.43"/><rect class="cls-2" x="34.53" y="253.23" width="2.43" height="4.38"/><rect class="cls-2" x="34.53" y="246.42" width="2.43" height="4.38"/><rect class="cls-2" x="67.11" y="250.8" width="4.38" height="2.43"/><rect class="cls-2" x="60.29" y="250.8" width="4.38" height="2.43"/><rect class="cls-2" x="64.67" y="253.23" width="2.43" height="4.38"/><rect class="cls-2" x="64.67" y="246.42" width="2.43" height="4.38"/><rect class="cls-2" x="97.25" y="250.8" width="4.38" height="2.43"/><rect class="cls-2" x="90.44" y="250.8" width="4.38" height="2.43"/><rect class="cls-2" x="94.82" y="253.23" width="2.43" height="4.38"/><rect class="cls-2" x="94.82" y="246.42" width="2.43" height="4.38"/><rect class="cls-2" x="127.4" y="250.8" width="4.38" height="2.43"/><rect class="cls-2" x="120.58" y="250.8" width="4.38" height="2.43"/><rect class="cls-2" x="124.97" y="253.23" width="2.43" height="4.38"/><rect class="cls-2" x="124.97" y="246.42" width="2.43" height="4.38"/><rect class="cls-2" x="157.55" y="250.8" width="4.38" height="2.43"/><rect class="cls-2" x="150.73" y="250.8" width="4.38" height="2.43"/><rect class="cls-2" x="155.11" y="253.23" width="2.43" height="4.38"/><rect class="cls-2" x="155.11" y="246.42" width="2.43" height="4.38"/><rect class="cls-2" x="187.69" y="250.8" width="4.38" height="2.43"/><rect class="cls-2" x="180.88" y="250.8" width="4.38" height="2.43"/><rect class="cls-2" x="185.26" y="253.23" width="2.43" height="4.38"/><rect class="cls-2" x="185.26" y="246.42" width="2.43" height="4.38"/><rect class="cls-2" x="217.84" y="250.8" width="4.38" height="2.43"/><rect class="cls-2" x="211.02" y="250.8" width="4.38" height="2.43"/><rect class="cls-2" x="215.4" y="253.23" width="2.43" height="4.38"/><rect class="cls-2" x="215.4" y="246.42" width="2.43" height="4.38"/></g><g class="cls-1"><rect class="cls-2" x="246.38" y="67.42" width="4.38" height="2.43"/><rect class="cls-2" x="239.57" y="67.42" width="4.38" height="2.43"/><rect class="cls-2" x="243.95" y="69.86" width="2.43" height="4.38"/><rect class="cls-2" x="243.95" y="63.04" width="2.43" height="4.38"/><rect class="cls-2" x="276.53" y="67.42" width="4.38" height="2.43"/><rect class="cls-2" x="269.71" y="67.42" width="4.38" height="2.43"/><rect class="cls-2" x="274.1" y="69.86" width="2.43" height="4.38"/><rect class="cls-2" x="274.1" y="63.04" width="2.43" height="4.38"/><rect class="cls-2" x="306.68" y="67.42" width="4.38" height="2.43"/><rect class="cls-2" x="299.86" y="67.42" width="4.38" height="2.43"/><rect class="cls-2" x="304.24" y="69.86" width="2.43" height="4.38"/><rect class="cls-2" x="304.24" y="63.04" width="2.43" height="4.38"/><rect class="cls-2" x="336.82" y="67.42" width="4.38" height="2.43"/><rect class="cls-2" x="330.01" y="67.42" width="4.38" height="2.43"/><rect class="cls-2" x="334.39" y="69.86" width="2.43" height="4.38"/><rect class="cls-2" x="334.39" y="63.04" width="2.43" height="4.38"/><rect class="cls-2" x="246.38" y="97.99" width="4.38" height="2.43"/><rect class="cls-2" x="239.57" y="97.99" width="4.38" height="2.43"/><rect class="cls-2" x="243.95" y="100.42" width="2.43" height="4.38"/><rect class="cls-2" x="243.95" y="93.6" width="2.43" height="4.38"/><rect class="cls-2" x="276.53" y="97.99" width="4.38" height="2.43"/><rect class="cls-2" x="269.71" y="97.99" width="4.38" height="2.43"/><rect class="cls-2" x="274.1" y="100.42" width="2.43" height="4.38"/><rect class="cls-2" x="274.1" y="93.6" width="2.43" height="4.38"/><rect class="cls-2" x="306.68" y="97.99" width="4.38" height="2.43"/><rect class="cls-2" x="299.86" y="97.99" width="4.38" height="2.43"/><rect class="cls-2" x="304.24" y="100.42" width="2.43" height="4.38"/><rect class="cls-2" x="304.24" y="93.6" width="2.43" height="4.38"/><rect class="cls-2" x="336.82" y="97.99" width="4.38" height="2.43"/><rect class="cls-2" x="330.01" y="97.99" width="4.38" height="2.43"/><rect class="cls-2" x="334.39" y="100.42" width="2.43" height="4.38"/><rect class="cls-2" x="334.39" y="93.6" width="2.43" height="4.38"/><rect class="cls-2" x="246.38" y="128.55" width="4.38" height="2.43"/><rect class="cls-2" x="239.57" y="128.55" width="4.38" height="2.43"/><rect class="cls-2" x="243.95" y="130.98" width="2.43" height="4.38"/><rect class="cls-2" x="243.95" y="124.17" width="2.43" height="4.38"/><rect class="cls-2" x="276.53" y="128.55" width="4.38" height="2.43"/><rect class="cls-2" x="269.71" y="128.55" width="4.38" height="2.43"/><rect class="cls-2" x="274.1" y="130.98" width="2.43" height="4.38"/><rect class="cls-2" x="274.1" y="124.17" width="2.43" height="4.38"/><rect class="cls-2" x="306.68" y="128.55" width="4.38" height="2.43"/><rect class="cls-2" x="299.86" y="128.55" width="4.38" height="2.43"/><rect class="cls-2" x="304.24" y="130.98" width="2.43" height="4.38"/><rect class="cls-2" x="304.24" y="124.17" width="2.43" height="4.38"/><rect class="cls-2" x="336.82" y="128.55" width="4.38" height="2.43"/><rect class="cls-2" x="330.01" y="128.55" width="4.38" height="2.43"/><rect class="cls-2" x="334.39" y="130.98" width="2.43" height="4.38"/><rect class="cls-2" x="334.39" y="124.17" width="2.43" height="4.38"/><rect class="cls-2" x="246.38" y="159.11" width="4.38" height="2.43"/><rect class="cls-2" x="239.57" y="159.11" width="4.38" height="2.43"/><rect class="cls-2" x="243.95" y="161.55" width="2.43" height="4.38"/><rect class="cls-2" x="243.95" y="154.73" width="2.43" height="4.38"/><rect class="cls-2" x="276.53" y="159.11" width="4.38" height="2.43"/><rect class="cls-2" x="269.71" y="159.11" width="4.38" height="2.43"/><rect class="cls-2" x="274.1" y="161.55" width="2.43" height="4.38"/><rect class="cls-2" x="274.1" y="154.73" width="2.43" height="4.38"/><rect class="cls-2" x="306.68" y="159.11" width="4.38" height="2.43"/><rect class="cls-2" x="299.86" y="159.11" width="4.38" height="2.43"/><rect class="cls-2" x="304.24" y="161.55" width="2.43" height="4.38"/><rect class="cls-2" x="304.24" y="154.73" width="2.43" height="4.38"/><rect class="cls-2" x="336.82" y="159.11" width="4.38" height="2.43"/><rect class="cls-2" x="330.01" y="159.11" width="4.38" height="2.43"/><rect class="cls-2" x="334.39" y="161.55" width="2.43" height="4.38"/><rect class="cls-2" x="334.39" y="154.73" width="2.43" height="4.38"/><rect class="cls-2" x="246.38" y="189.67" width="4.38" height="2.43"/><rect class="cls-2" x="239.57" y="189.67" width="4.38" height="2.43"/><rect class="cls-2" x="243.95" y="192.11" width="2.43" height="4.38"/><rect class="cls-2" x="243.95" y="185.29" width="2.43" height="4.38"/><rect class="cls-2" x="276.53" y="189.67" width="4.38" height="2.43"/><rect class="cls-2" x="269.71" y="189.67" width="4.38" height="2.43"/><rect class="cls-2" x="274.1" y="192.11" width="2.43" height="4.38"/><rect class="cls-2" x="274.1" y="185.29" width="2.43" height="4.38"/><rect class="cls-2" x="306.68" y="189.67" width="4.38" height="2.43"/><rect class="cls-2" x="299.86" y="189.67" width="4.38" height="2.43"/><rect class="cls-2" x="304.24" y="192.11" width="2.43" height="4.38"/><rect class="cls-2" x="304.24" y="185.29" width="2.43" height="4.38"/><rect class="cls-2" x="336.82" y="189.67" width="4.38" height="2.43"/><rect class="cls-2" x="330.01" y="189.67" width="4.38" height="2.43"/><rect class="cls-2" x="334.39" y="192.11" width="2.43" height="4.38"/><rect class="cls-2" x="334.39" y="185.29" width="2.43" height="4.38"/><rect class="cls-2" x="246.38" y="220.24" width="4.38" height="2.43"/><rect class="cls-2" x="239.57" y="220.24" width="4.38" height="2.43"/><rect class="cls-2" x="243.95" y="222.67" width="2.43" height="4.38"/><rect class="cls-2" x="243.95" y="215.85" width="2.43" height="4.38"/><rect class="cls-2" x="276.53" y="220.24" width="4.38" height="2.43"/><rect class="cls-2" x="269.71" y="220.24" width="4.38" height="2.43"/><rect class="cls-2" x="274.1" y="222.67" width="2.43" height="4.38"/><rect class="cls-2" x="274.1" y="215.85" width="2.43" height="4.38"/><rect class="cls-2" x="306.68" y="220.24" width="4.38" height="2.43"/><rect class="cls-2" x="299.86" y="220.24" width="4.38" height="2.43"/><rect class="cls-2" x="304.24" y="222.67" width="2.43" height="4.38"/><rect class="cls-2" x="304.24" y="215.85" width="2.43" height="4.38"/><rect class="cls-2" x="336.82" y="220.24" width="4.38" height="2.43"/><rect class="cls-2" x="330.01" y="220.24" width="4.38" height="2.43"/><rect class="cls-2" x="334.39" y="222.67" width="2.43" height="4.38"/><rect class="cls-2" x="334.39" y="215.85" width="2.43" height="4.38"/><rect class="cls-2" x="366.97" y="67.42" width="4.38" height="2.43"/><rect class="cls-2" x="360.15" y="67.42" width="4.38" height="2.43"/><rect class="cls-2" x="364.53" y="69.86" width="2.43" height="4.38"/><rect class="cls-2" x="364.53" y="63.04" width="2.43" height="4.38"/><rect class="cls-2" x="397.11" y="67.42" width="4.38" height="2.43"/><rect class="cls-2" x="390.3" y="67.42" width="4.38" height="2.43"/><rect class="cls-2" x="394.68" y="69.86" width="2.43" height="4.38"/><rect class="cls-2" x="394.68" y="63.04" width="2.43" height="4.38"/><rect class="cls-2" x="427.26" y="67.42" width="4.38" height="2.43"/><rect class="cls-2" x="420.44" y="67.42" width="4.38" height="2.43"/><rect class="cls-2" x="424.83" y="69.86" width="2.43" height="4.38"/><rect class="cls-2" x="424.83" y="63.04" width="2.43" height="4.38"/><rect class="cls-2" x="457.41" y="67.42" width="4.38" height="2.43"/><rect class="cls-2" x="450.59" y="67.42" width="4.38" height="2.43"/><rect class="cls-2" x="454.97" y="69.86" width="2.43" height="4.38"/><rect class="cls-2" x="454.97" y="63.04" width="2.43" height="4.38"/><rect class="cls-2" x="366.97" y="97.99" width="4.38" height="2.43"/><rect class="cls-2" x="360.15" y="97.99" width="4.38" height="2.43"/><rect class="cls-2" x="364.53" y="100.42" width="2.43" height="4.38"/><rect class="cls-2" x="364.53" y="93.6" width="2.43" height="4.38"/><rect class="cls-2" x="397.11" y="97.99" width="4.38" height="2.43"/><rect class="cls-2" x="390.3" y="97.99" width="4.38" height="2.43"/><rect class="cls-2" x="394.68" y="100.42" width="2.43" height="4.38"/><rect class="cls-2" x="394.68" y="93.6" width="2.43" height="4.38"/><rect class="cls-2" x="427.26" y="97.99" width="4.38" height="2.43"/><rect class="cls-2" x="420.44" y="97.99" width="4.38" height="2.43"/><rect class="cls-2" x="424.83" y="100.42" width="2.43" height="4.38"/><rect class="cls-2" x="424.83" y="93.6" width="2.43" height="4.38"/><rect class="cls-2" x="457.41" y="97.99" width="4.38" height="2.43"/><rect class="cls-2" x="450.59" y="97.99" width="4.38" height="2.43"/><rect class="cls-2" x="454.97" y="100.42" width="2.43" height="4.38"/><rect class="cls-2" x="454.97" y="93.6" width="2.43" height="4.38"/><rect class="cls-2" x="366.97" y="128.55" width="4.38" height="2.43"/><rect class="cls-2" x="360.15" y="128.55" width="4.38" height="2.43"/><rect class="cls-2" x="364.53" y="130.98" width="2.43" height="4.38"/><rect class="cls-2" x="364.53" y="124.17" width="2.43" height="4.38"/><rect class="cls-2" x="366.97" y="159.11" width="4.38" height="2.43"/><rect class="cls-2" x="360.15" y="159.11" width="4.38" height="2.43"/><rect class="cls-2" x="364.53" y="161.55" width="2.43" height="4.38"/><rect class="cls-2" x="364.53" y="154.73" width="2.43" height="4.38"/><rect class="cls-2" x="397.11" y="128.55" width="4.38" height="2.43"/><rect class="cls-2" x="390.3" y="128.55" width="4.38" height="2.43"/><rect class="cls-2" x="394.68" y="130.98" width="2.43" height="4.38"/><rect class="cls-2" x="394.68" y="124.17" width="2.43" height="4.38"/><rect class="cls-2" x="427.26" y="128.55" width="4.38" height="2.43"/><rect class="cls-2" x="420.44" y="128.55" width="4.38" height="2.43"/><rect class="cls-2" x="424.83" y="130.98" width="2.43" height="4.38"/><rect class="cls-2" x="424.83" y="124.17" width="2.43" height="4.38"/><rect class="cls-2" x="457.41" y="128.55" width="4.38" height="2.43"/><rect class="cls-2" x="450.59" y="128.55" width="4.38" height="2.43"/><rect class="cls-2" x="454.97" y="130.98" width="2.43" height="4.38"/><rect class="cls-2" x="454.97" y="124.17" width="2.43" height="4.38"/><rect class="cls-2" x="397.11" y="159.11" width="4.38" height="2.43"/><rect class="cls-2" x="390.3" y="159.11" width="4.38" height="2.43"/><rect class="cls-2" x="394.68" y="161.55" width="2.43" height="4.38"/><rect class="cls-2" x="394.68" y="154.73" width="2.43" height="4.38"/><rect class="cls-2" x="427.26" y="159.11" width="4.38" height="2.43"/><rect class="cls-2" x="420.44" y="159.11" width="4.38" height="2.43"/><rect class="cls-2" x="424.83" y="161.55" width="2.43" height="4.38"/><rect class="cls-2" x="424.83" y="154.73" width="2.43" height="4.38"/><rect class="cls-2" x="457.41" y="159.11" width="4.38" height="2.43"/><rect class="cls-2" x="450.59" y="159.11" width="4.38" height="2.43"/><rect class="cls-2" x="454.97" y="161.55" width="2.43" height="4.38"/><rect class="cls-2" x="454.97" y="154.73" width="2.43" height="4.38"/><rect class="cls-2" x="366.97" y="189.67" width="4.38" height="2.43"/><rect class="cls-2" x="360.15" y="189.67" width="4.38" height="2.43"/><rect class="cls-2" x="364.53" y="192.11" width="2.43" height="4.38"/><rect class="cls-2" x="364.53" y="185.29" width="2.43" height="4.38"/><rect class="cls-2" x="397.11" y="189.67" width="4.38" height="2.43"/><rect class="cls-2" x="390.3" y="189.67" width="4.38" height="2.43"/><rect class="cls-2" x="394.68" y="192.11" width="2.43" height="4.38"/><rect class="cls-2" x="394.68" y="185.29" width="2.43" height="4.38"/><rect class="cls-2" x="427.26" y="189.67" width="4.38" height="2.43"/><rect class="cls-2" x="420.44" y="189.67" width="4.38" height="2.43"/><rect class="cls-2" x="424.83" y="192.11" width="2.43" height="4.38"/><rect class="cls-2" x="424.83" y="185.29" width="2.43" height="4.38"/><rect class="cls-2" x="457.41" y="189.67" width="4.38" height="2.43"/><rect class="cls-2" x="450.59" y="189.67" width="4.38" height="2.43"/><rect class="cls-2" x="454.97" y="192.11" width="2.43" height="4.38"/><rect class="cls-2" x="454.97" y="185.29" width="2.43" height="4.38"/><rect class="cls-2" x="366.97" y="220.24" width="4.38" height="2.43"/><rect class="cls-2" x="360.15" y="220.24" width="4.38" height="2.43"/><rect class="cls-2" x="364.53" y="222.67" width="2.43" height="4.38"/><rect class="cls-2" x="364.53" y="215.85" width="2.43" height="4.38"/><rect class="cls-2" x="397.11" y="220.24" width="4.38" height="2.43"/><rect class="cls-2" x="390.3" y="220.24" width="4.38" height="2.43"/><rect class="cls-2" x="394.68" y="222.67" width="2.43" height="4.38"/><rect class="cls-2" x="394.68" y="215.85" width="2.43" height="4.38"/><rect class="cls-2" x="427.26" y="220.24" width="4.38" height="2.43"/><rect class="cls-2" x="420.44" y="220.24" width="4.38" height="2.43"/><rect class="cls-2" x="424.83" y="222.67" width="2.43" height="4.38"/><rect class="cls-2" x="424.83" y="215.85" width="2.43" height="4.38"/><rect class="cls-2" x="457.41" y="220.24" width="4.38" height="2.43"/><rect class="cls-2" x="450.59" y="220.24" width="4.38" height="2.43"/><rect class="cls-2" x="454.97" y="222.67" width="2.43" height="4.38"/><rect class="cls-2" x="454.97" y="215.85" width="2.43" height="4.38"/><rect class="cls-2" x="246.38" y="250.8" width="4.38" height="2.43"/><rect class="cls-2" x="239.57" y="250.8" width="4.38" height="2.43"/><rect class="cls-2" x="243.95" y="253.23" width="2.43" height="4.38"/><rect class="cls-2" x="243.95" y="246.42" width="2.43" height="4.38"/><rect class="cls-2" x="276.53" y="250.8" width="4.38" height="2.43"/><rect class="cls-2" x="269.71" y="250.8" width="4.38" height="2.43"/><rect class="cls-2" x="274.1" y="253.23" width="2.43" height="4.38"/><rect class="cls-2" x="274.1" y="246.42" width="2.43" height="4.38"/><rect class="cls-2" x="306.68" y="250.8" width="4.38" height="2.43"/><rect class="cls-2" x="299.86" y="250.8" width="4.38" height="2.43"/><rect class="cls-2" x="304.24" y="253.23" width="2.43" height="4.38"/><rect class="cls-2" x="304.24" y="246.42" width="2.43" height="4.38"/><rect class="cls-2" x="336.82" y="250.8" width="4.38" height="2.43"/><rect class="cls-2" x="330.01" y="250.8" width="4.38" height="2.43"/><rect class="cls-2" x="334.39" y="253.23" width="2.43" height="4.38"/><rect class="cls-2" x="334.39" y="246.42" width="2.43" height="4.38"/><rect class="cls-2" x="366.97" y="250.8" width="4.38" height="2.43"/><rect class="cls-2" x="360.15" y="250.8" width="4.38" height="2.43"/><rect class="cls-2" x="364.53" y="253.23" width="2.43" height="4.38"/><rect class="cls-2" x="364.53" y="246.42" width="2.43" height="4.38"/><rect class="cls-2" x="397.11" y="250.8" width="4.38" height="2.43"/><rect class="cls-2" x="390.3" y="250.8" width="4.38" height="2.43"/><rect class="cls-2" x="394.68" y="253.23" width="2.43" height="4.38"/><rect class="cls-2" x="394.68" y="246.42" width="2.43" height="4.38"/><rect class="cls-2" x="427.26" y="250.8" width="4.38" height="2.43"/><rect class="cls-2" x="420.44" y="250.8" width="4.38" height="2.43"/><rect class="cls-2" x="424.83" y="253.23" width="2.43" height="4.38"/><rect class="cls-2" x="424.83" y="246.42" width="2.43" height="4.38"/><rect class="cls-2" x="457.41" y="250.8" width="4.38" height="2.43"/><rect class="cls-2" x="450.59" y="250.8" width="4.38" height="2.43"/><rect class="cls-2" x="454.97" y="253.23" width="2.43" height="4.38"/><rect class="cls-2" x="454.97" y="246.42" width="2.43" height="4.38"/></g><rect class="cls-3" x="93.39" width="275" height="108.5"/><path class="cls-2" d="M133.17,45.32h2.61v14h-2.61Z"/><path class="cls-2" d="M140.12,45.32h2.31L146.75,53c.09.15.21.38.36.68s.23.52.27.63l.06-.07,0-1.16V45.32h2.33v14h-2.33L143.1,51.6l-.36-.73-.27-.57-.09.06c0,.08,0,.24,0,.47s0,.46,0,.69v7.79h-2.31Z"/><path class="cls-2" d="M154.18,45.32h8.22v2.33h-5.61v3.52h4.79V53.5h-4.79v5.81h-2.61Z"/><path class="cls-2" d="M166.08,45.32h5.85a4.33,4.33,0,0,1,3.17,1.1,3.91,3.91,0,0,1,1.11,2.9,3.84,3.84,0,0,1-.62,2.2,3.65,3.65,0,0,1-1.72,1.39l2.69,6.4h-2.83l-2.33-5.83h-2.71v5.83h-2.61Zm5.48,5.85a1.81,1.81,0,0,0,1.38-.48,1.86,1.86,0,0,0,.46-1.37,1.7,1.7,0,0,0-.43-1.24,1.74,1.74,0,0,0-1.3-.43h-3v3.52Z"/><path class="cls-2" d="M183.94,45.32h3l4.51,14h-2.67L188,56.56H182.8L182,59.31h-2.52Zm3.31,8.91-1.41-4.67a10.59,10.59,0,0,1-.27-1.08c-.08-.42-.13-.69-.14-.81h-.08c0,.13-.08.41-.16.84s-.17.78-.25,1.05l-1.43,4.67Z"/><path class="cls-2" d="M194.78,45.32h8.92v2.33h-6.31V51h5.41v2.32h-5.41V57h6.43v2.32h-9Z"/><path class="cls-2" d="M209.56,59.06a4.18,4.18,0,0,1-1.76-1.48,4.22,4.22,0,0,1-.65-2.37l0-.45h2.71l0,.33a2.06,2.06,0,0,0,2.25,2.22,2.3,2.3,0,0,0,1.6-.48,1.56,1.56,0,0,0,.52-1.17,1.73,1.73,0,0,0-.37-1.13,2.71,2.71,0,0,0-.91-.69c-.36-.16-.87-.35-1.52-.57a14.18,14.18,0,0,1-2.08-.81A3.57,3.57,0,0,1,208,51.21a3.84,3.84,0,0,1-.56-2.22,3.62,3.62,0,0,1,.63-2.15,3.86,3.86,0,0,1,1.69-1.33,6.15,6.15,0,0,1,2.35-.43,5,5,0,0,1,3.27,1,3.72,3.72,0,0,1,1.27,3.09v.24H214v-.18a2,2,0,0,0-.51-1.42,1.84,1.84,0,0,0-1.39-.52,2.2,2.2,0,0,0-1.43.42,1.3,1.3,0,0,0-.52,1.07,1.33,1.33,0,0,0,.34.94,2.62,2.62,0,0,0,.87.59q.53.22,1.44.51a16.83,16.83,0,0,1,2.14.82,3.84,3.84,0,0,1,1.41,1.24,3.77,3.77,0,0,1,.59,2.2,4.07,4.07,0,0,1-1.32,3.37A5.52,5.52,0,0,1,212,59.56,5.82,5.82,0,0,1,209.56,59.06Z"/><path class="cls-2" d="M223.41,47.65H220V45.32h9.54v2.33H226V59.31h-2.62Z"/><path class="cls-2" d="M232.94,45.32h5.85a4.33,4.33,0,0,1,3.17,1.1,3.91,3.91,0,0,1,1.11,2.9,3.84,3.84,0,0,1-.62,2.2,3.65,3.65,0,0,1-1.72,1.39l2.69,6.4h-2.83l-2.33-5.83h-2.71v5.83h-2.61Zm5.48,5.85a1.81,1.81,0,0,0,1.38-.48,1.86,1.86,0,0,0,.46-1.37,1.7,1.7,0,0,0-.43-1.24,1.74,1.74,0,0,0-1.3-.43h-3v3.52Z"/><path class="cls-2" d="M248.1,58.36a4.53,4.53,0,0,1-1.25-3.43V45.32h2.61v9.52a2.65,2.65,0,0,0,.57,1.84,2.06,2.06,0,0,0,1.61.63,2.09,2.09,0,0,0,1.62-.63,2.6,2.6,0,0,0,.58-1.84V45.32h2.61v9.61a4.49,4.49,0,0,1-1.26,3.43,5.84,5.84,0,0,1-7.09,0Z"/><path class="cls-2" d="M261.77,57.75a8.59,8.59,0,0,1-1.44-5.43,8.62,8.62,0,0,1,1.44-5.44,5,5,0,0,1,4.13-1.8,5.15,5.15,0,0,1,3.72,1.36A5.4,5.4,0,0,1,271,50.52h-2.67a3.74,3.74,0,0,0-.67-2.39,2.2,2.2,0,0,0-1.8-.81,2.37,2.37,0,0,0-2.15,1.17,6.27,6.27,0,0,0-.73,3.32v1a6.15,6.15,0,0,0,.75,3.31A2.44,2.44,0,0,0,266,57.31a2.3,2.3,0,0,0,1.84-.8,3.69,3.69,0,0,0,.67-2.38H271a5.43,5.43,0,0,1-1.41,4,5.1,5.1,0,0,1-3.73,1.39A5,5,0,0,1,261.77,57.75Z"/><path class="cls-2" d="M277.46,47.65H274V45.32h9.55v2.33h-3.47V59.31h-2.61Z"/><path class="cls-2" d="M288.25,58.36A4.49,4.49,0,0,1,287,54.93V45.32h2.61v9.52a2.65,2.65,0,0,0,.57,1.84,2.05,2.05,0,0,0,1.61.63,2.1,2.1,0,0,0,1.62-.63,2.6,2.6,0,0,0,.58-1.84V45.32h2.61v9.61a4.49,4.49,0,0,1-1.26,3.43,5.84,5.84,0,0,1-7.09,0Z"/><path class="cls-2" d="M301,45.32h5.85a4.32,4.32,0,0,1,3.17,1.1,3.92,3.92,0,0,1,1.12,2.9,3.84,3.84,0,0,1-.63,2.2,3.65,3.65,0,0,1-1.72,1.39l2.69,6.4h-2.83l-2.33-5.83h-2.71v5.83H301Zm5.49,5.85a1.8,1.8,0,0,0,1.37-.48,1.86,1.86,0,0,0,.46-1.37,1.7,1.7,0,0,0-.43-1.24,1.74,1.74,0,0,0-1.3-.43h-3v3.52Z"/><path class="cls-2" d="M318.88,45.32h3l4.51,14h-2.67l-.86-2.75h-5.16l-.84,2.75h-2.52Zm3.31,8.91-1.41-4.67a10.59,10.59,0,0,1-.27-1.08c-.08-.42-.13-.69-.14-.81h-.08c0,.13-.08.41-.16.84s-.17.78-.25,1.05l-1.43,4.67Z"/></g></g></svg>