<svg xmlns="http://www.w3.org/2000/svg" viewBox="0 0 461.79 194.58"><defs><style>.cls-1{fill:#fff;}.cls-2{opacity:0.2;}</style></defs><title>ponte-en-contacto</title><g id="Layer_2" data-name="Layer 2"><g id="Layer_2-2" data-name="Layer 2"><path class="cls-1" d="M142.87.57h8.19a6.75,6.75,0,0,1,5.08,1.74,6.6,6.6,0,0,1,1.69,4.83A6.19,6.19,0,0,1,156,11.9a7.18,7.18,0,0,1-5.07,1.7h-7.1v8.87h-.95ZM151,12.75a6,6,0,0,0,4.41-1.5,5.56,5.56,0,0,0,1.51-4.11,5.76,5.76,0,0,0-1.45-4.25,5.76,5.76,0,0,0-4.3-1.47h-7.34V12.75Z"/><path class="cls-1" d="M171.71,19.9q-2.36-2.91-2.35-8.17c0-3.95.77-6.85,2.29-8.71S175.6.23,178.91.23s5.73.93,7.26,2.79,2.3,4.76,2.3,8.71q0,5.24-2.36,8.16t-7.2,2.92Q174,22.81,171.71,19.9Zm13.68-.54q2.16-2.61,2.16-7.63a16.81,16.81,0,0,0-1-6.21,6.54,6.54,0,0,0-2.84-3.38,11.69,11.69,0,0,0-9.73,0,6.51,6.51,0,0,0-2.82,3.38,17.06,17.06,0,0,0-.93,6.21q0,5,2.16,7.63t6.47,2.6Q183.23,22,185.39,19.36Z"/><path class="cls-1" d="M201.24.57h1l14.63,20.61V.57h1v21.9h-1.06L202.19,1.87v20.6h-.95Z"/><path class="cls-1" d="M237.67,1.42h-7.86V.57h16.63v.85h-7.82v21h-1Z"/><path class="cls-1" d="M258.4.57h13.88v.85H259.36v9.66h11.73v.85H259.36v9.69h12.92v.85H258.4Z"/><path class="cls-1" d="M306.62.57h13.87v.85H307.57v9.66H319.3v.85H307.57v9.69h12.92v.85H306.62Z"/><path class="cls-1" d="M332.62.57h1.05l14.62,20.61V.57h.95v21.9h-1.05L333.57,1.87v20.6h-.95Z"/><path class="cls-1" d="M144.43,60.7c-1.88-1.93-2.82-4.62-2.82-8q0-5.53,2.72-8.58t8.19-3A19.32,19.32,0,0,1,159,42.09v3.23a16.84,16.84,0,0,0-6.16-1.12q-4,0-5.71,2.1t-1.73,6.36q0,3.89,1.85,5.85c1.24,1.31,3.12,2,5.66,2a17,17,0,0,0,6.12-1v3.26a21.42,21.42,0,0,1-6.42.92Q147.25,63.61,144.43,60.7Z"/><path class="cls-1" d="M171.82,60.87q-2.56-2.73-2.57-8.48,0-5.91,2.55-8.64T179.62,41c3.52,0,6.12.91,7.82,2.72s2.55,4.7,2.55,8.64-.85,6.66-2.56,8.48-4.32,2.74-7.81,2.74S173.53,62.7,171.82,60.87Zm12.87-2.29c1.06-1.27,1.6-3.33,1.6-6.19s-.53-5.08-1.58-6.32S182,44.2,179.62,44.2s-4,.62-5.05,1.87S173,49.42,173,52.39s.54,4.89,1.6,6.17,2.74,1.92,5,1.92S183.62,59.85,184.69,58.58Z"/><path class="cls-1" d="M201.69,41.37H205l11.43,16.12V41.37h3.67v21.9h-3.26L205.4,47.19V63.27h-3.71Z"/><path class="cls-1" d="M238,44.26h-7V41.37h17.68v2.89h-7v19H238Z"/><path class="cls-1" d="M264,41.37h4.15l8.29,21.9h-3.8l-2.18-5.64h-8.81l-2.17,5.64H255.6Zm5.85,13.4-3.81-10-3.81,10Z"/><path class="cls-1" d="M288.71,60.7c-1.89-1.93-2.83-4.62-2.83-8q0-5.53,2.72-8.58t8.2-3a19.21,19.21,0,0,1,6.42,1.06v3.23a16.75,16.75,0,0,0-6.15-1.12c-2.65,0-4.56.7-5.71,2.1s-1.74,3.53-1.74,6.36q0,3.89,1.86,5.85t5.66,2a17.09,17.09,0,0,0,6.12-1v3.26a21.44,21.44,0,0,1-6.43.92C293.29,63.61,290.59,62.64,288.71,60.7Z"/><path class="cls-1" d="M320.8,44.26h-7V41.37h17.68v2.89h-7v19H320.8Z"/><path class="cls-1" d="M343.72,60.87q-2.57-2.73-2.57-8.48,0-5.91,2.55-8.64T351.52,41c3.52,0,6.12.91,7.82,2.72s2.55,4.7,2.55,8.64-.85,6.66-2.56,8.48-4.32,2.74-7.81,2.74S345.43,62.7,343.72,60.87Zm12.87-2.29c1.06-1.27,1.6-3.33,1.6-6.19s-.53-5.08-1.58-6.32-2.75-1.87-5.09-1.87-4,.62-5,1.87-1.58,3.35-1.58,6.32.53,4.89,1.6,6.17,2.74,1.92,5,1.92S355.52,59.85,356.59,58.58Z"/><g class="cls-2"><rect class="cls-1" x="6.82" y="4.38" width="4.38" height="2.43"/><rect class="cls-1" y="4.38" width="4.38" height="2.43"/><rect class="cls-1" x="4.38" y="6.82" width="2.43" height="4.38"/><rect class="cls-1" x="4.38" width="2.43" height="4.38"/><rect class="cls-1" x="36.96" y="4.38" width="4.38" height="2.43"/><rect class="cls-1" x="30.15" y="4.38" width="4.38" height="2.43"/><rect class="cls-1" x="34.53" y="6.82" width="2.43" height="4.38"/><rect class="cls-1" x="34.53" width="2.43" height="4.38"/><rect class="cls-1" x="67.11" y="4.38" width="4.38" height="2.43"/><rect class="cls-1" x="60.29" y="4.38" width="4.38" height="2.43"/><rect class="cls-1" x="64.67" y="6.82" width="2.43" height="4.38"/><rect class="cls-1" x="64.67" width="2.43" height="4.38"/><rect class="cls-1" x="97.25" y="4.38" width="4.38" height="2.43"/><rect class="cls-1" x="90.44" y="4.38" width="4.38" height="2.43"/><rect class="cls-1" x="94.82" y="6.82" width="2.43" height="4.38"/><rect class="cls-1" x="94.82" width="2.43" height="4.38"/><rect class="cls-1" x="6.82" y="34.95" width="4.38" height="2.43"/><rect class="cls-1" y="34.95" width="4.38" height="2.43"/><rect class="cls-1" x="4.38" y="37.38" width="2.43" height="4.38"/><rect class="cls-1" x="4.38" y="30.56" width="2.43" height="4.38"/><rect class="cls-1" x="36.96" y="34.95" width="4.38" height="2.43"/><rect class="cls-1" x="30.15" y="34.95" width="4.38" height="2.43"/><rect class="cls-1" x="34.53" y="37.38" width="2.43" height="4.38"/><rect class="cls-1" x="34.53" y="30.56" width="2.43" height="4.38"/><rect class="cls-1" x="67.11" y="34.95" width="4.38" height="2.43"/><rect class="cls-1" x="60.29" y="34.95" width="4.38" height="2.43"/><rect class="cls-1" x="64.67" y="37.38" width="2.43" height="4.38"/><rect class="cls-1" x="64.67" y="30.56" width="2.43" height="4.38"/><rect class="cls-1" x="97.25" y="34.95" width="4.38" height="2.43"/><rect class="cls-1" x="90.44" y="34.95" width="4.38" height="2.43"/><rect class="cls-1" x="94.82" y="37.38" width="2.43" height="4.38"/><rect class="cls-1" x="94.82" y="30.56" width="2.43" height="4.38"/><rect class="cls-1" x="6.82" y="65.51" width="4.38" height="2.43"/><rect class="cls-1" y="65.51" width="4.38" height="2.43"/><rect class="cls-1" x="4.38" y="67.94" width="2.43" height="4.38"/><rect class="cls-1" x="4.38" y="61.13" width="2.43" height="4.38"/><rect class="cls-1" x="36.96" y="65.51" width="4.38" height="2.43"/><rect class="cls-1" x="30.15" y="65.51" width="4.38" height="2.43"/><rect class="cls-1" x="34.53" y="67.94" width="2.43" height="4.38"/><rect class="cls-1" x="34.53" y="61.13" width="2.43" height="4.38"/><rect class="cls-1" x="67.11" y="65.51" width="4.38" height="2.43"/><rect class="cls-1" x="60.29" y="65.51" width="4.38" height="2.43"/><rect class="cls-1" x="64.67" y="67.94" width="2.43" height="4.38"/><rect class="cls-1" x="64.67" y="61.13" width="2.43" height="4.38"/><rect class="cls-1" x="97.25" y="65.51" width="4.38" height="2.43"/><rect class="cls-1" x="90.44" y="65.51" width="4.38" height="2.43"/><rect class="cls-1" x="94.82" y="67.94" width="2.43" height="4.38"/><rect class="cls-1" x="94.82" y="61.13" width="2.43" height="4.38"/><rect class="cls-1" x="6.82" y="96.07" width="4.38" height="2.43"/><rect class="cls-1" y="96.07" width="4.38" height="2.43"/><rect class="cls-1" x="4.38" y="98.5" width="2.43" height="4.38"/><rect class="cls-1" x="4.38" y="91.69" width="2.43" height="4.38"/><rect class="cls-1" x="36.96" y="96.07" width="4.38" height="2.43"/><rect class="cls-1" x="30.15" y="96.07" width="4.38" height="2.43"/><rect class="cls-1" x="34.53" y="98.5" width="2.43" height="4.38"/><rect class="cls-1" x="34.53" y="91.69" width="2.43" height="4.38"/><rect class="cls-1" x="67.11" y="96.07" width="4.38" height="2.43"/><rect class="cls-1" x="60.29" y="96.07" width="4.38" height="2.43"/><rect class="cls-1" x="64.67" y="98.5" width="2.43" height="4.38"/><rect class="cls-1" x="64.67" y="91.69" width="2.43" height="4.38"/><rect class="cls-1" x="97.25" y="96.07" width="4.38" height="2.43"/><rect class="cls-1" x="90.44" y="96.07" width="4.38" height="2.43"/><rect class="cls-1" x="94.82" y="98.5" width="2.43" height="4.38"/><rect class="cls-1" x="94.82" y="91.69" width="2.43" height="4.38"/><rect class="cls-1" x="6.82" y="126.63" width="4.38" height="2.43"/><rect class="cls-1" y="126.63" width="4.38" height="2.43"/><rect class="cls-1" x="4.38" y="129.07" width="2.43" height="4.38"/><rect class="cls-1" x="4.38" y="122.25" width="2.43" height="4.38"/><rect class="cls-1" x="36.96" y="126.63" width="4.38" height="2.43"/><rect class="cls-1" x="30.15" y="126.63" width="4.38" height="2.43"/><rect class="cls-1" x="34.53" y="129.07" width="2.43" height="4.38"/><rect class="cls-1" x="34.53" y="122.25" width="2.43" height="4.38"/><rect class="cls-1" x="67.11" y="126.63" width="4.38" height="2.43"/><rect class="cls-1" x="60.29" y="126.63" width="4.38" height="2.43"/><rect class="cls-1" x="64.67" y="129.07" width="2.43" height="4.38"/><rect class="cls-1" x="64.67" y="122.25" width="2.43" height="4.38"/><rect class="cls-1" x="97.25" y="126.63" width="4.38" height="2.43"/><rect class="cls-1" x="90.44" y="126.63" width="4.38" height="2.43"/><rect class="cls-1" x="94.82" y="129.07" width="2.43" height="4.38"/><rect class="cls-1" x="94.82" y="122.25" width="2.43" height="4.38"/><rect class="cls-1" x="6.82" y="157.2" width="4.38" height="2.43"/><rect class="cls-1" y="157.2" width="4.38" height="2.43"/><rect class="cls-1" x="4.38" y="159.63" width="2.43" height="4.38"/><rect class="cls-1" x="4.38" y="152.81" width="2.43" height="4.38"/><rect class="cls-1" x="36.96" y="157.2" width="4.38" height="2.43"/><rect class="cls-1" x="30.15" y="157.2" width="4.38" height="2.43"/><rect class="cls-1" x="34.53" y="159.63" width="2.43" height="4.38"/><rect class="cls-1" x="34.53" y="152.81" width="2.43" height="4.38"/><rect class="cls-1" x="67.11" y="157.2" width="4.38" height="2.43"/><rect class="cls-1" x="60.29" y="157.2" width="4.38" height="2.43"/><rect class="cls-1" x="64.67" y="159.63" width="2.43" height="4.38"/><rect class="cls-1" x="64.67" y="152.81" width="2.43" height="4.38"/><rect class="cls-1" x="97.25" y="157.2" width="4.38" height="2.43"/><rect class="cls-1" x="90.44" y="157.2" width="4.38" height="2.43"/><rect class="cls-1" x="94.82" y="159.63" width="2.43" height="4.38"/><rect class="cls-1" x="94.82" y="152.81" width="2.43" height="4.38"/><rect class="cls-1" x="127.4" y="96.07" width="4.38" height="2.43"/><rect class="cls-1" x="120.58" y="96.07" width="4.38" height="2.43"/><rect class="cls-1" x="124.97" y="98.5" width="2.43" height="4.38"/><rect class="cls-1" x="124.97" y="91.69" width="2.43" height="4.38"/><rect class="cls-1" x="157.55" y="96.07" width="4.38" height="2.43"/><rect class="cls-1" x="150.73" y="96.07" width="4.38" height="2.43"/><rect class="cls-1" x="155.11" y="98.5" width="2.43" height="4.38"/><rect class="cls-1" x="155.11" y="91.69" width="2.43" height="4.38"/><rect class="cls-1" x="187.69" y="96.07" width="4.38" height="2.43"/><rect class="cls-1" x="180.88" y="96.07" width="4.38" height="2.43"/><rect class="cls-1" x="185.26" y="98.5" width="2.43" height="4.38"/><rect class="cls-1" x="185.26" y="91.69" width="2.43" height="4.38"/><rect class="cls-1" x="217.84" y="96.07" width="4.38" height="2.43"/><rect class="cls-1" x="211.02" y="96.07" width="4.38" height="2.43"/><rect class="cls-1" x="215.4" y="98.5" width="2.43" height="4.38"/><rect class="cls-1" x="215.4" y="91.69" width="2.43" height="4.38"/><rect class="cls-1" x="127.4" y="126.63" width="4.38" height="2.43"/><rect class="cls-1" x="120.58" y="126.63" width="4.38" height="2.43"/><rect class="cls-1" x="124.97" y="129.07" width="2.43" height="4.38"/><rect class="cls-1" x="124.97" y="122.25" width="2.43" height="4.38"/><rect class="cls-1" x="157.55" y="126.63" width="4.38" height="2.43"/><rect class="cls-1" x="150.73" y="126.63" width="4.38" height="2.43"/><rect class="cls-1" x="155.11" y="129.07" width="2.43" height="4.38"/><rect class="cls-1" x="155.11" y="122.25" width="2.43" height="4.38"/><rect class="cls-1" x="187.69" y="126.63" width="4.38" height="2.43"/><rect class="cls-1" x="180.88" y="126.63" width="4.38" height="2.43"/><rect class="cls-1" x="185.26" y="129.07" width="2.43" height="4.38"/><rect class="cls-1" x="185.26" y="122.25" width="2.43" height="4.38"/><rect class="cls-1" x="217.84" y="126.63" width="4.38" height="2.43"/><rect class="cls-1" x="211.02" y="126.63" width="4.38" height="2.43"/><rect class="cls-1" x="215.4" y="129.07" width="2.43" height="4.38"/><rect class="cls-1" x="215.4" y="122.25" width="2.43" height="4.38"/><rect class="cls-1" x="127.4" y="157.2" width="4.38" height="2.43"/><rect class="cls-1" x="120.58" y="157.2" width="4.38" height="2.43"/><rect class="cls-1" x="124.97" y="159.63" width="2.43" height="4.38"/><rect class="cls-1" x="124.97" y="152.81" width="2.43" height="4.38"/><rect class="cls-1" x="157.55" y="157.2" width="4.38" height="2.43"/><rect class="cls-1" x="150.73" y="157.2" width="4.38" height="2.43"/><rect class="cls-1" x="155.11" y="159.63" width="2.43" height="4.38"/><rect class="cls-1" x="155.11" y="152.81" width="2.43" height="4.38"/><rect class="cls-1" x="187.69" y="157.2" width="4.38" height="2.43"/><rect class="cls-1" x="180.88" y="157.2" width="4.38" height="2.43"/><rect class="cls-1" x="185.26" y="159.63" width="2.43" height="4.38"/><rect class="cls-1" x="185.26" y="152.81" width="2.43" height="4.38"/><rect class="cls-1" x="217.84" y="157.2" width="4.38" height="2.43"/><rect class="cls-1" x="211.02" y="157.2" width="4.38" height="2.43"/><rect class="cls-1" x="215.4" y="159.63" width="2.43" height="4.38"/><rect class="cls-1" x="215.4" y="152.81" width="2.43" height="4.38"/><rect class="cls-1" x="6.82" y="187.76" width="4.38" height="2.43"/><rect class="cls-1" y="187.76" width="4.38" height="2.43"/><rect class="cls-1" x="4.38" y="190.19" width="2.43" height="4.38"/><rect class="cls-1" x="4.38" y="183.38" width="2.43" height="4.38"/><rect class="cls-1" x="36.96" y="187.76" width="4.38" height="2.43"/><rect class="cls-1" x="30.15" y="187.76" width="4.38" height="2.43"/><rect class="cls-1" x="34.53" y="190.19" width="2.43" height="4.38"/><rect class="cls-1" x="34.53" y="183.38" width="2.43" height="4.38"/><rect class="cls-1" x="67.11" y="187.76" width="4.38" height="2.43"/><rect class="cls-1" x="60.29" y="187.76" width="4.38" height="2.43"/><rect class="cls-1" x="64.67" y="190.19" width="2.43" height="4.38"/><rect class="cls-1" x="64.67" y="183.38" width="2.43" height="4.38"/><rect class="cls-1" x="97.25" y="187.76" width="4.38" height="2.43"/><rect class="cls-1" x="90.44" y="187.76" width="4.38" height="2.43"/><rect class="cls-1" x="94.82" y="190.19" width="2.43" height="4.38"/><rect class="cls-1" x="94.82" y="183.38" width="2.43" height="4.38"/><rect class="cls-1" x="127.4" y="187.76" width="4.38" height="2.43"/><rect class="cls-1" x="120.58" y="187.76" width="4.38" height="2.43"/><rect class="cls-1" x="124.97" y="190.19" width="2.43" height="4.38"/><rect class="cls-1" x="124.97" y="183.38" width="2.43" height="4.38"/><rect class="cls-1" x="157.55" y="187.76" width="4.38" height="2.43"/><rect class="cls-1" x="150.73" y="187.76" width="4.38" height="2.43"/><rect class="cls-1" x="155.11" y="190.19" width="2.43" height="4.38"/><rect class="cls-1" x="155.11" y="183.38" width="2.43" height="4.38"/><rect class="cls-1" x="187.69" y="187.76" width="4.38" height="2.43"/><rect class="cls-1" x="180.88" y="187.76" width="4.38" height="2.43"/><rect class="cls-1" x="185.26" y="190.19" width="2.43" height="4.38"/><rect class="cls-1" x="185.26" y="183.38" width="2.43" height="4.38"/><rect class="cls-1" x="217.84" y="187.76" width="4.38" height="2.43"/><rect class="cls-1" x="211.02" y="187.76" width="4.38" height="2.43"/><rect class="cls-1" x="215.4" y="190.19" width="2.43" height="4.38"/><rect class="cls-1" x="215.4" y="183.38" width="2.43" height="4.38"/></g><g class="cls-2"><rect class="cls-1" x="246.38" y="96.07" width="4.38" height="2.43"/><rect class="cls-1" x="239.57" y="96.07" width="4.38" height="2.43"/><rect class="cls-1" x="243.95" y="98.5" width="2.43" height="4.38"/><rect class="cls-1" x="243.95" y="91.69" width="2.43" height="4.38"/><rect class="cls-1" x="276.53" y="96.07" width="4.38" height="2.43"/><rect class="cls-1" x="269.71" y="96.07" width="4.38" height="2.43"/><rect class="cls-1" x="274.1" y="98.5" width="2.43" height="4.38"/><rect class="cls-1" x="274.1" y="91.69" width="2.43" height="4.38"/><rect class="cls-1" x="306.68" y="96.07" width="4.38" height="2.43"/><rect class="cls-1" x="299.86" y="96.07" width="4.38" height="2.43"/><rect class="cls-1" x="304.24" y="98.5" width="2.43" height="4.38"/><rect class="cls-1" x="304.24" y="91.69" width="2.43" height="4.38"/><rect class="cls-1" x="336.82" y="96.07" width="4.38" height="2.43"/><rect class="cls-1" x="330.01" y="96.07" width="4.38" height="2.43"/><rect class="cls-1" x="334.39" y="98.5" width="2.43" height="4.38"/><rect class="cls-1" x="334.39" y="91.69" width="2.43" height="4.38"/><rect class="cls-1" x="246.38" y="126.63" width="4.38" height="2.43"/><rect class="cls-1" x="239.57" y="126.63" width="4.38" height="2.43"/><rect class="cls-1" x="243.95" y="129.07" width="2.43" height="4.38"/><rect class="cls-1" x="243.95" y="122.25" width="2.43" height="4.38"/><rect class="cls-1" x="276.53" y="126.63" width="4.38" height="2.43"/><rect class="cls-1" x="269.71" y="126.63" width="4.38" height="2.43"/><rect class="cls-1" x="274.1" y="129.07" width="2.43" height="4.38"/><rect class="cls-1" x="274.1" y="122.25" width="2.43" height="4.38"/><rect class="cls-1" x="306.68" y="126.63" width="4.38" height="2.43"/><rect class="cls-1" x="299.86" y="126.63" width="4.38" height="2.43"/><rect class="cls-1" x="304.24" y="129.07" width="2.43" height="4.38"/><rect class="cls-1" x="304.24" y="122.25" width="2.43" height="4.38"/><rect class="cls-1" x="336.82" y="126.63" width="4.38" height="2.43"/><rect class="cls-1" x="330.01" y="126.63" width="4.38" height="2.43"/><rect class="cls-1" x="334.39" y="129.07" width="2.43" height="4.38"/><rect class="cls-1" x="334.39" y="122.25" width="2.43" height="4.38"/><rect class="cls-1" x="246.38" y="157.2" width="4.38" height="2.43"/><rect class="cls-1" x="239.57" y="157.2" width="4.38" height="2.43"/><rect class="cls-1" x="243.95" y="159.63" width="2.43" height="4.38"/><rect class="cls-1" x="243.95" y="152.81" width="2.43" height="4.38"/><rect class="cls-1" x="276.53" y="157.2" width="4.38" height="2.43"/><rect class="cls-1" x="269.71" y="157.2" width="4.38" height="2.43"/><rect class="cls-1" x="274.1" y="159.63" width="2.43" height="4.38"/><rect class="cls-1" x="274.1" y="152.81" width="2.43" height="4.38"/><rect class="cls-1" x="306.68" y="157.2" width="4.38" height="2.43"/><rect class="cls-1" x="299.86" y="157.2" width="4.38" height="2.43"/><rect class="cls-1" x="304.24" y="159.63" width="2.43" height="4.38"/><rect class="cls-1" x="304.24" y="152.81" width="2.43" height="4.38"/><rect class="cls-1" x="336.82" y="157.2" width="4.38" height="2.43"/><rect class="cls-1" x="330.01" y="157.2" width="4.38" height="2.43"/><rect class="cls-1" x="334.39" y="159.63" width="2.43" height="4.38"/><rect class="cls-1" x="334.39" y="152.81" width="2.43" height="4.38"/><rect class="cls-1" x="366.97" y="96.07" width="4.38" height="2.43"/><rect class="cls-1" x="360.15" y="96.07" width="4.38" height="2.43"/><rect class="cls-1" x="364.53" y="98.5" width="2.43" height="4.38"/><rect class="cls-1" x="364.53" y="91.69" width="2.43" height="4.38"/><rect class="cls-1" x="397.11" y="96.07" width="4.38" height="2.43"/><rect class="cls-1" x="390.3" y="96.07" width="4.38" height="2.43"/><rect class="cls-1" x="394.68" y="98.5" width="2.43" height="4.38"/><rect class="cls-1" x="394.68" y="91.69" width="2.43" height="4.38"/><rect class="cls-1" x="427.26" y="96.07" width="4.38" height="2.43"/><rect class="cls-1" x="420.44" y="96.07" width="4.38" height="2.43"/><rect class="cls-1" x="424.83" y="98.5" width="2.43" height="4.38"/><rect class="cls-1" x="424.83" y="91.69" width="2.43" height="4.38"/><rect class="cls-1" x="457.41" y="96.07" width="4.38" height="2.43"/><rect class="cls-1" x="450.59" y="96.07" width="4.38" height="2.43"/><rect class="cls-1" x="454.97" y="98.5" width="2.43" height="4.38"/><rect class="cls-1" x="454.97" y="91.69" width="2.43" height="4.38"/><rect class="cls-1" x="366.97" y="126.63" width="4.38" height="2.43"/><rect class="cls-1" x="360.15" y="126.63" width="4.38" height="2.43"/><rect class="cls-1" x="364.53" y="129.07" width="2.43" height="4.38"/><rect class="cls-1" x="364.53" y="122.25" width="2.43" height="4.38"/><rect class="cls-1" x="397.11" y="126.63" width="4.38" height="2.43"/><rect class="cls-1" x="390.3" y="126.63" width="4.38" height="2.43"/><rect class="cls-1" x="394.68" y="129.07" width="2.43" height="4.38"/><rect class="cls-1" x="394.68" y="122.25" width="2.43" height="4.38"/><rect class="cls-1" x="427.26" y="126.63" width="4.38" height="2.43"/><rect class="cls-1" x="420.44" y="126.63" width="4.38" height="2.43"/><rect class="cls-1" x="424.83" y="129.07" width="2.43" height="4.38"/><rect class="cls-1" x="424.83" y="122.25" width="2.43" height="4.38"/><rect class="cls-1" x="457.41" y="126.63" width="4.38" height="2.43"/><rect class="cls-1" x="450.59" y="126.63" width="4.38" height="2.43"/><rect class="cls-1" x="454.97" y="129.07" width="2.43" height="4.38"/><rect class="cls-1" x="454.97" y="122.25" width="2.43" height="4.38"/><rect class="cls-1" x="366.97" y="157.2" width="4.38" height="2.43"/><rect class="cls-1" x="360.15" y="157.2" width="4.38" height="2.43"/><rect class="cls-1" x="364.53" y="159.63" width="2.43" height="4.38"/><rect class="cls-1" x="364.53" y="152.81" width="2.43" height="4.38"/><rect class="cls-1" x="397.11" y="157.2" width="4.38" height="2.43"/><rect class="cls-1" x="390.3" y="157.2" width="4.38" height="2.43"/><rect class="cls-1" x="394.68" y="159.63" width="2.43" height="4.38"/><rect class="cls-1" x="394.68" y="152.81" width="2.43" height="4.38"/><rect class="cls-1" x="427.26" y="157.2" width="4.38" height="2.43"/><rect class="cls-1" x="420.44" y="157.2" width="4.38" height="2.43"/><rect class="cls-1" x="424.83" y="159.63" width="2.43" height="4.38"/><rect class="cls-1" x="424.83" y="152.81" width="2.43" height="4.38"/><rect class="cls-1" x="457.41" y="157.2" width="4.38" height="2.43"/><rect class="cls-1" x="450.59" y="157.2" width="4.38" height="2.43"/><rect class="cls-1" x="454.97" y="159.63" width="2.43" height="4.38"/><rect class="cls-1" x="454.97" y="152.81" width="2.43" height="4.38"/><rect class="cls-1" x="246.38" y="187.76" width="4.38" height="2.43"/><rect class="cls-1" x="239.57" y="187.76" width="4.38" height="2.43"/><rect class="cls-1" x="243.95" y="190.19" width="2.43" height="4.38"/><rect class="cls-1" x="243.95" y="183.38" width="2.43" height="4.38"/><rect class="cls-1" x="276.53" y="187.76" width="4.38" height="2.43"/><rect class="cls-1" x="269.71" y="187.76" width="4.38" height="2.43"/><rect class="cls-1" x="274.1" y="190.19" width="2.43" height="4.38"/><rect class="cls-1" x="274.1" y="183.38" width="2.43" height="4.38"/><rect class="cls-1" x="306.68" y="187.76" width="4.38" height="2.43"/><rect class="cls-1" x="299.86" y="187.76" width="4.38" height="2.43"/><rect class="cls-1" x="304.24" y="190.19" width="2.43" height="4.38"/><rect class="cls-1" x="304.24" y="183.38" width="2.43" height="4.38"/><rect class="cls-1" x="336.82" y="187.76" width="4.38" height="2.43"/><rect class="cls-1" x="330.01" y="187.76" width="4.38" height="2.43"/><rect class="cls-1" x="334.39" y="190.19" width="2.43" height="4.38"/><rect class="cls-1" x="334.39" y="183.38" width="2.43" height="4.38"/><rect class="cls-1" x="366.97" y="187.76" width="4.38" height="2.43"/><rect class="cls-1" x="360.15" y="187.76" width="4.38" height="2.43"/><rect class="cls-1" x="364.53" y="190.19" width="2.43" height="4.38"/><rect class="cls-1" x="364.53" y="183.38" width="2.43" height="4.38"/><rect class="cls-1" x="397.11" y="187.76" width="4.38" height="2.43"/><rect class="cls-1" x="390.3" y="187.76" width="4.38" height="2.43"/><rect class="cls-1" x="394.68" y="190.19" width="2.43" height="4.38"/><rect class="cls-1" x="394.68" y="183.38" width="2.43" height="4.38"/><rect class="cls-1" x="427.26" y="187.76" width="4.38" height="2.43"/><rect class="cls-1" x="420.44" y="187.76" width="4.38" height="2.43"/><rect class="cls-1" x="424.83" y="190.19" width="2.43" height="4.38"/><rect class="cls-1" x="424.83" y="183.38" width="2.43" height="4.38"/><rect class="cls-1" x="457.41" y="187.76" width="4.38" height="2.43"/><rect class="cls-1" x="450.59" y="187.76" width="4.38" height="2.43"/><rect class="cls-1" x="454.97" y="190.19" width="2.43" height="4.38"/><rect class="cls-1" x="454.97" y="183.38" width="2.43" height="4.38"/></g></g></g></svg>