<svg xmlns="http://www.w3.org/2000/svg" viewBox="0 0 52.57 91.14"><defs><style>.cls-1{fill:#bfff00;}</style></defs><title>scroll-down</title><g id="Layer_2" data-name="Layer 2"><g id="Layer_2-2" data-name="Layer 2"><path class="cls-1" d="M5.17,4.7A13.48,13.48,0,0,0,3.7,4.13a10,10,0,0,1-1.1-.39,2,2,0,0,1-.67-.48,1.09,1.09,0,0,1-.26-.75,1.1,1.1,0,0,1,.44-.93A2,2,0,0,1,3.3,1.26a1.64,1.64,0,0,1,1.14.39,1.35,1.35,0,0,1,.45,1.08v.18H6.34V2.74A2.46,2.46,0,0,0,5.49.69,3.39,3.39,0,0,0,3.29,0,3.51,3.51,0,0,0,1.07.67a2.32,2.32,0,0,0-.87,2A2.46,2.46,0,0,0,.59,4.07a2.59,2.59,0,0,0,1,.83A9.7,9.7,0,0,0,3,5.47a9.13,9.13,0,0,1,1.12.42,1.78,1.78,0,0,1,.69.51,1.23,1.23,0,0,1,.27.82A1.31,1.31,0,0,1,4.61,8.3a2.14,2.14,0,0,1-1.36.38A1.87,1.87,0,0,1,2,8.25,1.56,1.56,0,0,1,1.46,7V6.73H0V7A2.61,2.61,0,0,0,.91,9.22a3.67,3.67,0,0,0,2.34.72,3.78,3.78,0,0,0,2.41-.71A2.76,2.76,0,0,0,6.55,7a2.33,2.33,0,0,0-.4-1.43A2.77,2.77,0,0,0,5.17,4.7Z"/><path class="cls-1" d="M12.87,9.94A3.39,3.39,0,0,0,15.35,9a3.7,3.7,0,0,0,.93-2.73H14.9a2.6,2.6,0,0,1-.54,1.78,1.85,1.85,0,0,1-1.47.61c-1.56,0-2.35-1.12-2.35-3.36v-.7c0-2.24.78-3.36,2.33-3.36a1.82,1.82,0,0,1,1.44.62,2.67,2.67,0,0,1,.53,1.79h1.44A3.67,3.67,0,0,0,15.34.93,3.35,3.35,0,0,0,12.87,0,3.35,3.35,0,0,0,10,1.24,6,6,0,0,0,9.07,5,6,6,0,0,0,10,8.7,3.35,3.35,0,0,0,12.87,9.94Z"/><path class="cls-1" d="M20.61,5.6H23l1.72,4.17h1.56L24.33,5.33a2.45,2.45,0,0,0,1.23-.93A2.68,2.68,0,0,0,26,2.86a2.61,2.61,0,0,0-.75-2A2.93,2.93,0,0,0,23.11.17h-3.9v9.6h1.4Zm0-4.16H23a1.54,1.54,0,0,1,1.11.38,1.41,1.41,0,0,1,.37,1,1.45,1.45,0,0,1-.4,1.07A1.42,1.42,0,0,1,23,4.34H20.61Z"/><path class="cls-1" d="M32.39,9.94a3.45,3.45,0,0,0,2.84-1.25,5.87,5.87,0,0,0,1-3.72,5.87,5.87,0,0,0-1-3.72A3.45,3.45,0,0,0,32.39,0a3.47,3.47,0,0,0-2.85,1.25,5.87,5.87,0,0,0-1,3.72,5.87,5.87,0,0,0,1,3.72A3.47,3.47,0,0,0,32.39,9.94ZM30,4.62a4.22,4.22,0,0,1,.62-2.5,2.22,2.22,0,0,1,3.51,0,4.21,4.21,0,0,1,.63,2.5v.7a4.19,4.19,0,0,1-.63,2.5,2.22,2.22,0,0,1-3.51,0A4.2,4.2,0,0,1,30,5.32Z"/><polygon class="cls-1" points="40.61 0.17 39.21 0.17 39.21 9.77 44.59 9.77 44.59 8.47 40.61 8.47 40.61 0.17"/><polygon class="cls-1" points="48.59 8.47 48.59 0.17 47.19 0.17 47.19 9.77 52.57 9.77 52.57 8.47 48.59 8.47"/><path class="cls-1" d="M30.41,21.53H21.9A12.42,12.42,0,0,0,9.49,33.93V56.26A12.43,12.43,0,0,0,21.9,68.67h8.51a12.43,12.43,0,0,0,12.4-12.41V33.93A12.42,12.42,0,0,0,30.41,21.53Zm8.5,34.73h0a8.52,8.52,0,0,1-8.51,8.51H21.9a8.52,8.52,0,0,1-8.51-8.51V33.93a8.52,8.52,0,0,1,8.51-8.51h8.51a8.51,8.51,0,0,1,8.5,8.51Z"/><path class="cls-1" d="M26.15,32.58a2,2,0,0,0-1.95,2v5.79a2,2,0,0,0,3.9,0V34.53A2,2,0,0,0,26.15,32.58Z"/><path class="cls-1" d="M31.79,81.67,28.1,84.9V73.62a2,2,0,0,0-3.9,0V84.9l-3.69-3.23a1.95,1.95,0,0,0-2.57,2.93l6.93,6.06a2,2,0,0,0,1.28.48h0a1.92,1.92,0,0,0,1.28-.48l6.93-6.06a1.95,1.95,0,1,0-2.57-2.93Z"/></g></g></svg>