<svg xmlns="http://www.w3.org/2000/svg" xmlns:xlink="http://www.w3.org/1999/xlink" viewBox="0 0 412.33 121.44"><defs><style>.cls-1{fill:none;stroke:#bfff00;stroke-miterlimit:10;stroke-width:2px;}.cls-2{fill:#bfff00;}.cls-3{fill:url(#Degradado_sin_nombre_110);}.cls-4{fill:url(#Degradado_sin_nombre_110-2);}.cls-5{fill:url(#Degradado_sin_nombre_110-3);}</style><linearGradient id="Degradado_sin_nombre_110" x1="92.59" y1="85.96" x2="92.59" y2="34.53" gradientUnits="userSpaceOnUse"><stop offset="0" stop-color="#289c19"/><stop offset="1" stop-color="#bfff00"/></linearGradient><linearGradient id="Degradado_sin_nombre_110-2" x1="1523.91" y1="-1334.4" x2="1523.91" y2="-1398.55" gradientTransform="translate(-1955.04 -35.65) rotate(44.42)" xlink:href="#Degradado_sin_nombre_110"/><linearGradient id="Degradado_sin_nombre_110-3" x1="1536.13" y1="-1391.15" x2="1536.13" y2="-1330.25" gradientTransform="translate(-1955.04 -35.65) rotate(44.42)" xlink:href="#Degradado_sin_nombre_110"/></defs><title>Asset 17</title><g id="Layer_2" data-name="Layer 2"><g id="Layer_1-2" data-name="Layer 1"><rect class="cls-1" x="1" y="1" width="410.33" height="119.44"/><path class="cls-2" d="M178.22,52.31h6A5,5,0,0,1,188,53.66a5.54,5.54,0,0,1-.06,7.27,5,5,0,0,1-3.72,1.38h-3.55v6.82h-2.45Zm5.86,7.8a2.54,2.54,0,0,0,1.95-.78,2.9,2.9,0,0,0,.72-2.07,2.76,2.76,0,0,0-.7-2,2.61,2.61,0,0,0-2-.72h-3.41v5.57Z"/><path class="cls-2" d="M193.91,52.31h6.84a5.16,5.16,0,0,1,3.77,1.29A4.57,4.57,0,0,1,205.83,57a4.65,4.65,0,0,1-.78,2.69,4.35,4.35,0,0,1-2.16,1.65l3.33,7.77H203.5l-3-7.31h-4.12v7.31h-2.45Zm6.67,7.31a2.43,2.43,0,0,0,2.63-2.6,2.43,2.43,0,0,0-.67-1.82,2.61,2.61,0,0,0-1.93-.66h-4.25v5.08Z"/><path class="cls-2" d="M210.86,52.31h10.47v2.23h-8v4.88h6.94v2.21h-6.94V66.9h8.17v2.23H210.86Z"/><path class="cls-2" d="M227.1,67.26q-1.69-2.17-1.69-6.54t1.69-6.54a6.68,6.68,0,0,1,9.3-.54,6.51,6.51,0,0,1,1.64,4.8h-2.52a4.69,4.69,0,0,0-.94-3.14,3.15,3.15,0,0,0-2.52-1.08c-2.72,0-4.07,2-4.07,5.89v1.22q0,5.9,4.12,5.89a3.25,3.25,0,0,0,2.56-1.07,4.56,4.56,0,0,0,.94-3.12H238a6.44,6.44,0,0,1-1.63,4.78,6.71,6.71,0,0,1-9.31-.55Z"/><path class="cls-2" d="M243.08,52.31h2.45V69.13h-2.45Z"/><path class="cls-2" d="M252.4,67.23q-1.77-2.19-1.77-6.51t1.77-6.51a6.74,6.74,0,0,1,10,0q1.75,2.19,1.76,6.51t-1.76,6.51a6.74,6.74,0,0,1-10,0Zm8-1.52a7.37,7.37,0,0,0,1.1-4.38V60.11a7.37,7.37,0,0,0-1.1-4.38,3.89,3.89,0,0,0-6.15,0,7.37,7.37,0,0,0-1.09,4.38v1.22a7.37,7.37,0,0,0,1.09,4.38,3.89,3.89,0,0,0,6.15,0Z"/><path class="cls-3" d="M105,46.67a8.48,8.48,0,0,1,3.73,7.43H97.22a2.68,2.68,0,0,0-1.4-2.46,6.34,6.34,0,0,0-3-.71q-4.49,0-4.48,2.11,0,1.18,1.56,1.68A39.14,39.14,0,0,0,95,55.78a54.32,54.32,0,0,1,7.28,1.46,11.84,11.84,0,0,1,5.1,3,8,8,0,0,1,2.17,6q0,5.66-3.82,8.39a19.36,19.36,0,0,1-10.17,3.17L96,86.3H89l.43-8.58a20,20,0,0,1-9.88-3.45,9.16,9.16,0,0,1-3.92-7.86h11.5v.25a3.11,3.11,0,0,0,1.77,3,8.17,8.17,0,0,0,3.64.84q5.16,0,5.16-2.42c0-.83-.54-1.44-1.62-1.81A38.07,38.07,0,0,0,90.82,65a58.93,58.93,0,0,1-7.24-1.61,12,12,0,0,1-4.94-3,7.78,7.78,0,0,1-2.12-5.81q0-5.22,3.51-7.83a18.05,18.05,0,0,1,9.42-3.11L89,35.14h7l-.5,8.52A18.79,18.79,0,0,1,105,46.67Z"/><path class="cls-4" d="M67.5,84.1a34.29,34.29,0,1,1,50.18-46.76c9.83,4.48,16.53,13,16.63,23a41.72,41.72,0,1,0-83.43.85C51,71.06,57.67,79.62,67.5,84.1Z"/><path class="cls-5" d="M117.68,37.34A34.29,34.29,0,1,1,67.5,84.1c-9.83-4.48-16.52-13-16.62-22.95a41.72,41.72,0,1,0,83.43-.85C134.21,50.39,127.51,41.82,117.68,37.34Z"/></g></g></svg>