<svg xmlns="http://www.w3.org/2000/svg" xmlns:xlink="http://www.w3.org/1999/xlink" viewBox="0 0 412.33 121.44"><defs><style>.cls-1{fill:none;stroke:#bfff00;stroke-miterlimit:10;stroke-width:2px;}.cls-2{fill:#bfff00;}.cls-3{fill:url(#Degradado_sin_nombre_110);}.cls-4{fill:url(#Degradado_sin_nombre_110-2);}.cls-5{fill:url(#Degradado_sin_nombre_110-3);}.cls-6{fill:url(#Degradado_sin_nombre_110-4);}</style><linearGradient id="Degradado_sin_nombre_110" x1="1742.88" y1="-1424.62" x2="1742.88" y2="-1488.76" gradientTransform="translate(-2176.58 -124.47) rotate(44.42)" gradientUnits="userSpaceOnUse"><stop offset="0" stop-color="#289c19"/><stop offset="1" stop-color="#bfff00"/></linearGradient><linearGradient id="Degradado_sin_nombre_110-2" x1="1755.1" y1="-1481.37" x2="1755.1" y2="-1420.46" xlink:href="#Degradado_sin_nombre_110"/><linearGradient id="Degradado_sin_nombre_110-3" x1="-1157.63" y1="169" x2="-1157.63" y2="145.68" gradientTransform="translate(786.19 -861.61) rotate(-45)" xlink:href="#Degradado_sin_nombre_110"/><linearGradient id="Degradado_sin_nombre_110-4" x1="898.25" y1="-861.74" x2="898.25" y2="-906.09" gradientTransform="translate(-1165.17 50.97) rotate(45)" xlink:href="#Degradado_sin_nombre_110"/></defs><title>Asset 19</title><g id="Layer_2" data-name="Layer 2"><g id="Layer_1-2" data-name="Layer 1"><rect class="cls-1" x="1" y="1" width="410.33" height="119.44"/><path class="cls-2" d="M176.22,52.31h5.29a5.86,5.86,0,0,1,4.8,2.08,9.46,9.46,0,0,1,1.7,6.09q0,4.23-1.7,6.45a5.72,5.72,0,0,1-4.8,2.2h-5.29Zm5.07,14.59a3.6,3.6,0,0,0,3.06-1.47,7.29,7.29,0,0,0,1.09-4.34V59.86a6.24,6.24,0,0,0-1.09-4,3.72,3.72,0,0,0-3.06-1.35h-2.62V66.9Z"/><path class="cls-2" d="M193.09,52.31h2.46V69.13h-2.46Z"/><path class="cls-2" d="M202.09,68.17a4.63,4.63,0,0,1-1.59-3.84l0-.52h2.55l0,.49a2.75,2.75,0,0,0,.86,2.16,3.29,3.29,0,0,0,2.28.76,3.68,3.68,0,0,0,2.39-.67,2.3,2.3,0,0,0,.82-1.88,2.22,2.22,0,0,0-.47-1.45,3.43,3.43,0,0,0-1.21-.89,17.25,17.25,0,0,0-2-.73,18.12,18.12,0,0,1-2.55-1,4.56,4.56,0,0,1-1.67-1.46,4.29,4.29,0,0,1-.69-2.54,4,4,0,0,1,1.54-3.41A6.2,6.2,0,0,1,206.26,52a6,6,0,0,1,3.85,1.21,4.33,4.33,0,0,1,1.5,3.6v.29h-2.55V56.8a2.42,2.42,0,0,0-.77-1.89,2.89,2.89,0,0,0-2-.69,3.57,3.57,0,0,0-2.09.56,1.89,1.89,0,0,0-.78,1.62,1.93,1.93,0,0,0,.46,1.32,3.42,3.42,0,0,0,1.18.84,18.51,18.51,0,0,0,1.92.69,18.58,18.58,0,0,1,2.58,1,4.6,4.6,0,0,1,1.71,1.44,4.12,4.12,0,0,1,.71,2.5,4.81,4.81,0,0,1-1.56,4,6.6,6.6,0,0,1-4.23,1.25A6.43,6.43,0,0,1,202.09,68.17Z"/><path class="cls-2" d="M217,52.31h6a5.08,5.08,0,0,1,3.78,1.35,5.57,5.57,0,0,1-.06,7.27A5.06,5.06,0,0,1,223,62.32h-3.56v6.81H217Zm5.86,7.8a2.55,2.55,0,0,0,2-.77,3,3,0,0,0,.73-2.08,2.8,2.8,0,0,0-.7-2,2.64,2.64,0,0,0-2-.72h-3.41v5.57Z"/><path class="cls-2" d="M234.13,67.23q-1.77-2.19-1.77-6.51t1.77-6.51a6.73,6.73,0,0,1,10,0q1.77,2.19,1.77,6.51t-1.77,6.51a6.73,6.73,0,0,1-10,0Zm8.05-1.52a7.37,7.37,0,0,0,1.1-4.38V60.11a7.39,7.39,0,0,0-1.1-4.38,3.89,3.89,0,0,0-6.15,0,7.39,7.39,0,0,0-1.09,4.38v1.22A7.37,7.37,0,0,0,236,65.71a3.89,3.89,0,0,0,6.15,0Z"/><path class="cls-2" d="M251,52.31h2.16l5.91,10.15a8.11,8.11,0,0,1,.53,1.07l.4,1,.07,0-.05-2V52.31h2.21V69.13H260.1l-6-10.25c-.14-.26-.32-.63-.54-1.1s-.35-.8-.41-1l-.1,0q0,.23.06.81c0,.39,0,.78,0,1.15v10.3H251Z"/><path class="cls-2" d="M267.9,52.31h2.46V69.13H267.9Z"/><path class="cls-2" d="M276,52.31h6.65a5,5,0,0,1,2.28.51,3.91,3.91,0,0,1,1.58,1.46,4.05,4.05,0,0,1,.58,2.17,4.15,4.15,0,0,1-.72,2.43,3.72,3.72,0,0,1-1.85,1.42v.1a4.11,4.11,0,0,1,2.13,1.53,4.46,4.46,0,0,1,.83,2.72,4.3,4.3,0,0,1-.65,2.39,4.18,4.18,0,0,1-1.75,1.55,5.48,5.48,0,0,1-2.43.54H276Zm6,7.11a2.43,2.43,0,0,0,2.56-2.48,2.4,2.4,0,0,0-.64-1.79,2.5,2.5,0,0,0-1.77-.61h-3.63v4.88Zm.35,7.48a2.62,2.62,0,0,0,1.87-.67,2.46,2.46,0,0,0,.73-1.9,2.68,2.68,0,0,0-.75-1.92,2.65,2.65,0,0,0-2-.78h-3.68V66.9Z"/><path class="cls-2" d="M292.36,52.31h2.46V69.13h-2.46Z"/><path class="cls-2" d="M300.49,52.31H303V66.85h7v2.28h-9.42Z"/><path class="cls-2" d="M314.36,52.31h2.46V69.13h-2.46Z"/><path class="cls-2" d="M322.49,52.31h5.3a5.86,5.86,0,0,1,4.8,2.08,9.46,9.46,0,0,1,1.7,6.09q0,4.23-1.7,6.45a5.72,5.72,0,0,1-4.8,2.2h-5.3Zm5.08,14.59a3.6,3.6,0,0,0,3.06-1.47,7.29,7.29,0,0,0,1.09-4.34V59.86a6.24,6.24,0,0,0-1.09-4,3.72,3.72,0,0,0-3.06-1.35H325V66.9Z"/><path class="cls-2" d="M342.71,52.31h3.06l5.38,16.82h-2.63l-1.1-3.6h-6.53l-1.1,3.6h-2.45Zm4,11-2.11-6.9c-.08-.27-.17-.64-.26-1.09s-.14-.75-.16-.89h-.09c0,.14-.07.45-.16.91s-.18.81-.26,1.07l-2.13,6.9Z"/><path class="cls-2" d="M355.39,52.31h5.3a5.86,5.86,0,0,1,4.8,2.08,9.46,9.46,0,0,1,1.7,6.09q0,4.23-1.7,6.45a5.72,5.72,0,0,1-4.8,2.2h-5.3Zm5.08,14.59a3.57,3.57,0,0,0,3-1.47,7.22,7.22,0,0,0,1.09-4.34V59.86a6.18,6.18,0,0,0-1.09-4,3.69,3.69,0,0,0-3-1.35h-2.62V66.9Z"/><path class="cls-3" d="M65.5,84.1a34.29,34.29,0,1,1,50.18-46.76c9.83,4.48,16.53,13,16.63,23a41.72,41.72,0,1,0-83.43.85C49,71.06,55.67,79.62,65.5,84.1Z"/><path class="cls-4" d="M115.68,37.34A34.29,34.29,0,1,1,65.5,84.1c-9.83-4.48-16.52-13-16.62-22.95a41.72,41.72,0,1,0,83.43-.85C132.21,50.39,125.51,41.82,115.68,37.34Z"/><path class="cls-5" d="M89.92,72.42l-7,8.41L68.14,62.92h0a8.7,8.7,0,0,1,13.92,0Z"/><polygon class="cls-6" points="82.96 80.83 76 72.42 106.75 42.23 110.83 47.16 82.96 80.83"/></g></g></svg>