<svg xmlns="http://www.w3.org/2000/svg" xmlns:xlink="http://www.w3.org/1999/xlink" viewBox="0 0 412.33 121.44"><defs><style>.cls-1{fill:none;stroke:#bfff00;stroke-miterlimit:10;stroke-width:2px;}.cls-2{fill:#bfff00;}.cls-3{fill:url(#Degradado_sin_nombre_110);}.cls-4{fill:url(#Degradado_sin_nombre_110-2);}.cls-5{fill:url(#Degradado_sin_nombre_110-3);}.cls-6{fill:url(#Degradado_sin_nombre_110-4);}.cls-7{fill:url(#Degradado_sin_nombre_110-5);}</style><linearGradient id="Degradado_sin_nombre_110" x1="1638.62" y1="-1381.64" x2="1638.62" y2="-1445.79" gradientTransform="translate(-2071.04 -82.19) rotate(44.42)" gradientUnits="userSpaceOnUse"><stop offset="0" stop-color="#289c19"/><stop offset="1" stop-color="#bfff00"/></linearGradient><linearGradient id="Degradado_sin_nombre_110-2" x1="1650.84" y1="-1438.39" x2="1650.84" y2="-1377.49" xlink:href="#Degradado_sin_nombre_110"/><linearGradient id="Degradado_sin_nombre_110-3" x1="-343.97" y1="228.5" x2="-343.97" y2="212.97" gradientTransform="translate(351.99 -243.88) rotate(-19.03)" xlink:href="#Degradado_sin_nombre_110"/><linearGradient id="Degradado_sin_nombre_110-4" x1="-1570.84" y1="-194.74" x2="-1570.84" y2="-210.27" gradientTransform="matrix(-0.95, -0.33, -0.33, 0.95, -1466.63, -243.88)" xlink:href="#Degradado_sin_nombre_110"/><linearGradient id="Degradado_sin_nombre_110-5" x1="91.59" y1="74.04" x2="91.59" y2="34.71" gradientTransform="matrix(1, 0, 0, 1, 0, 0)" xlink:href="#Degradado_sin_nombre_110"/></defs><title>Asset 18</title><g id="Layer_2" data-name="Layer 2"><g id="Layer_1-2" data-name="Layer 1"><rect class="cls-1" x="1" y="1" width="410.33" height="119.44"/><path class="cls-2" d="M178.22,67.26q-1.69-2.17-1.69-6.54t1.69-6.54a6.68,6.68,0,0,1,9.3-.54,6.51,6.51,0,0,1,1.64,4.8h-2.53a4.69,4.69,0,0,0-.93-3.14,3.15,3.15,0,0,0-2.52-1.08q-4.08,0-4.08,5.89v1.22c0,3.93,1.38,5.89,4.12,5.89a3.27,3.27,0,0,0,2.57-1.07,4.56,4.56,0,0,0,.94-3.12h2.43a6.44,6.44,0,0,1-1.63,4.78,6.71,6.71,0,0,1-9.31-.55Z"/><path class="cls-2" d="M197.75,52.31h3.07l5.37,16.82h-2.62l-1.11-3.6h-6.52l-1.11,3.6h-2.45Zm4,11-2.11-6.9a9.89,9.89,0,0,1-.26-1.09c-.09-.45-.14-.75-.16-.89h-.1c0,.14-.07.45-.16.9s-.17.82-.25,1.08l-2.14,6.9Z"/><path class="cls-2" d="M210.44,52.31h2.45V66.85h7v2.28h-9.42Z"/><path class="cls-2" d="M224.31,52.31h2.45V69.13h-2.45Z"/><path class="cls-2" d="M232.44,52.31h5.3a5.82,5.82,0,0,1,4.79,2.08,9.41,9.41,0,0,1,1.71,6.09q0,4.23-1.71,6.45a5.69,5.69,0,0,1-4.79,2.2h-5.3Zm5.08,14.59a3.59,3.59,0,0,0,3-1.47,7.22,7.22,0,0,0,1.09-4.34V59.86a6.18,6.18,0,0,0-1.09-4,3.71,3.71,0,0,0-3-1.35h-2.63V66.9Z"/><path class="cls-2" d="M252.65,52.31h3.07l5.37,16.82h-2.62l-1.11-3.6h-6.52l-1.11,3.6h-2.45Zm4,11-2.11-6.9a9.89,9.89,0,0,1-.26-1.09c-.09-.45-.14-.75-.16-.89h-.1c0,.14-.07.45-.16.9a8.64,8.64,0,0,1-.26,1.08l-2.13,6.9Z"/><path class="cls-2" d="M265.34,52.31h5.3a5.84,5.84,0,0,1,4.79,2.08,9.41,9.41,0,0,1,1.71,6.09q0,4.23-1.71,6.45a5.7,5.7,0,0,1-4.79,2.2h-5.3Zm5.08,14.59a3.59,3.59,0,0,0,3.05-1.47,7.22,7.22,0,0,0,1.09-4.34V59.86a6.18,6.18,0,0,0-1.09-4,3.71,3.71,0,0,0-3.05-1.35h-2.63V66.9Z"/><path class="cls-3" d="M66.5,84.1a34.29,34.29,0,1,1,50.18-46.76c9.83,4.48,16.53,13,16.63,23a41.72,41.72,0,1,0-83.43.85C50,71.06,56.67,79.62,66.5,84.1Z"/><path class="cls-4" d="M116.68,37.34A34.29,34.29,0,1,1,66.5,84.1c-9.83-4.48-16.52-13-16.62-22.95a41.72,41.72,0,1,0,83.43-.85C133.21,50.39,126.51,41.82,116.68,37.34Z"/><polygon class="cls-5" points="96.34 69.8 91.59 71.43 96.63 86.04 100.27 81.17 106.13 82.76 101.09 68.16 96.34 69.8"/><polygon class="cls-6" points="86.84 69.8 91.59 71.43 86.56 86.04 82.92 81.17 77.06 82.76 82.1 68.16 86.84 69.8"/><path class="cls-7" d="M110.57,55.76a1.1,1.1,0,0,0,0-2,1.1,1.1,0,0,1-.2-1.93,1.11,1.11,0,0,0-.43-2h0a1.1,1.1,0,0,1-.6-1.84,1.1,1.1,0,0,0-.82-1.86,1.1,1.1,0,0,1-1-1.68,1.1,1.1,0,0,0-1.2-1.65,1.11,1.11,0,0,1-1.3-1.45h0A1.1,1.1,0,0,0,103.53,40,1.1,1.1,0,0,1,102,38.81a1.1,1.1,0,0,0-1.76-1A1.1,1.1,0,0,1,98.43,37a1.1,1.1,0,0,0-1.94-.63,1.1,1.1,0,0,1-1.9-.4,1.1,1.1,0,0,0-2-.21,1.1,1.1,0,0,1-1.94,0,1.09,1.09,0,0,0-2,.21,1.1,1.1,0,0,1-1.9.4,1.1,1.1,0,0,0-1.94.63,1.1,1.1,0,0,1-1.77.79,1.1,1.1,0,0,0-1.77,1A1.1,1.1,0,0,1,79.65,40a1.1,1.1,0,0,0-1.51,1.36,1.11,1.11,0,0,1-1.3,1.45,1.1,1.1,0,0,0-1.2,1.65,1.1,1.1,0,0,1-1,1.68A1.1,1.1,0,0,0,73.84,48a1.1,1.1,0,0,1-.6,1.84h0a1.1,1.1,0,0,0-.42,2,1.1,1.1,0,0,1-.21,1.93,1.1,1.1,0,0,0,0,2,1.09,1.09,0,0,1,.21,1.92,1.1,1.1,0,0,0,.42,2,1.1,1.1,0,0,1,.6,1.84,1.11,1.11,0,0,0,.83,1.87,1.1,1.1,0,0,1,1,1.68,1.1,1.1,0,0,0,1.2,1.65,1.1,1.1,0,0,1,1.3,1.44,1.09,1.09,0,0,0,1.51,1.36,1.1,1.1,0,0,1,1.57,1.14,1.1,1.1,0,0,0,1.77,1,1.1,1.1,0,0,1,1.77.79,1.1,1.1,0,0,0,1.94.63,1.1,1.1,0,0,1,1.9.4,1.1,1.1,0,0,0,2,.22,1.1,1.1,0,0,1,1.94,0,1.1,1.1,0,0,0,2-.22,1.1,1.1,0,0,1,1.9-.4,1.1,1.1,0,0,0,1.94-.63,1.1,1.1,0,0,1,1.77-.79,1.1,1.1,0,0,0,1.76-1,1.1,1.1,0,0,1,1.57-1.14,1.1,1.1,0,0,0,1.52-1.36h0a1.1,1.1,0,0,1,1.3-1.44,1.11,1.11,0,0,0,1.2-1.65,1.1,1.1,0,0,1,1-1.68,1.1,1.1,0,0,0,.82-1.87,1.1,1.1,0,0,1,.6-1.84,1.11,1.11,0,0,0,.43-2A1.09,1.09,0,0,1,110.57,55.76Zm-19,9.86a10.89,10.89,0,1,1,10.89-10.88A10.88,10.88,0,0,1,91.59,65.62Z"/></g></g></svg>