<svg xmlns="http://www.w3.org/2000/svg" xmlns:xlink="http://www.w3.org/1999/xlink" viewBox="0 0 412.33 121.44"><defs><style>.cls-1{fill:none;stroke:#bfff00;stroke-miterlimit:10;stroke-width:2px;}.cls-2{fill:#bfff00;}.cls-3{fill:url(#Degradado_sin_nombre_110);}.cls-4{fill:url(#Degradado_sin_nombre_110-2);}.cls-5{fill:url(#Degradado_sin_nombre_110-3);}</style><linearGradient id="Degradado_sin_nombre_110" x1="1851.01" y1="-1469.17" x2="1851.01" y2="-1533.31" gradientTransform="translate(-2286 -168.32) rotate(44.42)" gradientUnits="userSpaceOnUse"><stop offset="0" stop-color="#289c19"/><stop offset="1" stop-color="#bfff00"/></linearGradient><linearGradient id="Degradado_sin_nombre_110-2" x1="1863.23" y1="-1525.92" x2="1863.23" y2="-1465.01" xlink:href="#Degradado_sin_nombre_110"/><linearGradient id="Degradado_sin_nombre_110-3" x1="86.82" y1="81.14" x2="86.82" y2="33.94" gradientTransform="matrix(1, 0, 0, 1, 0, 0)" xlink:href="#Degradado_sin_nombre_110"/></defs><title>Asset 20</title><g id="Layer_2" data-name="Layer 2"><g id="Layer_1-2" data-name="Layer 1"><rect class="cls-1" x="1" y="1" width="410.33" height="119.44"/><path class="cls-2" d="M175.22,52.31h10.47v2.23h-8v4.88h6.94v2.21h-6.94V66.9h8.17v2.23H175.22Z"/><path class="cls-2" d="M195.05,60.38l-4.71-8.07h2.85l3.36,5.83h0L200,52.31h2.6l-4.71,7.92,5.23,8.9H200.3l-3.85-6.69h0l-3.92,6.69h-2.6Z"/><path class="cls-2" d="M207.73,67.26c-1.12-1.45-1.69-3.63-1.69-6.54s.57-5.09,1.69-6.54a6.68,6.68,0,0,1,9.3-.54,6.51,6.51,0,0,1,1.64,4.8h-2.52a4.64,4.64,0,0,0-.94-3.14,3.15,3.15,0,0,0-2.52-1.08c-2.72,0-4.07,2-4.07,5.89v1.22q0,5.9,4.12,5.89a3.25,3.25,0,0,0,2.56-1.07,4.56,4.56,0,0,0,.94-3.12h2.43A6.44,6.44,0,0,1,217,67.81a6.71,6.71,0,0,1-9.31-.55Z"/><path class="cls-2" d="M223.72,52.31h10.47v2.23h-8v4.88h6.94v2.21h-6.94V66.9h8.17v2.23H223.72Z"/><path class="cls-2" d="M239.26,52.31h2.45V66.85h7v2.28h-9.42Z"/><path class="cls-2" d="M253.17,52.31h10.47v2.23h-8v4.88h6.94v2.21h-6.94V66.9h8.17v2.23H253.17Z"/><path class="cls-2" d="M268.71,52.31h2.16l5.91,10.15a8.11,8.11,0,0,1,.53,1.07c.2.48.34.8.4,1l.08,0-.05-2V52.31h2.2V69.13h-2.11l-6-10.25c-.14-.26-.32-.63-.54-1.1s-.35-.8-.41-1l-.1,0q0,.23.06.81c0,.39,0,.78,0,1.15v10.3h-2.21Z"/><path class="cls-2" d="M286.75,67.26q-1.69-2.17-1.7-6.54t1.7-6.54a6.67,6.67,0,0,1,9.29-.54,6.47,6.47,0,0,1,1.64,4.8h-2.52a4.69,4.69,0,0,0-.93-3.14,3.19,3.19,0,0,0-2.53-1.08q-4.06,0-4.07,5.89v1.22q0,5.9,4.12,5.89a3.25,3.25,0,0,0,2.56-1.07,4.57,4.57,0,0,0,.95-3.12h2.42a6.44,6.44,0,0,1-1.63,4.78,6.69,6.69,0,0,1-9.3-.55Z"/><path class="cls-2" d="M302.72,52.31h2.45V69.13h-2.45Z"/><path class="cls-2" d="M314.75,52.31h3.07l5.37,16.82h-2.62l-1.11-3.6h-6.52l-1.1,3.6h-2.46Zm4,11-2.11-6.9c-.08-.27-.17-.64-.26-1.09s-.14-.75-.16-.89h-.1c0,.14-.07.45-.16.9s-.17.82-.25,1.08l-2.14,6.9Z"/><path class="cls-3" d="M64.5,84.1a34.29,34.29,0,1,1,50.18-46.76c9.83,4.48,16.53,13,16.63,23a41.72,41.72,0,1,0-83.43.85C48,71.06,54.67,79.62,64.5,84.1Z"/><path class="cls-4" d="M114.68,37.34A34.29,34.29,0,1,1,64.5,84.1c-9.83-4.48-16.52-13-16.62-22.95a41.72,41.72,0,1,0,83.43-.85C131.21,50.39,124.51,41.82,114.68,37.34Z"/><path class="cls-5" d="M103.83,67.83l-.1-22.28a2,2,0,0,0-1.37-2,2,2,0,0,0-.81-.17,2.14,2.14,0,0,0-2.13,2.18l.06,12.59a1.13,1.13,0,0,1-1.09,1.09.71.71,0,0,1-.38-.06,1.19,1.19,0,0,1-.71-1l-.11-19.07a2,2,0,0,0-1.36-2,2,2,0,0,0-.82-.16,2.14,2.14,0,0,0-2.13,2.18L93,58.3a1.1,1.1,0,0,1-.32.76,1.08,1.08,0,0,1-.77.33.74.74,0,0,1-.38-.06,1.23,1.23,0,0,1-.71-1V37.05a2,2,0,0,0-1.36-2,2.11,2.11,0,0,0-2.94,2l.11,21.2a1.13,1.13,0,0,1-1.09,1.09.74.74,0,0,1-.38-.06,1.21,1.21,0,0,1-.71-1s.71-8.93-6.32-9.48a7.57,7.57,0,0,0-7.9,4.85c-1.74,5.61,2.56,6.59,3.7,4.36a5,5,0,0,0,.22-2.18C74,54.37,75.45,52.79,78,53.45c2.72.65,2.23,6.1,2.23,6.1h0v5.34a.42.42,0,0,1-.27.38c-3.87,0-3.68-5-5.51-6.16a1.49,1.49,0,0,0-1-.21,2.44,2.44,0,0,0-1.58.54A2.8,2.8,0,0,0,71,62.65c.11.22,2.29,5.13,2.29,5.13l10.3,14.6a3.6,3.6,0,0,0,1.63,1.36,3.37,3.37,0,0,0,1.31.22L97,83.9a3.44,3.44,0,0,0,3.32-2.56l3.54-13.51Z"/></g></g></svg>